<svg width="21" height="20" viewBox="0 0 21 20" fill="none" xmlns="http://www.w3.org/2000/svg">
<rect x="0.521484" width="20" height="20" rx="10" fill="#007CFF"/>
<path fill-rule="evenodd" clip-rule="evenodd" d="M10.3133 6.66667C11.0037 6.66667 11.5633 6.10703 11.5633 5.41667C11.5633 4.72632 11.0037 4.16667 10.3133 4.16667C9.62296 4.16667 9.06331 4.72632 9.06331 5.41667C9.06331 6.10703 9.62296 6.66667 10.3133 6.66667Z" fill="white"/>
<path fill-rule="evenodd" clip-rule="evenodd" d="M8.85498 8.75C8.85498 8.28977 9.22808 7.91667 9.68831 7.91667H10.5216C10.9819 7.91667 11.355 8.28977 11.355 8.75V14.5833C11.355 15.0436 10.9819 15.4167 10.5216 15.4167C10.0614 15.4167 9.68831 15.0436 9.68831 14.5833V9.58334C9.22808 9.58334 8.85498 9.21024 8.85498 8.75Z" fill="white"/>
</svg>
