<svg width="163" height="48" viewBox="0 0 163 48" fill="none" xmlns="http://www.w3.org/2000/svg">
<g clip-path="url(#clip0_31_562133)">
<path d="M0 6.4C0 2.86538 2.88449 0 6.44269 0H156.557C160.116 0 163 2.86538 163 6.4V41.6C163 45.1346 160.116 48 156.557 48H6.44269C2.88449 48 0 45.1346 0 41.6V6.4Z" fill="white"/>
<path fill-rule="evenodd" clip-rule="evenodd" d="M0 41.6V6.4C0 2.86538 2.88449 0 6.44269 0H156.557C160.116 0 163 2.86538 163 6.4V41.6C163 45.1346 160.116 48 156.557 48H6.44269C2.88449 48 0 45.1346 0 41.6ZM0.966403 41.6V6.4C0.966403 3.39557 3.41822 0.96 6.44269 0.96H156.557C159.582 0.96 162.034 3.39557 162.034 6.4V41.6C162.034 44.6044 159.582 47.04 156.557 47.04H6.44269C3.41822 47.04 0.966403 44.6044 0.966403 41.6Z" fill="black" fill-opacity="0.1"/>
<path fill-rule="evenodd" clip-rule="evenodd" d="M20.3454 8.80005C14.0583 8.80005 11.7588 11.084 11.7588 17.3281V30.672C11.7588 36.9161 14.0583 39.2 20.3454 39.2H33.7708C40.0577 39.2 42.3616 36.9161 42.3616 30.672V17.3281C42.3616 11.084 40.062 8.80005 33.7749 8.80005H20.3454Z" fill="url(#paint0_linear_31_562133)"/>
<path fill-rule="evenodd" clip-rule="evenodd" d="M25.1077 26.4314H26.3363L25.7199 25.0074L25.1077 26.4314ZM24.8051 27.149L24.4406 27.9775H23.6107L25.3755 24.0002H26.0928L27.8504 27.9775H26.9984L26.6386 27.149H24.8051ZM38.1592 27.9746H38.9613V24H38.1592V27.9746ZM34.9669 26.2672H36.4454V25.5425H34.9669V24.7279H37.1132V24.0029H34.165V27.9773H37.1904V27.2523H34.9669V26.2672ZM31.7799 26.7368L30.8706 24H30.207L29.2977 26.7368L28.4127 24.0022H27.5474L28.944 27.9797H29.6167L30.5275 25.367L31.4383 27.9797H32.1169L33.5098 24.0022H32.6669L31.7799 26.7368ZM22.3863 26.2782C22.3863 26.9252 22.0629 27.2709 21.4755 27.2709C20.885 27.2709 20.5598 26.9151 20.5598 26.2506V24.0027H19.7469V26.2782C19.7469 27.3975 20.3731 28.0393 21.4645 28.0393C22.5666 28.0393 23.1985 27.3852 23.1985 26.2449V24.0002H22.3863V26.2782ZM17.8075 24.0002H18.6199V27.98H17.8075V26.3637H15.9721V27.98H15.1592V24.0002H15.9721V25.6055H17.8075V24.0002Z" fill="white"/>
<path fill-rule="evenodd" clip-rule="evenodd" d="M27.0604 18.9334C24.2477 18.9334 21.96 16.6605 21.96 13.8667H22.6804C22.6804 16.2656 24.6455 18.2174 27.0604 18.2174C29.4754 18.2174 31.4404 16.2656 31.4404 13.8667H32.1609C32.1609 16.6605 29.8729 18.9334 27.0604 18.9334Z" fill="white"/>
<path d="M58.7016 35.8399L57.3237 32.0337H52.0481L50.6986 35.8399H48.3203L53.4826 22.0774H55.9364L61.0987 35.8399H58.7016ZM56.7292 30.1024L55.4362 26.3712C55.3418 26.1212 55.2097 25.7274 55.0398 25.1899C54.8763 24.6524 54.763 24.2587 54.7001 24.0087C54.5302 24.7774 54.2817 25.6181 53.9545 26.5306L52.7088 30.1024H56.7292Z" fill="black"/>
<path d="M67.6888 36.0274C66.3675 36.0274 65.342 35.5556 64.6121 34.6118H64.48C64.5681 35.4868 64.6121 36.0181 64.6121 36.2056V40.4524H62.3943V25.4712H64.1874C64.2378 25.6649 64.3416 26.1274 64.4989 26.8587H64.6121C65.3042 25.8087 66.3424 25.2837 67.7265 25.2837C69.0289 25.2837 70.0419 25.7524 70.7654 26.6899C71.4952 27.6274 71.8602 28.9431 71.8602 30.6368C71.8602 32.3306 71.489 33.6524 70.7465 34.6024C70.0104 35.5524 68.9911 36.0274 67.6888 36.0274ZM67.1508 27.0837C66.27 27.0837 65.6251 27.3399 65.2161 27.8524C64.8135 28.3649 64.6121 29.1837 64.6121 30.3087V30.6368C64.6121 31.8993 64.8135 32.8149 65.2161 33.3837C65.6188 33.9462 66.2763 34.2274 67.1886 34.2274C67.9562 34.2274 68.5476 33.9149 68.9628 33.2899C69.3781 32.6649 69.5857 31.7743 69.5857 30.6181C69.5857 29.4556 69.3781 28.5774 68.9628 27.9837C68.5539 27.3837 67.9499 27.0837 67.1508 27.0837Z" fill="black"/>
<path d="M79.4411 36.0274C78.1199 36.0274 77.0943 35.5556 76.3645 34.6118H76.2324C76.3205 35.4868 76.3645 36.0181 76.3645 36.2056V40.4524H74.1467V25.4712H75.9398C75.9901 25.6649 76.094 26.1274 76.2513 26.8587H76.3645C77.0566 25.8087 78.0947 25.2837 79.4789 25.2837C80.7813 25.2837 81.7942 25.7524 82.5178 26.6899C83.2476 27.6274 83.6125 28.9431 83.6125 30.6368C83.6125 32.3306 83.2413 33.6524 82.4989 34.6024C81.7628 35.5524 80.7435 36.0274 79.4411 36.0274ZM78.9032 27.0837C78.0224 27.0837 77.3775 27.3399 76.9685 27.8524C76.5658 28.3649 76.3645 29.1837 76.3645 30.3087V30.6368C76.3645 31.8993 76.5658 32.8149 76.9685 33.3837C77.3712 33.9462 78.0287 34.2274 78.941 34.2274C79.7085 34.2274 80.3 33.9149 80.7152 33.2899C81.1305 32.6649 81.3381 31.7743 81.3381 30.6181C81.3381 29.4556 81.1305 28.5774 80.7152 27.9837C80.3062 27.3837 79.7022 27.0837 78.9032 27.0837Z" fill="black"/>
<path d="M91.7786 28.4056H96.856V35.2868C96.0255 35.5556 95.2265 35.7462 94.4589 35.8587C93.6976 35.9712 92.8734 36.0274 91.9863 36.0274C89.8974 36.0274 88.2868 35.4149 87.1542 34.1899C86.0217 32.9587 85.4555 31.2243 85.4555 28.9868C85.4555 26.7806 86.0941 25.0556 87.3713 23.8118C88.6485 22.5618 90.4071 21.9368 92.6469 21.9368C94.0877 21.9368 95.453 22.2118 96.7428 22.7618L95.95 24.6274C94.8301 24.1149 93.7102 23.8587 92.5903 23.8587C91.118 23.8587 89.954 24.3181 89.0984 25.2368C88.2427 26.1556 87.8149 27.4118 87.8149 29.0056C87.8149 30.6806 88.1987 31.9556 88.9663 32.8306C89.7401 33.6993 90.8506 34.1337 92.2977 34.1337C93.0275 34.1337 93.8077 34.0431 94.6382 33.8618V30.3274H91.7786V28.4056Z" fill="black"/>
<path d="M106.183 35.8399L105.739 34.3962H105.664C105.161 35.0274 104.654 35.4587 104.144 35.6899C103.635 35.9149 102.98 36.0274 102.181 36.0274C101.156 36.0274 100.354 35.7524 99.7749 35.2024C99.2023 34.6524 98.9161 33.8743 98.9161 32.8681C98.9161 31.7993 99.3156 30.9931 100.115 30.4493C100.914 29.9056 102.131 29.6087 103.767 29.5587L105.57 29.5024V28.9493C105.57 28.2868 105.412 27.7931 105.098 27.4681C104.789 27.1368 104.308 26.9712 103.654 26.9712C103.119 26.9712 102.606 27.0493 102.115 27.2056C101.625 27.3618 101.153 27.5462 100.7 27.7587L99.9825 26.1837C100.549 25.8899 101.168 25.6681 101.842 25.5181C102.515 25.3618 103.15 25.2837 103.748 25.2837C105.076 25.2837 106.076 25.5712 106.749 26.1462C107.429 26.7212 107.768 27.6243 107.768 28.8556V35.8399H106.183ZM102.88 34.3399C103.685 34.3399 104.33 34.1181 104.815 33.6743C105.305 33.2243 105.551 32.5962 105.551 31.7899V30.8899L104.211 30.9462C103.166 30.9837 102.405 31.1587 101.927 31.4712C101.455 31.7774 101.219 32.2493 101.219 32.8868C101.219 33.3493 101.357 33.7087 101.634 33.9649C101.911 34.2149 102.326 34.3399 102.88 34.3399Z" fill="black"/>
<path d="M112.792 35.8399H110.574V21.2524H112.792V35.8399Z" fill="black"/>
<path d="M117.9 35.8399H115.682V21.2524H117.9V35.8399Z" fill="black"/>
<path d="M125.349 36.0274C123.726 36.0274 122.455 35.5587 121.536 34.6212C120.624 33.6774 120.168 32.3806 120.168 30.7306C120.168 29.0368 120.593 27.7056 121.442 26.7368C122.291 25.7681 123.458 25.2837 124.943 25.2837C126.321 25.2837 127.41 25.6993 128.209 26.5306C129.008 27.3618 129.407 28.5056 129.407 29.9618V31.1524H122.452C122.483 32.1587 122.757 32.9337 123.273 33.4774C123.789 34.0149 124.515 34.2837 125.453 34.2837C126.069 34.2837 126.642 34.2274 127.171 34.1149C127.705 33.9962 128.278 33.8024 128.888 33.5337V35.3243C128.347 35.5806 127.8 35.7618 127.246 35.8681C126.692 35.9743 126.06 36.0274 125.349 36.0274ZM124.943 26.9524C124.239 26.9524 123.672 27.1743 123.244 27.6181C122.823 28.0618 122.571 28.7087 122.49 29.5587H127.227C127.215 28.7024 127.007 28.0556 126.604 27.6181C126.202 27.1743 125.648 26.9524 124.943 26.9524Z" fill="black"/>
<path d="M136.932 25.2837C137.378 25.2837 137.746 25.3149 138.036 25.3774L137.819 27.4306C137.504 27.3556 137.177 27.3181 136.837 27.3181C135.95 27.3181 135.23 27.6056 134.676 28.1806C134.129 28.7556 133.855 29.5024 133.855 30.4212V35.8399H131.637V25.4712H133.374L133.666 27.2993H133.779C134.125 26.6806 134.575 26.1899 135.129 25.8274C135.689 25.4649 136.29 25.2837 136.932 25.2837Z" fill="black"/>
<path d="M138.104 25.4712H140.52L142.644 31.3493C142.965 32.1868 143.179 32.9743 143.286 33.7118H143.361C143.418 33.3681 143.522 32.9524 143.673 32.4649C143.824 31.9712 144.623 29.6399 146.07 25.4712H148.467L144.003 37.2181C143.191 39.3743 141.839 40.4524 139.945 40.4524C139.454 40.4524 138.976 40.3993 138.51 40.2931V38.5493C138.844 38.6243 139.224 38.6618 139.652 38.6618C140.722 38.6618 141.474 38.0462 141.908 36.8149L142.295 35.8399L138.104 25.4712Z" fill="black"/>
<path d="M55.3563 13.5241C55.3563 14.6397 55.0748 15.5069 54.5117 16.1256C53.9517 16.7444 53.1574 17.0538 52.1287 17.0538C51.0874 17.0538 50.2868 16.7475 49.7268 16.135C49.17 15.5194 48.8916 14.6459 48.8916 13.5147C48.8916 12.3834 49.1716 11.5147 49.7315 10.9084C50.2946 10.3022 51.0968 9.99907 52.1381 9.99907C53.1637 9.99907 53.9564 10.3069 54.5164 10.9225C55.0763 11.5381 55.3563 12.4053 55.3563 13.5241ZM50.0902 13.5241C50.0902 14.3678 50.2616 15.0084 50.6045 15.4459C50.9474 15.8803 51.4555 16.0975 52.1287 16.0975C52.7987 16.0975 53.3036 15.8819 53.6434 15.4506C53.9863 15.0194 54.1577 14.3772 54.1577 13.5241C54.1577 12.6834 53.9879 12.0459 53.6481 11.6116C53.3115 11.1772 52.8082 10.96 52.1381 10.96C51.4618 10.96 50.9506 11.1772 50.6045 11.6116C50.2616 12.0459 50.0902 12.6834 50.0902 13.5241Z" fill="black"/>
<path d="M59.221 16.96H58.0932V11.0678H56.0641V10.1069H61.25V11.0678H59.221V16.96Z" fill="black"/>
<path d="M67.6062 16.96H66.2803L63.4396 13.4866V16.96H62.3118V10.1069H63.4396V13.4256L66.2331 10.1069H67.4694L64.6853 13.4163L67.6062 16.96Z" fill="black"/>
<path d="M73.0894 12.1788C73.0894 12.8944 72.8535 13.4428 72.3816 13.8241C71.9097 14.2053 71.2381 14.3959 70.3667 14.3959H69.6495V16.96H68.5217V10.1069H70.5083C71.3702 10.1069 72.0151 10.2819 72.443 10.6319C72.8739 10.9819 73.0894 11.4975 73.0894 12.1788ZM69.6495 13.4538H70.2487C70.8276 13.4538 71.2523 13.3538 71.5228 13.1538C71.7933 12.9538 71.9286 12.6413 71.9286 12.2163C71.9286 11.8225 71.8075 11.5288 71.5653 11.335C71.323 11.1413 70.9455 11.0444 70.4328 11.0444H69.6495V13.4538Z" fill="black"/>
<path d="M80.5923 13.5241C80.5923 14.6397 80.3107 15.5069 79.7476 16.1256C79.1877 16.7444 78.3933 17.0538 77.3646 17.0538C76.3234 17.0538 75.5227 16.7475 74.9628 16.135C74.406 15.5194 74.1276 14.6459 74.1276 13.5147C74.1276 12.3834 74.4075 11.5147 74.9675 10.9084C75.5306 10.3022 76.3328 9.99907 77.3741 9.99907C78.3996 9.99907 79.1924 10.3069 79.7523 10.9225C80.3123 11.5381 80.5923 12.4053 80.5923 13.5241ZM75.3261 13.5241C75.3261 14.3678 75.4976 15.0084 75.8405 15.4459C76.1834 15.8803 76.6914 16.0975 77.3646 16.0975C78.0347 16.0975 78.5396 15.8819 78.8794 15.4506C79.2223 15.0194 79.3937 14.3772 79.3937 13.5241C79.3937 12.6834 79.2238 12.0459 78.8841 11.6116C78.5475 11.1772 78.0441 10.96 77.3741 10.96C76.6977 10.96 76.1865 11.1772 75.8405 11.6116C75.4976 12.0459 75.3261 12.6834 75.3261 13.5241Z" fill="black"/>
<path d="M82.074 10.1069H83.1074V13.6694C83.1074 14.0413 83.0979 14.4178 83.0791 14.7991C83.0602 15.1772 83.046 15.4334 83.0366 15.5678H83.0791L86.604 10.1069H87.9205V16.96H86.8824V13.4256C86.8824 12.885 86.9123 12.2288 86.972 11.4569H86.9343L83.3952 16.96H82.074V10.1069ZM85.0326 9.55845C84.3657 9.55845 83.8765 9.4397 83.5651 9.2022C83.2568 8.96157 83.0854 8.56157 83.0507 8.0022H84.0558C84.0747 8.2272 84.1172 8.4022 84.1833 8.5272C84.2525 8.6522 84.35 8.74282 84.4758 8.79907C84.6048 8.8522 84.7998 8.87876 85.0609 8.87876C85.3692 8.87876 85.6036 8.81157 85.764 8.6772C85.9245 8.5397 86.022 8.3147 86.0566 8.0022H87.0806C87.0334 8.5397 86.8431 8.93345 86.5096 9.18345C86.1761 9.43345 85.6838 9.55845 85.0326 9.55845Z" fill="black"/>
<path d="M92.1108 16.96H90.983V11.0678H88.9539V10.1069H94.1398V11.0678H92.1108V16.96Z" fill="black"/>
<path d="M99.104 16.96H95.2016V10.1069H99.104V11.0538H96.3294V12.9194H98.9294V13.8569H96.3294V16.0084H99.104V16.96Z" fill="black"/>
<path d="M103.11 10.1069H105.158C106.108 10.1069 106.794 10.2444 107.216 10.5194C107.64 10.7944 107.853 11.2288 107.853 11.8225C107.853 12.2225 107.749 12.5553 107.541 12.8209C107.334 13.0866 107.035 13.2538 106.645 13.3225V13.3694C107.129 13.46 107.485 13.6397 107.711 13.9084C107.941 14.1741 108.055 14.535 108.055 14.9913C108.055 15.6069 107.838 16.0897 107.404 16.4397C106.973 16.7866 106.372 16.96 105.602 16.96H103.11V10.1069ZM104.238 12.9381H105.323C105.795 12.9381 106.14 12.8647 106.357 12.7178C106.574 12.5678 106.682 12.3147 106.682 11.9584C106.682 11.6366 106.564 11.4038 106.328 11.26C106.096 11.1163 105.724 11.0444 105.215 11.0444H104.238V12.9381ZM104.238 13.8475V16.0178H105.437C105.908 16.0178 106.264 15.9288 106.503 15.7506C106.745 15.5694 106.866 15.285 106.866 14.8975C106.866 14.5413 106.744 14.2772 106.498 14.1053C106.253 13.9334 105.88 13.8475 105.38 13.8475H104.238Z" fill="black"/>
</g>
<defs>
<linearGradient id="paint0_linear_31_562133" x1="27.0602" y1="8.80005" x2="27.0602" y2="39.2" gradientUnits="userSpaceOnUse">
<stop stop-color="#FB6361"/>
<stop offset="1" stop-color="#ED3E45"/>
</linearGradient>
<clipPath id="clip0_31_562133">
<rect width="163" height="48" fill="white"/>
</clipPath>
</defs>
</svg>
