<svg width="163" height="48" viewBox="0 0 163 48" fill="none" xmlns="http://www.w3.org/2000/svg">
<path d="M0 6.4C0 2.86538 2.88449 0 6.44269 0H156.557C160.116 0 163 2.86538 163 6.4V41.6C163 45.1346 160.116 48 156.557 48H6.44269C2.88449 48 0 45.1346 0 41.6V6.4Z" fill="white"/>
<path fill-rule="evenodd" clip-rule="evenodd" d="M0 41.6V6.4C0 2.86538 2.88449 0 6.44269 0H156.557C160.116 0 163 2.86538 163 6.4V41.6C163 45.1346 160.116 48 156.557 48H6.44269C2.88449 48 0 45.1346 0 41.6ZM0.966403 41.6V6.4C0.966403 3.39557 3.41822 0.96 6.44269 0.96H156.557C159.582 0.96 162.034 3.39557 162.034 6.4V41.6C162.034 44.6044 159.582 47.04 156.557 47.04H6.44269C3.41822 47.04 0.966403 44.6044 0.966403 41.6Z" fill="black" fill-opacity="0.1"/>
<path d="M36.8347 24.9777C36.8181 22.1645 38.1012 20.0442 40.6924 18.4808C39.2431 16.4183 37.0506 15.284 34.1605 15.0653C31.4239 14.8508 28.43 16.6493 27.3337 16.6493C26.1752 16.6493 23.5259 15.1396 21.4413 15.1396C17.1393 15.2056 12.5674 18.5468 12.5674 25.3448C12.5674 27.3537 12.937 29.4286 13.6761 31.5653C14.6644 34.3786 18.2273 41.2715 21.9438 41.1601C23.8871 41.1147 25.2616 39.7906 27.7905 39.7906C30.2446 39.7906 31.5153 41.1601 33.6829 41.1601C37.4326 41.1065 40.655 34.8406 41.5935 32.0191C36.5648 29.6637 36.8347 25.1221 36.8347 24.9777ZM32.4704 12.3965C34.5757 9.91321 34.3847 7.65271 34.3224 6.84009C32.4621 6.94734 30.3111 8.09821 29.0861 9.51309C27.7365 11.0311 26.9434 12.908 27.1136 15.0241C29.1235 15.1767 30.9589 14.1496 32.4704 12.3965Z" fill="black"/>
<path d="M51.0281 14.3849H52.06C53.0566 14.3849 53.6404 14.8299 53.6404 15.5799V15.5899C53.6404 16.2849 53.0264 16.7399 52.0902 16.7399C51.1338 16.7399 50.5248 16.3649 50.4443 15.6999L50.4392 15.6599H49.3369L49.3419 15.7199C49.4174 16.9099 50.4845 17.7199 52.0902 17.7199C53.6455 17.7199 54.7931 16.8299 54.7931 15.6399V15.6299C54.7931 14.6599 54.1941 13.9749 53.2227 13.8549V13.8149C54.028 13.6299 54.5716 12.9599 54.5716 12.1599V12.1499C54.5716 11.0349 53.575 10.2649 52.1153 10.2649C50.5953 10.2649 49.6037 11.0099 49.5282 12.2299L49.5231 12.2999H50.6053L50.6104 12.2299C50.6959 11.6099 51.2244 11.2449 52.0801 11.2449C52.9509 11.2449 53.4542 11.6299 53.4542 12.2699V12.2799C53.4542 12.9699 52.8955 13.4449 52.0298 13.4449H51.0281V14.3849Z" fill="black"/>
<path d="M58.4386 17.6949C59.1433 17.6949 59.7523 17.3349 60.0594 16.7699H60.0845V17.5999H61.1717V13.9749C61.1717 12.9199 60.3513 12.2399 59.0577 12.2399C57.7541 12.2399 56.9638 12.9349 56.8883 13.8399L56.8833 13.8949H57.9101L57.9202 13.8499C58.0108 13.4299 58.3984 13.1349 59.0275 13.1349C59.702 13.1349 60.0845 13.4849 60.0845 14.0649V14.4599L58.64 14.5449C57.3866 14.6199 56.6719 15.1799 56.6719 16.0949V16.1049C56.6719 17.0499 57.3816 17.6949 58.4386 17.6949ZM57.7692 16.0799V16.0699C57.7692 15.6249 58.1316 15.3399 58.7859 15.2999L60.0845 15.2199V15.6299C60.0845 16.3149 59.5007 16.8299 58.7356 16.8299C58.1517 16.8299 57.7692 16.5399 57.7692 16.0799Z" fill="black"/>
<path d="M66.9615 13.1999V12.3399H63.4532V17.5999H64.5404V13.1999H66.9615Z" fill="black"/>
<path d="M69.0064 19.3499H70.0936V16.7149H70.1188C70.4309 17.3249 71.0399 17.7049 71.7899 17.7049C73.1187 17.7049 73.9895 16.6499 73.9895 14.9749V14.9699C73.9895 13.2899 73.1237 12.2399 71.7748 12.2399C71.0198 12.2399 70.4359 12.6199 70.1188 13.2449H70.0936V12.3399H69.0064V19.3499ZM71.4929 16.7749C70.6725 16.7749 70.0886 16.0649 70.0886 14.9749V14.9699C70.0886 13.8749 70.6674 13.1649 71.4929 13.1649C72.3486 13.1649 72.8821 13.8499 72.8821 14.9699V14.9749C72.8821 16.0849 72.3486 16.7749 71.4929 16.7749Z" fill="black"/>
<path d="M76.5428 19.3549C77.5796 19.3549 78.1333 18.9349 78.5259 17.8449L80.499 12.3399H79.3514L78.0175 16.6199H77.9823L76.6485 12.3399H75.4707L77.3984 17.6049L77.3078 17.8549C77.1266 18.3649 76.8448 18.4999 76.3314 18.4999C76.1854 18.4999 76.0596 18.4799 75.974 18.4599V19.3049C76.1049 19.3299 76.3314 19.3549 76.5428 19.3549Z" fill="black"/>
<path d="M84.2351 17.7049C85.5337 17.7049 86.3944 17.0499 86.3944 16.0699V16.0599C86.3944 15.4449 86.0119 15.0249 85.3123 14.8849V14.8449C85.881 14.7149 86.2485 14.2699 86.2485 13.7049V13.6949C86.2485 12.7949 85.5035 12.2399 84.2855 12.2399C83.0926 12.2399 82.3124 12.7999 82.1866 13.7349L82.1815 13.7749H83.2184L83.2234 13.7399C83.304 13.3399 83.7016 13.0949 84.2704 13.0949C84.8442 13.0949 85.1864 13.3599 85.1864 13.8099V13.8199C85.1864 14.2899 84.8593 14.5299 84.22 14.5299H83.46V15.3149H84.2251C84.9599 15.3149 85.3123 15.5549 85.3123 16.0599V16.0699C85.3123 16.5499 84.8995 16.8449 84.2301 16.8449C83.6311 16.8449 83.2385 16.6149 83.1177 16.1899L83.1026 16.1399H82.0356L82.0406 16.1849C82.1463 17.1149 82.9969 17.7049 84.2351 17.7049Z" fill="black"/>
<path d="M88.4847 17.5999H89.5568L91.9879 13.9049H92.0332V17.5999H93.1154V12.3399H92.0433L89.6122 16.0199H89.5618V12.3399H88.4847V17.5999Z" fill="black"/>
<path d="M99.4437 12.3399H95.0395V13.1999H96.6955V17.5999H97.7877V13.1999H99.4437V12.3399Z" fill="black"/>
<path d="M103.532 17.7049C104.816 17.7049 105.636 16.9449 105.802 16.1099L105.817 16.0549H104.78L104.765 16.0949C104.629 16.4899 104.202 16.8199 103.557 16.8199C102.692 16.8199 102.143 16.2399 102.123 15.2449H105.873V14.8799C105.873 13.2999 104.962 12.2399 103.477 12.2399C101.992 12.2399 101.036 13.3399 101.036 14.9849V14.9899C101.036 16.6499 101.977 17.7049 103.532 17.7049ZM103.482 13.1249C104.192 13.1249 104.71 13.5699 104.796 14.4799H102.138C102.239 13.5999 102.777 13.1249 103.482 13.1249Z" fill="black"/>
<path d="M111.171 17.5999H113.607C114.754 17.5999 115.469 17.0099 115.469 16.0899V16.0799C115.469 15.4349 115.016 14.9649 114.332 14.8749V14.8349C114.84 14.7399 115.233 14.2449 115.233 13.6999V13.6899C115.233 12.8549 114.608 12.3399 113.577 12.3399H111.171V17.5999ZM112.248 14.5099V13.1399H113.35C113.874 13.1399 114.155 13.3749 114.155 13.8099V13.8199C114.155 14.2849 113.853 14.5099 113.239 14.5099H112.248ZM112.248 16.7999V15.2949H113.28C113.994 15.2949 114.352 15.5299 114.352 16.0349V16.0449C114.352 16.5449 114.019 16.7999 113.405 16.7999H112.248Z" fill="black"/>
<path d="M59.516 34.7354H57.3832L56.215 31.0718H52.1541L51.0413 34.7354H48.9648L52.9881 22.2627H55.473L59.516 34.7354ZM55.8628 29.5347L54.8063 26.2778C54.6945 25.9451 54.4851 25.1616 54.1761 23.9281H54.1385C54.0155 24.4586 53.8173 25.2422 53.545 26.2778L52.5073 29.5347H55.8628Z" fill="black"/>
<path d="M69.8624 30.128C69.8624 31.6576 69.4483 32.8666 68.62 33.7542C67.8781 34.5443 66.9568 34.9389 65.857 34.9389C64.67 34.9389 63.8172 34.5134 63.2979 33.6623H63.2603V38.4001H61.2581V28.7025C61.2581 27.7409 61.2327 26.754 61.1839 25.7418H62.9448L63.0565 27.1673H63.0941C63.7618 26.0932 64.7752 25.5571 66.135 25.5571C67.1981 25.5571 68.0856 25.9761 68.7956 26.8149C69.5075 27.6547 69.8624 28.7587 69.8624 30.128ZM67.8226 30.2011C67.8226 29.3258 67.6254 28.6041 67.2291 28.0361C66.7962 27.4438 66.2148 27.1476 65.4861 27.1476C64.9921 27.1476 64.5432 27.3126 64.1422 27.6378C63.7402 27.9658 63.4773 28.3941 63.3542 28.9246C63.2923 29.1721 63.2613 29.3745 63.2613 29.5338V31.0334C63.2613 31.6876 63.4622 32.2396 63.8642 32.6904C64.2661 33.1412 64.7883 33.3662 65.4307 33.3662C66.1848 33.3662 66.7718 33.0756 67.1915 32.4964C67.6123 31.9163 67.8226 31.1515 67.8226 30.2011Z" fill="black"/>
<path d="M80.228 30.128C80.228 31.6576 79.8139 32.8666 78.9846 33.7542C78.2436 34.5443 77.3223 34.9389 76.2226 34.9389C75.0355 34.9389 74.1828 34.5134 73.6644 33.6623H73.6268V38.4001H71.6246V28.7025C71.6246 27.7409 71.5992 26.754 71.5504 25.7418H73.3113L73.423 27.1673H73.4606C74.1274 26.0932 75.1407 25.5571 76.5015 25.5571C77.5637 25.5571 78.4512 25.9761 79.163 26.8149C79.8721 27.6547 80.228 28.7587 80.228 30.128ZM78.1882 30.2011C78.1882 29.3258 77.9901 28.6041 77.5937 28.0361C77.1608 27.4438 76.5814 27.1476 75.8517 27.1476C75.3567 27.1476 74.9088 27.3126 74.5068 27.6378C74.1049 27.9658 73.8428 28.3941 73.7198 28.9246C73.6588 29.1721 73.6268 29.3745 73.6268 29.5338V31.0334C73.6268 31.6876 73.8278 32.2396 74.2279 32.6904C74.6298 33.1403 75.152 33.3662 75.7962 33.3662C76.5504 33.3662 77.1373 33.0756 77.5571 32.4964C77.9779 31.9163 78.1882 31.1515 78.1882 30.2011Z" fill="black"/>
<path d="M91.8171 31.2378C91.8171 32.2988 91.448 33.162 90.7071 33.8283C89.8928 34.5566 88.7593 34.9202 87.3027 34.9202C85.9579 34.9202 84.8797 34.6615 84.0636 34.1432L84.5275 32.4778C85.4066 33.0083 86.3711 33.2744 87.422 33.2744C88.1761 33.2744 88.763 33.1038 89.1847 32.7646C89.6045 32.4253 89.8139 31.9698 89.8139 31.4018C89.8139 30.8957 89.6411 30.4693 89.2946 30.1234C88.9499 29.7776 88.3742 29.4561 87.5703 29.159C85.3822 28.3446 84.289 27.1515 84.289 25.5825C84.289 24.5572 84.6722 23.7165 85.4394 23.0623C86.2039 22.4072 87.2238 22.0801 88.4991 22.0801C89.6364 22.0801 90.5812 22.2778 91.3353 22.6724L90.8348 24.3013C90.1304 23.9189 89.334 23.7277 88.4428 23.7277C87.7384 23.7277 87.1881 23.9011 86.7937 24.246C86.4603 24.5544 86.2931 24.9302 86.2931 25.3754C86.2931 25.8684 86.4838 26.2761 86.8669 26.5966C87.2003 26.8928 87.8061 27.2133 88.6851 27.5592C89.7604 27.9912 90.5502 28.4964 91.0583 29.0756C91.5645 29.6529 91.8171 30.3756 91.8171 31.2378Z" fill="black"/>
<path d="M98.4367 27.2415H96.2298V31.6081C96.2298 32.7187 96.6186 33.2736 97.3981 33.2736C97.7559 33.2736 98.0526 33.2427 98.2874 33.1808L98.3428 34.6982C97.9484 34.8453 97.4291 34.9194 96.7857 34.9194C95.995 34.9194 95.377 34.6785 94.931 34.1977C94.4867 33.716 94.2632 32.9081 94.2632 31.7731V27.2397H92.9484V25.7401H94.2632V24.0934L96.2298 23.501V25.7401H98.4367V27.2415Z" fill="black"/>
<path d="M108.394 30.1646C108.394 31.547 107.998 32.682 107.207 33.5696C106.378 34.4834 105.278 34.9389 103.905 34.9389C102.583 34.9389 101.53 34.5012 100.745 33.6258C99.9601 32.7504 99.5676 31.6454 99.5676 30.3136C99.5676 28.9199 99.9714 27.7784 100.782 26.8908C101.59 26.0023 102.682 25.5581 104.054 25.5581C105.376 25.5581 106.44 25.9958 107.243 26.8721C108.011 27.7222 108.394 28.8197 108.394 30.1646ZM106.317 30.2293C106.317 29.3998 106.14 28.6884 105.78 28.0952C105.36 27.3773 104.76 27.0192 103.982 27.0192C103.178 27.0192 102.566 27.3782 102.146 28.0952C101.787 28.6894 101.609 29.412 101.609 30.2667C101.609 31.0962 101.787 31.8076 102.146 32.3999C102.579 33.1178 103.184 33.4758 103.965 33.4758C104.729 33.4758 105.329 33.1103 105.762 32.3812C106.131 31.7766 106.317 31.0578 106.317 30.2293Z" fill="black"/>
<path d="M114.903 27.4991C114.704 27.4625 114.493 27.4438 114.271 27.4438C113.567 27.4438 113.022 27.709 112.639 28.2404C112.306 28.7091 112.139 29.3014 112.139 30.0165V34.7355H110.137L110.156 28.5741C110.156 27.5375 110.131 26.5937 110.081 25.7427H111.825L111.898 27.4635H111.954C112.165 26.8721 112.498 26.396 112.955 26.0389C113.401 25.7174 113.883 25.5571 114.402 25.5571C114.587 25.5571 114.754 25.5703 114.903 25.5937V27.4991Z" fill="black"/>
<path d="M123.857 29.8132C123.857 30.1712 123.833 30.473 123.783 30.7195H117.777C117.8 31.608 118.09 32.2875 118.648 32.7561C119.154 33.175 119.809 33.385 120.613 33.385C121.502 33.385 122.314 33.2435 123.043 32.9595L123.357 34.3466C122.504 34.7177 121.498 34.9024 120.336 34.9024C118.938 34.9024 117.842 34.4919 117.043 33.6718C116.247 32.8517 115.848 31.7504 115.848 30.369C115.848 29.0128 116.219 27.8834 116.962 26.9827C117.739 26.0211 118.79 25.5403 120.112 25.5403C121.411 25.5403 122.394 26.0211 123.062 26.9827C123.591 27.7466 123.857 28.6913 123.857 29.8132ZM121.947 29.2949C121.961 28.7026 121.83 28.1908 121.559 27.7588C121.212 27.203 120.68 26.9256 119.963 26.9256C119.308 26.9256 118.776 27.1964 118.369 27.74C118.036 28.1721 117.838 28.6904 117.777 29.294H121.947V29.2949Z" fill="black"/>
</svg>
