<svg width="102" height="30" viewBox="0 0 102 30" fill="none" xmlns="http://www.w3.org/2000/svg">
<g clip-path="url(#clip0_4163_230466)">
<path d="M0 4C0 1.79086 1.79491 0 4.00903 0H97.4195C99.6337 0 101.429 1.79086 101.429 4V26C101.429 28.2091 99.6337 30 97.4195 30H4.00903C1.79491 30 0 28.2091 0 26V4Z" fill="white"/>
<path fill-rule="evenodd" clip-rule="evenodd" d="M0 26V4C0 1.79086 1.79491 0 4.00903 0H97.4195C99.6337 0 101.429 1.79086 101.429 4V26C101.429 28.2091 99.6337 30 97.4195 30H4.00903C1.79491 30 0 28.2091 0 26ZM0.601355 26V4C0.601355 2.12223 2.12702 0.6 4.00903 0.6H97.4195C99.3015 0.6 100.827 2.12223 100.827 4V26C100.827 27.8778 99.3015 29.4 97.4195 29.4H4.00903C2.12703 29.4 0.601355 27.8778 0.601355 26Z" fill="black" fill-opacity="0.1"/>
<path d="M22.9209 15.6109C22.9106 13.8526 23.709 12.5275 25.3214 11.5504C24.4196 10.2613 23.0553 9.55232 21.2568 9.41568C19.554 9.28162 17.691 10.4057 17.0088 10.4057C16.2879 10.4057 14.6394 9.46209 13.3422 9.46209C10.6652 9.50334 7.82031 11.5916 7.82031 15.8404C7.82031 17.0959 8.05028 18.3927 8.51023 19.7282C9.12521 21.4865 11.3422 25.7945 13.6549 25.7249C14.8642 25.6965 15.7194 24.869 17.2931 24.869C18.8202 24.869 19.6109 25.7249 20.9597 25.7249C23.293 25.6914 25.2981 21.7752 25.8821 20.0118C22.7529 18.5397 22.9209 15.7012 22.9209 15.6109ZM20.2052 7.74764C21.5152 6.19561 21.3964 4.78279 21.3576 4.2749C20.2 4.34193 18.8615 5.06123 18.0993 5.94553C17.2595 6.89428 16.7659 8.06732 16.8719 9.3899C18.1225 9.48529 19.2646 8.84334 20.2052 7.74764Z" fill="black"/>
<path d="M31.7535 8.99065H32.3956C33.0158 8.99065 33.3791 9.26877 33.3791 9.73752V9.74377C33.3791 10.1781 32.997 10.4625 32.4144 10.4625C31.8193 10.4625 31.4403 10.2281 31.3902 9.81252L31.3871 9.78752H30.7012L30.7043 9.82502C30.7513 10.5688 31.4153 11.075 32.4144 11.075C33.3822 11.075 34.0963 10.5188 34.0963 9.77502V9.76877C34.0963 9.16252 33.7236 8.7344 33.1191 8.6594V8.6344C33.6203 8.51877 33.9585 8.10002 33.9585 7.60002V7.59377C33.9585 6.8969 33.3384 6.41565 32.4301 6.41565C31.4842 6.41565 30.8672 6.88127 30.8202 7.64377L30.8171 7.68752H31.4905L31.4936 7.64377C31.5468 7.25627 31.8757 7.02815 32.4081 7.02815C32.95 7.02815 33.2632 7.26877 33.2632 7.66877V7.67502C33.2632 8.10627 32.9155 8.40315 32.3768 8.40315H31.7535V8.99065Z" fill="black"/>
<path d="M36.3648 11.0594C36.8033 11.0594 37.1823 10.8344 37.3733 10.4813H37.389V11H38.0655V8.7344C38.0655 8.07502 37.555 7.65002 36.7501 7.65002C35.9389 7.65002 35.4471 8.0844 35.4001 8.65002L35.397 8.6844H36.0359L36.0422 8.65627C36.0986 8.39377 36.3398 8.2094 36.7313 8.2094C37.151 8.2094 37.389 8.42815 37.389 8.79065V9.03752L36.4901 9.09065C35.7102 9.13752 35.2655 9.48752 35.2655 10.0594V10.0656C35.2655 10.6563 35.7071 11.0594 36.3648 11.0594ZM35.9482 10.05V10.0438C35.9482 9.76565 36.1738 9.58752 36.5809 9.56252L37.389 9.51252V9.76877C37.389 10.1969 37.0257 10.5188 36.5496 10.5188C36.1863 10.5188 35.9482 10.3375 35.9482 10.05Z" fill="black"/>
<path d="M41.6683 8.25002V7.71252H39.4852V11H40.1617V8.25002H41.6683Z" fill="black"/>
<path d="M42.9408 12.0938H43.6173V10.4469H43.6329C43.8271 10.8281 44.2061 11.0656 44.6728 11.0656C45.4997 11.0656 46.0415 10.4063 46.0415 9.3594V9.35627C46.0415 8.30627 45.5028 7.65002 44.6634 7.65002C44.1936 7.65002 43.8303 7.88752 43.6329 8.27815H43.6173V7.71252H42.9408V12.0938ZM44.488 10.4844C43.9775 10.4844 43.6142 10.0406 43.6142 9.3594V9.35627C43.6142 8.6719 43.9743 8.22815 44.488 8.22815C45.0204 8.22815 45.3524 8.65627 45.3524 9.35627V9.3594C45.3524 10.0531 45.0204 10.4844 44.488 10.4844Z" fill="black"/>
<path d="M47.6303 12.0969C48.2755 12.0969 48.6201 11.8344 48.8644 11.1531L50.0921 7.71252H49.378L48.548 10.3875H48.5261L47.6961 7.71252H46.9632L48.1628 11.0031L48.1064 11.1594C47.9936 11.4781 47.8183 11.5625 47.4988 11.5625C47.408 11.5625 47.3297 11.55 47.2764 11.5375V12.0656C47.3578 12.0813 47.4988 12.0969 47.6303 12.0969Z" fill="black"/>
<path d="M52.417 11.0656C53.2251 11.0656 53.7606 10.6563 53.7606 10.0438V10.0375C53.7606 9.65315 53.5226 9.39065 53.0873 9.30315V9.27815C53.4412 9.1969 53.6698 8.91877 53.6698 8.56565V8.5594C53.6698 7.9969 53.2063 7.65002 52.4483 7.65002C51.706 7.65002 51.2205 8.00002 51.1422 8.5844L51.1391 8.6094H51.7843L51.7874 8.58752C51.8376 8.33752 52.085 8.1844 52.4389 8.1844C52.796 8.1844 53.009 8.35002 53.009 8.63127V8.63752C53.009 8.93127 52.8054 9.08127 52.4076 9.08127H51.9347V9.5719H52.4107C52.868 9.5719 53.0873 9.7219 53.0873 10.0375V10.0438C53.0873 10.3438 52.8304 10.5281 52.4139 10.5281C52.0411 10.5281 51.7968 10.3844 51.7217 10.1188L51.7123 10.0875H51.0483L51.0514 10.1156C51.1172 10.6969 51.6465 11.0656 52.417 11.0656Z" fill="black"/>
<path d="M55.0613 11H55.7285L57.2412 8.69065H57.2694V11H57.9428V7.71252H57.2757L55.7629 10.0125H55.7316V7.71252H55.0613V11Z" fill="black"/>
<path d="M61.8807 7.71252H59.1401V8.25002H60.1706V11H60.8502V8.25002H61.8807V7.71252Z" fill="black"/>
<path d="M64.4248 11.0656C65.2235 11.0656 65.734 10.5906 65.8374 10.0688L65.8468 10.0344H65.2016L65.1922 10.0594C65.1076 10.3063 64.8414 10.5125 64.4405 10.5125C63.9018 10.5125 63.5604 10.15 63.5478 9.52815H65.8812V9.30002C65.8812 8.31252 65.3143 7.65002 64.3904 7.65002C63.4664 7.65002 62.8713 8.33752 62.8713 9.36565V9.36877C62.8713 10.4063 63.457 11.0656 64.4248 11.0656ZM64.3935 8.20315C64.8351 8.20315 65.1577 8.48127 65.211 9.05002H63.5572C63.6199 8.50002 63.955 8.20315 64.3935 8.20315Z" fill="black"/>
<path d="M69.1779 11H70.6938C71.4079 11 71.8527 10.6313 71.8527 10.0563V10.05C71.8527 9.6469 71.5708 9.35315 71.1448 9.2969V9.2719C71.4612 9.21252 71.7055 8.90315 71.7055 8.56252V8.55627C71.7055 8.0344 71.3171 7.71252 70.675 7.71252H69.1779V11ZM69.8482 9.06877V8.21252H70.5341C70.8598 8.21252 71.0352 8.3594 71.0352 8.63127V8.63752C71.0352 8.92815 70.8473 9.06877 70.4652 9.06877H69.8482ZM69.8482 10.5V9.5594H70.4902C70.935 9.5594 71.1574 9.70627 71.1574 10.0219V10.0281C71.1574 10.3406 70.9506 10.5 70.5685 10.5H69.8482Z" fill="black"/>
<path d="M37.0343 21.7096H35.7072L34.9802 19.4199H32.4533L31.7608 21.7096H30.4688L32.9723 13.9142H34.5185L37.0343 21.7096ZM34.7611 18.4592L34.1036 16.4236C34.0341 16.2157 33.9038 15.726 33.7115 14.9551H33.6881C33.6116 15.2866 33.4883 15.7763 33.3188 16.4236L32.6731 18.4592H34.7611Z" fill="black"/>
<path d="M43.4725 18.83C43.4725 19.786 43.2148 20.5416 42.6994 21.0964C42.2377 21.5902 41.6644 21.8368 40.9801 21.8368C40.2414 21.8368 39.7108 21.5708 39.3877 21.039H39.3643V24H38.1184V17.9391C38.1184 17.3381 38.1026 16.7212 38.0722 16.0886H39.1679L39.2375 16.9796H39.2608C39.6763 16.3083 40.3069 15.9732 41.1531 15.9732C41.8146 15.9732 42.3669 16.235 42.8087 16.7593C43.2516 17.2842 43.4725 17.9742 43.4725 18.83ZM42.2032 18.8757C42.2032 18.3286 42.0805 17.8776 41.8339 17.5226C41.5645 17.1524 41.2028 16.9673 40.7493 16.9673C40.4419 16.9673 40.1625 17.0704 39.913 17.2736C39.6629 17.4786 39.4993 17.7463 39.4227 18.0779C39.3841 18.2325 39.3649 18.3591 39.3649 18.4586V19.3959C39.3649 19.8047 39.4899 20.1498 39.74 20.4315C39.9902 20.7133 40.3151 20.8539 40.7148 20.8539C41.1841 20.8539 41.5493 20.6723 41.8105 20.3103C42.0723 19.9477 42.2032 19.4697 42.2032 18.8757Z" fill="black"/>
<path d="M49.9226 18.83C49.9226 19.786 49.6649 20.5416 49.1489 21.0964C48.6878 21.5902 48.1145 21.8368 47.4302 21.8368C46.6915 21.8368 46.1609 21.5708 45.8383 21.039H45.815V24H44.569V17.9391C44.569 17.3381 44.5533 16.7212 44.5229 16.0886H45.6186L45.6881 16.9796H45.7115C46.1264 16.3083 46.757 15.9732 47.6038 15.9732C48.2647 15.9732 48.817 16.235 49.2599 16.7593C49.7011 17.2842 49.9226 17.9742 49.9226 18.83ZM48.6533 18.8757C48.6533 18.3286 48.53 17.8776 48.2834 17.5226C48.014 17.1524 47.6534 16.9673 47.1994 16.9673C46.8914 16.9673 46.6126 17.0704 46.3625 17.2736C46.1124 17.4786 45.9494 17.7463 45.8728 18.0779C45.8348 18.2325 45.815 18.3591 45.815 18.4586V19.3959C45.815 19.8047 45.94 20.1498 46.189 20.4315C46.4391 20.7127 46.764 20.8539 47.1649 20.8539C47.6342 20.8539 47.9994 20.6723 48.2606 20.3103C48.5224 19.9477 48.6533 19.4697 48.6533 18.8757Z" fill="black"/>
<path d="M57.1341 19.5236C57.1341 20.1867 56.9044 20.7262 56.4433 21.1427C55.9366 21.5979 55.2313 21.8251 54.3249 21.8251C53.4881 21.8251 52.8172 21.6635 52.3094 21.3395L52.598 20.2986C53.145 20.6302 53.7452 20.7965 54.3991 20.7965C54.8684 20.7965 55.2336 20.6899 55.496 20.4779C55.7572 20.2658 55.8876 19.9811 55.8876 19.6261C55.8876 19.3098 55.78 19.0433 55.5644 18.8271C55.3499 18.611 54.9917 18.4101 54.4915 18.2244C53.1298 17.7154 52.4496 16.9697 52.4496 15.9891C52.4496 15.3482 52.688 14.8228 53.1655 14.4139C53.6412 14.0045 54.2758 13.8 55.0694 13.8C55.7771 13.8 56.365 13.9236 56.8343 14.1703L56.5228 15.1883C56.0845 14.9493 55.5889 14.8298 55.0343 14.8298C54.5961 14.8298 54.2536 14.9382 54.0082 15.1538C53.8007 15.3465 53.6967 15.5814 53.6967 15.8596C53.6967 16.1677 53.8153 16.4226 54.0537 16.6229C54.2612 16.808 54.6381 17.0083 55.1851 17.2245C55.8542 17.4945 56.3457 17.8102 56.6619 18.1723C56.9769 18.5331 57.1341 18.9847 57.1341 19.5236Z" fill="black"/>
<path d="M61.2532 17.026H59.8799V19.7551C59.8799 20.4492 60.1218 20.796 60.6069 20.796C60.8295 20.796 61.0142 20.7767 61.1603 20.738L61.1948 21.6864C60.9493 21.7783 60.6261 21.8246 60.2258 21.8246C59.7338 21.8246 59.3493 21.6741 59.0717 21.3736C58.7953 21.0725 58.6562 20.5675 58.6562 19.8582V17.0248H57.838V16.0875H58.6562V15.0583L59.8799 14.6881V16.0875H61.2532V17.026Z" fill="black"/>
<path d="M67.4495 18.8529C67.4495 19.7169 67.2029 20.4263 66.7109 20.981C66.1948 21.5521 65.5099 21.8368 64.6562 21.8368C63.8333 21.8368 63.1782 21.5632 62.6897 21.0161C62.2011 20.469 61.9569 19.7784 61.9569 18.946C61.9569 18.075 62.2082 17.3615 62.7125 16.8068C63.2156 16.2515 63.8947 15.9738 64.7485 15.9738C65.5713 15.9738 66.2334 16.2474 66.7331 16.7951C67.2111 17.3263 67.4495 18.0123 67.4495 18.8529ZM66.1568 18.8933C66.1568 18.3749 66.0464 17.9303 65.8226 17.5595C65.5614 17.1108 65.1879 16.887 64.7041 16.887C64.2032 16.887 63.8228 17.1114 63.5616 17.5595C63.3378 17.9309 63.2273 18.3825 63.2273 18.9167C63.2273 19.4351 63.3378 19.8797 63.5616 20.2499C63.831 20.6986 64.2073 20.9224 64.693 20.9224C65.1687 20.9224 65.5421 20.694 65.8115 20.2382C66.0411 19.8604 66.1568 19.4111 66.1568 18.8933Z" fill="black"/>
<path d="M71.4992 17.1869C71.3759 17.1641 71.2444 17.1524 71.1065 17.1524C70.6682 17.1524 70.3293 17.3181 70.0909 17.6503C69.8834 17.9432 69.7794 18.3134 69.7794 18.7603V21.7097H68.534L68.5457 17.8588C68.5457 17.2109 68.5299 16.6211 68.499 16.0892H69.5842L69.6298 17.1647H69.6643C69.7957 16.795 70.0032 16.4975 70.2872 16.2743C70.5648 16.0734 70.8646 15.9732 71.1878 15.9732C71.3029 15.9732 71.4069 15.9814 71.4992 15.9961V17.1869Z" fill="black"/>
<path d="M77.071 18.6332C77.071 18.857 77.0564 19.0456 77.0255 19.1997H73.2877C73.3023 19.755 73.4829 20.1797 73.83 20.4726C74.145 20.7344 74.5523 20.8656 75.0526 20.8656C75.606 20.8656 76.1109 20.7772 76.565 20.5997L76.7602 21.4666C76.2295 21.6986 75.6031 21.814 74.8802 21.814C74.0106 21.814 73.3281 21.5574 72.8313 21.0449C72.3358 20.5323 72.0874 19.844 72.0874 18.9806C72.0874 18.133 72.3182 17.4271 72.7805 16.8642C73.2644 16.2632 73.9183 15.9627 74.7411 15.9627C75.5493 15.9627 76.1612 16.2632 76.5767 16.8642C76.9057 17.3416 77.071 17.9321 77.071 18.6332ZM75.883 18.3093C75.8912 17.9391 75.8099 17.6193 75.6411 17.3492C75.4254 17.0019 75.0941 16.8285 74.6482 16.8285C74.2409 16.8285 73.9095 16.9978 73.6565 17.3375C73.449 17.6076 73.3257 17.9315 73.2877 18.3087H75.883V18.3093Z" fill="black"/>
</g>
<defs>
<clipPath id="clip0_4163_230466">
<rect width="101.429" height="30" fill="white"/>
</clipPath>
</defs>
</svg>
