<svg width="102" height="30" viewBox="0 0 102 30" fill="none" xmlns="http://www.w3.org/2000/svg">
<g clip-path="url(#clip0_4104_261240)">
<path d="M0 4C0 1.79086 1.79491 0 4.00903 0H97.4195C99.6337 0 101.429 1.79086 101.429 4V26C101.429 28.2091 99.6337 30 97.4195 30H4.00903C1.79491 30 0 28.2091 0 26V4Z" fill="black"/>
<path fill-rule="evenodd" clip-rule="evenodd" d="M0 26V4C0 1.79086 1.79491 0 4.00903 0H97.4195C99.6337 0 101.429 1.79086 101.429 4V26C101.429 28.2091 99.6337 30 97.4195 30H4.00903C1.79491 30 0 28.2091 0 26ZM0.601355 26V4C0.601355 2.12223 2.12702 0.6 4.00903 0.6H97.4195C99.3015 0.6 100.827 2.12223 100.827 4V26C100.827 27.8778 99.3015 29.4 97.4195 29.4H4.00903C2.12703 29.4 0.601355 27.8778 0.601355 26Z" fill="white" fill-opacity="0.3"/>
<path fill-rule="evenodd" clip-rule="evenodd" d="M12.6595 5.5C8.74733 5.5 7.31641 6.92745 7.31641 10.83V19.17C7.31641 23.0725 8.74733 24.5 12.6595 24.5H21.0136C24.9257 24.5 26.3593 23.0725 26.3593 19.17V10.83C26.3593 6.92745 24.9284 5.5 21.0162 5.5H12.6595Z" fill="url(#paint0_linear_4104_261240)"/>
<path fill-rule="evenodd" clip-rule="evenodd" d="M15.6222 16.5196H16.3867L16.0032 15.6296L15.6222 16.5196ZM15.4339 16.9681L15.2071 17.4859H14.6907L15.7889 15.0002H16.2352L17.3289 17.4859H16.7987L16.5748 16.9681H15.4339ZM23.7437 17.4841H24.2428V15H23.7437V17.4841ZM21.7572 16.417H22.6772V15.9641H21.7572V15.4549H23.0928V15.0018H21.2583V17.4858H23.1408V17.0327H21.7572V16.417ZM19.7741 16.7105L19.2083 15H18.7953L18.2295 16.7105L17.6788 15.0014H17.1403L18.0094 17.4873H18.428L18.9947 15.8544L19.5615 17.4873H19.9838L20.8505 15.0014H20.326L19.7741 16.7105ZM13.9288 16.4239C13.9288 16.8282 13.7276 17.0443 13.3621 17.0443C12.9946 17.0443 12.7922 16.822 12.7922 16.4066V15.0017H12.2864V16.4239C12.2864 17.1234 12.6761 17.5246 13.3552 17.5246C14.041 17.5246 14.4342 17.1158 14.4342 16.4031V15.0002H13.9288V16.4239ZM11.0796 15.0002H11.5851V17.4875H11.0796V16.4773H9.93748V17.4875H9.43164V15.0002H9.93748V16.0035H11.0796V15.0002Z" fill="white"/>
<path fill-rule="evenodd" clip-rule="evenodd" d="M16.8379 11.8332C15.0877 11.8332 13.6641 10.4126 13.6641 8.6665H14.1124C14.1124 10.1658 15.3352 11.3857 16.8379 11.3857C18.3406 11.3857 19.5634 10.1658 19.5634 8.6665H20.0117C20.0117 10.4126 18.5879 11.8332 16.8379 11.8332Z" fill="white"/>
<path d="M36.5282 22.3999L35.6708 20.021H32.388L31.5483 22.3999H30.0684L33.2807 13.7983H34.8076L38.0199 22.3999H36.5282ZM35.3009 18.814L34.4963 16.4819C34.4376 16.3257 34.3554 16.0796 34.2497 15.7437C34.1479 15.4077 34.0774 15.1616 34.0382 15.0054C33.9325 15.4858 33.7779 16.0112 33.5743 16.5815L32.7991 18.814H35.3009Z" fill="white"/>
<path d="M42.1206 22.5171C41.2984 22.5171 40.6603 22.2222 40.2061 21.6323H40.1239C40.1787 22.1792 40.2061 22.5112 40.2061 22.6284V25.2827H38.8261V15.9194H39.9419C39.9732 16.0405 40.0378 16.3296 40.1357 16.7866H40.2061C40.6368 16.1304 41.2828 15.8022 42.1441 15.8022C42.9545 15.8022 43.5848 16.0952 44.0351 16.6812C44.4892 17.2671 44.7163 18.0894 44.7163 19.1479C44.7163 20.2065 44.4853 21.0327 44.0233 21.6265C43.5653 22.2202 42.931 22.5171 42.1206 22.5171ZM41.7859 16.9272C41.2377 16.9272 40.8365 17.0874 40.582 17.4077C40.3314 17.728 40.2061 18.2397 40.2061 18.9429V19.1479C40.2061 19.937 40.3314 20.5093 40.582 20.8647C40.8325 21.2163 41.2417 21.3921 41.8093 21.3921C42.287 21.3921 42.655 21.1968 42.9134 20.8061C43.1718 20.4155 43.301 19.8589 43.301 19.1362C43.301 18.4097 43.1718 17.8608 42.9134 17.4897C42.6589 17.1147 42.2831 16.9272 41.7859 16.9272Z" fill="white"/>
<path d="M49.4336 22.5171C48.6115 22.5171 47.9733 22.2222 47.5192 21.6323H47.437C47.4918 22.1792 47.5192 22.5112 47.5192 22.6284V25.2827H46.1391V15.9194H47.2549C47.2862 16.0405 47.3508 16.3296 47.4487 16.7866H47.5192C47.9498 16.1304 48.5958 15.8022 49.4571 15.8022C50.2675 15.8022 50.8979 16.0952 51.3481 16.6812C51.8023 17.2671 52.0293 18.0894 52.0293 19.1479C52.0293 20.2065 51.7983 21.0327 51.3364 21.6265C50.8783 22.2202 50.2441 22.5171 49.4336 22.5171ZM49.0989 16.9272C48.5508 16.9272 48.1495 17.0874 47.895 17.4077C47.6445 17.728 47.5192 18.2397 47.5192 18.9429V19.1479C47.5192 19.937 47.6445 20.5093 47.895 20.8647C48.1456 21.2163 48.5547 21.3921 49.1224 21.3921C49.6 21.3921 49.968 21.1968 50.2264 20.8061C50.4848 20.4155 50.614 19.8589 50.614 19.1362C50.614 18.4097 50.4848 17.8608 50.2264 17.4897C49.972 17.1147 49.5961 16.9272 49.0989 16.9272Z" fill="white"/>
<path d="M57.1108 17.7534H60.2702V22.0542C59.7535 22.2222 59.2562 22.3413 58.7786 22.4116C58.3049 22.4819 57.792 22.5171 57.24 22.5171C55.9402 22.5171 54.9379 22.1343 54.2332 21.3686C53.5285 20.5991 53.1761 19.5151 53.1761 18.1167C53.1761 16.7378 53.5735 15.6597 54.3683 14.8823C55.163 14.1011 56.2573 13.7104 57.6511 13.7104C58.5476 13.7104 59.3972 13.8823 60.1998 14.2261L59.7065 15.3921C59.0096 15.0718 58.3127 14.9116 57.6158 14.9116C56.6997 14.9116 55.9754 15.1987 55.443 15.7729C54.9105 16.3472 54.6443 17.1323 54.6443 18.1284C54.6443 19.1753 54.8831 19.9722 55.3607 20.519C55.8423 21.062 56.5333 21.3335 57.4338 21.3335C57.8879 21.3335 58.3734 21.2769 58.8902 21.1636V18.9546H57.1108V17.7534Z" fill="white"/>
<path d="M66.074 22.3999L65.798 21.4976H65.751C65.4378 21.8921 65.1227 22.1616 64.8055 22.3061C64.4884 22.4468 64.0813 22.5171 63.584 22.5171C62.9459 22.5171 62.4467 22.3452 62.0865 22.0015C61.7303 21.6577 61.5521 21.1714 61.5521 20.5425C61.5521 19.8745 61.8007 19.3706 62.2979 19.0308C62.7952 18.6909 63.5527 18.5054 64.5706 18.4741L65.6923 18.439V18.0933C65.6923 17.6792 65.5944 17.3706 65.3987 17.1675C65.2068 16.9604 64.9073 16.8569 64.5002 16.8569C64.1674 16.8569 63.8483 16.9058 63.5429 17.0034C63.2376 17.1011 62.9439 17.2163 62.662 17.3491L62.2157 16.3647C62.5681 16.1812 62.9537 16.0425 63.3726 15.9487C63.7915 15.8511 64.187 15.8022 64.5589 15.8022C65.385 15.8022 66.0075 15.9819 66.4264 16.3413C66.8492 16.7007 67.0606 17.2651 67.0606 18.0347V22.3999H66.074ZM64.0186 21.4624C64.5197 21.4624 64.921 21.3237 65.2225 21.0464C65.5279 20.7651 65.6806 20.3726 65.6806 19.8686V19.3061L64.8467 19.3413C64.1968 19.3647 63.723 19.4741 63.4255 19.6694C63.1319 19.8608 62.985 20.1558 62.985 20.5542C62.985 20.8433 63.0712 21.0679 63.2434 21.228C63.4157 21.3843 63.6741 21.4624 64.0186 21.4624Z" fill="white"/>
<path d="M70.1865 22.3999H68.8064V13.2827H70.1865V22.3999Z" fill="white"/>
<path d="M73.3652 22.3999H71.9852V13.2827H73.3652V22.3999Z" fill="white"/>
<path d="M78.0004 22.5171C76.9903 22.5171 76.1994 22.2241 75.6278 21.6382C75.0601 21.0483 74.7763 20.2378 74.7763 19.2065C74.7763 18.1479 75.0406 17.3159 75.5691 16.7104C76.0976 16.105 76.8239 15.8022 77.7478 15.8022C78.6052 15.8022 79.2825 16.062 79.7798 16.5815C80.277 17.1011 80.5256 17.8159 80.5256 18.7261V19.4702H76.1975C76.217 20.0991 76.3873 20.5835 76.7084 20.9233C77.0294 21.2593 77.4816 21.4272 78.065 21.4272C78.4486 21.4272 78.8049 21.3921 79.1338 21.3218C79.4666 21.2476 79.8228 21.1265 80.2026 20.9585V22.0776C79.8659 22.2378 79.5253 22.3511 79.1808 22.4175C78.8362 22.4839 78.4428 22.5171 78.0004 22.5171ZM77.7478 16.8452C77.3093 16.8452 76.957 16.9839 76.6908 17.2612C76.4285 17.5386 76.2719 17.9429 76.221 18.4741H79.169C79.1612 17.939 79.032 17.5347 78.7814 17.2612C78.5308 16.9839 78.1863 16.8452 77.7478 16.8452Z" fill="white"/>
<path d="M85.2077 15.8022C85.4857 15.8022 85.7147 15.8218 85.8948 15.8608L85.7597 17.144C85.564 17.0972 85.3604 17.0737 85.149 17.0737C84.5969 17.0737 84.1487 17.2534 83.8041 17.6128C83.4635 17.9722 83.2932 18.439 83.2932 19.0132V22.3999H81.9132V15.9194H82.9937L83.1758 17.062H83.2462C83.4616 16.6753 83.7415 16.3687 84.086 16.1421C84.4345 15.9155 84.8084 15.8022 85.2077 15.8022Z" fill="white"/>
<path d="M85.9375 15.9194H87.4409L88.7623 19.5933C88.9619 20.1167 89.095 20.6089 89.1616 21.0698H89.2086C89.2438 20.855 89.3084 20.5952 89.4024 20.2905C89.4963 19.9819 89.9936 18.5249 90.894 15.9194H92.3857L89.6079 23.2612C89.1029 24.6089 88.2611 25.2827 87.0827 25.2827C86.7773 25.2827 86.4798 25.2495 86.1901 25.1831V24.0933C86.3976 24.1401 86.6344 24.1636 86.9007 24.1636C87.5662 24.1636 88.0341 23.7788 88.3042 23.0093L88.545 22.3999L85.9375 15.9194Z" fill="white"/>
<path d="M34.4466 8.45264C34.4466 9.1499 34.2714 9.69189 33.921 10.0786C33.5725 10.4653 33.0782 10.6587 32.4381 10.6587C31.7902 10.6587 31.292 10.4673 30.9436 10.0845C30.5971 9.69971 30.4238 9.15381 30.4238 8.44678C30.4238 7.73975 30.598 7.19678 30.9465 6.81787C31.2969 6.43896 31.7961 6.24951 32.444 6.24951C33.0822 6.24951 33.5755 6.44189 33.9239 6.82666C34.2723 7.21143 34.4466 7.75342 34.4466 8.45264ZM31.1696 8.45264C31.1696 8.97998 31.2763 9.38037 31.4897 9.65381C31.7031 9.92529 32.0192 10.061 32.4381 10.061C32.8551 10.061 33.1693 9.92627 33.3807 9.65674C33.5941 9.38721 33.7007 8.98584 33.7007 8.45264C33.7007 7.92725 33.595 7.52881 33.3836 7.25732C33.1742 6.98584 32.861 6.8501 32.444 6.8501C32.0231 6.8501 31.705 6.98584 31.4897 7.25732C31.2763 7.52881 31.1696 7.92725 31.1696 8.45264Z" fill="white"/>
<path d="M36.8514 10.6001H36.1496V6.91748H34.887V6.31689H38.114V6.91748H36.8514V10.6001Z" fill="white"/>
<path d="M42.0692 10.6001H41.2441L39.4765 8.4292V10.6001H38.7747V6.31689H39.4765V8.39111L41.2147 6.31689H41.9841L40.2516 8.38525L42.0692 10.6001Z" fill="white"/>
<path d="M45.4812 7.61182C45.4812 8.05908 45.3344 8.40186 45.0408 8.64014C44.7471 8.87842 44.3292 8.99756 43.787 8.99756H43.3406V10.6001H42.6389V6.31689H43.875C44.4114 6.31689 44.8127 6.42627 45.0789 6.64502C45.3471 6.86377 45.4812 7.18603 45.4812 7.61182ZM43.3406 8.40869H43.7135C44.0737 8.40869 44.338 8.34619 44.5063 8.22119C44.6747 8.09619 44.7589 7.90088 44.7589 7.63525C44.7589 7.38916 44.6835 7.20557 44.5328 7.08447C44.382 6.96338 44.1471 6.90283 43.8281 6.90283H43.3406V8.40869Z" fill="white"/>
<path d="M50.1499 8.45264C50.1499 9.1499 49.9747 9.69189 49.6243 10.0786C49.2759 10.4653 48.7816 10.6587 48.1415 10.6587C47.4935 10.6587 46.9954 10.4673 46.6469 10.0845C46.3004 9.69971 46.1272 9.15381 46.1272 8.44678C46.1272 7.73975 46.3014 7.19678 46.6498 6.81787C47.0002 6.43896 47.4994 6.24951 48.1474 6.24951C48.7855 6.24951 49.2788 6.44189 49.6273 6.82666C49.9757 7.21143 50.1499 7.75342 50.1499 8.45264ZM46.873 8.45264C46.873 8.97998 46.9797 9.38037 47.1931 9.65381C47.4064 9.92529 47.7226 10.061 48.1415 10.061C48.5584 10.061 48.8726 9.92627 49.084 9.65674C49.2974 9.38721 49.4041 8.98584 49.4041 8.45264C49.4041 7.92725 49.2984 7.52881 49.087 7.25732C48.8775 6.98584 48.5643 6.8501 48.1474 6.8501C47.7265 6.8501 47.4084 6.98584 47.1931 7.25732C46.9797 7.52881 46.873 7.92725 46.873 8.45264Z" fill="white"/>
<path d="M51.0719 6.31689H51.715V8.54346C51.715 8.77588 51.7091 9.01123 51.6974 9.24951C51.6856 9.48584 51.6768 9.646 51.6709 9.72998H51.6974L53.8908 6.31689H54.71V10.6001H54.064V8.39111C54.064 8.05322 54.0826 7.64307 54.1198 7.16064H54.0963L51.8941 10.6001H51.0719V6.31689ZM52.913 5.97412C52.498 5.97412 52.1936 5.8999 51.9998 5.75146C51.808 5.60107 51.7013 5.35107 51.6797 5.00146H52.3052C52.3169 5.14209 52.3433 5.25146 52.3844 5.32959C52.4275 5.40771 52.4882 5.46436 52.5665 5.49951C52.6468 5.53271 52.7681 5.54932 52.9306 5.54932C53.1224 5.54932 53.2683 5.50732 53.3681 5.42334C53.4679 5.3374 53.5286 5.19678 53.5502 5.00146H54.1873C54.158 5.3374 54.0395 5.5835 53.832 5.73975C53.6245 5.896 53.3182 5.97412 52.913 5.97412Z" fill="white"/>
<path d="M57.3174 10.6001H56.6157V6.91748H55.3531V6.31689H58.5801V6.91748H57.3174V10.6001Z" fill="white"/>
<path d="M61.669 10.6001H59.2407V6.31689H61.669V6.90869H59.9425V8.07471H61.5604V8.66064H59.9425V10.0054H61.669V10.6001Z" fill="white"/>
<path d="M64.162 6.31689H65.4363C66.0275 6.31689 66.4542 6.40283 66.7166 6.57471C66.9808 6.74658 67.113 7.01807 67.113 7.38916C67.113 7.63916 67.0484 7.84717 66.9192 8.01318C66.79 8.1792 66.604 8.28369 66.3613 8.32666V8.35596C66.6627 8.4126 66.8839 8.5249 67.0249 8.69287C67.1678 8.85889 67.2392 9.08447 67.2392 9.36963C67.2392 9.75439 67.1041 10.0562 66.834 10.2749C66.5658 10.4917 66.1919 10.6001 65.7123 10.6001H64.162V6.31689ZM64.8637 8.08643H65.5391C65.8327 8.08643 66.0471 8.04053 66.1821 7.94873C66.3172 7.85498 66.3848 7.69678 66.3848 7.47412C66.3848 7.27295 66.3113 7.12744 66.1645 7.0376C66.0197 6.94775 65.7887 6.90283 65.4716 6.90283H64.8637V8.08643ZM64.8637 8.65478V10.0112H65.6096C65.9032 10.0112 66.1244 9.95557 66.2732 9.84424C66.4239 9.73096 66.4993 9.55322 66.4993 9.31103C66.4993 9.08838 66.4229 8.92334 66.2702 8.81592C66.1175 8.7085 65.8856 8.65478 65.5743 8.65478H64.8637Z" fill="white"/>
</g>
<defs>
<linearGradient id="paint0_linear_4104_261240" x1="16.8379" y1="5.5" x2="16.8379" y2="24.5" gradientUnits="userSpaceOnUse">
<stop stop-color="#FB6361"/>
<stop offset="1" stop-color="#ED3E45"/>
</linearGradient>
<clipPath id="clip0_4104_261240">
<rect width="101.429" height="30" fill="white"/>
</clipPath>
</defs>
</svg>
