<svg width="102" height="30" viewBox="0 0 102 30" fill="none" xmlns="http://www.w3.org/2000/svg">
<g clip-path="url(#clip0_4104_261241)">
<path d="M0 4C0 1.79086 1.79493 0 4.00909 0H97.4209C99.6351 0 101.43 1.79086 101.43 4V26C101.43 28.2091 99.6351 30 97.4209 30H4.00909C1.79493 30 0 28.2091 0 26V4Z" fill="white"/>
<path fill-rule="evenodd" clip-rule="evenodd" d="M0 26V4C0 1.79086 1.79493 0 4.00909 0H97.4209C99.6351 0 101.43 1.79086 101.43 4V26C101.43 28.2091 99.6351 30 97.4209 30H4.00909C1.79493 30 0 28.2091 0 26ZM0.601364 26V4C0.601364 2.12223 2.12705 0.6 4.00909 0.6H97.4209C99.3029 0.6 100.829 2.12223 100.829 4V26C100.829 27.8778 99.3029 29.4 97.4209 29.4H4.00909C2.12706 29.4 0.601364 27.8778 0.601364 26Z" fill="black" fill-opacity="0.1"/>
<path fill-rule="evenodd" clip-rule="evenodd" d="M12.6596 5.5C8.74735 5.5 7.31641 6.92745 7.31641 10.83V19.17C7.31641 23.0725 8.74735 24.5 12.6596 24.5H21.0138C24.926 24.5 26.3596 23.0725 26.3596 19.17V10.83C26.3596 6.92745 24.9286 5.5 21.0164 5.5H12.6596Z" fill="url(#paint0_linear_4104_261241)"/>
<path fill-rule="evenodd" clip-rule="evenodd" d="M15.6223 16.5196H16.3868L16.0032 15.6296L15.6223 16.5196ZM15.434 16.9681L15.2072 17.4859H14.6908L15.789 15.0002H16.2353L17.329 17.4859H16.7988L16.5749 16.9681H15.434ZM23.7439 17.4841H24.243V15H23.7439V17.4841ZM21.7574 16.417H22.6774V15.9641H21.7574V15.4549H23.0929V15.0018H21.2584V17.4858H23.141V17.0327H21.7574V16.417ZM19.7742 16.7105L19.2084 15H18.7954L18.2296 16.7105L17.6789 15.0014H17.1405L18.0095 17.4873H18.4281L18.9949 15.8544L19.5616 17.4873H19.9839L20.8507 15.0014H20.3262L19.7742 16.7105ZM13.9289 16.4239C13.9289 16.8282 13.7276 17.0443 13.3621 17.0443C12.9946 17.0443 12.7923 16.822 12.7923 16.4066V15.0017H12.2864V16.4239C12.2864 17.1234 12.6761 17.5246 13.3552 17.5246C14.0411 17.5246 14.4343 17.1158 14.4343 16.4031V15.0002H13.9289V16.4239ZM11.0796 15.0002H11.5851V17.4875H11.0796V16.4773H9.93749V17.4875H9.43164V15.0002H9.93749V16.0035H11.0796V15.0002Z" fill="white"/>
<path fill-rule="evenodd" clip-rule="evenodd" d="M16.8379 11.8332C15.0877 11.8332 13.6641 10.4126 13.6641 8.6665H14.1124C14.1124 10.1658 15.3352 11.3857 16.8379 11.3857C18.3407 11.3857 19.5635 10.1658 19.5635 8.6665H20.0118C20.0118 10.4126 18.588 11.8332 16.8379 11.8332Z" fill="white"/>
<path d="M36.5283 22.3999L35.6709 20.021H32.3881L31.5483 22.3999H30.0684L33.2807 13.7983H34.8076L38.02 22.3999H36.5283ZM35.3009 18.814L34.4964 16.4819C34.4376 16.3257 34.3554 16.0796 34.2497 15.7437C34.1479 15.4077 34.0775 15.1616 34.0383 15.0054C33.9326 15.4858 33.7779 16.0112 33.5744 16.5815L32.7992 18.814H35.3009Z" fill="black"/>
<path d="M42.1208 22.5171C41.2986 22.5171 40.6604 22.2222 40.2063 21.6323H40.1241C40.1789 22.1792 40.2063 22.5112 40.2063 22.6284V25.2827H38.8262V15.9194H39.942C39.9733 16.0405 40.0379 16.3296 40.1358 16.7866H40.2063C40.6369 16.1304 41.2829 15.8022 42.1443 15.8022C42.9547 15.8022 43.585 16.0952 44.0353 16.6812C44.4894 17.2671 44.7165 18.0894 44.7165 19.1479C44.7165 20.2065 44.4855 21.0327 44.0235 21.6265C43.5654 22.2202 42.9312 22.5171 42.1208 22.5171ZM41.786 16.9272C41.2379 16.9272 40.8366 17.0874 40.5821 17.4077C40.3316 17.728 40.2063 18.2397 40.2063 18.9429V19.1479C40.2063 19.937 40.3316 20.5093 40.5821 20.8647C40.8327 21.2163 41.2418 21.3921 41.8095 21.3921C42.2872 21.3921 42.6552 21.1968 42.9136 20.8061C43.172 20.4155 43.3012 19.8589 43.3012 19.1362C43.3012 18.4097 43.172 17.8608 42.9136 17.4897C42.6591 17.1147 42.2832 16.9272 41.786 16.9272Z" fill="black"/>
<path d="M49.4339 22.5171C48.6117 22.5171 47.9736 22.2222 47.5194 21.6323H47.4372C47.492 22.1792 47.5194 22.5112 47.5194 22.6284V25.2827H46.1393V15.9194H47.2551C47.2865 16.0405 47.3511 16.3296 47.4489 16.7866H47.5194C47.9501 16.1304 48.5961 15.8022 49.4574 15.8022C50.2678 15.8022 50.8982 16.0952 51.3484 16.6812C51.8026 17.2671 52.0296 18.0894 52.0296 19.1479C52.0296 20.2065 51.7986 21.0327 51.3367 21.6265C50.8786 22.2202 50.2443 22.5171 49.4339 22.5171ZM49.0992 16.9272C48.5511 16.9272 48.1497 17.0874 47.8953 17.4077C47.6447 17.728 47.5194 18.2397 47.5194 18.9429V19.1479C47.5194 19.937 47.6447 20.5093 47.8953 20.8647C48.1458 21.2163 48.555 21.3921 49.1227 21.3921C49.6003 21.3921 49.9683 21.1968 50.2267 20.8061C50.4851 20.4155 50.6143 19.8589 50.6143 19.1362C50.6143 18.4097 50.4851 17.8608 50.2267 17.4897C49.9722 17.1147 49.5964 16.9272 49.0992 16.9272Z" fill="black"/>
<path d="M57.1112 17.7534H60.2707V22.0542C59.7539 22.2222 59.2567 22.3413 58.779 22.4116C58.3053 22.4819 57.7924 22.5171 57.2404 22.5171C55.9405 22.5171 54.9383 22.1343 54.2335 21.3686C53.5288 20.5991 53.1765 19.5151 53.1765 18.1167C53.1765 16.7378 53.5738 15.6597 54.3686 14.8823C55.1634 14.1011 56.2577 13.7104 57.6515 13.7104C58.548 13.7104 59.3976 13.8823 60.2002 14.2261L59.7069 15.3921C59.01 15.0718 58.3131 14.9116 57.6162 14.9116C56.7001 14.9116 55.9758 15.1987 55.4433 15.7729C54.9109 16.3472 54.6446 17.1323 54.6446 18.1284C54.6446 19.1753 54.8835 19.9722 55.3611 20.519C55.8427 21.062 56.5337 21.3335 57.4342 21.3335C57.8883 21.3335 58.3738 21.2769 58.8906 21.1636V18.9546H57.1112V17.7534Z" fill="black"/>
<path d="M66.0745 22.3999L65.7985 21.4976H65.7515C65.4383 21.8921 65.1232 22.1616 64.806 22.3061C64.4889 22.4468 64.0817 22.5171 63.5845 22.5171C62.9464 22.5171 62.4472 22.3452 62.087 22.0015C61.7307 21.6577 61.5526 21.1714 61.5526 20.5425C61.5526 19.8745 61.8012 19.3706 62.2984 19.0308C62.7956 18.6909 63.5532 18.5054 64.5711 18.4741L65.6928 18.439V18.0933C65.6928 17.6792 65.5949 17.3706 65.3992 17.1675C65.2073 16.9604 64.9078 16.8569 64.5007 16.8569C64.1679 16.8569 63.8488 16.9058 63.5434 17.0034C63.238 17.1011 62.9444 17.2163 62.6625 17.3491L62.2162 16.3647C62.5685 16.1812 62.9542 16.0425 63.3731 15.9487C63.792 15.8511 64.1874 15.8022 64.5594 15.8022C65.3855 15.8022 66.008 15.9819 66.4269 16.3413C66.8497 16.7007 67.0611 17.2651 67.0611 18.0347V22.3999H66.0745ZM64.0191 21.4624C64.5202 21.4624 64.9215 21.3237 65.223 21.0464C65.5284 20.7651 65.6811 20.3726 65.6811 19.8686V19.3061L64.8471 19.3413C64.1972 19.3647 63.7235 19.4741 63.426 19.6694C63.1323 19.8608 62.9855 20.1558 62.9855 20.5542C62.9855 20.8433 63.0716 21.0679 63.2439 21.228C63.4162 21.3843 63.6746 21.4624 64.0191 21.4624Z" fill="black"/>
<path d="M70.1871 22.3999H68.807V13.2827H70.1871V22.3999Z" fill="black"/>
<path d="M73.3658 22.3999H71.9858V13.2827H73.3658V22.3999Z" fill="black"/>
<path d="M78.001 22.5171C76.9909 22.5171 76.2001 22.2241 75.6285 21.6382C75.0608 21.0483 74.7769 20.2378 74.7769 19.2065C74.7769 18.1479 75.0412 17.3159 75.5697 16.7104C76.0983 16.105 76.8245 15.8022 77.7485 15.8022C78.6059 15.8022 79.2832 16.062 79.7805 16.5815C80.2777 17.1011 80.5263 17.8159 80.5263 18.7261V19.4702H76.1981C76.2177 20.0991 76.388 20.5835 76.709 20.9233C77.0301 21.2593 77.4823 21.4272 78.0656 21.4272C78.4493 21.4272 78.8056 21.3921 79.1345 21.3218C79.4673 21.2476 79.8235 21.1265 80.2033 20.9585V22.0776C79.8666 22.2378 79.526 22.3511 79.1814 22.4175C78.8369 22.4839 78.4434 22.5171 78.001 22.5171ZM77.7485 16.8452C77.31 16.8452 76.9577 16.9839 76.6914 17.2612C76.4291 17.5386 76.2725 17.9429 76.2216 18.4741H79.1697C79.1619 17.939 79.0327 17.5347 78.7821 17.2612C78.5315 16.9839 78.187 16.8452 77.7485 16.8452Z" fill="black"/>
<path d="M85.2085 15.8022C85.4864 15.8022 85.7155 15.8218 85.8956 15.8608L85.7605 17.144C85.5647 17.0972 85.3612 17.0737 85.1497 17.0737C84.5977 17.0737 84.1494 17.2534 83.8049 17.6128C83.4643 17.9722 83.294 18.439 83.294 19.0132V22.3999H81.9139V15.9194H82.9945L83.1765 17.062H83.247C83.4623 16.6753 83.7423 16.3687 84.0868 16.1421C84.4352 15.9155 84.8091 15.8022 85.2085 15.8022Z" fill="black"/>
<path d="M85.9383 15.9194H87.4417L88.7631 19.5933C88.9628 20.1167 89.0959 20.6089 89.1624 21.0698H89.2094C89.2447 20.855 89.3093 20.5952 89.4032 20.2905C89.4972 19.9819 89.9944 18.5249 90.8949 15.9194H92.3865L89.6088 23.2612C89.1037 24.6089 88.262 25.2827 87.0835 25.2827C86.7781 25.2827 86.4806 25.2495 86.1909 25.1831V24.0933C86.3984 24.1401 86.6352 24.1636 86.9015 24.1636C87.567 24.1636 88.0349 23.7788 88.305 23.0093L88.5458 22.3999L85.9383 15.9194Z" fill="black"/>
<path d="M34.4466 8.45264C34.4466 9.1499 34.2714 9.69189 33.921 10.0786C33.5726 10.4653 33.0783 10.6587 32.4382 10.6587C31.7902 10.6587 31.292 10.4673 30.9436 10.0845C30.5971 9.69971 30.4238 9.15381 30.4238 8.44678C30.4238 7.73975 30.5981 7.19678 30.9465 6.81787C31.2969 6.43896 31.7961 6.24951 32.444 6.24951C33.0822 6.24951 33.5755 6.44189 33.924 6.82666C34.2724 7.21143 34.4466 7.75342 34.4466 8.45264ZM31.1697 8.45264C31.1697 8.97998 31.2763 9.38037 31.4897 9.65381C31.7031 9.92529 32.0192 10.061 32.4382 10.061C32.8551 10.061 33.1693 9.92627 33.3807 9.65674C33.5941 9.38721 33.7008 8.98584 33.7008 8.45264C33.7008 7.92725 33.5951 7.52881 33.3837 7.25732C33.1742 6.98584 32.861 6.8501 32.444 6.8501C32.0232 6.8501 31.7051 6.98584 31.4897 7.25732C31.2763 7.52881 31.1697 7.92725 31.1697 8.45264Z" fill="black"/>
<path d="M36.8515 10.6001H36.1497V6.91748H34.8871V6.31689H38.1141V6.91748H36.8515V10.6001Z" fill="black"/>
<path d="M42.0694 10.6001H41.2443L39.4766 8.4292V10.6001H38.7748V6.31689H39.4766V8.39111L41.2149 6.31689H41.9842L40.2518 8.38525L42.0694 10.6001Z" fill="black"/>
<path d="M45.4814 7.61182C45.4814 8.05908 45.3346 8.40186 45.041 8.64014C44.7473 8.87842 44.3294 8.99756 43.7871 8.99756H43.3408V10.6001H42.639V6.31689H43.8752C44.4116 6.31689 44.8129 6.42627 45.0791 6.64502C45.3473 6.86377 45.4814 7.18603 45.4814 7.61182ZM43.3408 8.40869H43.7137C44.0739 8.40869 44.3382 8.34619 44.5065 8.22119C44.6749 8.09619 44.7591 7.90088 44.7591 7.63525C44.7591 7.38916 44.6837 7.20557 44.533 7.08447C44.3822 6.96338 44.1473 6.90283 43.8282 6.90283H43.3408V8.40869Z" fill="black"/>
<path d="M50.1502 8.45264C50.1502 9.1499 49.975 9.69189 49.6246 10.0786C49.2761 10.4653 48.7819 10.6587 48.1417 10.6587C47.4938 10.6587 46.9956 10.4673 46.6471 10.0845C46.3006 9.69971 46.1274 9.15381 46.1274 8.44678C46.1274 7.73975 46.3016 7.19678 46.6501 6.81787C47.0005 6.43896 47.4997 6.24951 48.1476 6.24951C48.7858 6.24951 49.2791 6.44189 49.6275 6.82666C49.976 7.21143 50.1502 7.75342 50.1502 8.45264ZM46.8732 8.45264C46.8732 8.97998 46.9799 9.38037 47.1933 9.65381C47.4067 9.92529 47.7228 10.061 48.1417 10.061C48.5587 10.061 48.8729 9.92627 49.0843 9.65674C49.2977 9.38721 49.4044 8.98584 49.4044 8.45264C49.4044 7.92725 49.2987 7.52881 49.0872 7.25732C48.8778 6.98584 48.5646 6.8501 48.1476 6.8501C47.7267 6.8501 47.4086 6.98584 47.1933 7.25732C46.9799 7.52881 46.8732 7.92725 46.8732 8.45264Z" fill="black"/>
<path d="M51.0722 6.31689H51.7153V8.54346C51.7153 8.77588 51.7094 9.01123 51.6977 9.24951C51.6859 9.48584 51.6771 9.646 51.6712 9.72998H51.6977L53.8911 6.31689H54.7103V10.6001H54.0643V8.39111C54.0643 8.05322 54.0829 7.64307 54.1201 7.16064H54.0966L51.8944 10.6001H51.0722V6.31689ZM52.9133 5.97412C52.4983 5.97412 52.1939 5.8999 52.0001 5.75146C51.8083 5.60107 51.7016 5.35107 51.68 5.00146H52.3055C52.3172 5.14209 52.3436 5.25146 52.3848 5.32959C52.4278 5.40771 52.4885 5.46436 52.5668 5.49951C52.6471 5.53271 52.7684 5.54932 52.9309 5.54932C53.1228 5.54932 53.2686 5.50732 53.3684 5.42334C53.4683 5.3374 53.529 5.19678 53.5505 5.00146H54.1877C54.1583 5.3374 54.0399 5.5835 53.8324 5.73975C53.6249 5.896 53.3185 5.97412 52.9133 5.97412Z" fill="black"/>
<path d="M57.3178 10.6001H56.616V6.91748H55.3534V6.31689H58.5804V6.91748H57.3178V10.6001Z" fill="black"/>
<path d="M61.6695 10.6001H59.2411V6.31689H61.6695V6.90869H59.9429V8.07471H61.5608V8.66064H59.9429V10.0054H61.6695V10.6001Z" fill="black"/>
<path d="M64.1624 6.31689H65.4368C66.028 6.31689 66.4547 6.40283 66.7171 6.57471C66.9813 6.74658 67.1135 7.01807 67.1135 7.38916C67.1135 7.63916 67.0489 7.84717 66.9197 8.01318C66.7905 8.1792 66.6045 8.28369 66.3618 8.32666V8.35596C66.6632 8.4126 66.8844 8.5249 67.0254 8.69287C67.1683 8.85889 67.2397 9.08447 67.2397 9.36963C67.2397 9.75439 67.1047 10.0562 66.8345 10.2749C66.5663 10.4917 66.1924 10.6001 65.7128 10.6001H64.1624V6.31689ZM64.8642 8.08643H65.5396C65.8332 8.08643 66.0476 8.04053 66.1826 7.94873C66.3177 7.85498 66.3853 7.69678 66.3853 7.47412C66.3853 7.27295 66.3118 7.12744 66.165 7.0376C66.0202 6.94775 65.7892 6.90283 65.472 6.90283H64.8642V8.08643ZM64.8642 8.65478V10.0112H65.6101C65.9037 10.0112 66.1249 9.95557 66.2737 9.84424C66.4244 9.73096 66.4998 9.55322 66.4998 9.31103C66.4998 9.08838 66.4234 8.92334 66.2707 8.81592C66.118 8.7085 65.8861 8.65478 65.5748 8.65478H64.8642Z" fill="black"/>
</g>
<defs>
<linearGradient id="paint0_linear_4104_261241" x1="16.838" y1="5.5" x2="16.838" y2="24.5" gradientUnits="userSpaceOnUse">
<stop stop-color="#FB6361"/>
<stop offset="1" stop-color="#ED3E45"/>
</linearGradient>
<clipPath id="clip0_4104_261241">
<rect width="101.43" height="30" fill="white"/>
</clipPath>
</defs>
</svg>
