<svg width="102" height="30" viewBox="0 0 102 30" fill="none" xmlns="http://www.w3.org/2000/svg">
<g clip-path="url(#clip0_3515_15165)">
<path d="M0.308594 4C0.308594 1.79086 2.1035 0 4.31763 0H97.7281C99.9423 0 101.737 1.79086 101.737 4V26C101.737 28.2091 99.9423 30 97.7281 30H4.31763C2.1035 30 0.308594 28.2091 0.308594 26V4Z" fill="black"/>
<path fill-rule="evenodd" clip-rule="evenodd" d="M0.308594 26V4C0.308594 1.79086 2.1035 0 4.31763 0H97.7281C99.9423 0 101.737 1.79086 101.737 4V26C101.737 28.2091 99.9423 30 97.7281 30H4.31763C2.1035 30 0.308594 28.2091 0.308594 26ZM0.909949 26V4C0.909949 2.12223 2.43562 0.6 4.31763 0.6H97.7281C99.6101 0.6 101.136 2.12223 101.136 4V26C101.136 27.8778 99.6101 29.4 97.7281 29.4H4.31763C2.43562 29.4 0.909949 27.8778 0.909949 26Z" fill="white" fill-opacity="0.3"/>
<path d="M23.2295 15.6109C23.2192 13.8526 24.0176 12.5275 25.63 11.5504C24.7282 10.2613 23.3639 9.55232 21.5654 9.41568C19.8626 9.28162 17.9996 10.4057 17.3174 10.4057C16.5965 10.4057 14.9479 9.46209 13.6508 9.46209C10.9738 9.50334 8.12891 11.5916 8.12891 15.8404C8.12891 17.0959 8.35888 18.3927 8.81882 19.7282C9.4338 21.4865 11.6508 25.7945 13.9635 25.7249C15.1727 25.6965 16.028 24.869 17.6017 24.869C19.1288 24.869 19.9195 25.7249 21.2683 25.7249C23.6016 25.6914 25.6067 21.7752 26.1907 20.0118C23.0615 18.5397 23.2295 15.7012 23.2295 15.6109ZM20.5138 7.74764C21.8238 6.19561 21.705 4.78279 21.6662 4.2749C20.5086 4.34193 19.1701 5.06123 18.4079 5.94553C17.5681 6.89428 17.0745 8.06732 17.1805 9.3899C18.4311 9.48529 19.5732 8.84334 20.5138 7.74764Z" fill="white"/>
<path d="M37.3429 21.7096H36.0158L35.2888 19.4199H32.7619L32.0694 21.7096H30.7773L33.2809 13.9142H34.8271L37.3429 21.7096ZM35.0697 18.4592L34.4122 16.4236C34.3427 16.2157 34.2124 15.726 34.0201 14.9551H33.9967C33.9202 15.2866 33.7969 15.7763 33.6274 16.4236L32.9817 18.4592H35.0697Z" fill="white"/>
<path d="M43.7811 18.83C43.7811 19.786 43.5234 20.5416 43.008 21.0964C42.5463 21.5902 41.973 21.8368 41.2887 21.8368C40.55 21.8368 40.0194 21.5708 39.6962 21.039H39.6729V24H38.427V17.9391C38.427 17.3381 38.4112 16.7212 38.3808 16.0886H39.4765L39.5461 16.9796H39.5694C39.9849 16.3083 40.6155 15.9732 41.4617 15.9732C42.1232 15.9732 42.6755 16.235 43.1172 16.7593C43.5602 17.2842 43.7811 17.9742 43.7811 18.83ZM42.5118 18.8757C42.5118 18.3286 42.3891 17.8776 42.1425 17.5226C41.8731 17.1524 41.5114 16.9673 41.0579 16.9673C40.7505 16.9673 40.4711 17.0704 40.2216 17.2736C39.9715 17.4786 39.8079 17.7463 39.7313 18.0779C39.6927 18.2325 39.6735 18.3591 39.6735 18.4586V19.3959C39.6735 19.8047 39.7985 20.1498 40.0486 20.4315C40.2988 20.7133 40.6237 20.8539 41.0234 20.8539C41.4927 20.8539 41.8579 20.6723 42.1191 20.3103C42.3809 19.9477 42.5118 19.4697 42.5118 18.8757Z" fill="white"/>
<path d="M50.2312 18.83C50.2312 19.786 49.9735 20.5416 49.4575 21.0964C48.9964 21.5902 48.4231 21.8368 47.7388 21.8368C47.0001 21.8368 46.4695 21.5708 46.1469 21.039H46.1235V24H44.8776V17.9391C44.8776 17.3381 44.8619 16.7212 44.8315 16.0886H45.9272L45.9967 16.9796H46.0201C46.435 16.3083 47.0656 15.9732 47.9124 15.9732C48.5733 15.9732 49.1255 16.235 49.5685 16.7593C50.0097 17.2842 50.2312 17.9742 50.2312 18.83ZM48.9619 18.8757C48.9619 18.3286 48.8386 17.8776 48.592 17.5226C48.3226 17.1524 47.962 16.9673 47.508 16.9673C47.2 16.9673 46.9212 17.0704 46.6711 17.2736C46.421 17.4786 46.258 17.7463 46.1814 18.0779C46.1434 18.2325 46.1235 18.3591 46.1235 18.4586V19.3959C46.1235 19.8047 46.2486 20.1498 46.4976 20.4315C46.7477 20.7127 47.0726 20.8539 47.4735 20.8539C47.9427 20.8539 48.308 20.6723 48.5692 20.3103C48.831 19.9477 48.9619 19.4697 48.9619 18.8757Z" fill="white"/>
<path d="M57.4426 19.5236C57.4426 20.1867 57.213 20.7262 56.7519 21.1427C56.2452 21.5979 55.5399 21.8251 54.6335 21.8251C53.7967 21.8251 53.1258 21.6635 52.6179 21.3395L52.9066 20.2986C53.4536 20.6302 54.0538 20.7965 54.7077 20.7965C55.177 20.7965 55.5422 20.6899 55.8046 20.4779C56.0658 20.2658 56.1961 19.9811 56.1961 19.6261C56.1961 19.3098 56.0886 19.0433 55.873 18.8271C55.6585 18.611 55.3003 18.4101 54.8 18.2244C53.4384 17.7154 52.7582 16.9697 52.7582 15.9891C52.7582 15.3482 52.9966 14.8228 53.4741 14.4139C53.9498 14.0045 54.5844 13.8 55.378 13.8C56.0857 13.8 56.6736 13.9236 57.1429 14.1703L56.8314 15.1883C56.3931 14.9493 55.8975 14.8298 55.3429 14.8298C54.9047 14.8298 54.5622 14.9382 54.3168 15.1538C54.1093 15.3465 54.0053 15.5814 54.0053 15.8596C54.0053 16.1677 54.1239 16.4226 54.3623 16.6229C54.5698 16.808 54.9467 17.0083 55.4937 17.2245C56.1628 17.4945 56.6543 17.8102 56.9705 18.1723C57.2854 18.5331 57.4426 18.9847 57.4426 19.5236Z" fill="white"/>
<path d="M61.5618 17.026H60.1885V19.7551C60.1885 20.4492 60.4304 20.796 60.9155 20.796C61.1381 20.796 61.3228 20.7767 61.4689 20.738L61.5033 21.6864C61.2579 21.7783 60.9347 21.8246 60.5344 21.8246C60.0424 21.8246 59.6579 21.6741 59.3803 21.3736C59.1039 21.0725 58.9648 20.5675 58.9648 19.8582V17.0248H58.1466V16.0875H58.9648V15.0583L60.1885 14.6881V16.0875H61.5618V17.026Z" fill="white"/>
<path d="M67.7581 18.8529C67.7581 19.7169 67.5115 20.4263 67.0194 20.981C66.5034 21.5521 65.8185 21.8368 64.9647 21.8368C64.1419 21.8368 63.4868 21.5632 62.9983 21.0161C62.5097 20.469 62.2655 19.7784 62.2655 18.946C62.2655 18.075 62.5167 17.3615 63.0211 16.8068C63.5242 16.2515 64.2033 15.9738 65.0571 15.9738C65.8799 15.9738 66.542 16.2474 67.0417 16.7951C67.5197 17.3263 67.7581 18.0123 67.7581 18.8529ZM66.4654 18.8933C66.4654 18.3749 66.355 17.9303 66.1312 17.5595C65.87 17.1108 65.4965 16.887 65.0127 16.887C64.5118 16.887 64.1314 17.1114 63.8702 17.5595C63.6464 17.9309 63.5359 18.3825 63.5359 18.9167C63.5359 19.4351 63.6464 19.8797 63.8702 20.2499C64.1396 20.6986 64.5159 20.9224 65.0016 20.9224C65.4772 20.9224 65.8507 20.694 66.1201 20.2382C66.3497 19.8604 66.4654 19.4111 66.4654 18.8933Z" fill="white"/>
<path d="M71.8078 17.1869C71.6845 17.1641 71.553 17.1524 71.4151 17.1524C70.9768 17.1524 70.6379 17.3181 70.3994 17.6503C70.192 17.9432 70.088 18.3134 70.088 18.7603V21.7097H68.8426L68.8543 17.8588C68.8543 17.2109 68.8385 16.6211 68.8076 16.0892H69.8928L69.9384 17.1647H69.9728C70.1043 16.795 70.3118 16.4975 70.5958 16.2743C70.8734 16.0734 71.1732 15.9732 71.4963 15.9732C71.6115 15.9732 71.7155 15.9814 71.8078 15.9961V17.1869Z" fill="white"/>
<path d="M77.3796 18.6332C77.3796 18.857 77.365 19.0456 77.3341 19.1997H73.5963C73.6109 19.755 73.7915 20.1797 74.1386 20.4726C74.4536 20.7344 74.8609 20.8656 75.3612 20.8656C75.9146 20.8656 76.4195 20.7772 76.8736 20.5997L77.0688 21.4666C76.5381 21.6986 75.9117 21.814 75.1888 21.814C74.3192 21.814 73.6367 21.5574 73.1399 21.0449C72.6444 20.5323 72.396 19.844 72.396 18.9806C72.396 18.133 72.6268 17.4271 73.0891 16.8642C73.573 16.2632 74.2269 15.9627 75.0497 15.9627C75.8579 15.9627 76.4698 16.2632 76.8853 16.8642C77.2143 17.3416 77.3796 17.9321 77.3796 18.6332ZM76.1916 18.3093C76.1998 17.9391 76.1185 17.6193 75.9497 17.3492C75.734 17.0019 75.4027 16.8285 74.9568 16.8285C74.5495 16.8285 74.2181 16.9978 73.9651 17.3375C73.7576 17.6076 73.6343 17.9315 73.5963 18.3087H76.1916V18.3093Z" fill="white"/>
<path d="M32.0621 8.99065H32.7042C33.3244 8.99065 33.6877 9.26877 33.6877 9.73752V9.74377C33.6877 10.1781 33.3056 10.4625 32.723 10.4625C32.1279 10.4625 31.7489 10.2281 31.6988 9.81252L31.6957 9.78752H31.0098L31.0129 9.82502C31.0599 10.5688 31.7239 11.075 32.723 11.075C33.6908 11.075 34.4049 10.5188 34.4049 9.77502V9.76877C34.4049 9.16252 34.0322 8.7344 33.4277 8.6594V8.6344C33.9288 8.51877 34.2671 8.10002 34.2671 7.60002V7.59377C34.2671 6.8969 33.647 6.41565 32.7387 6.41565C31.7928 6.41565 31.1758 6.88127 31.1288 7.64377L31.1257 7.68752H31.799L31.8022 7.64377C31.8554 7.25627 32.1843 7.02815 32.7167 7.02815C33.2586 7.02815 33.5718 7.26877 33.5718 7.66877V7.67502C33.5718 8.10627 33.2241 8.40315 32.6854 8.40315H32.0621V8.99065Z" fill="white"/>
<path d="M36.6734 11.0594C37.1119 11.0594 37.4909 10.8344 37.6819 10.4813H37.6976V11H38.3741V8.7344C38.3741 8.07502 37.8636 7.65002 37.0586 7.65002C36.2474 7.65002 35.7557 8.0844 35.7087 8.65002L35.7056 8.6844H36.3445L36.3508 8.65627C36.4072 8.39377 36.6483 8.2094 37.0399 8.2094C37.4596 8.2094 37.6976 8.42815 37.6976 8.79065V9.03752L36.7987 9.09065C36.0188 9.13752 35.5741 9.48752 35.5741 10.0594V10.0656C35.5741 10.6563 36.0157 11.0594 36.6734 11.0594ZM36.2568 10.05V10.0438C36.2568 9.76565 36.4824 9.58752 36.8895 9.56252L37.6976 9.51252V9.76877C37.6976 10.1969 37.3343 10.5188 36.8582 10.5188C36.4949 10.5188 36.2568 10.3375 36.2568 10.05Z" fill="white"/>
<path d="M41.9769 8.25002V7.71252H39.7938V11H40.4703V8.25002H41.9769Z" fill="white"/>
<path d="M43.2494 12.0938H43.9259V10.4469H43.9415C44.1357 10.8281 44.5147 11.0656 44.9814 11.0656C45.8082 11.0656 46.3501 10.4063 46.3501 9.3594V9.35627C46.3501 8.30627 45.8114 7.65002 44.972 7.65002C44.5022 7.65002 44.1389 7.88752 43.9415 8.27815H43.9259V7.71252H43.2494V12.0938ZM44.7966 10.4844C44.2861 10.4844 43.9227 10.0406 43.9227 9.3594V9.35627C43.9227 8.6719 44.2829 8.22815 44.7966 8.22815C45.329 8.22815 45.661 8.65627 45.661 9.35627V9.3594C45.661 10.0531 45.329 10.4844 44.7966 10.4844Z" fill="white"/>
<path d="M47.9389 12.0969C48.5841 12.0969 48.9287 11.8344 49.173 11.1531L50.4007 7.71252H49.6866L48.8566 10.3875H48.8347L48.0047 7.71252H47.2718L48.4714 11.0031L48.415 11.1594C48.3022 11.4781 48.1268 11.5625 47.8074 11.5625C47.7165 11.5625 47.6382 11.55 47.585 11.5375V12.0656C47.6664 12.0813 47.8074 12.0969 47.9389 12.0969Z" fill="white"/>
<path d="M52.7256 11.0656C53.5337 11.0656 54.0692 10.6563 54.0692 10.0438V10.0375C54.0692 9.65315 53.8312 9.39065 53.3958 9.30315V9.27815C53.7498 9.1969 53.9784 8.91877 53.9784 8.56565V8.5594C53.9784 7.9969 53.5149 7.65002 52.7569 7.65002C52.0146 7.65002 51.5291 8.00002 51.4508 8.5844L51.4477 8.6094H52.0929L52.096 8.58752C52.1462 8.33752 52.3936 8.1844 52.7475 8.1844C53.1046 8.1844 53.3175 8.35002 53.3175 8.63127V8.63752C53.3175 8.93127 53.114 9.08127 52.7162 9.08127H52.2432V9.5719H52.7193C53.1766 9.5719 53.3958 9.7219 53.3958 10.0375V10.0438C53.3958 10.3438 53.139 10.5281 52.7225 10.5281C52.3497 10.5281 52.1054 10.3844 52.0303 10.1188L52.0209 10.0875H51.3569L51.36 10.1156C51.4258 10.6969 51.9551 11.0656 52.7256 11.0656Z" fill="white"/>
<path d="M55.3699 11H56.0371L57.5498 8.69065H57.578V11H58.2514V7.71252H57.5843L56.0715 10.0125H56.0402V7.71252H55.3699V11Z" fill="white"/>
<path d="M62.1893 7.71252H59.4487V8.25002H60.4792V11H61.1588V8.25002H62.1893V7.71252Z" fill="white"/>
<path d="M64.7334 11.0656C65.5321 11.0656 66.0426 10.5906 66.146 10.0688L66.1554 10.0344H65.5102L65.5008 10.0594C65.4162 10.3063 65.15 10.5125 64.7491 10.5125C64.2103 10.5125 63.8689 10.15 63.8564 9.52815H66.1898V9.30002C66.1898 8.31252 65.6229 7.65002 64.6989 7.65002C63.775 7.65002 63.1799 8.33752 63.1799 9.36565V9.36877C63.1799 10.4063 63.7656 11.0656 64.7334 11.0656ZM64.7021 8.20315C65.1437 8.20315 65.4663 8.48127 65.5195 9.05002H63.8658C63.9285 8.50002 64.2636 8.20315 64.7021 8.20315Z" fill="white"/>
<path d="M69.4865 11H71.0024C71.7165 11 72.1613 10.6313 72.1613 10.0563V10.05C72.1613 9.6469 71.8794 9.35315 71.4534 9.2969V9.2719C71.7698 9.21252 72.0141 8.90315 72.0141 8.56252V8.55627C72.0141 8.0344 71.6257 7.71252 70.9836 7.71252H69.4865V11ZM70.1567 9.06877V8.21252H70.8427C71.1684 8.21252 71.3438 8.3594 71.3438 8.63127V8.63752C71.3438 8.92815 71.1559 9.06877 70.7738 9.06877H70.1567ZM70.1567 10.5V9.5594H70.7988C71.2436 9.5594 71.4659 9.70627 71.4659 10.0219V10.0281C71.4659 10.3406 71.2592 10.5 70.8771 10.5H70.1567Z" fill="white"/>
</g>
<defs>
<clipPath id="clip0_3515_15165">
<rect width="101.429" height="30" fill="white" transform="translate(0.308594)"/>
</clipPath>
</defs>
</svg>
