<svg width="22" height="11" viewBox="0 0 22 11" fill="none" xmlns="http://www.w3.org/2000/svg">
<path d="M1.254 0C0.13904 0 -0.419335 1.34829 0.369065 2.13684L4.9588 6.72743C7.80665 9.57581 9.23058 11 11 11C12.7694 11 14.1934 9.57581 17.0412 6.72742L21.6309 2.13684C22.4193 1.34829 21.861 0 20.746 0C20.4141 0 20.0958 0.131879 19.861 0.366624L15.2713 4.95721C13.7974 6.43144 12.8662 7.35528 12.0979 7.94155C11.3874 8.48374 11.1174 8.49654 11 8.49654C10.8826 8.49654 10.6126 8.48374 9.90208 7.94155C9.13383 7.35528 8.20265 6.43145 6.72869 4.95722L2.13894 0.366623C1.90425 0.131878 1.58592 0 1.254 0Z" fill="black"/>
</svg>
