<?xml version="1.0" encoding="utf-8"?>
<!-- Generator: Adobe Illustrator 22.0.1, SVG Export Plug-In . SVG Version: 6.00 Build 0)  -->
<svg version="1.1" id="Слой_1" xmlns="http://www.w3.org/2000/svg" xmlns:xlink="http://www.w3.org/1999/xlink" x="0px" y="0px"
	 viewBox="0 0 66 37.3" style="enable-background:new 0 0 66 37.3;" xml:space="preserve">
<style type="text/css">
	.st0{fill:#AEB6BE;}
	.st1{fill:none;stroke:#AEB6BE;stroke-width:1.5;stroke-linecap:round;stroke-miterlimit:10;}
</style>
<path class="st0" d="M7.1,12.6c-0.5,0-0.8-0.4-0.8-0.8S6.7,11,7.1,11H15c0.6,0,1,0.2,1,0.6c0,0.3-0.1,0.6-0.4,1.2L9.7,26.1
	c-0.3,0.6-0.7,0.7-1.2,0.7c-0.3,0-0.7-0.2-0.7-0.7c0-0.2,0.1-0.5,0.3-1l5.5-12.3l0,0H7.1V12.6z"/>
<path class="st0" d="M18.1,12.6c-0.5,0-0.8-0.4-0.8-0.8s0.4-0.8,0.8-0.8H26c0.6,0,1,0.2,1,0.6c0,0.3-0.1,0.6-0.4,1.2l-5.9,13.3
	c-0.3,0.6-0.7,0.7-1.2,0.7c-0.3,0-0.7-0.2-0.7-0.7c0-0.2,0.1-0.5,0.3-1l5.5-12.3l0,0h-6.5V12.6z"/>
<path class="st0" d="M29.2,21.5c-0.5,0-0.8-0.4-0.8-0.8c0-0.5,0.4-0.8,0.8-0.8h4.5c0.5,0,0.8,0.4,0.8,0.8c0,0.5-0.4,0.8-0.8,0.8
	H29.2z"/>
<path class="st0" d="M36.8,12.6c-0.5,0-0.8-0.4-0.8-0.8s0.4-0.8,0.8-0.8h7.9c0.6,0,1,0.2,1,0.6c0,0.3-0.1,0.6-0.4,1.2l-5.9,13.3
	c-0.3,0.6-0.7,0.7-1.2,0.7c-0.3,0-0.7-0.2-0.7-0.7c0-0.2,0.1-0.5,0.3-1l5.5-12.3l0,0h-6.5V12.6z"/>
<path class="st0" d="M47.8,12.6c-0.5,0-0.8-0.4-0.8-0.8s0.4-0.8,0.8-0.8h7.9c0.6,0,1,0.2,1,0.6c0,0.3-0.1,0.6-0.4,1.2l-5.9,13.3
	c-0.3,0.6-0.7,0.7-1.2,0.7c-0.3,0-0.7-0.2-0.7-0.7c0-0.2,0.1-0.5,0.3-1l5.5-12.3l0,0h-6.5V12.6z"/>
<path class="st1" d="M14,1h46.9c2.2,0,4,1.8,4,4v27.3c0,2.2-1.8,4-4,4H5 M1.5,36.3H1 M10,1h0.5"/>
</svg>
