<svg xmlns="http://www.w3.org/2000/svg" width="21.75" height="28.5" viewBox="0 0 21.75 28.5">
  <metadata><?xpacket begin="﻿" id="W5M0MpCehiHzreSzNTczkc9d"?>
<x:xmpmeta xmlns:x="adobe:ns:meta/" x:xmptk="Adobe XMP Core 5.6-c138 79.159824, 2016/09/14-01:09:01        ">
   <rdf:RDF xmlns:rdf="http://www.w3.org/1999/02/22-rdf-syntax-ns#">
      <rdf:Description rdf:about=""/>
   </rdf:RDF>
</x:xmpmeta>
                                                                                                    
                                                                                                    
                                                                                                    
                                                                                                    
                                                                                                    
                                                                                                    
                                                                                                    
                                                                                                    
                                                                                                    
                                                                                                    
                                                                                                    
                                                                                                    
                                                                                                    
                                                                                                    
                                                                                                    
                                                                                                    
                                                                                                    
                                                                                                    
                                                                                                    
                                                                                                    
                           
<?xpacket end="w"?></metadata>
<defs>
    <style>
      .cls-1 {
        fill: #acb8c1;
        fill-rule: evenodd;
      }
    </style>
  </defs>
  <path id="platinum" class="cls-1" d="M323.025,996.6H303.977a0.683,0.683,0,0,1-.677-0.652l-0.678-13.33a0.689,0.689,0,0,1,.34-0.632,0.667,0.667,0,0,1,.709.022l4.173,2.783,5.086-8.082a0.7,0.7,0,0,1,1.142,0l5.086,8.082,4.172-2.783a0.669,0.669,0,0,1,.71-0.022,0.689,0.689,0,0,1,.34.632l-0.678,13.33A0.683,0.683,0,0,1,323.025,996.6Zm-18.4-1.376h17.76l0.576-11.32-3.628,2.42a0.667,0.667,0,0,1-.514.1,0.678,0.678,0,0,1-.43-0.3l-4.884-7.761-4.884,7.761a0.678,0.678,0,0,1-.43.3,0.666,0.666,0,0,1-.514-0.1l-3.628-2.42Zm18.4-2.718H303.977a0.688,0.688,0,0,1,0-1.375h19.048A0.688,0.688,0,0,1,323.025,992.51Zm-16.868-18.335a0.67,0.67,0,0,1-.474-0.2l-1.764-1.75a0.7,0.7,0,0,1-.011-0.973,0.672,0.672,0,0,1,.959-0.011l1.764,1.75a0.7,0.7,0,0,1,.011.973A0.671,0.671,0,0,1,306.157,974.175Zm7.344-1.094a0.683,0.683,0,0,1-.678-0.688v-3.6a0.678,0.678,0,1,1,1.356,0v3.6A0.683,0.683,0,0,1,313.5,973.081Zm7.208,1.094a0.671,0.671,0,0,1-.485-0.207,0.7,0.7,0,0,1,.011-0.973l1.764-1.75a0.672,0.672,0,0,1,.959.011,0.7,0.7,0,0,1-.011.973l-1.764,1.75A0.67,0.67,0,0,1,320.709,974.175Zm-7.208,14.41a0.683,0.683,0,0,1-.678-0.688v-1.476a0.678,0.678,0,1,1,1.356,0V987.9A0.683,0.683,0,0,1,313.5,988.585Zm6.967,1.376a0.683,0.683,0,0,1-.678-0.688v-0.738a0.678,0.678,0,1,1,1.356,0v0.738A0.683,0.683,0,0,1,320.468,989.961Zm-13.964,0a0.683,0.683,0,0,1-.678-0.688v-0.738a0.678,0.678,0,1,1,1.356,0v0.738A0.683,0.683,0,0,1,306.5,989.961Z" transform="translate(-302.625 -968.094)"/>
</svg>
