<?xml version="1.0" encoding="utf-8"?>
<!-- Generator: Adobe Illustrator 22.0.1, SVG Export Plug-In . SVG Version: 6.00 Build 0)  -->
<svg version="1.1" id="Слой_1" xmlns="http://www.w3.org/2000/svg" xmlns:xlink="http://www.w3.org/1999/xlink" x="0px" y="0px"
	 viewBox="0 0 56 59.3" style="enable-background:new 0 0 56 59.3;" xml:space="preserve">
<style type="text/css">
	.st0{fill:none;stroke:#E30613;stroke-width:1.5;stroke-linecap:round;stroke-miterlimit:10;}
</style>
<path class="st0" d="M23.2,33H3.8c-1.7,0-3,1.4-3,3v19.5c0,1.7,1.3,3,3,3h19.5c1.6,0,3-1.3,3-3V36C26.2,34.4,24.9,33,23.2,33z"/>
<circle class="st0" cx="13.5" cy="45.8" r="2.1"/>
<circle class="st0" cx="20.8" cy="38.4" r="2.1"/>
<circle class="st0" cx="6.1" cy="53.1" r="2.1"/>
<circle class="st0" cx="20.8" cy="53.1" r="2.1"/>
<circle class="st0" cx="6.1" cy="38.4" r="2.1"/>
<path class="st0" d="M54.2,18.8L40.4,5.1c-1.2-1.2-3.1-1.2-4.2,0L22.4,18.8c-1.2,1.2-1.2,3.1,0,4.2l13.8,13.8c1.2,1.2,3.1,1.2,4.2,0
	L54.2,23C55.4,21.9,55.4,20,54.2,18.8z"/>
<circle class="st0" cx="48.7" cy="21" r="2.1"/>
<circle class="st0" cx="27.9" cy="21" r="2.1"/>
<circle class="st0" cx="38.3" cy="31.4" r="2.1"/>
<circle class="st0" cx="38.3" cy="10.6" r="2.1"/>
</svg>
