<?xml version="1.0" encoding="utf-8"?>
<!-- Generator: Adobe Illustrator 22.0.1, SVG Export Plug-In . SVG Version: 6.00 Build 0)  -->
<svg version="1.1" id="Слой_1" xmlns="http://www.w3.org/2000/svg" xmlns:xlink="http://www.w3.org/1999/xlink" x="0px" y="0px"
	 viewBox="0 0 83.7 37.3" style="enable-background:new 0 0 83.7 37.3;" xml:space="preserve">
<style type="text/css">
	.st0{fill:#AEB6BE;}
	.st1{fill:none;stroke:#AEB6BE;stroke-width:1.5;stroke-linecap:round;stroke-miterlimit:10;}
</style>
<path class="st0" d="M1.2,21.5c-0.5,0-0.8-0.4-0.8-0.8c0-0.5,0.4-0.8,0.8-0.8h4.5c0.5,0,0.8,0.4,0.8,0.8c0,0.5-0.4,0.8-0.8,0.8H1.2z
	"/>
<path class="st0" d="M13.2,10.8c2.9,0,5.2,2.9,5.2,8s-2.3,8-5.2,8S8,23.9,8,18.8S10.4,10.8,13.2,10.8z M13.2,25
	c1.7,0,3.1-1.9,3.1-6.3s-1.4-6.3-3.1-6.3s-3.1,1.9-3.1,6.3S11.5,25,13.2,25z"/>
<path class="st0" d="M25,10.8c2.9,0,5.2,2.9,5.2,8s-2.3,8-5.2,8s-5.2-2.9-5.2-8S22.2,10.8,25,10.8z M25,25c1.7,0,3.1-1.9,3.1-6.3
	s-1.4-6.3-3.1-6.3s-3.1,1.9-3.1,6.3S23.3,25,25,25z"/>
<path class="st0" d="M36.8,10.8c2.9,0,5.2,2.9,5.2,8s-2.3,8-5.2,8s-5.2-2.9-5.2-8S34,10.8,36.8,10.8z M36.8,25
	c1.7,0,3.1-1.9,3.1-6.3s-1.4-6.3-3.1-6.3s-3.1,1.9-3.1,6.3S35.1,25,36.8,25z"/>
<path class="st0" d="M44.3,21.5c-0.5,0-0.8-0.4-0.8-0.8c0-0.5,0.4-0.8,0.8-0.8h4.5c0.5,0,0.8,0.4,0.8,0.8c0,0.5-0.4,0.8-0.8,0.8
	H44.3z"/>
<path class="st0" d="M52.5,26.1c-0.4,0.6-0.7,0.6-1,0.6c-0.4,0-0.9-0.4-0.9-0.8c0-0.3,0.2-0.6,0.3-0.8l4.9-6.9l-4.1-5.8
	c-0.2-0.3-0.3-0.6-0.3-0.8c0-0.5,0.4-0.8,0.9-0.8c0.3,0,0.6,0.1,1,0.6l3.7,5.4l3.7-5.4c0.4-0.5,0.7-0.6,1-0.6c0.5,0,0.9,0.3,0.9,0.8
	c0,0.2-0.1,0.5-0.3,0.8l-4.1,5.8l4.9,6.9c0.1,0.2,0.3,0.5,0.3,0.8c0,0.5-0.4,0.8-0.9,0.8c-0.3,0-0.6-0.1-1-0.6L57,19.7L52.5,26.1z"
	/>
<path class="st0" d="M65.6,26.1c-0.4,0.6-0.7,0.6-1,0.6c-0.4,0-0.9-0.4-0.9-0.8c0-0.3,0.2-0.6,0.3-0.8l4.9-6.9l-4.1-5.8
	c-0.2-0.3-0.3-0.6-0.3-0.8c0-0.5,0.4-0.8,0.9-0.8c0.3,0,0.6,0.1,1,0.6l3.7,5.4l3.7-5.4c0.4-0.5,0.7-0.6,1-0.6c0.5,0,0.9,0.3,0.9,0.8
	c0,0.2-0.1,0.5-0.3,0.8l-4.1,5.8l4.9,6.9c0.1,0.2,0.3,0.5,0.3,0.8c0,0.5-0.4,0.8-0.9,0.8c-0.3,0-0.6-0.1-1-0.6l-4.5-6.4L65.6,26.1z"
	/>
<path class="st0" d="M78.2,21.5c-0.5,0-0.8-0.4-0.8-0.8c0-0.5,0.4-0.8,0.8-0.8h4.5c0.5,0,0.8,0.4,0.8,0.8c0,0.5-0.4,0.8-0.8,0.8
	H78.2z"/>
<path class="st1" d="M71.9,36.3H16"/>
<path class="st1" d="M23,1h51.9"/>
<path class="st1" d="M12.5,36.3H12"/>
<path class="st1" d="M75.5,36.3H75"/>
<path class="st1" d="M19,1h0.5"/>
<path class="st1" d="M78,1h0.5"/>
</svg>
