<svg xmlns="http://www.w3.org/2000/svg" width="32.25" height="26.25" viewBox="0 0 32.25 26.25">
  <metadata><?xpacket begin="﻿" id="W5M0MpCehiHzreSzNTczkc9d"?>
<x:xmpmeta xmlns:x="adobe:ns:meta/" x:xmptk="Adobe XMP Core 5.6-c138 79.159824, 2016/09/14-01:09:01        ">
   <rdf:RDF xmlns:rdf="http://www.w3.org/1999/02/22-rdf-syntax-ns#">
      <rdf:Description rdf:about=""/>
   </rdf:RDF>
</x:xmpmeta>
                                                                                                    
                                                                                                    
                                                                                                    
                                                                                                    
                                                                                                    
                                                                                                    
                                                                                                    
                                                                                                    
                                                                                                    
                                                                                                    
                                                                                                    
                                                                                                    
                                                                                                    
                                                                                                    
                                                                                                    
                                                                                                    
                                                                                                    
                                                                                                    
                                                                                                    
                                                                                                    
                           
<?xpacket end="w"?></metadata>
<defs>
    <style>
      .cls-1 {
        fill: #ffc000;
        fill-rule: evenodd;
      }
    </style>
  </defs>
  <path id="golden" class="cls-1" d="M269.466,906.625a0.666,0.666,0,0,1-.629-0.454L267.3,901.65l-4.475-1.555a0.674,0.674,0,0,1,0-1.27l4.475-1.555,1.538-4.521a0.666,0.666,0,0,1,.629-0.453h0a0.665,0.665,0,0,1,.629.453l1.539,4.521,4.475,1.555a0.674,0.674,0,0,1,0,1.27l-4.475,1.555-1.539,4.521A0.665,0.665,0,0,1,269.466,906.625Zm1.428-8.191a0.669,0.669,0,0,1-.413-0.416l-1.015-2.984-1.015,2.984a0.669,0.669,0,0,1-.413.416l-2.953,1.026,2.953,1.026a0.671,0.671,0,0,1,.413.417l1.015,2.983,1.015-2.983a0.671,0.671,0,0,1,.413-0.417l2.953-1.026m4.842-6.717a0.667,0.667,0,0,1-.629-0.454l-1.29-3.792-3.754-1.3a0.674,0.674,0,0,1,0-1.27l3.754-1.3,1.29-3.792a0.666,0.666,0,0,1,.629-0.453h0a0.666,0.666,0,0,1,.629.453l1.29,3.792,3.754,1.3a0.674,0.674,0,0,1,0,1.27l-3.754,1.3-1.29,3.792A0.667,0.667,0,0,1,278.689,892.743Zm-3.411-6.185,2.231,0.775a0.671,0.671,0,0,1,.413.417L278.689,890l0.767-2.254a0.671,0.671,0,0,1,.413-0.417l2.231-.775-2.231-.775a0.668,0.668,0,0,1-.413-0.417l-0.767-2.254-0.767,2.254a0.668,0.668,0,0,1-.413.417Zm13.168,17.13h0a0.666,0.666,0,0,1-.629-0.454l-1.305-3.835-3.8-1.319a0.674,0.674,0,0,1,0-1.27l3.8-1.319,1.305-3.835a0.663,0.663,0,0,1,1.258,0l1.305,3.835,3.8,1.319a0.674,0.674,0,0,1,0,1.27l-3.8,1.319-1.305,3.835A0.666,0.666,0,0,1,288.446,903.688Zm-3.468-6.243,2.274,0.79a0.669,0.669,0,0,1,.413.416l0.781,2.3,0.782-2.3a0.669,0.669,0,0,1,.413-0.416l2.273-.79-2.273-.79a0.668,0.668,0,0,1-.413-0.417l-0.782-2.3-0.781,2.3a0.668,0.668,0,0,1-.413.417Z" transform="translate(-262.375 -880.375)"/>
</svg>
