<?xml version="1.0" encoding="utf-8"?>
<!-- Generator: Adobe Illustrator 22.0.0, SVG Export Plug-In . SVG Version: 6.00 Build 0)  -->
<svg version="1.1" id="Layer_1" xmlns="http://www.w3.org/2000/svg" xmlns:xlink="http://www.w3.org/1999/xlink" x="0px" y="0px"
	 viewBox="0 0 22.7 19.8" style="enable-background:new 0 0 22.7 19.8;" xml:space="preserve">
<style type="text/css">
	.st0{fill:#ADB8C1;}
</style>
<path class="st0" d="M21.1,9.1l-17.7,0L10,2.5c0.3-0.3,0.3-0.8,0-1.1s-0.8-0.3-1.1,0l-8,8c-0.3,0.3-0.3,0.8,0,1.1c0,0,0.1,0,0.1,0.1
	c0,0,0,0.1,0.1,0.1l7.8,7.8c0.1,0.1,0.3,0.2,0.5,0.2s0.4-0.1,0.5-0.2c0.3-0.3,0.3-0.8,0-1.1l-6.9-6.9l18,0c0.4,0,0.8-0.3,0.8-0.7
	C21.8,9.4,21.5,9.1,21.1,9.1z"/>
</svg>
