<svg width="44" height="44" viewBox="0 0 44 44" fill="none" xmlns="http://www.w3.org/2000/svg" class="tariff-setting__tariff-list-icon"><rect width="44" height="44" rx="12" fill="#0097FD"></rect><g clip-path="url(#clip0_98_79931)"><path d="M24.0005 23C24.5528 23 25.0005 22.5523 25.0005 22C25.0005 21.4477 24.5528 21 24.0005 21L20 21C19.4477 21 19 21.4477 19 22C19 22.5523 19.4477 23 20 23H24.0005Z" fill="white"></path><path fill-rule="evenodd" clip-rule="evenodd" d="M32 23.8132V21.1223L31.9841 21.1156C31.9693 20.7073 31.9449 20.312 31.9133 19.9322C31.7516 17.9906 31.6708 17.0198 30.3813 15.7258C29.0919 14.4318 28.0792 14.3439 26.054 14.1681C24.9013 14.0681 23.5492 14.0005 21.9999 14.0005C20.45 14.0005 19.0975 14.0681 17.9446 14.1682C15.9203 14.344 14.9081 14.4319 13.6188 15.7257C12.3294 17.0194 12.2485 17.9897 12.0867 19.9303C12.0326 20.5793 11.9995 21.2734 11.9995 22.0005C11.9995 22.7277 12.0326 23.4218 12.0867 24.0708C12.2485 26.0113 12.3294 26.9816 13.6187 28.2754C14.9081 29.5691 15.9202 29.657 17.9445 29.8328C19.0974 29.9329 20.4499 30.0006 21.9999 30.0006C22.9206 30.0006 23.7717 29.9767 24.5526 29.9363C27.5192 31.684 29.1783 32.4583 30.4781 31.7223C32 30.8606 32 28.5115 32 23.8132ZM29.9201 20.0981C29.9493 20.4485 29.9718 20.8126 29.9854 21.1881L30 23.8132C30 26.23 29.9947 27.8126 29.8315 28.913C29.7529 29.4425 29.6543 29.7238 29.5806 29.8667C29.5306 29.9636 29.5051 29.9759 29.4951 29.9807L29.4927 29.9819L29.4902 29.9834C29.4773 29.9908 29.4631 29.999 29.4024 29.9996C29.3118 30.0004 29.1209 29.9808 28.7801 29.8657C28.0572 29.6217 27.0705 29.0984 25.5678 28.2131L25.0498 27.908L24.4494 27.939C23.7027 27.9776 22.886 28.0006 21.9999 28.0006C20.5082 28.0006 19.2134 27.9355 18.1175 27.8403C17.039 27.7466 16.5159 27.6918 16.0951 27.5621C15.783 27.4659 15.4829 27.3126 15.0354 26.8636C14.5776 26.4043 14.4291 26.1086 14.3393 25.8205C14.2167 25.427 14.1662 24.9416 14.0798 23.9047C14.0298 23.3058 13.9995 22.6673 13.9995 22.0005C13.9995 21.3338 14.0298 20.6953 14.0798 20.0965C14.1662 19.0595 14.2166 18.574 14.3393 18.1806C14.4291 17.8925 14.5776 17.5968 15.0354 17.1374C15.4829 16.6884 15.783 16.5352 16.0952 16.439C16.516 16.3093 17.039 16.2544 18.1176 16.1607C19.2135 16.0656 20.5082 16.0005 21.9999 16.0005C23.491 16.0005 24.7854 16.0655 25.8811 16.1606C26.9601 16.2543 27.4835 16.3092 27.9046 16.4389C28.217 16.5352 28.5172 16.6885 28.9646 17.1375C29.4223 17.5968 29.5709 17.8926 29.6607 18.181C29.7834 18.5747 29.8338 19.0607 29.9201 20.0981Z" fill="white"></path></g><defs><clipPath id="clip0_98_79931"><rect width="24" height="24" fill="white" transform="translate(10 10)"></rect></clipPath></defs></svg>