<svg width="44" height="44" viewBox="0 0 44 44" fill="none" xmlns="http://www.w3.org/2000/svg" class="tariff-setting__tariff-list-icon"><rect width="44" height="44" rx="12" fill="#0097FD"></rect><g clip-path="url(#clip0_98_79939)"><path fill-rule="evenodd" clip-rule="evenodd" d="M18.077 22.7042C18.1887 21.7048 18.2446 21.2052 18.7496 20.7075C19.2547 20.2098 19.7588 20.1609 20.7671 20.0631C21.1601 20.025 21.5785 20 22 20C22.4216 20 22.8401 20.025 23.2332 20.0631C24.2412 20.1609 24.7452 20.2098 25.2501 20.7074C25.7551 21.205 25.811 21.7045 25.9228 22.7035C25.9692 23.1176 26 23.5588 26 24C26 24.4617 25.9663 24.9195 25.9163 25.3443C25.8048 26.2923 25.7491 26.7662 25.2583 27.2572C24.7676 27.7481 24.2937 27.804 23.346 27.9159C22.9206 27.9661 22.4622 28 22 28C21.5379 28 21.0796 27.9661 20.6543 27.9159C19.7063 27.8041 19.2322 27.7481 18.7414 27.2571C18.2507 26.7661 18.195 26.2919 18.0836 25.3436C18.0337 24.919 18 24.4614 18 24C18 23.559 18.0308 23.1181 18.077 22.7042ZM20.9602 22.0538C21.3029 22.0205 21.6555 22 22 22C22.3446 22 22.6973 22.0205 23.0401 22.0538C23.3019 22.0792 23.4846 22.0972 23.6396 22.1177C23.7265 22.1293 23.7879 22.1396 23.8311 22.148C23.8399 22.19 23.8508 22.2493 23.8631 22.3328C23.8857 22.4858 23.9062 22.6664 23.9353 22.926C23.9753 23.2839 24 23.6491 24 24C24 24.3671 23.973 24.7451 23.93 25.1107C23.9009 25.3576 23.8808 25.5266 23.8588 25.6695C23.8478 25.7411 23.8382 25.7928 23.8303 25.8298C23.7934 25.8376 23.7417 25.8472 23.6702 25.8583C23.5274 25.8803 23.3584 25.9005 23.1116 25.9297C22.7455 25.9729 22.3672 26 22 26C21.6329 26 21.2546 25.9729 20.8887 25.9297C20.6417 25.9006 20.4727 25.8804 20.3298 25.8583C20.2582 25.8472 20.2065 25.8376 20.1695 25.8298C20.1617 25.7928 20.1521 25.741 20.141 25.6693C20.119 25.5263 20.0989 25.3573 20.0699 25.1102C20.027 24.7448 20 24.367 20 24C20 23.6492 20.0246 23.2842 20.0646 22.9264C20.0937 22.6667 20.1141 22.4861 20.1367 22.333C20.1491 22.2494 20.1599 22.19 20.1688 22.148C20.2119 22.1395 20.2734 22.1292 20.3604 22.1177C20.5155 22.0971 20.6983 22.0792 20.9602 22.0538Z" fill="white"></path><path fill-rule="evenodd" clip-rule="evenodd" d="M24.8623 13.2435C24.0976 12.4787 23.0816 12 22 12C21.2736 12 20.5802 12.033 19.9317 12.087C17.9901 12.2486 17.0193 12.3294 15.7253 13.6189C14.4313 14.9083 14.3434 15.921 14.1676 17.9462C14.0676 19.0989 14 20.451 14 22.0003C14 23.5503 14.0676 24.9027 14.1677 26.0556C14.3435 28.0799 14.4314 29.0921 15.7252 30.3815C17.3622 32.013 19.8197 32.0007 22 32.0007C24.1803 32.0007 26.6378 32.0129 28.2749 30.3815C29.5687 29.0921 29.6565 28.08 29.8323 26.0557C29.9324 24.9028 30.0001 23.5503 30.0001 22.0003L30 21.9181C29.9975 20.2725 29.9962 19.4497 29.6157 18.533C29.2351 17.6163 28.574 16.9551 27.2517 15.6328L24.8623 13.2435ZM20.0976 14.0801C20.696 14.0303 21.3339 14 22 14C22.4806 14 23.0054 14.215 23.4481 14.6577L25.8375 17.047C27.2582 18.4677 27.5733 18.8294 27.7685 19.2998C27.9677 19.7796 27.9973 20.1727 28 21.9212L28.0001 22.0003C28.0001 23.492 27.935 24.7868 27.8398 25.8827C27.7462 26.9613 27.6913 27.4843 27.5616 27.9051C27.4654 28.2172 27.3121 28.5174 26.8631 28.9648C26.4038 29.4226 26.1081 29.5711 25.82 29.6609C24.641 30.0284 23.2269 30.0007 22 30.0007C20.7732 30.0007 19.359 30.0284 18.1801 29.6609C17.892 29.5711 17.5963 29.4226 17.137 28.9648C16.688 28.5174 16.5347 28.2172 16.4385 27.905C16.3088 27.4842 16.2539 26.9612 16.1602 25.8826C16.0651 24.7867 16 23.492 16 22.0003C16 20.5092 16.065 19.2148 16.1601 18.1192C16.2538 17.0401 16.3087 16.5167 16.4384 16.0956C16.5347 15.7832 16.688 15.483 17.137 15.0356C17.5963 14.5779 17.8921 14.4293 18.1805 14.3395C18.5743 14.2168 19.0602 14.1664 20.0976 14.0801Z" fill="white"></path></g><defs><clipPath id="clip0_98_79939"><rect width="24" height="24" fill="white" transform="translate(10 10)"></rect></clipPath></defs></svg>