<svg width="44" height="44" viewBox="0 0 44 44" fill="none" xmlns="http://www.w3.org/2000/svg" class="tariff-setting__tariff-list-icon"><rect width="44" height="44" rx="12" fill="#0097FD"></rect><g clip-path="url(#clip0_98_79947)"><path fill-rule="evenodd" clip-rule="evenodd" d="M24.4553 23.3852L20.6121 19.54L20.6142 19.5371C21.4994 18.5535 21.942 18.0617 21.9358 17.0918C21.9296 16.1219 21.5062 15.6634 20.6595 14.7463C20.5721 14.6516 20.4824 14.558 20.3908 14.4664C19.7059 13.7811 18.9581 13.3812 18.4503 13.166C17.7838 12.8837 17.078 13.0034 16.4121 13.2142C15.7773 13.4151 15.0418 13.7691 14.4523 14.3924C13.9969 14.859 13.6754 15.3081 13.441 15.8428C12.6982 17.5376 12.9506 19.5141 13.7744 21.171C14.4579 22.5455 15.6501 24.3753 17.7228 26.4491C19.7522 28.4796 21.3751 29.4928 22.7387 30.1833C24.4466 31.0482 26.5036 31.328 28.2393 30.5205C28.7381 30.2884 29.1649 29.9753 29.608 29.5412C30.5098 28.6824 30.8444 27.5174 30.9683 26.8031C31.0399 26.39 30.9893 25.9345 30.8258 25.5483C30.6107 25.0402 30.2111 24.292 29.5262 23.6067C29.4346 23.5151 29.341 23.4254 29.2464 23.3379C28.3298 22.4907 27.8715 22.0671 26.9021 22.0609C25.9328 22.0547 25.4412 22.4976 24.4582 23.3832L24.4553 23.3852ZM26.38 24.3566C26.5474 24.2164 26.6521 24.1423 26.7161 24.1038C26.8131 24.0455 26.958 24.0364 27.0564 24.096C27.1057 24.1259 27.1892 24.1846 27.3341 24.3078C27.483 24.4343 27.6508 24.5889 27.8885 24.8086C28.3231 25.2104 28.9371 25.8442 28.9956 26.4664C28.9009 27.0081 28.673 27.6674 28.2283 28.0909L28.2079 28.1106C27.8893 28.4228 27.6454 28.5887 27.3955 28.7049C26.3784 29.1781 24.9858 29.0771 23.6424 28.3968C22.4519 27.794 21.0053 26.9019 19.1378 25.0333C17.2126 23.1071 16.1497 21.4529 15.5661 20.2791C14.9288 18.9973 14.8312 17.6565 15.2737 16.6469C15.4214 16.3098 15.6527 16.032 15.9057 15.7687C16.3287 15.3215 16.9895 15.0923 17.5327 14.9972C18.0621 15.047 18.618 15.5242 18.9758 15.8822C19.0473 15.9538 19.1187 16.0282 19.1896 16.105C19.4092 16.3428 19.5637 16.5107 19.6901 16.6596C19.8133 16.8046 19.8719 16.8882 19.9018 16.9375C19.9581 17.0304 19.9487 17.187 19.894 17.278C19.8569 17.3397 19.7892 17.4364 19.6563 17.5963C19.5227 17.7571 19.3587 17.94 19.1217 18.1999L18.4722 18.8768C18.0945 19.2703 18.1013 19.894 18.4876 20.2792L23.6916 25.4692C24.0622 25.8388 24.655 25.8602 25.0513 25.5183L25.8064 24.8669C26.0503 24.6442 26.2267 24.4851 26.3809 24.3571L26.38 24.3566Z" fill="white"></path></g><defs><clipPath id="clip0_98_79947"><rect width="24" height="24" fill="white" transform="translate(10 10)"></rect></clipPath></defs></svg>