<svg width="70" height="70" viewBox="0 0 70 70" fill="none" xmlns="http://www.w3.org/2000/svg">
<path fill-rule="evenodd" clip-rule="evenodd" d="M22.21 20.5H25.3333C26.6679 20.5 27.7499 21.582 27.7499 22.9166C27.7499 24.2513 26.6679 25.3333 25.3333 25.3333H16.8749C15.5402 25.3333 14.4583 24.2513 14.4583 22.9166L14.4583 14.4583C14.4583 13.1236 15.5402 12.0416 16.8749 12.0416C18.2096 12.0416 19.2916 13.1236 19.2916 14.4583V16.6328C23.6021 12.9414 29.1297 10.8333 34.9999 10.8333C48.3468 10.8333 59.1666 21.6531 59.1666 35C59.1666 48.3469 48.3468 59.1666 34.9999 59.1666C21.653 59.1666 10.8333 48.3469 10.8333 35C10.8333 33.6653 11.9152 32.5833 13.2499 32.5833C14.5846 32.5833 15.6666 33.6653 15.6666 35C15.6666 45.6775 24.3224 54.3333 34.9999 54.3333C45.6774 54.3333 54.3333 45.6775 54.3333 35C54.3333 24.3225 45.6774 15.6666 34.9999 15.6666C30.1993 15.6666 25.6904 17.4252 22.21 20.5ZM36.9743 22.6218C40.1321 22.6218 42.5061 23.2393 44.0963 24.4742C45.6864 25.7091 46.4815 27.4515 46.4815 29.7014C46.4815 31.9514 45.6695 33.8065 44.0455 35.267C42.4215 36.7275 40.0645 37.4577 36.9743 37.4577H34.9274V39.5554H38.5053C39.2854 39.5554 39.9178 40.1878 39.9178 40.9679C39.9178 41.7481 39.2854 42.3805 38.5053 42.3805H34.9274L34.9274 44.808C34.9274 46.0646 33.9087 47.0833 32.6521 47.0833C31.3955 47.0833 30.3768 46.0646 30.3768 44.808L30.3768 42.3805H28.812C28.0319 42.3805 27.3995 41.7481 27.3995 40.9679C27.3995 40.1878 28.0319 39.5554 28.812 39.5554H30.3768V25.0385C30.3768 23.7038 31.4588 22.6218 32.7935 22.6218H36.9743ZM36.9743 33.9052C39.5682 33.9052 41.1189 33.2004 41.6264 31.7906C41.8294 31.2268 41.9309 30.6065 41.9309 29.9298C41.9309 28.5765 41.5193 27.6066 40.696 27.0201C39.8727 26.4337 38.6322 26.1405 36.9743 26.1405H34.9274V33.9052H36.9743Z" fill="black"/>
</svg>
