<?xml version="1.0" encoding="UTF-8" standalone="no"?>
<svg
   width="70"
   height="70"
   viewBox="0 0 70 70"
   fill="none"
   version="1.1"
   id="svg2921"
   xmlns="http://www.w3.org/2000/svg"
   xmlns:svg="http://www.w3.org/2000/svg">
  <path
     width="70"
     height="70"
     fill="url(#paint0_linear_1324_216)"
     id="rect2882"
     style="fill:url(#paint0_linear_1324_216);stroke-width:0.35"
     x="0"
     y="0"
     d="M 18,0 H 52 A 18,18 45 0 1 70,18 V 52 A 18,18 135 0 1 52,70 H 18 A 18,18 45 0 1 0,52 V 18 A 18,18 135 0 1 18,0 Z" />
  <path
     d="m 37.05205,32.56316 c 0.99715,0.03724 2.023,-0.25431 2.7573,-0.91931 0.7182,-0.650755 1.1368,-1.564745 1.1599,-2.52882 C 40.8317,27.01328 39.0754,25.3715 36.94705,25.3743 l -2.628955,-3.5e-5 -0.0046,21.153335 c 0,1.2838 -1.033165,2.3247 -2.30811,2.3247 -1.27491,0 -2.308075,-1.0409 -2.308075,-2.3247 V 21.778505 c 0,-0.342405 0.275765,-0.619955 0.615895,-0.619955 H 36.9162 c 4.32495,-0.0054 7.89425,3.40767 8.1165,7.760375 -0.0147,2.269715 -0.90965,4.32145 -2.50215,5.780285 -1.54805,1.41764 -3.6036,2.13479 -5.6889,1.98569 z"
     fill="url(#paint1_linear_1324_216)"
     id="path2884"
     style="fill:url(#paint1_linear_1324_216);stroke-width:0.35" />
  <path
     d="m 37.46085,36.70205 -0.1365,-4.137 c -1.62645,0 -3.920105,-0.19887 -5.78291,-0.360395 -1.27365,-0.11046 -2.345875,-0.20342 -2.86573,-0.20342 -1.280195,0 -2.31756,1.03796 -2.31756,2.31798 0,1.279985 1.037365,2.318085 2.31756,2.318085 z"
     fill="url(#paint2_linear_1324_216)"
     id="path2886"
     style="fill:url(#paint2_linear_1324_216);stroke-width:0.35" />
  <path
     d="m 39.89405,41.4274 c -7e-4,-1.28345 -0.9086,-2.32365 -2.0279,-2.3226 l -9.441775,0.0084 c -1.119195,10e-4 -2.02545,1.04265 -2.024575,2.32645 8.75e-4,1.28345 0.90853,2.32365 2.02776,2.3226 l 9.44174,-0.0084 c 1.1193,-10e-4 2.0258,-1.04265 2.02475,-2.32645 z"
     fill="url(#paint3_linear_1324_216)"
     id="path2888"
     style="fill:url(#paint3_linear_1324_216);stroke-width:0.35" />
  <path
     d="m 24.001775,21.33523 -4.22618,-0.0058 0.82334,-0.807345 C 26.624255,14.61369 35.70315,13.006665 43.4133,16.49872 52.6477,20.68129 57.4357,30.98046 54.6777,40.7295 51.92005,50.47875 42.44485,56.74935 32.385535,55.48235 22.326325,54.2157 14.704515,45.7919 14.453775,35.66395 c -0.02909,-1.175825 -1.006495,-2.105425 -2.18309,-2.07634 -1.17656,0.02909 -2.10679,1.005865 -2.07767,2.18169 C 10.495835,48.00285 19.7022,58.17805 31.85266,59.70825 44.00305,61.23845 55.44805,53.6641 58.779,41.888 62.1103,30.112075 56.3269,17.671465 45.17275,12.61932 36.1228,8.5204 25.481155,10.228785 18.1888,16.935345 l -0.79212,0.72849 v -3.73541 c 0,-1.170715 -0.94969,-2.11981 -2.12121,-2.11981 -1.171485,0 -2.121175,0.949095 -2.121175,2.11981 v 9.516745 c 0,1.170015 0.9485,2.11897 2.119145,2.120125 l 8.72417,0.0095 c 1.171485,0.0012 2.12212,-0.946995 2.123275,-2.11771 0.0012,-1.170715 -0.94759,-2.12072 -2.11911,-2.121875 z"
     fill="url(#paint4_linear_1324_216)"
     id="path2890"
     style="fill:url(#paint4_linear_1324_216);stroke-width:0.35" />
  <defs
     id="defs2919">
    <linearGradient
       id="paint0_linear_1324_216"
       x1="100"
       y1="300"
       x2="300"
       y2="100"
       gradientUnits="userSpaceOnUse"
       gradientTransform="scale(0.35)">
      <stop
         stop-color="#E30611"
         id="stop2892" />
      <stop
         offset="1"
         stop-color="#FF535C"
         id="stop2894" />
    </linearGradient>
    <linearGradient
       id="paint1_linear_1324_216"
       x1="116.016"
       y1="67.773499"
       x2="75.781303"
       y2="76.953201"
       gradientUnits="userSpaceOnUse"
       gradientTransform="scale(0.35)">
      <stop
         stop-color="white"
         id="stop2897" />
      <stop
         offset="0.260454"
         stop-color="white"
         id="stop2899" />
      <stop
         offset="1"
         stop-color="#FFD9D9"
         id="stop2901" />
    </linearGradient>
    <linearGradient
       id="paint2_linear_1324_216"
       x1="75.486"
       y1="104.947"
       x2="104.659"
       y2="111.04"
       gradientUnits="userSpaceOnUse"
       gradientTransform="scale(0.35)">
      <stop
         stop-color="#FFF0F1"
         id="stop2904" />
      <stop
         offset="1"
         stop-color="white"
         id="stop2906" />
    </linearGradient>
    <linearGradient
       id="paint3_linear_1324_216"
       x1="75.486"
       y1="104.947"
       x2="104.659"
       y2="111.04"
       gradientUnits="userSpaceOnUse"
       gradientTransform="scale(0.35)">
      <stop
         stop-color="#FFF0F1"
         id="stop2909" />
      <stop
         offset="1"
         stop-color="white"
         id="stop2911" />
    </linearGradient>
    <linearGradient
       id="paint4_linear_1324_216"
       x1="31.25"
       y1="140.625"
       x2="78.490799"
       y2="102.313"
       gradientUnits="userSpaceOnUse"
       gradientTransform="scale(0.35)">
      <stop
         stop-color="#FFC8CF"
         id="stop2914" />
      <stop
         offset="1"
         stop-color="white"
         id="stop2916" />
    </linearGradient>
  </defs>
</svg>
