<svg width="24" height="24" viewBox="0 0 24 24" fill="none" xmlns="http://www.w3.org/2000/svg">
<g clip-path="url(#clip0_748_114363)">
<path d="M9 5.0807C9 4.1805 10.0766 3.72967 10.7062 4.36621L13.8016 7.49554C15.9339 9.65113 17 10.7289 17 12.0682C17 13.4076 15.9339 14.4854 13.8016 16.6409L10.7062 19.7703C10.0766 20.4068 9 19.956 9 19.0558C9 18.7878 9.1053 18.5308 9.29274 18.3413L12.3882 15.212C13.4942 14.0938 14.1786 13.3959 14.6112 12.8227C15.0016 12.3053 15.0012 12.1247 15.001 12.071L15.001 12.0682L15.001 12.0655C15.0012 12.0118 15.0016 11.8312 14.6112 11.3138C14.1786 10.7406 13.4942 10.0427 12.3882 8.92451L9.29274 5.79518C9.1053 5.60569 9 5.34868 9 5.0807Z" fill="black"/>
</g>
<defs>
<clipPath id="clip0_748_114363">
<rect width="24" height="24" fill="white" transform="translate(0 0.0682373)"/>
</clipPath>
</defs>
</svg>
