<svg width="24" height="24" viewBox="0 0 24 24" fill="none" xmlns="http://www.w3.org/2000/svg">
<g clip-path="url(#clip0_748_114357)">
<path d="M15 5.0807C15 4.1805 13.9234 3.72967 13.2938 4.36621L10.1984 7.49554C8.06612 9.65113 7 10.7289 7 12.0682C7 13.4076 8.06612 14.4854 10.1984 16.6409L13.2938 19.7703C13.9234 20.4068 15 19.956 15 19.0558C15 18.7878 14.8947 18.5308 14.7073 18.3413L11.6118 15.212C10.5058 14.0938 9.82141 13.3959 9.38882 12.8227C8.99838 12.3053 8.99883 12.1247 8.99897 12.071L8.99897 12.0682L8.99897 12.0655C8.99883 12.0118 8.99838 11.8312 9.38882 11.3138C9.8214 10.7406 10.5058 10.0427 11.6118 8.92451L14.7073 5.79518C14.8947 5.60569 15 5.34868 15 5.0807Z" fill="black"/>
</g>
<defs>
<clipPath id="clip0_748_114357">
<rect width="24" height="24" fill="white" transform="translate(0 0.0682373)"/>
</clipPath>
</defs>
</svg>
