<?xml version="1.0" encoding="UTF-8" standalone="no"?>
<svg
   width="70"
   height="70"
   viewBox="0 0 70 70"
   fill="none"
   version="1.1"
   id="svg3161"
   xmlns="http://www.w3.org/2000/svg"
   xmlns:svg="http://www.w3.org/2000/svg">
  <path
     width="70"
     height="70"
     fill="url(#paint0_linear_1324_192)"
     id="rect3125"
     style="fill:url(#paint0_linear_1324_192);stroke-width:0.35"
     x="0"
     y="0"
     d="M 18,0 H 52 A 18,18 45 0 1 70,18 V 52 A 18,18 135 0 1 52,70 H 18 A 18,18 45 0 1 0,52 V 18 A 18,18 135 0 1 18,0 Z" />
  <path
     fill-rule="evenodd"
     clip-rule="evenodd"
     d="m 26.7099,31.32514 c 0,0 2.328445,4.90616 5.268375,8.08066 2.939895,3.1745 6.998775,5.21045 6.998775,5.21045 l -4.42995,6.0123 c 0,0 -4.238255,-2.60435 -7.586775,-6.07215 C 23.611805,41.0886 21.2877,36.53615 21.2877,36.53615 Z"
     fill="url(#paint1_linear_1324_192)"
     id="path3127"
     style="fill:url(#paint1_linear_1324_192);stroke-width:0.35" />
  <path
     fill-rule="evenodd"
     clip-rule="evenodd"
     d="M 51.05205,55.72875 C 48.5618,55.594 46.0341,55.16175 43.4686,54.432 40.3459,53.5437 37.3625,52.2704 34.518995,50.6114 L 42.23485,40.19505 c 0.36645,-0.49455 0.9856,-0.7329 1.589,-0.6118 l 8.0227,1.61245 c 0.76195,0.15295 1.30095,0.83545 1.274,1.6121 l -0.3955,11.39005 c -0.03045,0.87675 -0.7658,1.56275 -1.6422,1.5323 -0.0105,-3.5e-4 -0.02065,-7e-4 -0.0308,-0.0014 z"
     fill="url(#paint2_linear_1324_192)"
     id="path3129"
     style="fill:url(#paint2_linear_1324_192);stroke-width:0.35" />
  <path
     fill-rule="evenodd"
     clip-rule="evenodd"
     d="m 28.75621,15.50668 c 0.794255,0 1.466395,0.58681 1.5736,1.37382 l 1.205225,8.847615 c 0.06797,0.4991 -0.104825,1.000895 -0.465745,1.352295 l -9.781765,9.52399 c -1.784195,-3.694775 -3.07384,-7.211085 -3.86897,-10.54886 -0.677285,-2.84319 -1.057455,-5.815915 -1.14044,-8.918175 -0.02349,-0.87682 0.66829,-1.60664 1.54504,-1.630125 0.01418,-3.5e-4 10.933055,-5.6e-4 10.933055,-5.6e-4 z"
     fill="url(#paint3_linear_1324_192)"
     id="path3131"
     style="fill:url(#paint3_linear_1324_192);stroke-width:0.35" />
  <defs
     id="defs3159">
    <linearGradient
       id="paint0_linear_1324_192"
       x1="100"
       y1="300"
       x2="300"
       y2="100"
       gradientUnits="userSpaceOnUse"
       gradientTransform="scale(0.35)">
      <stop
         stop-color="#E30611"
         id="stop3133" />
      <stop
         offset="1"
         stop-color="#FF535C"
         id="stop3135" />
    </linearGradient>
    <linearGradient
       id="paint1_linear_1324_192"
       x1="54.9981"
       y1="133.048"
       x2="116.006"
       y2="175.224"
       gradientUnits="userSpaceOnUse"
       gradientTransform="scale(0.35)">
      <stop
         stop-color="white"
         id="stop3138" />
      <stop
         offset="0.302365"
         stop-color="#FFF5F5"
         id="stop3140" />
      <stop
         offset="1"
         stop-color="#EEBEC4"
         id="stop3142" />
    </linearGradient>
    <linearGradient
       id="paint2_linear_1324_192"
       x1="120.508"
       y1="122.461"
       x2="184.41901"
       y2="193.291"
       gradientUnits="userSpaceOnUse"
       gradientTransform="scale(0.35)">
      <stop
         stop-color="white"
         id="stop3145" />
      <stop
         offset="0.421133"
         stop-color="#FFF5F5"
         id="stop3147" />
      <stop
         offset="1"
         stop-color="#EEBEC4"
         id="stop3149" />
    </linearGradient>
    <linearGradient
       id="paint3_linear_1324_192"
       x1="62.109402"
       y1="58.789001"
       x2="119.199"
       y2="116.568"
       gradientUnits="userSpaceOnUse"
       gradientTransform="scale(0.35)">
      <stop
         stop-color="white"
         id="stop3152" />
      <stop
         offset="0.345888"
         stop-color="#FFF5F5"
         id="stop3154" />
      <stop
         offset="1"
         stop-color="#EEBEC4"
         id="stop3156" />
    </linearGradient>
  </defs>
</svg>
