<svg width="189" height="50" viewBox="0 0 189 50" fill="none" xmlns="http://www.w3.org/2000/svg">
    <path fill-rule="evenodd" clip-rule="evenodd" d="M43.0851 0H37.5V4.3883H33.9096V0H30.3191V4.3883H26.7287V0H23.1383V4.3883H19.5479V0H15.9574V4.3883H12.367V0H6.91489C3.05851 0 0 3.05851 0 6.91489V43.0851C0 46.9415 3.05851 50 6.91489 50H12.5V45.4787H15.9574V50H19.5479V45.4787H23.1383V50H26.7287V45.4787H30.3191V50H33.9096V45.4787H37.5V50H43.0851C46.9415 50 50 46.9415 50 43.0851V6.91489C50 3.05851 46.9415 0 43.0851 0ZM36.1702 37.1011C33.5106 38.6968 29.7872 39.4947 25.133 39.4947C19.8138 39.4947 15.8245 38.2979 13.1649 35.9043C10.5053 33.5106 9.17553 29.7872 9.17553 24.734C9.17553 19.5479 10.5053 15.8245 13.1649 13.2979C15.8245 10.7713 19.8138 9.70745 25.133 9.70745C30.3191 9.70745 34.3085 10.7713 36.9681 12.8989C39.6277 15.0266 40.9574 18.617 40.9574 23.5372V25.266H19.1489V26.9947C19.1489 29.2553 19.6809 30.8511 20.7447 31.7819C21.8085 32.7128 23.2713 33.2447 25.133 33.2447C26.7287 33.2447 28.0585 32.9787 29.1223 32.3138C30.1862 31.7819 30.7181 30.7181 30.8511 29.2553H40.9574C40.4255 32.8457 38.8298 35.5053 36.1702 37.1011ZM123.936 5.71808H110.505V44.5479H123.936V5.71808ZM167.686 5.71808L160.24 32.4468L152.793 5.71808H130.718V44.5479H143.085V16.0904L151.463 44.5479H166.49L174.734 16.0904V44.5479H188.165V5.71808H167.686ZM25 16.0904C26.7287 16.0904 28.0585 16.3563 28.9894 17.0212C29.9202 17.5532 30.4521 18.75 30.5851 20.4787H19.1489C19.4149 18.8829 19.9468 17.8191 20.8776 17.1542C21.8085 16.4893 23.2713 16.0904 25 16.0904ZM73.4041 20.2128H88.2977C98.0052 20.2128 103.723 25.133 103.723 32.3139C103.723 39.4947 98.5371 44.4149 88.6967 44.4149H61.702V33.9096H91.7552V29.7873H76.4626C66.6222 29.7873 61.436 25 61.436 17.6862C61.436 10.5054 66.6222 5.58514 76.4626 5.58514H100.665V16.0905H73.4041V20.2128Z" fill="#E30611"/>
</svg>