<svg width="305" height="38" viewBox="0 0 305 38" fill="none" xmlns="http://www.w3.org/2000/svg">
<path d="M91.7815 29.0619C91.7937 29.5776 91.6967 30.0899 91.4968 30.5654C91.2968 31.0408 90.9984 31.4685 90.6213 31.8203C89.8782 32.5412 88.8791 32.9375 87.8439 32.922C86.7934 32.9238 85.7806 32.5306 85.0067 31.8203C84.6428 31.4796 84.349 31.0712 84.1416 30.6179C83.9278 30.1418 83.8206 29.6247 83.8275 29.1028C83.8249 28.5874 83.932 28.0774 84.1416 27.6066C84.3487 27.142 84.6423 26.721 85.0067 26.3662C85.3803 26.0095 85.8147 25.7226 86.2893 25.5188C87.0101 25.2163 87.8034 25.1298 88.5725 25.2698C89.3416 25.4099 90.0534 25.7705 90.6213 26.3077C90.9981 26.6589 91.2963 27.0859 91.4963 27.5606C91.6962 28.0353 91.7934 28.547 91.7815 29.0619Z" fill="#76B900"/>
<path d="M21.286 32.5749C19.3308 33.0346 17.3276 33.2588 15.3191 33.2427C13.2183 33.2657 11.1308 32.9058 9.15908 32.1804C7.35879 31.5193 5.71049 30.5015 4.31296 29.1881C2.94693 27.8835 1.86764 26.3085 1.14387 24.5637C0.381289 22.7656 0 20.764 0 18.5588C0 16.3263 0.387636 14.3047 1.16291 12.494C1.89438 10.7435 2.98782 9.16753 4.37144 7.86954C5.7613 6.57528 7.39671 5.57304 9.18085 4.92214C11.0853 4.22769 13.0989 3.8808 15.126 3.89797C17.2162 3.879 19.2942 4.21851 21.2696 4.90174C23.1602 5.57274 24.6962 6.47178 25.8777 7.59887L21.6192 12.445C20.9023 11.6377 20.0156 10.999 19.0227 10.5748C17.8678 10.0732 16.6189 9.82466 15.3599 9.8458C14.2385 9.83423 13.127 10.0556 12.0956 10.4959C11.1134 10.9166 10.2275 11.5336 9.49231 12.309C8.74302 13.1046 8.16117 14.0426 7.78128 15.0673C7.36273 16.1808 7.15517 17.3625 7.16922 18.552C7.15324 19.755 7.33709 20.9523 7.71327 22.0951C8.05354 23.1265 8.60998 24.0733 9.34542 24.8725C10.0984 25.6658 11.0176 26.2826 12.0371 26.6787C13.1976 27.1313 14.4354 27.3526 15.6809 27.3302C16.4335 27.3328 17.185 27.2732 17.9278 27.152C18.605 27.0438 19.266 26.8519 19.8959 26.5808V21.5021H14.5724V16.0616H26.0709V30.8339C24.5509 31.6026 22.9445 32.187 21.286 32.5749ZM38.4575 10.4048V16.1445H49.2515V21.6938H38.4575V32.5218H31.8038V4.63924H50.1546V10.3885L38.4575 10.4048ZM72.2104 32.5272L60.9867 14.3016H60.8656L61.0247 32.5272H54.488V4.64468H62.1659L73.3516 22.8391H73.4699L73.3121 4.64604H79.8502V32.5286L72.2104 32.5272ZM110.684 32.5272L104.63 21.4613H102.336V32.5272H95.7596V4.64468H106.393C107.709 4.64023 109.022 4.77703 110.309 5.05272C111.528 5.30833 112.69 5.78547 113.738 6.46045C114.745 7.11546 115.576 8.00804 116.157 9.05965C116.763 10.1369 117.066 11.4757 117.065 13.0761C117.065 14.9667 116.552 16.5535 115.526 17.8365C114.501 19.1196 113.084 20.0381 111.277 20.5921L118.561 32.5245L110.684 32.5272ZM110.412 13.1917C110.412 12.5361 110.276 12.0048 110.004 11.5976C109.735 11.1937 109.366 10.8659 108.934 10.6456C108.474 10.4149 107.979 10.2615 107.469 10.1913C106.952 10.1147 106.431 10.0756 105.909 10.0743H102.296V16.5798H105.502C106.072 16.5787 106.641 16.5332 107.204 16.4438C107.753 16.3606 108.287 16.1951 108.787 15.9528C109.257 15.7176 109.659 15.3648 109.953 14.9286C110.257 14.4852 110.408 13.9017 110.408 13.1917H110.412ZM144.585 26.6012C144.045 27.9447 143.217 29.1543 142.162 30.1457C141.062 31.1604 139.77 31.9439 138.361 32.4497C136.777 33.018 135.103 33.2981 133.42 33.2767C131.58 33.2767 129.926 33.001 128.458 32.4497C127.066 31.9461 125.792 31.1619 124.715 30.1457C123.68 29.1478 122.871 27.939 122.343 26.6012C121.781 25.1382 121.504 23.5808 121.527 22.0135V4.64604H128.223V21.4613C128.218 22.1938 128.317 22.9233 128.517 23.6279C128.705 24.2889 129.013 24.9098 129.424 25.46C129.849 26.012 130.403 26.451 131.037 26.7386C131.709 27.0541 132.517 27.2114 133.46 27.2105C134.403 27.2096 135.21 27.0523 135.882 26.7386C136.52 26.4485 137.08 26.0102 137.514 25.46C137.936 24.917 138.244 24.2936 138.417 23.6279C138.604 22.9211 138.696 22.1924 138.689 21.4613V4.64604H145.426V22.0135C145.446 23.5832 145.16 25.1417 144.581 26.6012H144.585Z" fill="white"/>
<path d="M159.282 37.1749H158.12L168.082 0H169.243L159.282 37.1749Z" fill="#76B900"/>
<path d="M187.806 23.3086C187.806 23.4832 187.772 23.6562 187.705 23.8175C187.638 23.9789 187.541 24.1256 187.417 24.2491C187.294 24.3727 187.147 24.4707 186.986 24.5375C186.825 24.6044 186.652 24.6388 186.477 24.6388H183.485V27.8813H181.945V19.926H186.484C186.658 19.926 186.831 19.9604 186.993 20.0273C187.154 20.0941 187.301 20.1921 187.424 20.3157C187.547 20.4392 187.645 20.5859 187.712 20.7472C187.779 20.9086 187.813 21.0816 187.813 21.2562L187.806 23.3086ZM183.478 23.2284H185.87C185.923 23.2285 185.974 23.2184 186.022 23.1985C186.071 23.1786 186.114 23.1493 186.151 23.1124C186.188 23.0754 186.217 23.0316 186.237 22.9833C186.257 22.935 186.267 22.8833 186.266 22.8312V21.7431C186.266 21.637 186.225 21.535 186.151 21.4588C186.077 21.3826 185.977 21.3382 185.87 21.3351H183.478V23.2284ZM190.843 19.9151H192.406L195.357 27.8813H193.631L193.07 26.3063H190.015L189.454 27.8813H187.89L190.843 19.9151ZM190.47 25.0128H192.604L191.531 22.0029L190.47 25.0128ZM203.038 27.8813H201.366L199.406 24.6388H197.947V27.8813H196.409V19.926H201.179C201.531 19.926 201.87 20.0661 202.119 20.3156C202.369 20.565 202.509 20.9034 202.509 21.2562V23.3086C202.509 23.6614 202.369 23.9997 202.119 24.2492C201.87 24.4987 201.531 24.6388 201.179 24.6388H201.094L203.038 27.8813ZM197.951 23.2284H200.535C200.587 23.2285 200.639 23.2184 200.687 23.1985C200.735 23.1786 200.779 23.1493 200.816 23.1124C200.853 23.0754 200.882 23.0316 200.902 22.9833C200.921 22.935 200.931 22.8833 200.931 22.8312V21.7431C200.931 21.637 200.89 21.535 200.816 21.4588C200.742 21.3826 200.641 21.3382 200.535 21.3351H197.951V23.2284ZM209.815 19.926V21.3147H207.54V27.8813H205.991V21.3147H203.717V19.926H209.815ZM212.596 19.9151L216.192 25.1992V19.9151H217.731V27.8691H216.145L212.552 22.5973V27.8691H211.012V19.9151H212.596ZM220.699 21.3378V23.2039H223.931V24.6157H220.699V26.4695H224.724V27.8813H219.147V19.926H224.724V21.3378H220.699ZM232.543 27.8813H230.881L228.922 24.6388H227.463V27.8813H225.923V19.926H230.695C230.869 19.926 231.042 19.9604 231.204 20.0273C231.365 20.0941 231.511 20.1921 231.635 20.3157C231.758 20.4392 231.856 20.5859 231.923 20.7472C231.99 20.9086 232.024 21.0816 232.024 21.2562V23.3086C232.024 23.4832 231.99 23.6562 231.923 23.8175C231.856 23.9789 231.758 24.1256 231.635 24.2491C231.511 24.3727 231.365 24.4707 231.204 24.5375C231.042 24.6044 230.869 24.6388 230.695 24.6388H230.601L232.543 27.8813ZM227.458 23.2284H230.042C230.094 23.2287 230.146 23.2187 230.194 23.1989C230.243 23.179 230.287 23.1498 230.323 23.1128C230.36 23.0759 230.39 23.032 230.41 22.9836C230.429 22.9353 230.439 22.8835 230.439 22.8312V21.7431C230.439 21.6367 230.398 21.5346 230.323 21.4584C230.249 21.3821 230.148 21.3379 230.042 21.3351H227.458V23.2284ZM238.362 19.9151H239.925L242.876 27.8813H241.15L240.59 26.3063H237.533L236.973 27.8813H235.41L238.362 19.9151ZM237.989 25.0128H240.123L239.042 22.0029L237.989 25.0128ZM245.47 26.4695H248.971V27.8813H243.93V19.926H245.47V26.4695ZM251.703 26.4695H255.203V27.8813H250.17V19.926H251.71L251.703 26.4695ZM256.393 19.926H257.948V27.8813H256.396L256.393 19.926ZM261.931 19.9151H263.494L266.444 27.8813H264.718L264.158 26.3063H261.103L260.543 27.8813H258.98L261.931 19.9151ZM261.557 25.0128H263.691L262.618 22.0029L261.557 25.0128ZM269.087 19.9151L272.679 25.1992V19.9151H274.219V27.8691H272.637L269.045 22.5973V27.8691H267.505V19.9151H269.087ZM280.882 21.3378H277.512C277.407 21.3405 277.308 21.3833 277.234 21.4572C277.16 21.531 277.117 21.6305 277.114 21.7349V26.0737C277.114 26.1259 277.124 26.1777 277.144 26.226C277.164 26.2742 277.193 26.3181 277.23 26.3549C277.267 26.3918 277.311 26.4209 277.359 26.4405C277.408 26.4602 277.459 26.4701 277.512 26.4695H280.882V27.8813H276.905C276.554 27.8821 276.217 27.7438 275.968 27.4969C275.719 27.2499 275.577 26.9143 275.575 26.5634V21.2589C275.575 21.0842 275.609 20.9112 275.676 20.7499C275.743 20.5885 275.841 20.4418 275.964 20.3183C276.088 20.1948 276.235 20.0968 276.396 20.03C276.557 19.9631 276.73 19.9287 276.905 19.9287H280.882V21.3378ZM283.745 21.3378V23.2039H286.977V24.6157H283.745V26.4695H287.77V27.8813H282.193V19.926H287.77V21.3378H283.745ZM276.944 9.29252L280.537 14.5766V9.29252H282.078V17.2479H280.49L276.898 11.976V17.2479H275.357V9.29252H276.944ZM283.417 10.635C283.416 10.284 283.554 9.94683 283.801 9.69749C284.048 9.44814 284.384 9.30691 284.735 9.30476H288.723C289.074 9.30691 289.41 9.44814 289.657 9.69749C289.904 9.94683 290.042 10.284 290.041 10.635V15.9394C290.041 16.1127 290.008 16.2843 289.942 16.4444C289.875 16.6046 289.778 16.7501 289.656 16.8727C289.533 16.9952 289.388 17.0924 289.228 17.1587C289.068 17.2249 288.896 17.2589 288.723 17.2588H284.742C284.569 17.2589 284.397 17.2249 284.237 17.1587C284.077 17.0924 283.932 16.9952 283.809 16.8727C283.687 16.7501 283.59 16.6046 283.524 16.4444C283.458 16.2843 283.424 16.1127 283.424 15.9394L283.417 10.635ZM288.108 15.8456C288.161 15.846 288.212 15.8359 288.261 15.8161C288.309 15.7962 288.353 15.767 288.389 15.73C288.426 15.693 288.455 15.6491 288.475 15.6008C288.495 15.5524 288.505 15.5006 288.504 15.4484V11.1246C288.504 11.0185 288.463 10.9165 288.389 10.8403C288.315 10.7641 288.214 10.7197 288.108 10.7166H285.355C285.249 10.7194 285.148 10.7636 285.074 10.8399C285 10.9161 284.958 11.0182 284.958 11.1246V15.4512C284.958 15.5034 284.968 15.5552 284.988 15.6036C285.008 15.6519 285.037 15.6958 285.074 15.7328C285.111 15.7698 285.155 15.799 285.203 15.8188C285.251 15.8387 285.303 15.8487 285.355 15.8483L288.108 15.8456ZM295.705 9.30204H297.009L298.652 14.7181L300.107 9.30204H301.692L299.295 17.2601H297.945L296.325 12.1352L294.799 17.2601H293.447L290.897 9.30476H292.62L294.169 14.7208L295.705 9.30204ZM303.495 9.31564V9.47477H303.048V10.6989H302.868V9.47477H302.44V9.317L303.495 9.31564ZM304.816 9.31564H305V10.6962H304.824V9.6203L304.416 10.3099H304.265L303.886 9.65295V10.6962H303.702V9.317H303.874L304.337 10.1195L304.816 9.31564ZM222.733 10.6322C222.732 10.4577 222.767 10.2848 222.833 10.1235C222.9 9.9622 222.998 9.81564 223.121 9.69221C223.245 9.56878 223.391 9.4709 223.553 9.40418C223.714 9.33747 223.887 9.30322 224.061 9.30339H229.094V10.737H224.698C224.592 10.7369 224.489 10.7784 224.413 10.8526C224.337 10.9268 224.293 11.0278 224.29 11.1341V14.8663C224.292 14.9708 224.334 15.0706 224.407 15.1451L224.967 15.7055C225.005 15.7443 225.05 15.7748 225.1 15.795C225.15 15.8151 225.204 15.8245 225.258 15.8225H227.392C227.445 15.8228 227.496 15.8128 227.545 15.793C227.593 15.7731 227.637 15.7439 227.674 15.707C227.711 15.67 227.74 15.6261 227.76 15.5777C227.78 15.5294 227.79 15.4776 227.789 15.4253V13.9945H225.913V12.5595H229.365V15.9422C229.362 16.2931 229.221 16.6287 228.971 16.8756C228.722 17.1226 228.385 17.2609 228.034 17.2601H224.488C224.435 17.2608 224.381 17.2508 224.331 17.2307C224.281 17.2107 224.236 17.1809 224.197 17.1432L222.837 15.7898C222.764 15.7147 222.723 15.6144 222.722 15.5096L222.733 10.6322ZM232.285 10.7138V12.5813H235.515V13.9931H232.285V15.8456H236.308V17.2601H230.731V9.30612H236.308V10.7166L232.285 10.7138ZM239.019 17.2574H237.467V9.30612H243.043V10.7166H239.02V12.5813H242.25V13.9931H239.02L239.019 17.2574ZM244.142 10.6322C244.142 10.2815 244.28 9.9447 244.527 9.69564C244.774 9.44659 245.109 9.30555 245.46 9.30339H249.449C249.8 9.30555 250.136 9.44659 250.383 9.69564C250.63 9.9447 250.768 10.2815 250.767 10.6322V15.9367C250.767 16.2863 250.629 16.6215 250.381 16.8687C250.134 17.1158 249.799 17.2547 249.449 17.2547H245.46C245.111 17.2547 244.775 17.1158 244.528 16.8687C244.281 16.6215 244.142 16.2863 244.142 15.9367V10.6322ZM248.835 15.8456C248.887 15.846 248.939 15.8359 248.987 15.8161C249.035 15.7963 249.079 15.767 249.116 15.7301C249.153 15.6931 249.183 15.6492 249.202 15.6009C249.222 15.5525 249.232 15.5007 249.232 15.4484V11.1246C249.232 11.0182 249.19 10.9161 249.116 10.8399C249.042 10.7636 248.941 10.7194 248.835 10.7166H246.083C245.977 10.7194 245.876 10.7636 245.802 10.8399C245.727 10.9161 245.686 11.0182 245.686 11.1246V15.4512C245.686 15.5034 245.696 15.5552 245.716 15.6036C245.735 15.6519 245.765 15.6958 245.802 15.7328C245.838 15.7698 245.882 15.799 245.931 15.8188C245.979 15.8387 246.031 15.8487 246.083 15.8483L248.835 15.8456ZM258.713 17.2574H257.044L255.086 14.0149H253.628V17.2601H252.088V9.30612H256.859C257.034 9.30594 257.207 9.34019 257.368 9.4069C257.529 9.47362 257.676 9.57149 257.799 9.69492C257.923 9.81835 258.021 9.96492 258.087 10.1262C258.154 10.2875 258.188 10.4604 258.188 10.635V12.6874C258.188 12.862 258.154 13.035 258.088 13.1963C258.021 13.3577 257.923 13.5044 257.8 13.6279C257.676 13.7514 257.53 13.8494 257.368 13.9163C257.207 13.9832 257.034 14.0176 256.859 14.0176H256.767L258.713 17.2574ZM253.628 12.6031H256.212C256.264 12.6036 256.316 12.5937 256.364 12.5741C256.413 12.5544 256.457 12.5253 256.494 12.4884C256.531 12.4516 256.56 12.4077 256.58 12.3595C256.6 12.3112 256.61 12.2595 256.609 12.2073V11.1192C256.609 11.0128 256.568 10.9106 256.494 10.8344C256.419 10.7582 256.318 10.714 256.212 10.7111H253.628V12.6031ZM264.845 10.7138H261.47C261.366 10.7166 261.266 10.7593 261.192 10.8332C261.119 10.9071 261.076 11.0065 261.073 11.111V15.4512C261.073 15.5034 261.083 15.5552 261.103 15.6036C261.122 15.6519 261.152 15.6958 261.189 15.7328C261.226 15.7698 261.27 15.799 261.318 15.8188C261.366 15.8387 261.418 15.8487 261.47 15.8483H264.841V17.2601H260.864C260.513 17.2609 260.176 17.1226 259.927 16.8756C259.677 16.6287 259.536 16.2931 259.533 15.9422V10.6377C259.533 10.4631 259.568 10.2901 259.635 10.1288C259.702 9.96753 259.8 9.82098 259.923 9.69756C260.047 9.57415 260.193 9.4763 260.355 9.4096C260.516 9.3429 260.689 9.30866 260.864 9.30884H264.841L264.845 10.7138ZM267.668 10.7138V12.5813H270.899V13.9931H267.668V15.8456H271.685V17.2601H266.108V9.30612H271.685V10.7166L267.668 10.7138ZM183.531 9.29387L187.127 14.5834V9.2966H188.668V17.2588H187.08L183.483 11.9828V17.2588H181.942V9.2966L183.531 9.29387ZM194.129 17.256H192.545L189.533 9.2966H191.27L193.393 15.1723L195.433 9.2966H197.014L194.129 17.256ZM197.948 9.29387H199.502V17.256H197.948V9.29387ZM200.89 17.256V9.2966H205.001C205.669 9.29767 206.31 9.5637 206.782 10.0364C207.255 10.509 207.521 11.1498 207.522 11.8183V14.7385C207.523 15.0696 207.458 15.3976 207.331 15.7037C207.204 16.0097 207.019 16.2877 206.784 16.5219C206.55 16.756 206.272 16.9416 205.966 17.068C205.66 17.1945 205.332 17.2593 205.001 17.2588L200.89 17.256ZM205.958 11.9094C205.958 11.7515 205.927 11.595 205.867 11.4491C205.807 11.3031 205.718 11.1705 205.606 11.0588C205.495 10.9471 205.362 10.8586 205.216 10.7982C205.07 10.7378 204.914 10.7069 204.756 10.707H202.427V15.8456H204.752C205.069 15.8467 205.373 15.722 205.599 15.499C205.824 15.2759 205.952 14.9726 205.954 14.6555L205.958 11.9094ZM208.828 9.29387H210.381V17.256H208.828V9.29387ZM214.268 9.29387H215.83L218.779 17.2574H217.054L216.494 15.6824H213.44L212.88 17.2574H211.317L214.268 9.29387ZM213.879 14.3875H216.014L214.94 11.3803L213.879 14.3875ZM218.764 9.29252C218.952 9.2909 219.137 9.34536 219.295 9.44899C219.452 9.55262 219.576 9.70074 219.649 9.87456C219.722 10.0484 219.742 10.2401 219.707 10.4253C219.671 10.6105 219.581 10.7809 219.448 10.9149C219.315 11.0489 219.146 11.1404 218.961 11.1778C218.776 11.2152 218.584 11.1968 218.409 11.125C218.235 11.0532 218.086 10.9311 217.981 10.7744C217.876 10.6176 217.82 10.4333 217.82 10.2446C217.82 9.9928 217.92 9.75125 218.097 9.57281C218.275 9.39438 218.516 9.29359 218.768 9.29252H218.764ZM218.764 11.0036C218.916 11.0065 219.065 10.9641 219.193 10.8818C219.321 10.7994 219.421 10.6809 219.481 10.5413C219.541 10.4016 219.558 10.2473 219.53 10.0979C219.502 9.94855 219.43 9.81095 219.323 9.70271C219.216 9.59447 219.08 9.52049 218.931 9.49023C218.782 9.45996 218.627 9.47478 218.487 9.5328C218.346 9.59082 218.226 9.6894 218.142 9.81594C218.058 9.94249 218.013 10.0913 218.014 10.2432C218.015 10.4435 218.094 10.6355 218.235 10.7777C218.376 10.9199 218.568 11.0011 218.768 11.0036H218.764ZM219.153 10.6744H218.947L218.7 10.2664H218.607V10.6744H218.418V9.7944H218.985C219.004 9.79273 219.022 9.7951 219.039 9.80134C219.057 9.80759 219.072 9.81755 219.085 9.83053C219.098 9.84351 219.108 9.85919 219.114 9.87645C219.121 9.89371 219.123 9.91213 219.121 9.93041V10.1331C219.123 10.1512 219.12 10.1695 219.114 10.1865C219.107 10.2036 219.097 10.219 219.084 10.2319C219.071 10.2448 219.056 10.2548 219.039 10.2612C219.022 10.2676 219.004 10.2703 218.985 10.2691H218.912L219.153 10.6744ZM218.873 10.1453C218.909 10.1453 218.936 10.129 218.936 10.0868V9.9889C218.936 9.95626 218.915 9.93449 218.873 9.93449H218.6V10.1453H218.873Z" fill="white"/>
</svg>
