<svg width="163" height="48" viewBox="0 0 163 48" fill="none" xmlns="http://www.w3.org/2000/svg">
<g clip-path="url(#clip0_31_562132)">
<path d="M0 6.4C0 2.86538 2.88449 0 6.44269 0H156.557C160.116 0 163 2.86538 163 6.4V41.6C163 45.1346 160.116 48 156.557 48H6.44269C2.88449 48 0 45.1346 0 41.6V6.4Z" fill="white"/>
<path fill-rule="evenodd" clip-rule="evenodd" d="M0 41.6V6.4C0 2.86538 2.88449 0 6.44269 0H156.557C160.116 0 163 2.86538 163 6.4V41.6C163 45.1346 160.116 48 156.557 48H6.44269C2.88449 48 0 45.1346 0 41.6ZM0.966403 41.6V6.4C0.966403 3.39557 3.41822 0.96 6.44269 0.96H156.557C159.582 0.96 162.034 3.39557 162.034 6.4V41.6C162.034 44.6044 159.582 47.04 156.557 47.04H6.44269C3.41822 47.04 0.966403 44.6044 0.966403 41.6Z" fill="black" fill-opacity="0.1"/>
<path d="M82.5909 26.0765C79.6902 26.0765 77.2936 28.3268 77.2936 31.4123C77.2936 34.4725 79.6651 36.748 82.5912 36.748C85.517 36.748 87.8883 34.4977 87.8883 31.4123C87.8883 28.3268 85.517 26.0765 82.5909 26.0765ZM82.5909 34.6248C81.0014 34.6248 79.6148 33.284 79.6148 31.3884C79.6148 29.4665 81.0025 28.1521 82.5909 28.1521C84.1794 28.1521 85.567 29.4665 85.567 31.3884C85.567 33.284 84.1794 34.6248 82.5909 34.6248ZM71.063 26.0765C68.1368 26.0765 65.7653 28.3268 65.7653 31.4123C65.7653 34.4725 68.1368 36.748 71.063 36.748C73.9888 36.748 76.3603 34.4977 76.3603 31.4123C76.3603 28.3268 73.9888 26.0765 71.0627 26.0765H71.063ZM71.063 34.6248C69.4731 34.6248 68.0868 33.284 68.0868 31.3884C68.0868 29.4665 69.4745 28.1521 71.063 28.1521C72.6525 28.1521 74.0391 29.4665 74.0391 31.3884C74.0391 33.284 72.6763 34.6248 71.063 34.6248ZM57.3654 27.7205V29.9708H62.7127C62.5608 31.235 62.1332 32.1707 61.5021 32.8034C60.7205 33.587 59.5096 34.4473 57.3654 34.4473C54.0603 34.4473 51.5134 31.767 51.5134 28.4539C51.5134 25.1409 54.0617 22.4099 57.3654 22.4099C59.1558 22.4099 60.4431 23.1182 61.4016 24.0289L62.99 22.4351C61.6526 21.1459 59.8623 20.1599 57.3654 20.1599C52.8494 20.1599 49.0654 23.8766 49.0654 28.4035C49.0654 32.9307 52.8494 36.6475 57.3654 36.6475C59.812 36.6475 61.6289 35.8387 63.0917 34.3205C64.5799 32.8286 65.0339 30.7292 65.0339 29.0351C65.0339 28.5043 64.984 28.0236 64.9074 27.6188L57.3654 27.7205ZM113.417 29.4652C112.987 28.2765 111.626 26.0765 108.901 26.0765C106.176 26.0765 103.931 28.2263 103.931 31.4123C103.931 34.3958 106.176 36.748 109.153 36.748C111.575 36.748 112.962 35.2561 113.542 34.3958L111.752 33.1822C111.146 34.0677 110.339 34.6486 109.153 34.6486C107.967 34.6486 107.135 34.1178 106.605 33.0299L113.642 30.0715L113.417 29.4652ZM106.252 31.2613C106.202 29.2123 107.842 28.1507 109.001 28.1507C109.935 28.1507 110.691 28.606 110.969 29.289L106.252 31.2613ZM100.526 36.3944H102.847V20.766H100.526V36.3944ZM96.7428 27.2652H96.6674C96.138 26.6325 95.1544 26.0765 93.8921 26.0765C91.2433 26.0765 88.847 28.4287 88.847 31.4123C88.847 34.3958 91.2685 36.7231 93.8921 36.7231C95.153 36.7231 96.1369 36.1668 96.6674 35.5089H96.7428V36.2676C96.7428 38.3166 95.6574 39.4031 93.9173 39.4031C92.5045 39.4031 91.6212 38.3667 91.2685 37.5064L89.2511 38.3667C89.8305 39.783 91.3701 41.5277 93.9173 41.5277C96.6412 41.5277 98.9373 39.909 98.9373 35.9896V26.4049H96.7428V27.2652ZM94.094 34.6248C92.5045 34.6248 91.1682 33.284 91.1682 31.4136C91.1682 29.5432 92.5056 28.177 94.094 28.177C95.6587 28.177 96.9196 29.5432 96.9196 31.4136C96.9185 33.2589 95.6574 34.6248 94.094 34.6248ZM124.238 20.7663H118.689V36.3944H121.01V30.4764H124.238C126.812 30.4764 129.334 28.6046 129.334 25.6213C129.334 22.6378 126.812 20.766 124.238 20.766V20.7663ZM124.313 28.303H121.034V22.9407H124.313C126.029 22.9407 127.038 24.3822 127.038 25.6211C127.014 26.835 126.03 28.303 124.313 28.303ZM138.592 26.0513C136.927 26.0513 135.186 26.7848 134.48 28.4539L136.524 29.3142C136.978 28.4539 137.785 28.1759 138.643 28.1759C139.854 28.1759 141.065 28.9092 141.09 30.1984V30.3507C140.661 30.0978 139.779 29.7432 138.669 29.7432C136.449 29.7432 134.203 30.9822 134.203 33.2589C134.203 35.358 136.02 36.6979 138.037 36.6979C139.602 36.6979 140.459 35.9896 140.988 35.1556H141.064V36.3695H143.308V30.3756C143.283 27.6197 141.241 26.0511 138.592 26.0511V26.0513ZM138.315 34.5996C137.558 34.5996 136.498 34.2197 136.498 33.2852C136.498 32.0713 137.809 31.616 138.944 31.616C139.953 31.616 140.433 31.8437 141.064 32.1469C140.887 33.5884 139.651 34.5996 138.315 34.5996ZM151.406 26.4063L148.758 33.1581H148.682L145.933 26.406H143.436L147.573 35.8636L145.227 41.1492H147.648L153.979 26.406H151.406L151.406 26.4063ZM130.621 36.3944H132.942V20.766H130.621V36.3944Z" fill="black"/>
<path d="M56.0789 13.4413V15.7619H55.1138V14.4H50.6761V15.7619H49.7109V13.4413H50.4325C50.673 13.1068 50.8504 12.6259 50.9647 11.9987C51.0789 11.3656 51.1361 10.6786 51.1361 9.93795V7.98467H55.3663V13.4413H56.0789ZM54.3561 13.4413V8.94339H52.1373V10.1082C52.1373 10.7772 52.0831 11.3984 51.9749 11.9719C51.8727 12.5453 51.7163 13.0351 51.5059 13.4413H54.3561Z" fill="black"/>
<path d="M60.1742 14.5434C59.5488 14.5434 58.9806 14.397 58.4695 14.1043C57.9584 13.8057 57.5555 13.3995 57.2608 12.8858C56.9722 12.3721 56.8279 11.8076 56.8279 11.1923C56.8279 10.5771 56.9722 10.0156 57.2608 9.50787C57.5555 8.99416 57.9584 8.58798 58.4695 8.28931C58.9806 7.99064 59.5488 7.84131 60.1742 7.84131C60.7996 7.84131 61.3648 7.99064 61.8699 8.28931C62.3811 8.58798 62.7839 8.99416 63.0786 9.50787C63.3732 10.0156 63.5205 10.5771 63.5205 11.1923C63.5205 11.8076 63.3732 12.3721 63.0786 12.8858C62.7899 13.3995 62.3901 13.8057 61.879 14.1043C61.3678 14.397 60.7996 14.5434 60.1742 14.5434ZM60.1742 13.5847C60.6012 13.5847 60.992 13.4831 61.3468 13.28C61.7016 13.0769 61.9812 12.7962 62.1856 12.4378C62.3901 12.0734 62.4923 11.6583 62.4923 11.1923C62.4923 10.7264 62.3901 10.3143 62.1856 9.95587C61.9812 9.5915 61.7016 9.30776 61.3468 9.10467C60.992 8.90158 60.6012 8.80003 60.1742 8.80003C59.7473 8.80003 59.3564 8.90158 59.0016 9.10467C58.6469 9.30776 58.3643 9.5915 58.1538 9.95587C57.9493 10.3143 57.8471 10.7264 57.8471 11.1923C57.8471 11.6583 57.9493 12.0734 58.1538 12.4378C58.3643 12.7962 58.6469 13.0769 59.0016 13.28C59.3564 13.4831 59.7473 13.5847 60.1742 13.5847Z" fill="black"/>
<path d="M67.6355 14.5434C67.0102 14.5434 66.4389 14.397 65.9218 14.1043C65.4046 13.8117 64.9988 13.4085 64.7041 12.8947C64.4095 12.381 64.2621 11.8136 64.2621 11.1923C64.2621 10.5711 64.4095 10.0037 64.7041 9.48995C64.9988 8.97624 65.4046 8.57304 65.9218 8.28035C66.4389 7.98766 67.0102 7.84131 67.6355 7.84131C68.1226 7.84131 68.5646 7.93091 68.9614 8.11011C69.3643 8.28931 69.7191 8.54915 70.0258 8.88963L69.3042 9.57955C69.0817 9.31672 68.8352 9.12259 68.5646 8.99715C68.294 8.86574 67.9843 8.80003 67.6355 8.80003C67.2026 8.80003 66.8057 8.89859 66.4449 9.09571C66.0901 9.29283 65.8075 9.57358 65.5971 9.93795C65.3866 10.2963 65.2814 10.7145 65.2814 11.1923C65.2814 11.6702 65.3866 12.0913 65.5971 12.4557C65.8075 12.8141 66.0901 13.0919 66.4449 13.289C66.8057 13.4861 67.2026 13.5847 67.6355 13.5847C68.3571 13.5847 68.9705 13.286 69.4756 12.6887L70.2062 13.3875C69.8935 13.7519 69.5177 14.0357 69.0787 14.2387C68.6397 14.4418 68.1587 14.5434 67.6355 14.5434Z" fill="black"/>
<path d="M72.6419 8.94339H70.838V7.98467H75.4561V8.94339H73.6521V14.4H72.6419V8.94339Z" fill="black"/>
<path d="M77.1286 14.5434C76.9061 14.5434 76.7167 14.5046 76.5604 14.4269V13.4503C76.7588 13.5578 76.9392 13.6115 77.1016 13.6115C77.2639 13.6115 77.3932 13.5817 77.4894 13.5219C77.5856 13.4562 77.6728 13.3368 77.751 13.1635L77.9765 12.6976L75.8298 7.98467H76.9572L78.4635 11.5418H78.5177L80.033 7.98467H81.1605L78.689 13.3786C78.5086 13.7788 78.2892 14.0745 78.0306 14.2656C77.778 14.4508 77.4774 14.5434 77.1286 14.5434Z" fill="black"/>
<path d="M82.0362 7.98467H86.8438V14.4H85.8335V8.94339H83.0464V14.4H82.0362V7.98467Z" fill="black"/>
<path d="M88.3166 7.98467H89.3268V10.6458H92.3214V7.98467H93.3226V14.4H92.3214V11.5955H89.3268V14.4H88.3166V7.98467Z" fill="black"/>
<path d="M97.7331 14.5434C97.1077 14.5434 96.5395 14.397 96.0283 14.1043C95.5172 13.8057 95.1143 13.3995 94.8197 12.8858C94.5311 12.3721 94.3867 11.8076 94.3867 11.1923C94.3867 10.5771 94.5311 10.0156 94.8197 9.50787C95.1143 8.99416 95.5172 8.58798 96.0283 8.28931C96.5395 7.99064 97.1077 7.84131 97.7331 7.84131C98.3584 7.84131 98.9237 7.99064 99.4288 8.28931C99.9399 8.58798 100.343 8.99416 100.637 9.50787C100.932 10.0156 101.079 10.5771 101.079 11.1923C101.079 11.8076 100.932 12.3721 100.637 12.8858C100.349 13.3995 99.9489 13.8057 99.4378 14.1043C98.9267 14.397 98.3584 14.5434 97.7331 14.5434ZM97.7331 13.5847C98.16 13.5847 98.5509 13.4831 98.9056 13.28C99.2604 13.0769 99.54 12.7962 99.7445 12.4378C99.9489 12.0734 100.051 11.6583 100.051 11.1923C100.051 10.7264 99.9489 10.3143 99.7445 9.95587C99.54 9.5915 99.2604 9.30776 98.9056 9.10467C98.5509 8.90158 98.16 8.80003 97.7331 8.80003C97.3061 8.80003 96.9153 8.90158 96.5605 9.10467C96.2057 9.30776 95.9231 9.5915 95.7127 9.95587C95.5082 10.3143 95.406 10.7264 95.406 11.1923C95.406 11.6583 95.5082 12.0734 95.7127 12.4378C95.9231 12.7962 96.2057 13.0769 96.5605 13.28C96.9153 13.4831 97.3061 13.5847 97.7331 13.5847Z" fill="black"/>
<path d="M104.348 7.98467H106.774C107.117 7.98467 107.433 8.05934 107.721 8.20867C108.016 8.358 108.25 8.56408 108.425 8.82691C108.599 9.08974 108.686 9.37944 108.686 9.69603C108.686 10.0126 108.605 10.2874 108.443 10.5203C108.286 10.7533 108.079 10.9295 107.82 11.049V11.1027C108.145 11.2162 108.407 11.4044 108.605 11.6672C108.81 11.9301 108.912 12.2377 108.912 12.5901C108.912 12.9425 108.819 13.2561 108.632 13.5309C108.452 13.8057 108.205 14.0207 107.893 14.176C107.586 14.3254 107.249 14.4 106.882 14.4H104.348V7.98467ZM106.729 10.6727C107.018 10.6727 107.249 10.5831 107.424 10.4039C107.604 10.2247 107.694 10.0186 107.694 9.78563C107.694 9.55267 107.607 9.34958 107.433 9.17635C107.264 8.99715 107.042 8.90755 106.765 8.90755H105.358V10.6727H106.729ZM106.882 13.4682C107.189 13.4682 107.433 13.3726 107.613 13.1815C107.799 12.9903 107.893 12.7693 107.893 12.5184C107.893 12.2616 107.796 12.0406 107.604 11.8554C107.418 11.6642 107.165 11.5687 106.846 11.5687H105.358V13.4682H106.882Z" fill="black"/>
<path d="M34.3698 29.1466C38.2292 27.022 41.1554 25.4032 41.4075 25.2775C42.214 24.8472 43.0474 23.7089 41.4075 22.8248C40.878 22.5468 38.0273 20.9782 34.3698 18.9558L29.2998 24.0888L34.3695 29.1466H34.3698Z" fill="#FFD900"/>
<path d="M29.2995 24.0889L13.1553 40.4003C13.534 40.4507 13.9618 40.3499 14.4664 40.0719C15.5254 39.491 26.7509 33.3451 34.3698 29.1477L29.2995 24.0889Z" fill="#F43249"/>
<path d="M29.2999 24.0889L34.3696 18.9808C34.3696 18.9808 15.6023 8.71334 14.4666 8.1075C14.0393 7.85276 13.5598 7.77744 13.1309 7.85276L29.2999 24.0886V24.0889Z" fill="#00EE76"/>
<path d="M29.3001 24.0889L13.1308 7.85303C12.4745 8.00504 11.9199 8.58624 11.9199 9.77438V38.4781C11.9199 39.5663 12.3491 40.3499 13.1557 40.4252L29.2999 24.0886L29.3001 24.0889Z" fill="#00D3FF"/>
</g>
<defs>
<clipPath id="clip0_31_562132">
<rect width="163" height="48" fill="white"/>
</clipPath>
</defs>
</svg>
