<svg width="102" height="30" viewBox="0 0 102 30" fill="none" xmlns="http://www.w3.org/2000/svg">
<g clip-path="url(#clip0_3515_15173)">
<path d="M0.308594 4C0.308594 1.79086 2.1035 0 4.31763 0H97.7281C99.9423 0 101.737 1.79086 101.737 4V26C101.737 28.2091 99.9423 30 97.7281 30H4.31763C2.1035 30 0.308594 28.2091 0.308594 26V4Z" fill="black"/>
<path fill-rule="evenodd" clip-rule="evenodd" d="M0.308594 26V4C0.308594 1.79086 2.1035 0 4.31763 0H97.7281C99.9423 0 101.737 1.79086 101.737 4V26C101.737 28.2091 99.9423 30 97.7281 30H4.31763C2.1035 30 0.308594 28.2091 0.308594 26ZM0.909949 26V4C0.909949 2.12223 2.43562 0.6 4.31763 0.6H97.7281C99.6101 0.6 101.136 2.12223 101.136 4V26C101.136 27.8778 99.6101 29.4 97.7281 29.4H4.31763C2.43562 29.4 0.909949 27.8778 0.909949 26Z" fill="white" fill-opacity="0.3"/>
<path d="M51.7015 16.2979C49.8965 16.2979 48.4051 17.7043 48.4051 19.6327C48.4051 21.5453 49.8808 22.9675 51.7016 22.9675C53.5223 22.9675 54.9978 21.5611 54.9978 19.6327C54.9978 17.7043 53.5223 16.2979 51.7015 16.2979ZM51.7015 21.6405C50.7123 21.6405 49.8495 20.8026 49.8495 19.6178C49.8495 18.4166 50.713 17.5951 51.7015 17.5951C52.6899 17.5951 53.5534 18.4166 53.5534 19.6178C53.5534 20.8026 52.6899 21.6405 51.7015 21.6405ZM44.528 16.2979C42.7072 16.2979 41.2315 17.7043 41.2315 19.6327C41.2315 21.5453 42.7072 22.9675 44.528 22.9675C46.3487 22.9675 47.8244 21.5611 47.8244 19.6327C47.8244 17.7043 46.3487 16.2979 44.5279 16.2979H44.528ZM44.528 21.6405C43.5388 21.6405 42.6761 20.8026 42.6761 19.6178C42.6761 18.4166 43.5396 17.5951 44.528 17.5951C45.5172 17.5951 46.38 18.4166 46.38 19.6178C46.38 20.8026 45.5319 21.6405 44.528 21.6405ZM36.0046 17.3253V18.7317H39.332C39.2375 19.5219 38.9714 20.1067 38.5787 20.5021C38.0923 20.9919 37.3388 21.5296 36.0046 21.5296C33.948 21.5296 32.3631 19.8544 32.3631 17.7837C32.3631 15.7131 33.9488 14.0062 36.0046 14.0062C37.1187 14.0062 37.9198 14.4489 38.5161 15.0181L39.5046 14.022C38.6724 13.2162 37.5583 12.6 36.0046 12.6C33.1945 12.6 30.8398 14.9229 30.8398 17.7522C30.8398 20.5817 33.1945 22.9047 36.0046 22.9047C37.527 22.9047 38.6576 22.3992 39.5678 21.4503C40.4939 20.5179 40.7764 19.2058 40.7764 18.147C40.7764 17.8152 40.7453 17.5148 40.6977 17.2618L36.0046 17.3253ZM70.883 18.4157C70.6159 17.6728 69.7688 16.2979 68.0729 16.2979C66.3772 16.2979 64.9804 17.6415 64.9804 19.6327C64.9804 21.4974 66.3772 22.9675 68.23 22.9675C69.7368 22.9675 70.6003 22.0351 70.9611 21.4974L69.847 20.7389C69.4699 21.2923 68.9679 21.6554 68.23 21.6554C67.4922 21.6554 66.9745 21.3236 66.6443 20.6437L71.0236 18.7947L70.883 18.4157ZM66.4248 19.5384C66.3937 18.2577 67.4141 17.5942 68.1355 17.5942C68.7164 17.5942 69.1873 17.8787 69.3597 18.3057L66.4248 19.5384ZM62.8616 22.7465H64.306V12.9788H62.8616V22.7465ZM60.5076 17.0408H60.4607C60.1312 16.6454 59.5192 16.2979 58.7338 16.2979C57.0855 16.2979 55.5944 17.768 55.5944 19.6327C55.5944 21.4974 57.1012 22.9519 58.7338 22.9519C59.5184 22.9519 60.1306 22.6043 60.4607 22.1931H60.5076V22.6672C60.5076 23.9479 59.8322 24.627 58.7494 24.627C57.8703 24.627 57.3206 23.9792 57.1012 23.4415L55.8458 23.9792C56.2064 24.8644 57.1644 25.9548 58.7494 25.9548C60.4444 25.9548 61.8732 24.9431 61.8732 22.4935V16.5031H60.5076V17.0408ZM58.8594 21.6405C57.8703 21.6405 57.0388 20.8026 57.0388 19.6336C57.0388 18.4645 57.871 17.6107 58.8594 17.6107C59.833 17.6107 60.6176 18.4645 60.6176 19.6336C60.617 20.7868 59.8322 21.6405 58.8594 21.6405ZM77.617 12.979H74.1637V22.7465H75.6081V19.0478H77.617C79.2183 19.0478 80.7877 17.8779 80.7877 16.0134C80.7877 14.1487 79.2183 12.9788 77.617 12.9788V12.979ZM77.6637 17.6894H75.6229V14.338H77.6637C78.731 14.338 79.3589 15.2389 79.3589 16.0132C79.3439 16.7719 78.7319 17.6894 77.6637 17.6894ZM86.5488 16.2821C85.5127 16.2821 84.4296 16.7405 83.9901 17.7837L85.262 18.3214C85.5447 17.7837 86.0468 17.61 86.5808 17.61C87.3342 17.61 88.0875 18.0682 88.1032 18.874V18.9692C87.8361 18.8112 87.2873 18.5895 86.5964 18.5895C85.2152 18.5895 83.8176 19.3639 83.8176 20.7868C83.8176 22.0988 84.9481 22.9362 86.2037 22.9362C87.1771 22.9362 87.7105 22.4935 88.0399 21.9722H88.0869V22.7309H89.4835V18.9848C89.468 17.2623 88.1969 16.2819 86.5488 16.2819V16.2821ZM86.3762 21.6247C85.9053 21.6247 85.2457 21.3873 85.2457 20.8032C85.2457 20.0446 86.0615 19.7601 86.7681 19.7601C87.3958 19.7601 87.6941 19.9023 88.0869 20.0918C87.9769 20.9927 87.2077 21.6247 86.3762 21.6247ZM94.5226 16.504L92.8744 20.7238H92.8274L91.117 16.5038H89.5632L92.1372 22.4148L90.6771 25.7183H92.1839L96.1236 16.5038H94.5224L94.5226 16.504ZM81.5886 22.7465H83.033V12.9788H81.5886V22.7465Z" fill="white"/>
<path d="M35.2047 8.40076V9.85116H34.6042V8.99996H31.8427V9.85116H31.2422V8.40076H31.6912C31.8409 8.19169 31.9513 7.89116 32.0223 7.49916C32.0934 7.10342 32.129 6.67409 32.129 6.21116V4.99036H34.7613V8.40076H35.2047ZM34.1327 8.40076V5.58956H32.752V6.31756C32.752 6.73569 32.7183 7.12396 32.651 7.48236C32.5874 7.84076 32.4901 8.14689 32.3591 8.40076H34.1327Z" fill="white"/>
<path d="M37.7531 9.08956C37.3639 9.08956 37.0103 8.99809 36.6923 8.81516C36.3742 8.62849 36.1235 8.37462 35.9402 8.05356C35.7606 7.73249 35.6708 7.37969 35.6708 6.99516C35.6708 6.61062 35.7606 6.25969 35.9402 5.94236C36.1235 5.62129 36.3742 5.36742 36.6923 5.18076C37.0103 4.99409 37.3639 4.90076 37.7531 4.90076C38.1422 4.90076 38.4939 4.99409 38.8083 5.18076C39.1263 5.36742 39.377 5.62129 39.5603 5.94236C39.7437 6.25969 39.8354 6.61062 39.8354 6.99516C39.8354 7.37969 39.7437 7.73249 39.5603 8.05356C39.3807 8.37462 39.1319 8.62849 38.8139 8.81516C38.4958 8.99809 38.1422 9.08956 37.7531 9.08956ZM37.7531 8.49036C38.0187 8.49036 38.262 8.42689 38.4827 8.29996C38.7035 8.17302 38.8775 7.99756 39.0047 7.77356C39.1319 7.54582 39.1955 7.28636 39.1955 6.99516C39.1955 6.70396 39.1319 6.44636 39.0047 6.22236C38.8775 5.99462 38.7035 5.81729 38.4827 5.69036C38.262 5.56342 38.0187 5.49996 37.7531 5.49996C37.4874 5.49996 37.2442 5.56342 37.0234 5.69036C36.8027 5.81729 36.6268 5.99462 36.4958 6.22236C36.3686 6.44636 36.305 6.70396 36.305 6.99516C36.305 7.28636 36.3686 7.54582 36.4958 7.77356C36.6268 7.99756 36.8027 8.17302 37.0234 8.29996C37.2442 8.42689 37.4874 8.49036 37.7531 8.49036Z" fill="white"/>
<path d="M42.396 9.08956C42.0068 9.08956 41.6514 8.99809 41.3296 8.81516C41.0078 8.63222 40.7552 8.38022 40.5719 8.05916C40.3885 7.73809 40.2968 7.38342 40.2968 6.99516C40.2968 6.60689 40.3885 6.25222 40.5719 5.93116C40.7552 5.61009 41.0078 5.35809 41.3296 5.17516C41.6514 4.99222 42.0068 4.90076 42.396 4.90076C42.699 4.90076 42.9741 4.95676 43.221 5.06876C43.4717 5.18076 43.6925 5.34316 43.8833 5.55596L43.4343 5.98716C43.2959 5.82289 43.1424 5.70156 42.9741 5.62316C42.8057 5.54102 42.613 5.49996 42.396 5.49996C42.1266 5.49996 41.8796 5.56156 41.6551 5.68476C41.4343 5.80796 41.2585 5.98342 41.1275 6.21116C40.9965 6.43516 40.9311 6.69649 40.9311 6.99516C40.9311 7.29382 40.9965 7.55702 41.1275 7.78476C41.2585 8.00876 41.4343 8.18236 41.6551 8.30556C41.8796 8.42876 42.1266 8.49036 42.396 8.49036C42.845 8.49036 43.2266 8.30369 43.5409 7.93036L43.9956 8.36716C43.801 8.59489 43.5671 8.77222 43.294 8.89916C43.0208 9.02609 42.7215 9.08956 42.396 9.08956Z" fill="white"/>
<path d="M45.5112 5.58956H44.3887V4.99036H47.2624V5.58956H46.1399V8.99996H45.5112V5.58956Z" fill="white"/>
<path d="M48.3031 9.08956C48.1647 9.08956 48.0468 9.06529 47.9495 9.01676V8.40636C48.073 8.47356 48.1853 8.50716 48.2863 8.50716C48.3873 8.50716 48.4678 8.48849 48.5276 8.45116C48.5875 8.41009 48.6418 8.33542 48.6904 8.22716L48.8307 7.93596L47.4949 4.99036H48.1965L49.1338 7.21356H49.1675L50.1104 4.99036H50.812L49.2741 8.36156C49.1619 8.61169 49.0253 8.79649 48.8644 8.91596C48.7072 9.03169 48.5202 9.08956 48.3031 9.08956Z" fill="white"/>
<path d="M51.3569 4.99036H54.3485V8.99996H53.7199V5.58956H51.9856V8.99996H51.3569V4.99036Z" fill="white"/>
<path d="M55.265 4.99036H55.8936V6.65356H57.757V4.99036H58.38V8.99996H57.757V7.24716H55.8936V8.99996H55.265V4.99036Z" fill="white"/>
<path d="M61.1245 9.08956C60.7353 9.08956 60.3817 8.99809 60.0637 8.81516C59.7456 8.62849 59.4949 8.37462 59.3116 8.05356C59.132 7.73249 59.0422 7.37969 59.0422 6.99516C59.0422 6.61062 59.132 6.25969 59.3116 5.94236C59.4949 5.62129 59.7456 5.36742 60.0637 5.18076C60.3817 4.99409 60.7353 4.90076 61.1245 4.90076C61.5136 4.90076 61.8654 4.99409 62.1797 5.18076C62.4977 5.36742 62.7484 5.62129 62.9318 5.94236C63.1151 6.25969 63.2068 6.61062 63.2068 6.99516C63.2068 7.37969 63.1151 7.73249 62.9318 8.05356C62.7522 8.37462 62.5033 8.62849 62.1853 8.81516C61.8672 8.99809 61.5136 9.08956 61.1245 9.08956ZM61.1245 8.49036C61.3901 8.49036 61.6334 8.42689 61.8541 8.29996C62.0749 8.17302 62.2489 7.99756 62.3761 7.77356C62.5033 7.54582 62.5669 7.28636 62.5669 6.99516C62.5669 6.70396 62.5033 6.44636 62.3761 6.22236C62.2489 5.99462 62.0749 5.81729 61.8541 5.69036C61.6334 5.56342 61.3901 5.49996 61.1245 5.49996C60.8588 5.49996 60.6156 5.56342 60.3948 5.69036C60.1741 5.81729 59.9982 5.99462 59.8672 6.22236C59.74 6.44636 59.6764 6.70396 59.6764 6.99516C59.6764 7.28636 59.74 7.54582 59.8672 7.77356C59.9982 7.99756 60.1741 8.17302 60.3948 8.29996C60.6156 8.42689 60.8588 8.49036 61.1245 8.49036Z" fill="white"/>
<path d="M65.2406 4.99036H66.7504C66.9636 4.99036 67.1601 5.03702 67.3397 5.13036C67.523 5.22369 67.669 5.35249 67.7775 5.51676C67.886 5.68102 67.9403 5.86209 67.9403 6.05996C67.9403 6.25782 67.8897 6.42956 67.7887 6.57516C67.6914 6.72076 67.5623 6.83089 67.4014 6.90556V6.93916C67.6035 7.01009 67.7663 7.12769 67.8897 7.29196C68.017 7.45622 68.0806 7.64849 68.0806 7.86876C68.0806 8.08902 68.0226 8.28502 67.9066 8.45676C67.7943 8.62849 67.6409 8.76289 67.4463 8.85996C67.2555 8.95329 67.046 8.99996 66.8177 8.99996H65.2406V4.99036ZM66.7223 6.67036C66.9019 6.67036 67.046 6.61436 67.1545 6.50236C67.2667 6.39036 67.3229 6.26156 67.3229 6.11596C67.3229 5.97036 67.2686 5.84342 67.1601 5.73516C67.0553 5.62316 66.9169 5.56716 66.7448 5.56716H65.8692V6.67036H66.7223ZM66.8177 8.41756C67.0086 8.41756 67.1601 8.35782 67.2723 8.23836C67.3883 8.11889 67.4463 7.98076 67.4463 7.82396C67.4463 7.66342 67.3865 7.52529 67.2667 7.40956C67.1507 7.29009 66.9936 7.23036 66.7953 7.23036H65.8692V8.41756H66.8177Z" fill="white"/>
<path d="M21.6959 18.2164C24.0975 16.8885 25.9183 15.8768 26.0752 15.7982C26.577 15.5293 27.0956 14.8179 26.0752 14.2653C25.7457 14.0916 23.9718 13.1112 21.6959 11.8472L18.541 15.0553L21.6957 18.2164H21.6959Z" fill="#FFD900"/>
<path d="M18.54 15.0553L8.49414 25.25C8.72978 25.2814 8.99601 25.2185 9.31002 25.0447C9.96897 24.6816 16.9542 20.8404 21.6951 18.2171L18.54 15.0553Z" fill="#F43249"/>
<path d="M18.5399 15.0553L21.6946 11.8628C21.6946 11.8628 10.0164 5.44562 9.30969 5.06697C9.0438 4.90776 8.74543 4.86069 8.47852 4.90776L18.5399 15.0552V15.0553Z" fill="#00EE76"/>
<path d="M18.5416 15.0554L8.48005 4.90796C8.07168 5.00297 7.72656 5.36622 7.72656 6.10881V24.0487C7.72656 24.7288 7.99365 25.2185 8.49552 25.2656L18.5414 15.0552L18.5416 15.0554Z" fill="#00D3FF"/>
</g>
<defs>
<clipPath id="clip0_3515_15173">
<rect width="101.429" height="30" fill="white" transform="translate(0.308594)"/>
</clipPath>
</defs>
</svg>
