<svg width="102" height="30" viewBox="0 0 102 30" fill="none" xmlns="http://www.w3.org/2000/svg">
<g clip-path="url(#clip0_4163_230474)">
<path d="M0 4C0 1.79086 1.79491 0 4.00903 0H97.4195C99.6337 0 101.429 1.79086 101.429 4V26C101.429 28.2091 99.6337 30 97.4195 30H4.00903C1.79491 30 0 28.2091 0 26V4Z" fill="white"/>
<path fill-rule="evenodd" clip-rule="evenodd" d="M0 26V4C0 1.79086 1.79491 0 4.00903 0H97.4195C99.6337 0 101.429 1.79086 101.429 4V26C101.429 28.2091 99.6337 30 97.4195 30H4.00903C1.79491 30 0 28.2091 0 26ZM0.601355 26V4C0.601355 2.12223 2.12702 0.6 4.00903 0.6H97.4195C99.3015 0.6 100.827 2.12223 100.827 4V26C100.827 27.8778 99.3015 29.4 97.4195 29.4H4.00903C2.12703 29.4 0.601355 27.8778 0.601355 26Z" fill="black" fill-opacity="0.1"/>
<path d="M51.3929 16.2979C49.5879 16.2979 48.0965 17.7043 48.0965 19.6327C48.0965 21.5453 49.5722 22.9675 51.393 22.9675C53.2137 22.9675 54.6892 21.5611 54.6892 19.6327C54.6892 17.7043 53.2137 16.2979 51.3929 16.2979ZM51.3929 21.6405C50.4037 21.6405 49.5409 20.8026 49.5409 19.6178C49.5409 18.4166 50.4044 17.5951 51.3929 17.5951C52.3813 17.5951 53.2448 18.4166 53.2448 19.6178C53.2448 20.8026 52.3813 21.6405 51.3929 21.6405ZM44.2195 16.2979C42.3986 16.2979 40.923 17.7043 40.923 19.6327C40.923 21.5453 42.3986 22.9675 44.2195 22.9675C46.0401 22.9675 47.5158 21.5611 47.5158 19.6327C47.5158 17.7043 46.0401 16.2979 44.2193 16.2979H44.2195ZM44.2195 21.6405C43.2302 21.6405 42.3675 20.8026 42.3675 19.6178C42.3675 18.4166 43.231 17.5951 44.2195 17.5951C45.2086 17.5951 46.0714 18.4166 46.0714 19.6178C46.0714 20.8026 45.2234 21.6405 44.2195 21.6405ZM35.696 17.3253V18.7317H39.0234C38.9289 19.5219 38.6628 20.1067 38.2701 20.5021C37.7837 20.9919 37.0302 21.5296 35.696 21.5296C33.6394 21.5296 32.0545 19.8544 32.0545 17.7837C32.0545 15.7131 33.6402 14.0062 35.696 14.0062C36.8101 14.0062 37.6112 14.4489 38.2076 15.0181L39.196 14.022C38.3638 13.2162 37.2497 12.6 35.696 12.6C32.8859 12.6 30.5312 14.9229 30.5312 17.7522C30.5312 20.5817 32.8859 22.9047 35.696 22.9047C37.2184 22.9047 38.349 22.3992 39.2592 21.4503C40.1853 20.5179 40.4678 19.2058 40.4678 18.147C40.4678 17.8152 40.4367 17.5148 40.3891 17.2618L35.696 17.3253ZM70.5744 18.4157C70.3073 17.6728 69.4602 16.2979 67.7643 16.2979C66.0686 16.2979 64.6718 17.6415 64.6718 19.6327C64.6718 21.4974 66.0686 22.9675 67.9214 22.9675C69.4282 22.9675 70.2917 22.0351 70.6525 21.4974L69.5384 20.7389C69.1613 21.2923 68.6593 21.6554 67.9214 21.6554C67.1836 21.6554 66.6659 21.3236 66.3357 20.6437L70.715 18.7947L70.5744 18.4157ZM66.1162 19.5384C66.0851 18.2577 67.1055 17.5942 67.8269 17.5942C68.4078 17.5942 68.8787 17.8787 69.0511 18.3057L66.1162 19.5384ZM62.553 22.7465H63.9974V12.9788H62.553V22.7465ZM60.199 17.0408H60.1521C59.8227 16.6454 59.2106 16.2979 58.4252 16.2979C56.7769 16.2979 55.2858 17.768 55.2858 19.6327C55.2858 21.4974 56.7926 22.9519 58.4252 22.9519C59.2098 22.9519 59.822 22.6043 60.1521 22.1931H60.199V22.6672C60.199 23.9479 59.5236 24.627 58.4408 24.627C57.5617 24.627 57.012 23.9792 56.7926 23.4415L55.5372 23.9792C55.8978 24.8644 56.8558 25.9548 58.4408 25.9548C60.1358 25.9548 61.5646 24.9431 61.5646 22.4935V16.5031H60.199V17.0408ZM58.5508 21.6405C57.5617 21.6405 56.7302 20.8026 56.7302 19.6336C56.7302 18.4645 57.5624 17.6107 58.5508 17.6107C59.5245 17.6107 60.309 18.4645 60.309 19.6336C60.3084 20.7868 59.5236 21.6405 58.5508 21.6405ZM77.3084 12.979H73.8551V22.7465H75.2995V19.0478H77.3084C78.9097 19.0478 80.4791 17.8779 80.4791 16.0134C80.4791 14.1487 78.9097 12.9788 77.3084 12.9788V12.979ZM77.3551 17.6894H75.3143V14.338H77.3551C78.4224 14.338 79.0503 15.2389 79.0503 16.0132C79.0353 16.7719 78.4233 17.6894 77.3551 17.6894ZM86.2402 16.2821C85.2041 16.2821 84.121 16.7405 83.6815 17.7837L84.9534 18.3214C85.2361 17.7837 85.7382 17.61 86.2722 17.61C87.0257 17.61 87.779 18.0682 87.7946 18.874V18.9692C87.5275 18.8112 86.9787 18.5895 86.2878 18.5895C84.9066 18.5895 83.509 19.3639 83.509 20.7868C83.509 22.0988 84.6395 22.9362 85.8951 22.9362C86.8685 22.9362 87.4019 22.4935 87.7314 21.9722H87.7783V22.7309H89.1749V18.9848C89.1594 17.2623 87.8883 16.2819 86.2402 16.2819V16.2821ZM86.0676 21.6247C85.5967 21.6247 84.9371 21.3873 84.9371 20.8032C84.9371 20.0446 85.7529 19.7601 86.4595 19.7601C87.0872 19.7601 87.3855 19.9023 87.7783 20.0918C87.6683 20.9927 86.8992 21.6247 86.0676 21.6247ZM94.214 16.504L92.5658 20.7238H92.5188L90.8084 16.5038H89.2546L91.8286 22.4148L90.3686 25.7183H91.8753L95.815 16.5038H94.2138L94.214 16.504ZM81.28 22.7465H82.7244V12.9788H81.28V22.7465Z" fill="black"/>
<path d="M34.8961 8.40076V9.85116H34.2956V8.99996H31.5341V9.85116H30.9336V8.40076H31.3826C31.5323 8.19169 31.6427 7.89116 31.7138 7.49916C31.7848 7.10342 31.8204 6.67409 31.8204 6.21116V4.99036H34.4527V8.40076H34.8961ZM33.8241 8.40076V5.58956H32.4434V6.31756C32.4434 6.73569 32.4097 7.12396 32.3424 7.48236C32.2788 7.84076 32.1815 8.14689 32.0505 8.40076H33.8241Z" fill="black"/>
<path d="M37.4445 9.08956C37.0553 9.08956 36.7017 8.99809 36.3837 8.81516C36.0656 8.62849 35.8149 8.37462 35.6316 8.05356C35.452 7.73249 35.3622 7.37969 35.3622 6.99516C35.3622 6.61062 35.452 6.25969 35.6316 5.94236C35.8149 5.62129 36.0656 5.36742 36.3837 5.18076C36.7017 4.99409 37.0553 4.90076 37.4445 4.90076C37.8336 4.90076 38.1854 4.99409 38.4997 5.18076C38.8177 5.36742 39.0684 5.62129 39.2518 5.94236C39.4351 6.25969 39.5268 6.61062 39.5268 6.99516C39.5268 7.37969 39.4351 7.73249 39.2518 8.05356C39.0721 8.37462 38.8233 8.62849 38.5053 8.81516C38.1872 8.99809 37.8336 9.08956 37.4445 9.08956ZM37.4445 8.49036C37.7101 8.49036 37.9534 8.42689 38.1741 8.29996C38.3949 8.17302 38.5689 7.99756 38.6961 7.77356C38.8233 7.54582 38.8869 7.28636 38.8869 6.99516C38.8869 6.70396 38.8233 6.44636 38.6961 6.22236C38.5689 5.99462 38.3949 5.81729 38.1741 5.69036C37.9534 5.56342 37.7101 5.49996 37.4445 5.49996C37.1788 5.49996 36.9356 5.56342 36.7148 5.69036C36.4941 5.81729 36.3182 5.99462 36.1872 6.22236C36.06 6.44636 35.9964 6.70396 35.9964 6.99516C35.9964 7.28636 36.06 7.54582 36.1872 7.77356C36.3182 7.99756 36.4941 8.17302 36.7148 8.29996C36.9356 8.42689 37.1788 8.49036 37.4445 8.49036Z" fill="black"/>
<path d="M42.0874 9.08956C41.6982 9.08956 41.3428 8.99809 41.021 8.81516C40.6992 8.63222 40.4466 8.38022 40.2633 8.05916C40.0799 7.73809 39.9882 7.38342 39.9882 6.99516C39.9882 6.60689 40.0799 6.25222 40.2633 5.93116C40.4466 5.61009 40.6992 5.35809 41.021 5.17516C41.3428 4.99222 41.6982 4.90076 42.0874 4.90076C42.3905 4.90076 42.6655 4.95676 42.9124 5.06876C43.1631 5.18076 43.3839 5.34316 43.5747 5.55596L43.1257 5.98716C42.9873 5.82289 42.8338 5.70156 42.6655 5.62316C42.4971 5.54102 42.3044 5.49996 42.0874 5.49996C41.818 5.49996 41.571 5.56156 41.3465 5.68476C41.1257 5.80796 40.9499 5.98342 40.8189 6.21116C40.6879 6.43516 40.6225 6.69649 40.6225 6.99516C40.6225 7.29382 40.6879 7.55702 40.8189 7.78476C40.9499 8.00876 41.1257 8.18236 41.3465 8.30556C41.571 8.42876 41.818 8.49036 42.0874 8.49036C42.5364 8.49036 42.918 8.30369 43.2323 7.93036L43.687 8.36716C43.4924 8.59489 43.2585 8.77222 42.9854 8.89916C42.7122 9.02609 42.4129 9.08956 42.0874 9.08956Z" fill="black"/>
<path d="M45.2026 5.58956H44.0801V4.99036H46.9538V5.58956H45.8313V8.99996H45.2026V5.58956Z" fill="black"/>
<path d="M47.9945 9.08956C47.8561 9.08956 47.7382 9.06529 47.6409 9.01676V8.40636C47.7644 8.47356 47.8767 8.50716 47.9777 8.50716C48.0787 8.50716 48.1592 8.48849 48.2191 8.45116C48.2789 8.41009 48.3332 8.33542 48.3818 8.22716L48.5221 7.93596L47.1863 4.99036H47.8879L48.8252 7.21356H48.8589L49.8018 4.99036H50.5034L48.9655 8.36156C48.8533 8.61169 48.7167 8.79649 48.5558 8.91596C48.3987 9.03169 48.2116 9.08956 47.9945 9.08956Z" fill="black"/>
<path d="M51.0484 4.99036H54.0399V8.99996H53.4113V5.58956H51.677V8.99996H51.0484V4.99036Z" fill="black"/>
<path d="M54.9564 4.99036H55.585V6.65356H57.4484V4.99036H58.0714V8.99996H57.4484V7.24716H55.585V8.99996H54.9564V4.99036Z" fill="black"/>
<path d="M60.8159 9.08956C60.4267 9.08956 60.0731 8.99809 59.7551 8.81516C59.437 8.62849 59.1863 8.37462 59.003 8.05356C58.8234 7.73249 58.7336 7.37969 58.7336 6.99516C58.7336 6.61062 58.8234 6.25969 59.003 5.94236C59.1863 5.62129 59.437 5.36742 59.7551 5.18076C60.0731 4.99409 60.4267 4.90076 60.8159 4.90076C61.205 4.90076 61.5568 4.99409 61.8711 5.18076C62.1891 5.36742 62.4398 5.62129 62.6232 5.94236C62.8065 6.25969 62.8982 6.61062 62.8982 6.99516C62.8982 7.37969 62.8065 7.73249 62.6232 8.05356C62.4436 8.37462 62.1947 8.62849 61.8767 8.81516C61.5586 8.99809 61.205 9.08956 60.8159 9.08956ZM60.8159 8.49036C61.0816 8.49036 61.3248 8.42689 61.5455 8.29996C61.7663 8.17302 61.9403 7.99756 62.0675 7.77356C62.1947 7.54582 62.2583 7.28636 62.2583 6.99516C62.2583 6.70396 62.1947 6.44636 62.0675 6.22236C61.9403 5.99462 61.7663 5.81729 61.5455 5.69036C61.3248 5.56342 61.0816 5.49996 60.8159 5.49996C60.5502 5.49996 60.307 5.56342 60.0862 5.69036C59.8655 5.81729 59.6896 5.99462 59.5587 6.22236C59.4314 6.44636 59.3678 6.70396 59.3678 6.99516C59.3678 7.28636 59.4314 7.54582 59.5587 7.77356C59.6896 7.99756 59.8655 8.17302 60.0862 8.29996C60.307 8.42689 60.5502 8.49036 60.8159 8.49036Z" fill="black"/>
<path d="M64.932 4.99036H66.4418C66.6551 4.99036 66.8515 5.03702 67.0311 5.13036C67.2145 5.22369 67.3604 5.35249 67.4689 5.51676C67.5774 5.68102 67.6317 5.86209 67.6317 6.05996C67.6317 6.25782 67.5811 6.42956 67.4801 6.57516C67.3828 6.72076 67.2537 6.83089 67.0928 6.90556V6.93916C67.2949 7.01009 67.4577 7.12769 67.5811 7.29196C67.7084 7.45622 67.772 7.64849 67.772 7.86876C67.772 8.08902 67.714 8.28502 67.598 8.45676C67.4857 8.62849 67.3323 8.76289 67.1377 8.85996C66.9469 8.95329 66.7374 8.99996 66.5091 8.99996H64.932V4.99036ZM66.4137 6.67036C66.5933 6.67036 66.7374 6.61436 66.8459 6.50236C66.9581 6.39036 67.0143 6.26156 67.0143 6.11596C67.0143 5.97036 66.96 5.84342 66.8515 5.73516C66.7467 5.62316 66.6083 5.56716 66.4362 5.56716H65.5606V6.67036H66.4137ZM66.5091 8.41756C66.7 8.41756 66.8515 8.35782 66.9638 8.23836C67.0797 8.11889 67.1377 7.98076 67.1377 7.82396C67.1377 7.66342 67.0779 7.52529 66.9581 7.40956C66.8421 7.29009 66.685 7.23036 66.4867 7.23036H65.5606V8.41756H66.5091Z" fill="black"/>
<path d="M21.3873 18.2164C23.7889 16.8885 25.6097 15.8768 25.7666 15.7982C26.2685 15.5293 26.787 14.8179 25.7666 14.2653C25.4371 14.0916 23.6632 13.1112 21.3873 11.8472L18.2324 15.0553L21.3871 18.2164H21.3873Z" fill="#FFD900"/>
<path d="M18.2314 15.0553L8.18555 25.25C8.42118 25.2814 8.68741 25.2185 9.00142 25.0447C9.66038 24.6816 16.6456 20.8404 21.3865 18.2171L18.2314 15.0553Z" fill="#F43249"/>
<path d="M18.2313 15.0553L21.386 11.8628C21.386 11.8628 9.70783 5.44562 9.00109 5.06697C8.73521 4.90776 8.43684 4.86069 8.16992 4.90776L18.2313 15.0552V15.0553Z" fill="#00EE76"/>
<path d="M18.233 15.0554L8.17145 4.90796C7.76309 5.00297 7.41797 5.36622 7.41797 6.10881V24.0487C7.41797 24.7288 7.68506 25.2185 8.18692 25.2656L18.2328 15.0552L18.233 15.0554Z" fill="#00D3FF"/>
</g>
<defs>
<clipPath id="clip0_4163_230474">
<rect width="101.429" height="30" fill="white"/>
</clipPath>
</defs>
</svg>
