<?xml version="1.0" encoding="utf-8"?>
<!-- Generator: Adobe Illustrator 22.1.0, SVG Export Plug-In . SVG Version: 6.00 Build 0)  -->
<svg version="1.1" id="Layer_1" xmlns="http://www.w3.org/2000/svg" xmlns:xlink="http://www.w3.org/1999/xlink" x="0px" y="0px"
	 viewBox="0 0 135 125" style="enable-background:new 0 0 135 125;" xml:space="preserve">
<style type="text/css">
	.st0{fill:#ACB8C1;}
	.st1{fill:#ACB8C1;stroke:#ACB8C1;stroke-width:0.5;stroke-miterlimit:10;}
	.st2{fill:none;stroke:#ACB8C1;stroke-width:3;stroke-linecap:round;stroke-linejoin:round;stroke-miterlimit:10;}
	.st3{fill:#ACB8C1;stroke:#ACB8C1;stroke-width:0.75;stroke-miterlimit:10;}
	.st4{fill:#ACB8C1;stroke:#ACB8C1;stroke-miterlimit:10;}
</style>
<g>
	<path class="st2" d="M56.7,58.1H34.1c-3.3,0-6-2.7-6-6V29.4c0-3.3,2.7-6,6-6h22.7c3.3,0,6,2.7,6,6v22.7
		C62.7,55.4,60,58.1,56.7,58.1z"/>
	<path class="st2" d="M100.9,58.1H78.3c-3.3,0-6-2.7-6-6V29.4c0-3.3,2.7-6,6-6h22.7c3.3,0,6,2.7,6,6v22.7
		C106.9,55.4,104.2,58.1,100.9,58.1z"/>
	<path class="st2" d="M56.7,101.6H34.1c-3.3,0-6-2.7-6-6V72.9c0-3.3,2.7-6,6-6h22.7c3.3,0,6,2.7,6,6v22.7
		C62.7,98.9,60,101.6,56.7,101.6z"/>
	<path class="st2" d="M100.9,101.6H78.3c-3.3,0-6-2.7-6-6V72.9c0-3.3,2.7-6,6-6h22.7c3.3,0,6,2.7,6,6v22.7
		C106.9,98.9,104.2,101.6,100.9,101.6z"/>
</g>
</svg>
