<?xml version="1.0" encoding="utf-8"?>
<!-- Generator: Adobe Illustrator 22.1.0, SVG Export Plug-In . SVG Version: 6.00 Build 0)  -->
<svg version="1.1" id="Layer_1" xmlns="http://www.w3.org/2000/svg" xmlns:xlink="http://www.w3.org/1999/xlink" x="0px" y="0px"
	 viewBox="0 0 135 125" style="enable-background:new 0 0 135 125;" xml:space="preserve">
<style type="text/css">
	.st0{fill:#ACB8C1;}
	.st1{fill:#ACB8C1;stroke:#ACB8C1;stroke-width:0.5;stroke-miterlimit:10;}
	.st2{fill:none;stroke:#ACB8C1;stroke-width:3;stroke-linecap:round;stroke-linejoin:round;stroke-miterlimit:10;}
	.st3{fill:#ACB8C1;stroke:#ACB8C1;stroke-width:0.75;stroke-miterlimit:10;}
	.st4{fill:#ACB8C1;stroke:#ACB8C1;stroke-miterlimit:10;}
</style>
<g>
	<path class="st1" d="M95.3,14.9v54.6h-2.2V14.9c0-0.7-0.6-1.3-1.3-1.3H30.8c-0.7,0-1.3,0.6-1.3,1.3v81.8c0,0.7,0.6,1.3,1.3,1.3
		h36.1v2.2H30.8c-1.9,0-3.5-1.6-3.5-3.5V14.9c0-1.9,1.6-3.5,3.5-3.5h61.1C93.7,11.5,95.3,13,95.3,14.9z"/>
	<path class="st1" d="M44.8,34.6c-3.2,0-5.8-2.6-5.8-5.8c0-3.2,2.6-5.8,5.8-5.8c3.2,0,5.8,2.6,5.8,5.8c0,0,0,0,0,0
		C50.6,32,48,34.6,44.8,34.6z M44.8,25.1c-2,0-3.7,1.6-3.7,3.7c0,2,1.6,3.7,3.7,3.7c2,0,3.7-1.6,3.7-3.7c0,0,0,0,0,0
		C48.5,26.8,46.8,25.1,44.8,25.1z"/>
	<rect x="54.6" y="25" class="st1" width="27.5" height="2.1"/>
	<rect x="54.6" y="30.5" class="st1" width="22.6" height="2.1"/>
	<path class="st1" d="M44.8,59.2c-3.2,0-5.8-2.6-5.8-5.8c0-3.2,2.6-5.8,5.8-5.8c3.2,0,5.8,2.6,5.8,5.8c0,0,0,0,0,0
		C50.6,56.6,48,59.1,44.8,59.2z M44.8,49.7c-2,0-3.7,1.6-3.7,3.7c0,2,1.6,3.7,3.7,3.7c2,0,3.7-1.6,3.7-3.7c0,0,0,0,0,0
		C48.5,51.3,46.8,49.7,44.8,49.7z"/>
	<rect x="54.6" y="49.6" class="st1" width="13.8" height="2.1"/>
	<rect x="54.6" y="55" class="st1" width="13.8" height="2.1"/>
	<path class="st1" d="M44.8,83.7c-3.2,0-5.8-2.6-5.8-5.8s2.6-5.8,5.8-5.8s5.8,2.6,5.8,5.8c0,0,0,0,0,0C50.6,81.1,48,83.7,44.8,83.7z
		 M44.8,74.2c-2,0-3.7,1.6-3.7,3.7c0,2,1.6,3.7,3.7,3.7c2,0,3.7-1.6,3.7-3.7c0,0,0,0,0,0C48.5,75.8,46.8,74.2,44.8,74.2z"/>
	<rect x="54.6" y="74.1" class="st1" width="9.5" height="2.1"/>
	<rect x="54.6" y="79.5" class="st1" width="5.3" height="2.1"/>
	<rect x="98.4" y="80.2" class="st1" width="0" height="0.2"/>
	<path class="st1" d="M106.2,76.5c-1.9-1.9-4.9-2-7-0.3c-0.9-2.7-3.8-4.3-6.5-3.4c-0.6,0.2-1.2,0.5-1.7,0.9
		c-0.2-0.9-0.7-1.7-1.3-2.3c-1.8-1.8-4.7-2-6.8-0.5v-19c0-2.9-2.3-5.2-5.2-5.2c-0.1,0-0.2,0-0.4,0c-2.7,0.2-4.8,2.5-4.8,5.3v20.9
		c-0.2,0.2-0.4,0.3-0.6,0.5c-2.6,2.1-8.1,6.6-5.7,15.3l6.6,18.5l0.1,0.2c0,0,0,0.1,0.1,0.1c0.1,0.2,0.2,0.4,0.3,0.6
		c0,0.1,0.1,0.2,0.2,0.3l0.2,0.3l0.1,0.1l0,0l0.1,0.1c0,0.1,0.1,0.1,0.1,0.1c0,0,0,0.1,0.1,0.1l0.2,0.2l0.1,0.1
		c0.1,0.1,0.2,0.1,0.2,0.2c0.1,0.1,0.2,0.1,0.3,0.2l0.1,0.1l0.3,0.3H75c0.1,0,0.1,0.1,0.2,0.1l0.6,0.3l0.2,0.1c0.1,0,0.1,0,0.2,0
		c0.1,0,0.3,0.1,0.4,0.1c0.1,0,0.1,0,0.2,0c0.1,0,0.1,0,0.2,0l0.6,0h20.5c5.2,0,9.5-4.3,9.5-9.5V80.2
		C107.7,78.8,107.2,77.5,106.2,76.5z M98.4,80.2L98.4,80.2l0,0.2h0V80.2z M105.6,101.3c0,4.1-3.3,7.4-7.4,7.4H77.8l-0.5,0l-0.1,0
		l-0.1,0c-0.1,0-0.2,0-0.3-0.1l-0.1,0l-0.3-0.1l-0.2-0.1c0,0-0.1,0-0.1-0.1l-0.4-0.3h-0.1l0,0c0,0-0.1-0.1-0.1-0.1l0,0l0,0h0
		c0,0-0.1-0.1-0.1-0.1l-0.1-0.1c0,0-0.1-0.1-0.1-0.1l0,0c0,0-0.1-0.1-0.1-0.1s-0.1-0.1-0.1-0.2c-0.1-0.1-0.1-0.2-0.1-0.3l0,0l0-0.1
		c0,0,0-0.1,0-0.1l-6.6-18.5c-1.8-6.7,1.8-10.3,4.3-12.5v8h2.1V52c0-1.6,1.2-3,2.9-3.2c1.7-0.1,3.2,1.2,3.3,2.9c0,0.1,0,0.1,0,0.2
		V75l0,0v4.4h2.1v-4.5c0.1-1.6,1.4-2.9,3.1-2.9c1.7,0,3.1,1.4,3.1,3.1v6.4h2.1v-3.7c0-1.7,1.4-3.1,3.1-3.1c1.7,0,3.1,1.4,3.1,3.1
		v5.8h2.1v-3.3c0-0.1,0-0.2,0-0.3c0.2-1.7,1.7-2.9,3.4-2.7c1.6,0.2,2.7,1.5,2.7,3.1V101.3z"/>
	<rect x="98.4" y="80.2" class="st1" width="0" height="0.2"/>
</g>
</svg>
