<?xml version="1.0" encoding="utf-8"?>
<!-- Generator: Adobe Illustrator 22.1.0, SVG Export Plug-In . SVG Version: 6.00 Build 0)  -->
<svg version="1.1" id="Layer_1" xmlns="http://www.w3.org/2000/svg" xmlns:xlink="http://www.w3.org/1999/xlink" x="0px" y="0px"
	 viewBox="0 0 135 125" style="enable-background:new 0 0 135 125;" xml:space="preserve">
<style type="text/css">
	.st0{fill:#ACB8C1;}
	.st1{fill:#ACB8C1;stroke:#ACB8C1;stroke-width:0.5;stroke-miterlimit:10;}
	.st2{fill:none;stroke:#ACB8C1;stroke-width:3;stroke-linecap:round;stroke-linejoin:round;stroke-miterlimit:10;}
	.st3{fill:#ACB8C1;stroke:#ACB8C1;stroke-width:0.75;stroke-miterlimit:10;}
	.st4{fill:#ACB8C1;stroke:#ACB8C1;stroke-miterlimit:10;}
</style>
<g>
	<path class="st2" d="M96.6,17.8v89.4c0,2.1-1.6,3.7-3.7,3.7H42.1c-2.1,0-3.7-1.6-3.7-3.7V17.8c-0.1-1.9,1.6-3.7,3.6-3.7h50.8
		C94.9,14.1,96.6,15.9,96.6,17.8z"/>
	<line class="st2" x1="83.5" y1="45.3" x2="67" y2="45.3"/>
	<line class="st2" x1="73.3" y1="20.2" x2="61.6" y2="20.2"/>
	<circle class="st2" cx="67.4" cy="101.2" r="2.6"/>
	<polyline class="st2" points="49.3,45.6 52.4,48.7 59,42.1 	"/>
	<line class="st2" x1="83.5" y1="59.4" x2="67" y2="59.4"/>
	<polyline class="st2" points="49.3,59.6 52.4,62.6 59,56 	"/>
	<line class="st2" x1="83.5" y1="73.3" x2="67" y2="73.3"/>
	<polyline class="st2" points="49.3,73.6 52.4,76.6 59,70.1 	"/>
	<line class="st2" x1="46.3" y1="27.1" x2="88.6" y2="27.1"/>
	<line class="st2" x1="88.6" y1="91.9" x2="46.3" y2="91.9"/>
</g>
</svg>
