<?xml version="1.0" encoding="utf-8"?>
<!-- Generator: Adobe Illustrator 22.1.0, SVG Export Plug-In . SVG Version: 6.00 Build 0)  -->
<svg version="1.1" id="Layer_1" xmlns="http://www.w3.org/2000/svg" xmlns:xlink="http://www.w3.org/1999/xlink" x="0px" y="0px"
	 viewBox="0 0 135 125" style="enable-background:new 0 0 135 125;" xml:space="preserve">
<style type="text/css">
	.st0{fill:#ACB8C1;}
	.st1{fill:#ACB8C1;stroke:#ACB8C1;stroke-width:0.5;stroke-miterlimit:10;}
	.st2{fill:none;stroke:#ACB8C1;stroke-width:3;stroke-linecap:round;stroke-linejoin:round;stroke-miterlimit:10;}
	.st3{fill:#ACB8C1;stroke:#ACB8C1;stroke-width:0.75;stroke-miterlimit:10;}
	.st4{fill:#ACB8C1;stroke:#ACB8C1;stroke-miterlimit:10;}
</style>
<g>
	<g>
		<path class="st2" d="M83.3,17.8v89.4c0,2.1-1.6,3.7-3.7,3.7H28.8c-2.1,0-3.7-1.6-3.7-3.7V17.8c-0.1-1.9,1.6-3.7,3.6-3.7h50.8
			C81.6,14.1,83.3,15.9,83.3,17.8z"/>
		<line class="st2" x1="60.1" y1="20.2" x2="48.3" y2="20.2"/>
		<circle class="st2" cx="54.1" cy="101.2" r="2.6"/>
		<line class="st2" x1="33.1" y1="27.1" x2="75.3" y2="27.1"/>
		<line class="st2" x1="75.3" y1="91.9" x2="33.1" y2="91.9"/>
	</g>
	<g>
		<path class="st4" d="M92.6,77.3c-0.4-0.4-0.4-1,0-1.5c3.4-3.7,5.1-8.4,5.1-13.3c0-4.9-1.9-9.7-5.1-13.3c-0.4-0.4-0.4-1.1,0-1.5v0
			c0.4-0.4,1.1-0.4,1.5,0c3.7,4,5.7,9.3,5.7,14.8c0,5.6-2,10.7-5.7,14.8C93.7,77.7,93.1,77.7,92.6,77.3L92.6,77.3z"/>
		<path class="st4" d="M99.4,40.3l0.1-0.1c0.4-0.4,1.1-0.4,1.5,0c5.7,6,8.8,13.9,8.8,22.3s-3.1,16.2-8.8,22.3
			c-0.4,0.4-1.1,0.4-1.5,0l-0.1-0.1c-0.4-0.4-0.4-1,0-1.5c5.2-5.6,8.1-12.9,8.1-20.7c0-7.8-2.8-15-8.1-20.7
			C99,41.4,99,40.7,99.4,40.3z"/>
	</g>
</g>
</svg>
