<svg width="300" height="158" viewBox="0 0 300 158" fill="none" xmlns="http://www.w3.org/2000/svg">
<g clip-path="url(#clip0_3403_561898)">
<path d="M107.87 99.7371C107.87 99.7371 107.687 52.2801 131.998 52.2801C156.309 52.2801 188.452 52.943 188.452 80.4681C188.452 98.6902 180.152 104.483 180.152 104.483C180.152 104.483 217.648 117.582 217.648 147.575C217.648 152.132 216.176 158.015 200.15 158.015C184.124 158.015 123.527 158.015 108.605 158.015C93.6828 158.015 83.0002 157.446 83.0002 145.676C83.0002 133.906 107.87 99.7371 107.87 99.7371Z" fill="#FF7092"/>
<path d="M107.87 99.7371C107.87 99.7371 107.687 52.2801 131.998 52.2801C148.793 52.2801 169.318 52.5989 180.409 61.8657C168.696 63.4778 156.667 62.5468 144.906 62.0939C135.116 61.7172 120.078 60.1703 117.867 73.317C116.837 79.4502 117.586 85.7282 116.415 91.8542C116.011 93.959 115.438 96.1 113.835 97.5853C112.144 99.1539 109.807 99.6828 108.014 101.132C104.517 103.958 103.226 108.866 101.501 112.898C99.0083 118.727 96.516 124.715 95.4439 131.023C94.6811 135.511 94.2312 140.717 96.7726 144.727C98.9696 148.194 102.836 149.534 106.636 150.027C110.619 150.545 114.661 150.317 118.665 150.491C125.72 150.799 132.789 150.799 139.847 150.636C146.027 150.494 152.333 150.509 158.485 149.839C161.012 149.563 164.791 148.814 166.963 147.361C169.589 145.604 169.42 143.021 170.138 143.593C170.858 144.169 170.373 144.513 171.958 146.437C173.561 148.379 175.85 149.335 178.219 149.933C184.177 151.444 190.118 151.324 196.129 150.321C200.016 149.668 204.375 148.614 207.233 145.6C210.527 142.126 210.604 137.275 209.272 132.867C207.504 127.009 205.423 121.567 201.64 116.847C209.992 123.578 217.648 134.16 217.648 147.564C217.648 152.121 216.176 158.004 200.15 158.004H108.605C93.6863 158.004 83.0002 157.435 83.0002 145.665C83.0002 133.895 107.87 99.7371 107.87 99.7371Z" fill="#FF3263"/>
<path d="M111.736 71.8315C111.736 71.8315 115.687 76.4721 120.883 66.5424C126.651 55.5222 148.428 59.4383 159.528 59.8078C178.584 60.4454 186.676 61.3221 186.838 55.3338C186.999 49.3455 186.465 49.5955 170.461 49.36C154.456 49.1245 124.816 32.7283 111.736 71.8315Z" fill="#FF3263"/>
<path d="M172.521 59.4308C184.54 62.847 194.554 55.1162 183.471 45.9182C172.388 36.7202 177.355 49.0808 177.355 49.0808C177.355 49.0808 167.832 35.7892 157.178 36.6188C146.523 37.4484 153.905 48.8381 153.905 48.8381C153.905 48.8381 155.62 44.7517 142.913 41.3609C130.206 37.97 141.806 50.6929 141.806 50.6929L172.521 59.4308Z" fill="#FF3263"/>
<path d="M167.639 84.8769C167.639 96.2847 153.849 94.5712 151.209 84.8769H167.639Z" fill="white"/>
<path d="M135.253 135.677C135.253 135.677 118.061 136.185 118.061 128.084C118.061 119.984 127.886 109.355 130.831 115.43C133.781 121.506 130.831 134.16 135.253 135.677Z" fill="#FF3263"/>
<path d="M180.691 104.482C180.691 104.482 169.256 108.967 155.55 108.525C141.845 108.083 137.992 102.345 136.706 104.993C135.419 107.641 145.701 115.144 155.979 115.144C171.826 115.147 180.691 104.482 180.691 104.482Z" fill="#FF3263"/>
<path d="M188.739 112.775H172.946C170.415 112.775 167.48 114.887 166.387 117.495L158.126 137.184C162.214 137.72 165.993 139.401 168.58 143.263C171.624 147.806 168.569 152.841 164.418 155.526H170.805C171.93 155.526 173.132 155.109 174.218 154.417C172.503 152.896 170.932 150.892 170.57 148.534C170.471 148.204 170.394 147.867 170.345 147.523C169.817 143.977 172.194 141.662 175.132 140.383C177.357 139.416 179.906 139.053 182.37 138.883L191.344 117.499C192.434 114.887 191.27 112.775 188.739 112.775Z" fill="white"/>
<path d="M188.009 115.014H173.878C171.425 115.014 168.577 117.028 167.516 119.513L159.842 137.485C163.259 138.242 166.359 139.949 168.577 143.26C171.713 147.94 168.38 153.139 164.043 155.754H170.613C171.825 155.754 173.133 155.262 174.272 154.461C172.532 152.936 170.929 150.911 170.563 148.527C170.465 148.197 170.388 147.861 170.338 147.516C169.811 143.97 172.187 141.655 175.126 140.376C177.32 139.42 179.826 139.057 182.255 138.884L190.526 119.509C191.591 117.028 190.459 115.014 188.009 115.014Z" fill="#A9D0FF"/>
<path d="M170.703 119.728C170.337 119.447 170.424 118.69 170.897 118.038C171.37 117.385 172.049 117.084 172.415 117.366C172.78 117.647 172.693 118.404 172.221 119.056C171.748 119.709 171.068 120.01 170.703 119.728Z" fill="#49AAF4"/>
<path d="M168.674 123.219C168.308 122.938 168.395 122.181 168.868 121.528C169.341 120.876 170.02 120.575 170.386 120.856C170.751 121.138 170.665 121.895 170.192 122.547C169.719 123.2 169.04 123.5 168.674 123.219Z" fill="#49AAF4"/>
<path d="M146.288 79.1204C146.706 79.1204 147.103 78.8668 147.276 78.4429C148.183 76.2186 148.643 73.2915 148.643 69.7376C148.643 69.129 148.165 68.6327 147.571 68.6327C146.98 68.6327 146.499 69.1254 146.499 69.7376C146.499 72.9944 146.095 75.6354 145.297 77.5844C145.068 78.1459 145.325 78.7943 145.866 79.0298C146.01 79.0914 146.151 79.1204 146.288 79.1204Z" fill="black"/>
<path d="M172.465 79.1204C172.883 79.1204 173.28 78.8668 173.452 78.4429C174.359 76.2186 174.82 73.2915 174.82 69.7376C174.82 69.129 174.342 68.6327 173.748 68.6327C173.157 68.6327 172.676 69.1254 172.676 69.7376C172.676 72.9944 172.271 75.6354 171.473 77.5844C171.245 78.1459 171.502 78.7943 172.043 79.0298C172.187 79.0914 172.328 79.1204 172.465 79.1204Z" fill="black"/>
<mask id="mask0_3403_561898" style="mask-type:alpha" maskUnits="userSpaceOnUse" x="88" y="14" width="116" height="124">
<path d="M88.1782 100.359L110.149 48.4826L153.482 14L193.762 45.1259L203.527 107.378L187.354 137.283H116.863L88.1782 100.359Z" fill="#C4C4C4"/>
</mask>
<g mask="url(#mask0_3403_561898)">
<path d="M107.87 99.7371C107.87 99.7371 107.687 52.2801 131.998 52.2801C156.309 52.2801 188.452 52.943 188.452 80.4681C188.452 98.6902 180.152 104.483 180.152 104.483C180.152 104.483 217.648 117.582 217.648 147.575C217.648 152.132 216.176 158.015 200.15 158.015C184.124 158.015 123.527 158.015 108.605 158.015C93.6828 158.015 83.0002 157.446 83.0002 145.676C83.0002 133.906 107.87 99.7371 107.87 99.7371Z" fill="#FF7092"/>
<path d="M107.87 99.7371C107.87 99.7371 107.687 52.2801 131.998 52.2801C148.793 52.2801 169.318 52.5989 180.409 61.8657C168.696 63.4778 156.667 62.5468 144.906 62.0939C135.116 61.7172 120.078 60.1703 117.867 73.317C116.837 79.4502 117.586 85.7282 116.415 91.8542C116.011 93.959 115.438 96.1 113.835 97.5853C112.144 99.1539 109.807 99.6828 108.014 101.132C104.517 103.958 103.226 108.866 101.501 112.898C99.0083 118.727 96.516 124.715 95.4439 131.023C94.6811 135.511 94.2312 140.717 96.7726 144.727C98.9696 148.194 102.836 149.534 106.636 150.027C110.619 150.545 114.661 150.317 118.665 150.491C125.72 150.799 132.789 150.799 139.847 150.636C146.027 150.494 152.333 150.509 158.485 149.839C161.012 149.563 164.791 148.814 166.963 147.361C169.589 145.604 169.42 143.021 170.138 143.593C170.858 144.169 170.373 144.513 171.958 146.437C173.561 148.379 175.85 149.335 178.219 149.933C184.177 151.444 190.118 151.324 196.129 150.321C200.016 149.668 204.375 148.614 207.233 145.6C210.527 142.126 210.604 137.275 209.272 132.867C207.504 127.009 205.423 121.567 201.64 116.847C209.992 123.578 217.648 134.16 217.648 147.564C217.648 152.121 216.176 158.004 200.15 158.004H108.605C93.6863 158.004 83.0002 157.435 83.0002 145.665C83.0002 133.895 107.87 99.7371 107.87 99.7371Z" fill="#FF3263"/>
<path d="M111.736 71.8315C111.736 71.8315 115.687 76.4721 120.883 66.5424C126.651 55.5222 148.428 59.4383 159.528 59.8078C178.584 60.4454 186.676 61.3221 186.838 55.3338C186.999 49.3455 186.465 49.5955 170.461 49.36C154.456 49.1245 124.816 32.7283 111.736 71.8315Z" fill="#FF3263"/>
<path d="M172.521 59.4308C184.54 62.847 194.554 55.1162 183.471 45.9182C172.388 36.7202 177.355 49.0808 177.355 49.0808C177.355 49.0808 167.832 35.7892 157.178 36.6188C146.523 37.4484 153.905 48.8381 153.905 48.8381C153.905 48.8381 155.62 44.7517 142.913 41.3609C130.206 37.97 141.806 50.6929 141.806 50.6929L172.521 59.4308Z" fill="#FF3263"/>
<path d="M167.639 84.8769C167.639 96.2847 153.849 94.5712 151.209 84.8769H167.639Z" fill="white"/>
<path d="M135.253 135.677C135.253 135.677 118.061 136.185 118.061 128.084C118.061 119.984 127.886 109.355 130.831 115.43C133.781 121.506 130.831 134.16 135.253 135.677Z" fill="#FF3263"/>
<path d="M180.691 104.482C180.691 104.482 169.256 108.967 155.55 108.525C141.845 108.083 137.992 102.345 136.706 104.993C135.419 107.641 145.701 115.144 155.979 115.144C171.826 115.147 180.691 104.482 180.691 104.482Z" fill="#FF3263"/>
<path d="M188.739 112.775H172.946C170.415 112.775 167.48 114.887 166.387 117.495L158.126 137.184C162.214 137.72 165.993 139.401 168.58 143.263C171.624 147.806 168.569 152.841 164.418 155.526H170.805C171.93 155.526 173.132 155.109 174.218 154.417C172.503 152.896 170.932 150.892 170.57 148.534C170.471 148.204 170.394 147.867 170.345 147.523C169.817 143.977 172.194 141.662 175.132 140.383C177.357 139.416 179.906 139.053 182.37 138.883L191.344 117.499C192.434 114.887 191.27 112.775 188.739 112.775Z" fill="white"/>
<path d="M188.009 115.014H173.878C171.425 115.014 168.577 117.028 167.516 119.513L159.842 137.485C163.259 138.242 166.359 139.949 168.577 143.26C171.713 147.94 168.38 153.139 164.043 155.754H170.613C171.825 155.754 173.133 155.262 174.272 154.461C172.532 152.936 170.929 150.911 170.563 148.527C170.465 148.197 170.388 147.861 170.338 147.516C169.811 143.97 172.187 141.655 175.126 140.376C177.32 139.42 179.826 139.057 182.255 138.884L190.526 119.509C191.591 117.028 190.459 115.014 188.009 115.014Z" fill="#A9D0FF"/>
<path d="M170.703 119.728C170.337 119.447 170.424 118.69 170.897 118.038C171.37 117.385 172.049 117.084 172.415 117.366C172.78 117.647 172.693 118.404 172.221 119.056C171.748 119.709 171.068 120.01 170.703 119.728Z" fill="#49AAF4"/>
<path d="M168.674 123.219C168.308 122.938 168.395 122.181 168.868 121.528C169.341 120.876 170.02 120.575 170.386 120.856C170.751 121.138 170.665 121.895 170.192 122.547C169.719 123.2 169.04 123.5 168.674 123.219Z" fill="#49AAF4"/>
<path d="M146.288 79.1204C146.706 79.1204 147.103 78.8668 147.276 78.4429C148.183 76.2186 148.643 73.2915 148.643 69.7376C148.643 69.129 148.165 68.6327 147.571 68.6327C146.98 68.6327 146.499 69.1254 146.499 69.7376C146.499 72.9944 146.095 75.6354 145.297 77.5844C145.068 78.1459 145.325 78.7943 145.866 79.0298C146.01 79.0914 146.151 79.1204 146.288 79.1204Z" fill="black"/>
<path d="M172.465 79.1204C172.883 79.1204 173.28 78.8668 173.452 78.4429C174.359 76.2186 174.82 73.2915 174.82 69.7376C174.82 69.129 174.342 68.6327 173.748 68.6327C173.157 68.6327 172.676 69.1254 172.676 69.7376C172.676 72.9944 172.271 75.6354 171.473 77.5844C171.245 78.1459 171.502 78.7943 172.043 79.0298C172.187 79.0914 172.328 79.1204 172.465 79.1204Z" fill="black"/>
</g>
</g>
<defs>
<clipPath id="clip0_3403_561898">
<rect width="300" height="158" fill="white"/>
</clipPath>
</defs>
</svg>
