<svg width="300" height="158" viewBox="0 0 300 158" fill="none" xmlns="http://www.w3.org/2000/svg">
<g clip-path="url(#clip0_3213_59199)">
<path d="M177.053 84.8271C177.053 84.8271 188.252 110.241 196.792 110.544C205.331 110.848 202.529 90.2793 213.3 89.3423C224.07 88.4054 219.234 119.798 215.95 126.909C206.741 146.853 189.403 144.051 189.403 144.051L177.053 84.8271Z" fill="#036CFF"/>
<path d="M102.75 52.7647C102.75 45.0817 108.996 38.8533 116.697 38.8533H148.535C163.937 38.8533 176.42 51.3102 176.42 66.6851V82.4793C176.42 109.169 154.746 130.808 128.002 130.808H102.75V52.7647Z" fill="#036CFF"/>
<path d="M154.148 80.6501C151.186 80.6501 148.384 79.4008 147.009 77.4734C146.51 76.7684 146.67 75.7958 147.375 75.2961C148.08 74.7964 149.053 74.957 149.553 75.662C150.338 76.7595 152.221 77.5269 154.148 77.5269H154.157C155.87 77.5269 157.28 76.938 158.003 75.9029C158.503 75.1979 159.475 75.0284 160.18 75.5281C160.885 76.0278 161.055 77.0004 160.555 77.7054C159.234 79.5704 156.896 80.6412 154.157 80.6501H154.148Z" fill="black"/>
<path d="M199.416 169.999C195.24 142.596 188.137 110.784 176.518 83.2288L102.75 101.388V169.999H199.416Z" fill="#036CFF"/>
<path d="M102.856 98.6667C102.856 98.6667 111.056 97.7922 111.056 90.4841C111.056 83.1759 111.056 75.6714 111.056 68.622C111.056 63.4643 153.915 65.3025 155.495 63.4643C157.074 61.6261 156.574 60.0467 157.966 60.2251C159.358 60.4036 158.127 63.4643 161.991 63.4643C165.854 63.4643 176.42 64.2495 176.42 64.2495L176.696 54.7908C176.696 54.7908 159.715 40.7812 158.832 40.7812C157.948 40.7812 102.758 46.7331 102.758 46.7331L102.856 98.6667Z" fill="#0259D1"/>
<path d="M102.748 98.7742C102.748 98.7742 79.8779 110.339 79.8779 133.771C79.8779 157.204 100.535 169.545 105.863 169.706C111.181 169.857 102.748 98.7742 102.748 98.7742Z" fill="#036CFF"/>
<path d="M156.396 162.897H140.2C137.71 162.897 136.559 160.88 137.639 158.391L151.417 126.588C152.496 124.098 155.387 122.082 157.886 122.082H174.082C176.571 122.082 177.722 124.098 176.643 126.588L162.865 158.391C161.785 160.88 158.885 162.897 156.396 162.897Z" fill="white"/>
<path d="M156.209 163.12H141.646C139.228 163.12 138.112 161.192 139.156 158.828L152.514 128.515C153.559 126.142 156.369 124.223 158.788 124.223H173.35C175.769 124.223 176.884 126.151 175.84 128.515L162.482 158.828C161.438 161.201 158.627 163.12 156.209 163.12Z" fill="#A7ECFF"/>
<path d="M123.86 143.927C141.546 147.05 155.163 143.454 157.671 151.895C160.178 160.328 146.401 164.709 131.686 167.359C116.972 170.009 123.86 143.927 123.86 143.927Z" fill="#036CFF"/>
<path d="M100.741 167.796C102.678 168.768 104.846 169.482 107.157 170H128.002C141.985 167.644 155.075 161.425 157.217 155.624C159.492 149.458 106.113 171.329 91.3808 149.262C81.3599 134.262 86.116 122.287 88.9269 116.335C91.7377 110.383 102.865 98.6581 102.865 98.6581C102.865 98.6581 79.9946 108.938 79.9946 133.655C79.9946 158.373 96.2261 165.279 100.741 167.796Z" fill="#0259D1"/>
<path d="M117.41 146.737C107.585 144.203 100.233 132.37 103.552 128.783C111.967 119.681 117.41 146.737 117.41 146.737Z" fill="#0259D1"/>
<path d="M176.357 83.2296C176.357 83.2296 172.377 93.6788 155.021 93.9911C142.038 94.2231 129.563 90.1809 127.636 93.3308C125.708 96.4807 140.976 100.327 150.631 100.327C176.196 100.336 176.357 83.2296 176.357 83.2296Z" fill="#0259D1"/>
<path d="M164.176 62.2332C157.154 62.2332 161.99 48.063 157.288 48.063C157.288 42.1201 132.534 38.8809 133.694 33.8482C137.032 19.2854 168.567 22.6495 176.33 32.5008C180.774 38.1403 181.871 52.0964 178.909 59.0922C177.106 63.3219 173.028 62.2332 164.176 62.2332Z" fill="#A7ECFF"/>
<path d="M147.589 62.2332C162.83 62.2332 150.917 48.072 161.143 48.072C161.143 42.1201 161.536 38.8542 159.02 33.8214C151.747 19.2497 113.886 22.6941 103.472 32.4829C98.0289 37.5871 94.5042 52.0964 100.956 59.0922C104.864 63.3308 128.332 62.2332 147.589 62.2332Z" fill="#A7ECFF"/>
<path d="M143.912 71.2543C143.118 71.2543 142.439 70.6564 142.359 69.8533C142.118 67.5244 141.181 66.2216 140.369 66.1413C139.575 66.0699 138.344 67.1942 137.505 69.8623C137.246 70.6832 136.372 71.1472 135.542 70.8885C134.721 70.6297 134.257 69.7552 134.516 68.9342C135.756 64.9812 138.067 62.7682 140.682 63.0359C143.207 63.2947 145.09 65.8379 145.464 69.5321C145.554 70.3887 144.929 71.1562 144.064 71.2454C144.019 71.2454 143.965 71.2543 143.912 71.2543Z" fill="black"/>
<path d="M169.201 71.2544C168.407 71.2544 167.729 70.6565 167.648 69.8534C167.407 67.5244 166.47 66.2216 165.658 66.1413C164.873 66.0699 163.633 67.1943 162.794 69.8623C162.535 70.6833 161.661 71.1473 160.831 70.8885C160.01 70.6298 159.546 69.7553 159.805 68.9343C161.045 64.9724 163.347 62.7683 165.971 63.036C168.496 63.2948 170.379 65.8379 170.754 69.5322C170.843 70.3888 170.218 71.1562 169.353 71.2455C169.308 71.2455 169.254 71.2544 169.201 71.2544Z" fill="black"/>
<path d="M194.676 144.194C194.676 144.194 185.967 109.563 184.352 105.208C183.95 104.137 194.096 129.105 203.466 128.632C211.755 128.221 217.832 118.334 219.858 107.127C219.858 107.127 221.161 127.731 206.883 139.706C201.235 144.435 194.676 144.194 194.676 144.194Z" fill="#0259D1"/>
<path d="M213.827 84.4407C211.083 84.4407 208.855 82.2131 208.855 79.478V77.3707C208.855 75.2463 207.987 73.1477 206.404 71.4705C204.598 69.5525 203.617 67.0496 203.643 64.4263C203.695 59.0852 207.918 54.6729 213.259 54.3805C216.089 54.2343 218.772 55.2062 220.828 57.15C222.875 59.0852 224.01 61.7085 224.01 64.5296C224.01 67.1012 223.047 69.5525 221.284 71.4361C219.675 73.1563 218.798 75.2979 218.798 77.4653V79.478C218.789 82.2131 216.562 84.4407 213.827 84.4407ZM213.827 56.9177C213.68 56.9177 213.543 56.9177 213.397 56.9263C209.466 57.1414 206.241 60.5129 206.198 64.4521C206.18 66.4218 206.911 68.2968 208.262 69.7245C210.292 71.8747 211.41 74.5926 211.41 77.3707V79.478C211.41 80.8025 212.493 81.8862 213.818 81.8862C215.143 81.8862 216.226 80.8025 216.226 79.478V77.4653C216.226 74.6528 217.353 71.8919 219.4 69.6987C220.716 68.2882 221.438 66.4562 221.438 64.5296C221.438 62.4223 220.595 60.4527 219.056 59.0078C217.637 57.6488 215.788 56.9177 213.827 56.9177Z" fill="#E30611"/>
<path d="M217.206 81.4728H210.695C209.99 81.4728 209.414 80.9051 209.414 80.1998C209.414 79.4945 209.99 78.9269 210.695 78.9269H217.206C217.911 78.9269 218.488 79.4945 218.488 80.1998C218.488 80.9051 217.911 81.4728 217.206 81.4728Z" fill="#E30611"/>
<path d="M217.266 76.0633H210.376C209.671 76.0633 209.095 75.4957 209.095 74.7904C209.095 74.0851 209.671 73.5175 210.376 73.5175H217.266C217.971 73.5175 218.547 74.0851 218.547 74.7904C218.547 75.4957 217.971 76.0633 217.266 76.0633Z" fill="#E30611"/>
<path d="M223.236 75.459C223.15 75.459 223.064 75.4504 222.987 75.4332C222.909 75.416 222.823 75.3988 222.746 75.3643C222.669 75.3299 222.6 75.2869 222.531 75.2439C222.462 75.1923 222.393 75.1407 222.333 75.0805C222.092 74.8397 221.963 74.5215 221.963 74.1774C221.963 74.1 221.972 74.014 221.981 73.928C221.998 73.8506 222.024 73.7646 222.058 73.6872C222.092 73.6098 222.135 73.541 222.178 73.4721C222.23 73.3947 222.282 73.3345 222.342 73.2743C222.643 72.9819 223.082 72.8357 223.494 72.9217C223.58 72.9389 223.658 72.9647 223.735 72.9991C223.813 73.0335 223.89 73.0679 223.959 73.1195C224.028 73.1711 224.088 73.2227 224.157 73.2743C224.389 73.5151 224.526 73.842 224.526 74.1774C224.526 74.2634 224.518 74.3494 224.501 74.4268C224.483 74.5129 224.466 74.5903 224.432 74.6677C224.397 74.7451 224.354 74.8225 224.311 74.8913C224.26 74.9601 224.208 75.0203 224.148 75.0805C224.088 75.1407 224.019 75.2009 223.95 75.2439C223.881 75.2869 223.804 75.3299 223.735 75.3643C223.658 75.3988 223.572 75.416 223.494 75.4332C223.408 75.4418 223.322 75.459 223.236 75.459Z" fill="#E30611"/>
<path d="M226.942 67.4855C226.237 67.4081 225.738 66.7716 225.807 66.0664C225.807 66.0664 225.807 66.0664 225.807 66.075C225.884 65.3783 226.521 64.8622 227.218 64.9482C227.923 65.0257 228.43 65.6621 228.353 66.3588C228.275 67.0125 227.725 67.4941 227.08 67.4941C227.037 67.4941 226.985 67.4941 226.942 67.4855ZM199.17 66.333C199.093 65.6363 199.6 64.9999 200.305 64.9224C201.011 64.845 201.638 65.3525 201.716 66.0492C201.793 66.7458 201.286 67.3823 200.58 67.4597C200.529 67.4683 200.486 67.4683 200.434 67.4683C199.789 67.4683 199.239 66.9867 199.17 66.333ZM224.035 58.2825C223.657 57.6805 223.837 56.8978 224.431 56.5193C225.033 56.1409 225.816 56.3215 226.194 56.915C226.572 57.5171 226.392 58.2997 225.798 58.6782C225.583 58.8072 225.351 58.876 225.119 58.876C224.697 58.876 224.276 58.6696 224.035 58.2825ZM201.733 58.6696C201.131 58.2911 200.959 57.4998 201.337 56.9064C201.716 56.3043 202.498 56.1237 203.101 56.5021C203.694 56.8806 203.875 57.6719 203.496 58.2653C203.255 58.6524 202.834 58.8674 202.412 58.8674C202.18 58.8588 201.948 58.7986 201.733 58.6696ZM217.774 53.294C217.103 53.0618 216.75 52.3307 216.991 51.6684C217.223 51.0062 217.954 50.6535 218.625 50.8857C219.287 51.118 219.64 51.849 219.408 52.5113C219.227 53.036 218.737 53.3628 218.204 53.3628C218.058 53.3628 217.92 53.3456 217.774 53.294ZM208.141 52.5027C207.908 51.8404 208.261 51.118 208.923 50.8771C209.594 50.6449 210.317 50.9976 210.558 51.6598C210.79 52.3307 210.437 53.0532 209.766 53.2854C209.629 53.337 209.491 53.3542 209.353 53.3542C208.82 53.3628 208.321 53.0274 208.141 52.5027Z" fill="#E30611"/>
<path d="M204.279 75.459C204.193 75.459 204.115 75.4504 204.029 75.4332C203.952 75.416 203.866 75.3988 203.788 75.3644C203.711 75.33 203.642 75.287 203.573 75.244C203.505 75.1924 203.436 75.1408 203.376 75.0806C203.315 75.0204 203.264 74.9602 203.212 74.8913C203.16 74.8225 203.126 74.7451 203.092 74.6677C203.057 74.5903 203.031 74.5129 203.014 74.4269C202.997 74.3495 202.997 74.2635 202.997 74.1775C202.997 73.842 203.126 73.5152 203.367 73.2744C203.427 73.2142 203.496 73.1626 203.565 73.1196C203.634 73.068 203.711 73.0336 203.78 72.9991C203.857 72.9647 203.943 72.9389 204.021 72.9217C204.442 72.8357 204.881 72.9733 205.182 73.2744C205.242 73.3346 205.294 73.3948 205.345 73.4722C205.388 73.541 205.431 73.6184 205.466 73.6872C205.5 73.7646 205.517 73.842 205.534 73.928C205.552 74.0141 205.56 74.1001 205.56 74.1775C205.56 74.2635 205.552 74.3495 205.543 74.4269C205.526 74.5129 205.5 74.5903 205.466 74.6677C205.431 74.7451 205.388 74.8225 205.345 74.8913C205.294 74.9602 205.242 75.0204 205.182 75.0806C205.121 75.1408 205.053 75.201 204.984 75.244C204.915 75.287 204.838 75.33 204.769 75.3644C204.691 75.3988 204.605 75.416 204.528 75.4332C204.451 75.4418 204.365 75.459 204.279 75.459Z" fill="#E30611"/>
<path d="M211.108 66.9532C210.309 66.9532 209.509 66.6521 208.898 66.0415C208.399 65.5426 208.399 64.7341 208.898 64.2353C209.397 63.7364 210.205 63.7364 210.704 64.2353C210.928 64.4589 211.289 64.4589 211.513 64.2353L211.616 64.1321C212.837 62.9107 214.824 62.9107 216.037 64.1321C216.26 64.3557 216.622 64.3557 216.845 64.1321C217.344 63.6332 218.153 63.6332 218.652 64.1321C219.15 64.6309 219.15 65.4394 218.652 65.9383C217.43 67.1596 215.452 67.151 214.231 65.9383C214.007 65.7146 213.646 65.7146 213.422 65.9383L213.319 66.0415C212.717 66.6435 211.917 66.9532 211.108 66.9532Z" fill="#E30611"/>
<path d="M255.977 139.846C255.865 139.846 255.754 139.829 255.642 139.803L230.871 132.759C230.458 132.638 230.131 132.311 230.028 131.89C229.925 131.468 230.045 131.03 230.364 130.729L250.645 111.11C250.971 110.8 251.436 110.689 251.866 110.826C252.296 110.964 252.606 111.334 252.683 111.772L257.173 138.435C257.242 138.848 257.095 139.261 256.786 139.536C256.553 139.743 256.27 139.846 255.977 139.846ZM233.555 131.004L254.463 136.956L250.67 114.447L233.555 131.004Z" fill="#E30611"/>
<path d="M255.979 140.972C257.271 140.972 258.319 139.929 258.319 138.642C258.319 137.354 257.271 136.311 255.979 136.311C254.687 136.311 253.64 137.354 253.64 138.642C253.64 139.929 254.687 140.972 255.979 140.972Z" fill="#E30611"/>
<path d="M230.976 133.929C232.268 133.929 233.316 132.885 233.316 131.598C233.316 130.311 232.268 129.267 230.976 129.267C229.684 129.267 228.637 130.311 228.637 131.598C228.637 132.885 229.684 133.929 230.976 133.929Z" fill="#E30611"/>
<path d="M251.343 114.877C252.635 114.877 253.682 113.834 253.682 112.546C253.682 111.259 252.635 110.216 251.343 110.216C250.051 110.216 249.003 111.259 249.003 112.546C249.003 113.834 250.051 114.877 251.343 114.877Z" fill="#E30611"/>
<path d="M240.402 144.13C240.222 144.13 240.05 144.113 239.869 144.087C237.977 143.795 236.669 142.015 236.962 140.122C237.254 138.23 239.043 136.931 240.935 137.224C242.828 137.516 244.135 139.297 243.843 141.189C243.576 142.909 242.088 144.13 240.402 144.13ZM240.402 139.606C239.886 139.606 239.439 139.976 239.353 140.501C239.267 141.077 239.663 141.619 240.239 141.705C240.815 141.791 241.357 141.395 241.451 140.828C241.538 140.251 241.142 139.71 240.566 139.624C240.514 139.606 240.454 139.606 240.402 139.606Z" fill="#E30611"/>
<path d="M244.283 144.757C244.223 144.757 244.154 144.748 244.094 144.74C242.339 144.465 241.135 142.822 241.41 141.067L241.797 138.573C241.901 137.911 242.52 137.463 243.182 137.567C243.844 137.67 244.292 138.289 244.188 138.943L243.801 141.437C243.733 141.867 244.034 142.28 244.464 142.349C245.126 142.452 245.573 143.071 245.47 143.725C245.384 144.336 244.868 144.757 244.283 144.757Z" fill="#E30611"/>
<path d="M236.438 122.076C236.214 122.076 235.99 122.05 235.758 122.007C234.847 121.827 234.055 121.31 233.539 120.536C233.023 119.762 232.834 118.842 233.015 117.93C233.384 116.047 235.216 114.817 237.1 115.187C238.984 115.556 240.214 117.38 239.844 119.263C239.663 120.175 239.138 120.958 238.373 121.483C237.788 121.87 237.126 122.076 236.438 122.076ZM236.429 117.543C236.223 117.543 236.016 117.603 235.844 117.724C235.612 117.879 235.449 118.12 235.397 118.395C235.345 118.67 235.397 118.954 235.56 119.186C235.715 119.418 235.956 119.582 236.231 119.633C236.507 119.685 236.79 119.633 237.023 119.47C237.255 119.315 237.418 119.074 237.47 118.799C237.582 118.231 237.203 117.672 236.636 117.56C236.567 117.552 236.498 117.543 236.429 117.543Z" fill="#E30611"/>
<path d="M234.158 119.625C234.106 119.625 234.054 119.625 234.003 119.617C233.341 119.531 232.867 118.929 232.953 118.266L234.003 110.053C234.089 109.39 234.691 108.917 235.362 109.012C236.024 109.098 236.497 109.7 236.411 110.362L235.362 118.576C235.276 119.187 234.751 119.625 234.158 119.625Z" fill="#E30611"/>
<path d="M259.497 125.166C259.411 125.166 259.316 125.157 259.23 125.14C258.576 124.994 258.172 124.349 258.318 123.695C258.654 122.224 259.763 121.046 261.165 120.71C261.492 120.633 261.759 120.409 261.888 120.1C261.991 119.85 261.982 119.549 261.862 119.274C261.741 118.999 261.518 118.784 261.26 118.698C260.744 118.517 260.167 118.767 259.944 119.274C259.677 119.885 258.963 120.16 258.344 119.893C257.733 119.627 257.458 118.913 257.725 118.302C258.447 116.659 260.348 115.834 262.051 116.419C262.937 116.728 263.677 117.416 264.072 118.302C264.468 119.188 264.485 120.194 264.115 121.055C263.685 122.061 262.799 122.809 261.741 123.076C261.225 123.205 260.812 123.661 260.683 124.245C260.554 124.787 260.047 125.166 259.497 125.166Z" fill="#E30611"/>
<path d="M258.79 127.891C258.472 127.891 258.162 127.762 257.939 127.538C257.887 127.487 257.835 127.427 257.784 127.349C257.741 127.28 257.706 127.22 257.672 127.143C257.638 127.074 257.62 126.997 257.603 126.919C257.586 126.842 257.586 126.764 257.586 126.687C257.586 126.369 257.715 126.05 257.939 125.835C258.222 125.552 258.644 125.423 259.031 125.5C259.108 125.517 259.186 125.543 259.255 125.569C259.323 125.595 259.392 125.638 259.461 125.681C259.53 125.724 259.59 125.775 259.65 125.827C259.874 126.05 260.003 126.36 260.003 126.678C260.003 126.997 259.874 127.306 259.65 127.53C259.59 127.581 259.53 127.642 259.461 127.676C259.392 127.719 259.323 127.753 259.255 127.788C259.177 127.822 259.1 127.839 259.031 127.857C258.954 127.882 258.876 127.891 258.79 127.891Z" fill="#E30611"/>
<path d="M43.4005 63.9377C42.721 63.9377 42.0415 63.7829 41.4051 63.4732C40.3128 62.94 39.4957 62.0111 39.1 60.8672C38.7044 59.7146 38.7818 58.4847 39.3151 57.3924C39.8483 56.3001 40.7772 55.483 41.9297 55.0873C44.3036 54.2703 46.9011 55.5346 47.7182 57.9084C48.1138 59.061 48.0364 60.2909 47.5031 61.3832C46.9699 62.4755 46.041 63.2926 44.8885 63.6883C44.3982 63.8517 43.8993 63.9377 43.4005 63.9377ZM43.4005 57.53C43.2027 57.53 42.9963 57.5644 42.7984 57.6332C42.3254 57.7966 41.9469 58.1321 41.7319 58.5793C41.5169 59.0266 41.4825 59.5254 41.6459 59.9985C41.8093 60.4715 42.1448 60.85 42.592 61.065C43.0393 61.28 43.5467 61.3144 44.0112 61.151C44.4842 60.9876 44.8627 60.6521 45.0777 60.2049C45.2927 59.7576 45.3271 59.2588 45.1637 58.7857C44.8971 58.0117 44.1746 57.53 43.4005 57.53Z" fill="#E30611"/>
<path d="M49.2399 61.9509C48.612 61.9509 47.9841 61.8047 47.4079 61.5209C46.4016 61.0306 45.6533 60.1792 45.2834 59.1212L44.1223 55.7497C43.8815 55.0444 44.2513 54.2789 44.9566 54.0381C45.6619 53.7973 46.4274 54.1671 46.6682 54.8724L47.8293 58.2439C47.9583 58.6224 48.225 58.9234 48.5862 59.0954C48.9474 59.2675 49.3517 59.2933 49.7301 59.1642C50.4354 58.9234 51.2009 59.2933 51.4417 59.9985C51.6825 60.7038 51.3127 61.4693 50.6074 61.7101C50.1602 61.8735 49.6957 61.9509 49.2399 61.9509Z" fill="#E30611"/>
<path d="M62.7929 57.2737C62.1134 57.2737 61.4339 57.1189 60.7975 56.8093C59.7052 56.276 58.8881 55.3471 58.4838 54.2032C58.0882 53.0507 58.1656 51.8208 58.6988 50.7284C59.2321 49.6361 60.161 48.819 61.3135 48.4234C62.4661 48.0278 63.696 48.1052 64.7969 48.6384C65.8892 49.1717 66.7063 50.1006 67.1105 51.2445C67.5062 52.397 67.4288 53.627 66.8955 54.7193C66.3623 55.8116 65.4334 56.6287 64.2808 57.0243C63.7992 57.1877 63.2917 57.2737 62.7929 57.2737ZM62.8015 50.8661C62.5951 50.8661 62.3886 50.9005 62.1908 50.9693C61.7178 51.1327 61.3393 51.4681 61.1243 51.9154C60.9093 52.3626 60.8749 52.8615 61.0383 53.3345C61.2017 53.8076 61.5371 54.186 61.9844 54.401C62.4316 54.6161 62.9391 54.6505 63.4036 54.487C63.8766 54.3236 64.255 53.9882 64.4701 53.5409C64.6851 53.0937 64.7195 52.5948 64.5561 52.1218C64.3927 51.6487 64.0572 51.2703 63.61 51.0553C63.3605 50.9263 63.0853 50.8661 62.8015 50.8661Z" fill="#E30611"/>
<path d="M68.6344 55.2859C68.0065 55.2859 67.3787 55.1397 66.8024 54.8559C65.7961 54.3656 65.0478 53.5141 64.678 52.4562L63.5169 49.0846C63.276 48.3794 63.6459 47.6139 64.3511 47.3731C65.0564 47.1322 65.8219 47.5021 66.0627 48.2073L67.2239 51.5789C67.3529 51.9573 67.6195 52.2584 67.9807 52.4304C68.342 52.6024 68.7462 52.6282 69.1247 52.4992C69.8299 52.2584 70.5954 52.6282 70.8362 53.3335C71.0771 54.0388 70.7072 54.8043 70.0019 55.0451C69.5547 55.2171 69.0989 55.2859 68.6344 55.2859Z" fill="#E30611"/>
<path d="M53.058 61.7963C52.4989 61.7963 51.9743 61.4436 51.7851 60.8932L49.3338 53.7974C48.6715 51.8622 49.7036 49.755 51.6388 49.0841C53.574 48.4218 55.6899 49.454 56.3607 51.3806L58.812 58.4763C59.0528 59.1816 58.683 59.9471 57.9777 60.1879C57.2724 60.4287 56.507 60.0589 56.2661 59.3536L53.8149 52.2579C53.6343 51.7246 53.0494 51.4408 52.5161 51.63C51.9829 51.8106 51.699 52.3955 51.8797 52.9201L54.3309 60.0159C54.5718 60.7212 54.2019 61.4866 53.4966 61.7275C53.3504 61.7791 53.2042 61.7963 53.058 61.7963Z" fill="#E30611"/>
<path d="M57.5227 48.611C56.9636 48.611 56.439 48.2584 56.2498 47.7079C56.0089 47.0027 56.3788 46.2372 57.0841 45.9964L63.7412 43.7085C64.4464 43.4677 65.2119 43.8375 65.4527 44.5428C65.6936 45.2481 65.3237 46.0136 64.6185 46.2544L57.9613 48.5422C57.8237 48.5852 57.6689 48.611 57.5227 48.611Z" fill="#E30611"/>
<path d="M70.3372 49.3167C69.7781 49.3167 69.2534 48.9641 69.0642 48.4137C68.8234 47.7084 69.1932 46.9429 69.8985 46.7021L74.2764 45.1969C74.9817 44.9561 75.7471 45.3259 75.988 46.0312C76.2288 46.7365 75.8589 47.502 75.1537 47.7428L70.7758 49.2393C70.6296 49.2909 70.4834 49.3167 70.3372 49.3167Z" fill="#E30611"/>
<path d="M71.3616 52.2921C70.8025 52.2921 70.2779 51.9395 70.0886 51.389C69.8478 50.6837 70.2176 49.9182 70.9229 49.6774L75.3008 48.1722C76.0061 47.9314 76.7715 48.3013 77.0124 49.0065C77.2532 49.7118 76.8834 50.4773 76.1781 50.7181L71.8002 52.2233C71.654 52.2663 71.5078 52.2921 71.3616 52.2921Z" fill="#E30611"/>
<path d="M83.5138 51.0972C82.6795 51.0972 81.8538 50.9079 81.0797 50.5295C79.7466 49.8758 78.7489 48.7491 78.2672 47.3472C77.7856 45.9452 77.8802 44.44 78.5252 43.1155C79.1703 41.791 80.3056 40.7847 81.7076 40.303C84.6061 39.3053 87.7712 40.8535 88.7689 43.7434C89.7667 46.6333 88.2185 49.7984 85.32 50.7875C84.7351 51.0025 84.1244 51.0972 83.5138 51.0972ZM83.5138 42.7027C83.2042 42.7027 82.8945 42.7543 82.5849 42.8575C81.8624 43.1069 81.2775 43.623 80.9421 44.3024C80.6067 44.9905 80.5637 45.7646 80.8045 46.4871C81.0539 47.2095 81.57 47.7944 82.2581 48.1212C82.9461 48.4567 83.7202 48.4997 84.4427 48.2589C85.9306 47.7428 86.7305 46.1172 86.2145 44.6293C85.8188 43.4423 84.7007 42.7027 83.5138 42.7027Z" fill="#E30611"/>
<path d="M81.3986 50.5213C81.1578 50.5213 80.917 50.461 80.6933 50.3234C80.0569 49.9364 79.8591 49.1107 80.2461 48.4742L84.6498 41.3183C85.0368 40.6818 85.8711 40.484 86.499 40.8796C87.1354 41.2667 87.3333 42.0924 86.9462 42.7288L82.5425 49.8848C82.2931 50.2976 81.8545 50.5213 81.3986 50.5213Z" fill="#E30611"/>
</g>
<defs>
<clipPath id="clip0_3213_59199">
<rect width="300" height="158" fill="white"/>
</clipPath>
</defs>
</svg>
