<svg width="300" height="158" viewBox="0 0 300 158" fill="none" xmlns="http://www.w3.org/2000/svg">
<g clip-path="url(#clip0_21_328592)">
<path d="M146.37 19.8945C164.501 19.8945 176.568 33.9827 180.611 59.0634C184.022 80.1009 184.528 83.6387 184.528 83.6387C184.528 83.6387 224.96 105.75 224.96 120.281C224.96 137.212 194.699 155.912 194.699 155.912L195.899 189.268C196.342 209.421 97.3454 206.515 98.6721 187.563L107.706 123.755C99.4302 148.71 60.7668 166.841 62.0303 104.423C62.662 72.2039 71.5066 78.2688 75.9289 91.9147C79.0245 101.454 82.815 114.911 82.815 114.911C82.815 114.911 98.6721 79.785 118.825 77.8897C118.762 77.9529 108.275 19.8945 146.37 19.8945Z" fill="#EE4D53"/>
<path d="M165.512 37.268C168.734 43.8383 167.723 73.594 172.146 77.9531C176.568 82.3122 184.528 83.6389 184.528 83.6389C184.528 83.6389 181.243 59.2531 178.274 48.6397C175.304 38.0262 171.703 32.9721 170.503 32.7194C169.303 32.5299 165.512 37.268 165.512 37.268Z" fill="#D12B31"/>
<path d="M127.164 27.16C127.164 27.16 134.544 18.4014 147.432 18.4014C161.489 18.4014 169.744 28.0445 174.166 38.1526C174.166 38.1526 157.867 44.2175 144.979 39.6056C132.091 34.9938 127.164 27.16 127.164 27.16Z" fill="#F58E53"/>
<path d="M79.6553 34.9311C79.6553 47.6925 89.1948 52.3675 89.1948 52.3675C89.1948 52.3675 91.5955 38.153 103.662 30.6351C115.729 23.1172 127.1 27.1605 127.1 27.1605C127.1 27.1605 121.983 18 103.346 18C84.7725 18 79.6553 34.9311 79.6553 34.9311Z" fill="#F58E53"/>
<path d="M174.167 38.2151C174.167 38.2151 185.539 63.4853 210.367 72.8985C231.341 80.8586 249.409 77.6998 254.526 75.0464C259.644 72.3931 261.223 69.2975 261.223 69.2975C261.223 69.2975 255.474 73.2143 252.757 73.4671C250.104 73.7198 244.481 49.5867 224.96 42.0688C205.439 34.5509 174.167 38.2151 174.167 38.2151Z" fill="#F58E53"/>
<path fill-rule="evenodd" clip-rule="evenodd" d="M150.75 50.2443C149.433 50.3285 148.739 51.0702 148.303 51.9654C148.077 52.4284 147.943 52.9015 147.867 53.2681C147.83 53.4461 147.798 53.6263 147.782 53.8076C147.72 54.6889 146.957 55.3552 146.074 55.2971C144.72 55.2238 144.577 54.1463 144.577 53.5872L144.577 53.5856L144.577 53.5823C144.601 53.2561 144.655 52.9316 144.721 52.6117C144.835 52.0701 145.04 51.3271 145.415 50.5582C146.177 48.9923 147.723 47.2088 150.568 47.0364L150.58 47.0357L150.592 47.0351C153.451 46.9052 155.382 48.6605 156.484 50.1333C157.048 50.8868 157.452 51.6361 157.714 52.1911C157.866 52.5119 158.009 52.8393 158.124 53.1752L158.125 53.1781C158.377 54.1267 158.18 54.8576 157.117 55.2163C156.288 55.496 155.363 55.038 155.082 54.2099L155.083 54.211C155.004 53.9907 154.91 53.7757 154.81 53.5643C154.61 53.1421 154.311 52.5923 153.912 52.0586C153.09 50.9603 152.055 50.19 150.75 50.2443Z" fill="black"/>
<path d="M125.228 50.2443C123.911 50.3285 123.217 51.0702 122.781 51.9654C122.504 52.5343 122.316 53.1748 122.26 53.8076C122.198 54.6889 121.435 55.3552 120.552 55.2971C119.724 55.2426 118.916 54.5479 119.086 53.2843C119.107 53.1164 119.142 52.8856 119.199 52.6117C119.312 52.0702 119.518 51.3271 119.892 50.5582C120.655 48.9923 122.201 47.2088 125.046 47.0364L125.058 47.0357L125.07 47.0351C127.929 46.9052 129.86 48.6605 130.962 50.1333C131.526 50.8868 131.93 51.6361 132.192 52.1911C132.345 52.513 132.489 52.8418 132.603 53.1794C132.806 53.7752 132.388 54.9488 131.595 55.2163C128.92 56.1186 128.311 50.1727 125.228 50.2443Z" fill="black"/>
<path fill-rule="evenodd" clip-rule="evenodd" d="M145.976 60.7467C147.177 61.5206 146.464 63.0435 145.774 63.874C145.351 64.3824 144.728 65.0571 143.913 65.7335C142.293 67.0788 139.825 68.5048 136.64 68.5048C133.382 68.5048 131.481 67.0337 130.478 65.4023C130.005 64.6322 129.759 63.8745 129.629 63.3168C129.388 62.2749 129.655 60.6732 131.016 60.6181C131.897 60.5824 132.642 61.2641 132.685 62.1436C132.685 62.1436 132.686 62.1469 132.686 62.1496C132.689 62.1876 132.705 62.3563 132.759 62.5907C132.833 62.9096 132.97 63.3207 133.215 63.7193C133.649 64.4254 134.528 65.2918 136.64 65.2918C138.825 65.2918 140.59 64.3171 141.86 63.2618C142.491 62.7379 142.977 62.2122 143.303 61.8203C143.462 61.628 143.618 61.4307 143.758 61.2232L143.758 61.2218C144.24 60.4798 145.232 60.2669 145.976 60.7467Z" fill="black"/>
<path d="M119.141 78.333C119.141 78.333 127.038 84.3979 139.231 84.3979C151.424 84.3979 156.225 77.3222 161.027 81.3654C165.828 85.4087 149.15 91.284 139.231 90.21C126.785 88.9465 119.141 78.333 119.141 78.333Z" fill="#D12B31"/>
<path d="M217.696 107.457C217.696 107.457 221.612 114.28 221.865 118.955C222.118 123.63 180.991 153.954 178.59 160.84C176.189 167.727 194.7 155.976 194.7 155.976C194.7 155.976 224.961 137.402 224.961 120.345C224.961 114.09 217.696 107.457 217.696 107.457Z" fill="#D12B31"/>
<path d="M178.337 137.654C178.969 136.833 192.236 126.598 192.236 121.544C192.236 116.49 182.38 102.402 179.348 104.424C176.315 106.445 180.169 117.88 180.738 121.923C181.812 128.557 178.337 137.654 178.337 137.654Z" fill="#D12B31"/>
<path d="M66.0103 134.181C66.0103 134.181 73.6545 142.457 81.1092 142.457C88.5639 142.457 104.737 106.636 107.074 113.27C108.527 117.313 107.706 123.757 107.706 123.757C107.706 123.757 99.2406 146.879 81.5514 146.879C69.6744 146.816 66.0103 134.181 66.0103 134.181Z" fill="#D12B31"/>
<path d="M82.815 114.974C83.7626 121.166 80.8565 131.4 79.7194 128.178C78.519 124.956 78.519 100.381 78.519 100.381L82.815 114.974Z" fill="#D12B31"/>
<path d="M164.093 55.4806C163.963 48.781 167.098 43.2874 171.094 43.2103C175.091 43.1332 178.435 48.5018 178.564 55.2013C178.694 61.9009 175.559 67.3945 171.562 67.4716C167.566 67.5487 164.222 62.1802 164.093 55.4806Z" fill="#0647C4"/>
<path d="M173.885 43.9564L170.537 44.3986L170.284 39.3446L173.569 38.9023L173.885 43.9564Z" fill="#0647C4"/>
<path d="M173.677 39.614C174.562 39.4877 175.256 38.6032 175.13 37.7188C174.301 24.06 162.404 17.6135 147.793 18.018C141.367 18.196 134.138 22.0343 132.531 24.0425C152.613 13.6001 167.875 26.0507 168.686 38.7928C168.813 39.614 169.508 40.1194 170.266 39.9931L173.677 39.614Z" fill="#2D74FE"/>
<path d="M168.05 55.3282C167.92 48.6286 171.055 43.135 175.051 43.0579C179.048 42.9808 182.392 48.3494 182.521 55.049C182.651 61.7486 179.516 67.2422 175.52 67.3193C171.523 67.3964 168.179 62.0278 168.05 55.3282Z" fill="#2D74FE"/>
<path fill-rule="evenodd" clip-rule="evenodd" d="M179.458 51.0724C178.737 50.0929 177.628 49.3541 176.289 49.5219C174.978 49.6863 174.034 50.6597 173.473 51.7573C172.899 52.8801 172.619 54.3102 172.709 55.79C172.742 56.339 173.227 56.758 173.793 56.7257C174.358 56.6934 174.789 56.2221 174.756 55.673C174.684 54.4897 174.916 53.4133 175.309 52.6431C175.716 51.8478 176.197 51.5419 176.552 51.4974C176.879 51.4563 177.329 51.6052 177.791 52.2314C178.247 52.8512 178.604 53.8218 178.676 55.0067C178.709 55.5558 179.195 55.9747 179.76 55.9424C180.325 55.9101 180.757 55.4388 180.723 54.8897C180.634 53.4115 180.185 52.0583 179.458 51.0724Z" fill="#0647C4"/>
<path fill-rule="evenodd" clip-rule="evenodd" d="M63.1142 62.9789L63.1128 62.9795L51.1621 67.5643C50.3419 67.8768 49.9374 68.7648 50.2616 69.62L50.2627 69.6228L58.9814 92.1713C59.2942 92.9923 60.1834 93.3967 61.0393 93.071L72.9765 88.4913C73.7783 88.1656 74.1989 87.2431 73.8912 86.4303L73.8901 86.4274L65.1713 63.8789C64.8586 63.0582 63.9698 62.6538 63.1142 62.9789ZM67.849 62.8544C66.9579 60.5214 64.3916 59.4243 62.0922 60.3003L62.089 60.3015L50.1415 64.8851L50.1397 64.8858C47.8053 65.7762 46.7072 68.3433 47.5835 70.6434L56.3022 93.1919L56.3037 93.1958C57.1948 95.5288 59.7611 96.6259 62.0605 95.7499L74.0239 91.1602L74.0333 91.1564C76.2318 90.277 77.4609 87.7474 76.5692 85.4068L67.8505 62.8583L67.849 62.8544Z" fill="black"/>
<path d="M73.1355 89.4493L61.5665 93.8877C60.0385 94.4698 58.365 93.7422 57.7829 92.2142L49.3426 70.3859C48.7605 68.8579 49.4881 67.1844 51.0161 66.6023L62.5851 62.1639C64.1131 61.5818 65.7866 62.3094 66.3687 63.8374L74.809 85.6657C75.3911 87.1937 74.5907 88.8672 73.1355 89.4493Z" fill="#A7ECFF"/>
<path d="M69.6074 96.1778C67.0803 89.7339 66.6381 84.5535 69.102 85.817C71.5658 87.0805 74.6614 94.0298 74.6614 94.0298L69.6074 96.1778Z" fill="#EE4D53"/>
</g>
<defs>
<clipPath id="clip0_21_328592">
<rect width="300" height="158" fill="white"/>
</clipPath>
</defs>
</svg>
