<svg width="196" height="44" viewBox="0 0 196 44" fill="none" xmlns="http://www.w3.org/2000/svg">
<path d="M64.1852 1.64285V42.3341C64.1852 43.24 63.4025 43.977 62.4405 43.977H51.1737C50.2117 43.977 49.429 43.24 49.429 42.3341V1.64285C49.429 0.73698 50.2117 0 51.1737 0H62.4405C63.4025 0 64.1852 0.73698 64.1852 1.64285ZM46.5675 42.1345L33.4418 20.9886L45.8827 1.92306C46.4819 1.10931 45.8664 0 44.8147 0L31.1387 0.0230306C30.7067 0.0230306 30.299 0.226468 30.0585 0.56425L20.3937 16.0293H14.7521V1.64285C14.7521 0.73698 13.9694 0 13.0074 0H1.74465C0.77857 0 0 0.73698 0 1.64285V42.3341C0 43.24 0.782646 43.977 1.74465 43.977H13.0115C13.9735 43.977 14.7562 43.24 14.7562 42.3341V28.0091H21.6206L31.2284 43.3974C31.4648 43.7659 31.8888 43.9962 32.3453 43.9962H45.4587C46.4778 43.9962 47.1015 42.9483 46.5675 42.1345ZM194.255 43.977C195.217 43.977 196 43.24 196 42.3341V1.64285C196 0.73698 195.217 0 194.255 0H183.396C182.434 0 181.651 0.73698 181.651 1.64285L181.721 22.4587L162.008 0.0230306H149.486C148.524 0.0230306 147.741 0.76001 147.741 1.66588V42.361C147.741 43.2669 148.519 44 149.481 44H160.316C161.278 44 162.057 43.2669 162.057 42.361V21.5183L181.57 43.9808L194.255 43.977ZM143.224 1.81558V42.1652C143.224 43.1671 142.36 43.9808 141.296 43.9808H70.6257C69.5618 43.9808 68.6976 43.1671 68.6976 42.1652V1.81558C68.6976 0.813749 69.5618 0 70.6257 0H141.3C142.36 0 143.224 0.813749 143.224 1.81558ZM128.558 11.6919C128.558 11.3272 128.203 11.0547 127.82 11.1276C120.185 12.5632 93.1513 12.782 84.0856 11.1161C83.7106 11.047 83.3641 11.3196 83.3641 11.6842V31.6479C83.3641 32.001 83.6943 32.2697 84.0693 32.2198C91.586 31.1719 120.161 31.3447 127.873 32.2429C128.24 32.2851 128.558 32.0164 128.558 31.6709V11.6919Z" fill="white"/>
</svg>
