<svg width="70" height="70" viewBox="0 0 70 70" fill="none" xmlns="http://www.w3.org/2000/svg">
<g clip-path="url(#clip0_4091_1299)">
<path d="M18 0H52C56.7739 0 61.3523 1.89642 64.7279 5.27208C68.1036 8.64773 70 13.2261 70 18V52C70 56.7739 68.1036 61.3523 64.7279 64.7279C61.3523 68.1036 56.7739 70 52 70H18C13.2261 70 8.64773 68.1036 5.27208 64.7279C1.89642 61.3523 0 56.7739 0 52L0 18C0 13.2261 1.89642 8.64773 5.27208 5.27208C8.64773 1.89642 13.2261 0 18 0V0Z" fill="url(#paint0_linear_4091_1299)"/>
<path d="M26.7188 29.9107V40.0835C26.7188 40.31 26.5272 40.4942 26.2916 40.4942H23.5323C23.2967 40.4942 23.1051 40.31 23.1051 40.0835V29.9107C23.1051 29.6842 23.2967 29.5 23.5323 29.5H26.2916C26.5272 29.5 26.7188 29.6842 26.7188 29.9107ZM22.4043 40.0336L19.1898 34.7471L22.2366 29.9808C22.3833 29.7773 22.2326 29.5 21.975 29.5L18.6258 29.5058C18.52 29.5058 18.4202 29.5566 18.3613 29.6411L15.9944 33.5073H14.6128V29.9107C14.6128 29.6842 14.4211 29.5 14.1855 29.5H11.4273C11.1907 29.5 11 29.6842 11 29.9107V40.0835C11 40.31 11.1917 40.4942 11.4273 40.4942H14.1865C14.4221 40.4942 14.6138 40.31 14.6138 40.0835V36.5023H16.2948L18.6478 40.3493C18.7057 40.4415 18.8095 40.499 18.9213 40.499H22.1327C22.3823 40.499 22.5351 40.2371 22.4043 40.0336ZM58.5727 40.4942C58.8083 40.4942 59 40.31 59 40.0835V29.9107C59 29.6842 58.8083 29.5 58.5727 29.5H55.9133C55.6777 29.5 55.4861 29.6842 55.4861 29.9107L55.503 35.1147L50.6754 29.5058H47.6087C47.3731 29.5058 47.1814 29.69 47.1814 29.9165V40.0902C47.1814 40.3167 47.3721 40.5 47.6077 40.5H50.2611C50.4967 40.5 50.6874 40.3167 50.6874 40.0902V34.8796L55.4661 40.4952L58.5727 40.4942ZM46.0753 29.9539V40.0413C46.0753 40.2918 45.8637 40.4952 45.6032 40.4952H28.2961C28.0355 40.4952 27.8239 40.2918 27.8239 40.0413V29.9539C27.8239 29.7034 28.0355 29.5 28.2961 29.5H45.6042C45.8637 29.5 46.0753 29.7034 46.0753 29.9539ZM42.4836 32.423C42.4836 32.3318 42.3967 32.2637 42.3029 32.2819C40.4331 32.6408 33.8126 32.6955 31.5924 32.279C31.5006 32.2618 31.4157 32.3299 31.4157 32.4211V37.412C31.4157 37.5003 31.4966 37.5674 31.5884 37.555C33.4292 37.293 40.4271 37.3362 42.3158 37.5607C42.4057 37.5713 42.4836 37.5041 42.4836 37.4177V32.423Z" fill="white"/>
</g>
<defs>
<linearGradient id="paint0_linear_4091_1299" x1="5.28647" y1="-36.1291" x2="111.117" y2="42.273" gradientUnits="userSpaceOnUse">
<stop offset="0.109668" stop-color="#72056D"/>
<stop offset="0.888275" stop-color="#E7061F"/>
</linearGradient>
<clipPath id="clip0_4091_1299">
<rect width="70" height="70" fill="white"/>
</clipPath>
</defs>
</svg>
