<svg width="100" height="100" viewBox="0 0 100 100" fill="none" xmlns="http://www.w3.org/2000/svg">
<path d="M0 44C0 23.2582 0 12.8873 6.44365 6.44365C12.8873 0 23.2582 0 44 0H56C76.7418 0 87.1127 0 93.5564 6.44365C100 12.8873 100 23.2582 100 44V56C100 76.7418 100 87.1127 93.5564 93.5564C87.1127 100 76.7418 100 56 100H44C23.2582 100 12.8873 100 6.44365 93.5564C0 87.1127 0 76.7418 0 56V44Z" fill="url(#paint0_linear_3283_436830)"/>
<path d="M28.1742 75L73.5903 75L78.1797 50H55.4715L50.8823 74.999L41.7082 25H19L28.1742 75Z" fill="url(#paint1_linear_3283_436830)"/>
<defs>
<linearGradient id="paint0_linear_3283_436830" x1="50" y1="150" x2="150" y2="50" gradientUnits="userSpaceOnUse">
<stop stop-color="#E30611"/>
<stop offset="1" stop-color="#FF535C"/>
</linearGradient>
<linearGradient id="paint1_linear_3283_436830" x1="48.5417" y1="75.0185" x2="-2.36602" y2="8.42899" gradientUnits="userSpaceOnUse">
<stop stop-color="white"/>
<stop offset="0.288477" stop-color="white"/>
<stop offset="1" stop-color="#E6A8AF"/>
</linearGradient>
</defs>
</svg>
