<svg width="80" height="80" viewBox="0 0 80 80" fill="none" xmlns="http://www.w3.org/2000/svg">
<rect width="80" height="80" rx="40" fill="url(#paint0_linear_3283_436755)"/>
<g clip-path="url(#clip0_3283_436755)">
<path d="M39.9999 30.6654C36.6855 30.6654 33.9986 33.3522 33.9986 36.6666C33.9986 39.981 36.6855 42.6679 39.9999 42.6679C43.3143 42.6679 46.0011 39.981 46.0011 36.6666C46.0011 33.3522 43.3143 30.6654 39.9999 30.6654Z" fill="white"/>
<path fill-rule="evenodd" clip-rule="evenodd" d="M24.1441 36.3072C24.4902 31.6566 24.6633 29.3313 26.9973 26.9973C29.3313 24.6633 31.6566 24.4902 36.3072 24.1441C37.5128 24.0544 38.7564 24 40 24C41.2436 24 42.4872 24.0544 43.6928 24.1441C48.3434 24.4902 50.6687 24.6633 53.0027 26.9973C55.3367 29.3313 55.5098 31.6566 55.8559 36.3072C55.9456 37.5128 56 38.7564 56 40C56 41.2436 55.9456 42.4872 55.8559 43.6928C55.5098 48.3434 55.3367 50.6687 53.0027 53.0027C50.6687 55.3367 48.3434 55.5098 43.6928 55.8559C42.4872 55.9456 41.2436 56 40 56C38.7564 56 37.5128 55.9456 36.3072 55.8559C31.6566 55.5098 29.3313 55.3367 26.9973 53.0027C24.6633 50.6687 24.4902 48.3434 24.1441 43.6928C24.0544 42.4872 24 41.2436 24 40C24 38.7564 24.0544 37.5128 24.1441 36.3072ZM36.5546 27.4682C37.6919 27.3836 38.8519 27.3333 40 27.3333C41.1481 27.3333 42.3081 27.3836 43.4454 27.4682C48.32 27.831 49.3228 28.0314 50.6457 29.3543C51.9686 30.6772 52.169 31.68 52.5318 36.5546C52.6164 37.6919 52.6667 38.8519 52.6667 40C52.6667 41.1481 52.6164 42.3081 52.5318 43.4454C52.3983 45.2388 52.2868 46.5082 52.1333 47.4622C47.042 46.1723 44.2994 45.5104 41.5102 45.371C41.0071 45.3459 40.5035 45.3333 39.9999 45.3333C39.4991 45.3334 38.9984 45.3458 38.4982 45.3708C35.7087 45.5097 32.9636 46.1719 27.8667 47.4624C27.7132 46.5084 27.6017 45.239 27.4682 43.4454C27.3836 42.3081 27.3333 41.1481 27.3333 40C27.3333 38.8519 27.3836 37.6919 27.4682 36.5546C27.831 31.68 28.0314 30.6772 29.3543 29.3543C30.6772 28.0314 31.68 27.831 36.5546 27.4682Z" fill="white"/>
</g>
<defs>
<linearGradient id="paint0_linear_3283_436755" x1="40" y1="0" x2="40" y2="80" gradientUnits="userSpaceOnUse">
<stop stop-color="#FF5823"/>
<stop offset="1" stop-color="#E30611"/>
</linearGradient>
<clipPath id="clip0_3283_436755">
<rect width="42.6667" height="42.6667" fill="white" transform="translate(18.666 18.6666)"/>
</clipPath>
</defs>
</svg>
