<svg width="14" height="18" viewBox="0 0 14 18" fill="none" xmlns="http://www.w3.org/2000/svg">
<path d="M12.0083 17.4628H1.99174C1.44628 17.4628 1 17.0165 1 16.471V8.66111C1 8.11565 1.44628 7.66937 1.99174 7.66937H12.0083C12.5537 7.66937 13 8.11565 13 8.66111V16.4462C13 17.0165 12.5785 17.4628 12.0083 17.4628Z" stroke="#E30613" stroke-miterlimit="10"/>
<path d="M2.78519 7.66942V5.21488C2.78519 2.8843 4.66948 1 7.00006 1C9.33064 1 11.2149 2.8843 11.2149 5.21488V7.66942" stroke="#E30613" stroke-miterlimit="10"/>
<path d="M8.11574 11.909C8.11574 11.2892 7.61988 10.7933 7.00004 10.7933C6.38021 10.7933 5.88434 11.2892 5.88434 11.909C5.88434 12.3553 6.15707 12.752 6.55376 12.9256V14.3388C6.55376 14.5867 6.75211 14.7851 7.00004 14.7851C7.24797 14.7851 7.44632 14.5867 7.44632 14.3388V12.9256C7.84302 12.752 8.11574 12.3553 8.11574 11.909Z" stroke="#E30613" stroke-miterlimit="10"/>
</svg>
