<svg width="174" height="22" viewBox="0 0 174 22" fill="none" xmlns="http://www.w3.org/2000/svg">
<path fill-rule="evenodd" clip-rule="evenodd" d="M0 13.3222C0 17.6428 2.42576 22 7.85829 22C13.2862 22 15.7169 17.6428 15.7169 13.3222C15.7169 10.3709 14.72 6.97252 13.0563 4.22757C11.438 1.57675 9.49423 0 7.85829 0C6.21831 0 4.27337 1.57675 2.6692 4.22757C0.997447 6.97252 0 10.3709 0 13.3222ZM38.3073 1.17859L35.1651 12.9033L32.0231 1.17859H21.6106V20.8214H27.5043L27.5046 4.84401L31.7863 20.8214H38.5441L42.8284 4.8339V20.8214H48.7225V1.17859H38.3073ZM55.795 6.48226H50.294V1.17859H67.1897V6.48226H61.689L61.6887 20.8214H55.795V6.48226ZM88.4078 6.48226H79.7626C76.0876 6.48226 73.6702 7.79597 73.6702 11C73.6702 14.2043 76.0876 15.5177 79.7626 15.5177H88.4078V20.8214H79.7632C71.8205 20.8214 67.5801 16.8733 67.5801 11C67.5801 5.12667 71.8205 1.17859 79.7632 1.17859H88.4078V6.48226ZM94.3015 6.0327C94.3015 2.19232 96.0512 0.954827 98.9673 0.954827C101.642 0.954827 103.292 1.89377 103.534 4.56741H100.618C100.504 3.45811 99.8779 3.23059 98.9673 3.23059C97.9716 3.23059 97.2176 3.47226 97.2176 5.19337V6.92863C97.2176 8.64974 97.943 8.91971 98.9673 8.91971C99.8637 8.91971 100.475 8.64974 100.632 7.55431H103.548C103.264 10.1999 101.642 11.1955 98.9673 11.1955C96.0512 11.1955 94.3015 10.0293 94.3015 6.0327ZM109.737 6.97136H107.546L108.642 3.34435L109.737 6.97136ZM113.948 10.9824L110.918 1.16849H106.793L103.762 10.9824H106.351L106.906 9.10478H110.378L110.946 10.9824H113.948ZM118.757 11.1955C116.083 11.1955 114.461 10.2568 114.376 7.79626H117.292C117.32 8.7918 117.889 8.99102 118.757 8.99102C119.682 8.99102 120.265 8.83453 120.265 8.03793C120.265 7.3596 119.389 7.253 118.321 7.12315C116.659 6.92088 114.532 6.66221 114.532 4.09822C114.532 1.83661 116.111 0.954827 118.629 0.954827C121.147 0.954827 122.798 1.83661 122.84 4.09822H119.924C119.881 3.31576 119.383 3.15956 118.629 3.15956C117.804 3.15956 117.263 3.31576 117.263 4.06964C117.263 4.71413 118.156 4.83531 119.237 4.98216C120.9 5.208 123.011 5.49458 123.011 7.83871C123.011 10.3137 121.432 11.1955 118.757 11.1955ZM130.38 7.18445V10.9824H133.226V1.16849H130.38V4.76663H127.208V1.16849H124.363V10.9824H127.208V7.18445H130.38ZM139.358 6.84317H137.708V8.99102H139.358C140.069 8.99102 140.482 8.67804 140.482 8.10896V7.7108C140.482 7.17059 140.069 6.84317 139.358 6.84317ZM139.23 3.15956H137.708V5.02273H139.23C139.87 5.02273 140.254 4.73833 140.254 4.21198V3.92758C140.254 3.44396 139.87 3.15956 139.23 3.15956ZM140.069 10.9824H134.934V1.16849H140.211C142.075 1.16849 143.17 2.00753 143.17 3.55772C143.17 4.49638 142.786 5.37816 141.52 5.79075C142.9 6.16061 143.398 7.0141 143.398 8.06651C143.398 9.91525 142.288 10.9824 140.069 10.9824ZM148.634 3.34435L149.729 6.97136H147.538L148.634 3.34435ZM153.94 10.9824L150.91 1.16849H146.784L143.755 10.9824H146.344L146.899 9.10478H150.369L150.938 10.9824H153.94ZM154.297 6.0327C154.297 2.19232 156.047 0.954827 158.963 0.954827C161.637 0.954827 163.287 1.89377 163.529 4.56741H160.613C160.499 3.45811 159.873 3.23059 158.963 3.23059C157.967 3.23059 157.213 3.47226 157.213 5.19337V6.92863C157.213 8.64974 157.938 8.91971 158.963 8.91971C159.859 8.91971 160.471 8.64974 160.627 7.55431H163.543C163.259 10.1999 161.637 11.1955 158.963 11.1955C156.047 11.1955 154.297 10.0293 154.297 6.0327ZM168.168 4.76663H167.67V1.16849H164.825V10.9824H167.67V7.18445H168.082L170.714 10.9824H174L170.444 5.84763L173.716 1.16849H170.714L168.168 4.76663Z" fill="#E30611"/>
</svg>
