<svg width="107" height="28" viewBox="0 0 107 28" fill="none" xmlns="http://www.w3.org/2000/svg">
<path d="M42.1775 0H12.7595V28H42.1775V0Z" fill="#CE2028"/>
<path d="M25.6575 22.3362L18.6575 15.4319L21.4894 12.6142L25.6504 16.722L33.5508 8.89621L36.3862 11.7033L25.6575 22.3362Z" fill="white"/>
<path d="M51.8501 8.25824C55.9509 8.25824 59.0097 11.1468 59.0097 15.2795C59.0097 19.4122 55.9545 22.3008 51.8501 22.3008C47.7458 22.3008 44.6587 19.4157 44.6587 15.283C44.6587 11.1504 47.7493 8.25824 51.8501 8.25824ZM51.8501 11.3524C49.6208 11.3418 48.203 13.0643 48.203 15.283C48.203 17.5018 49.6208 19.2101 51.8643 19.2101C54.1079 19.2101 55.5044 17.4805 55.5044 15.283C55.5044 13.0856 54.0618 11.3418 51.8501 11.3418V11.3524Z" fill="#595A5C"/>
<path d="M63.7979 11.3418H59.8992V8.15189H71.241V11.3418H67.3423V22.3291H63.7979V11.3418Z" fill="#595A5C"/>
<path d="M72.3044 8.15189H75.785V22.3291H72.3044V8.15189Z" fill="#595A5C"/>
<path d="M81.8742 13.8228V22.3291H78.3298V8.15189H82.0478L87.8995 16.6582V8.15189H91.4439V22.3291H87.8641L81.8742 13.8228Z" fill="#595A5C"/>
<path d="M100.188 8.15189C103.151 8.15189 104.98 9.62986 105.972 11.3418L103.048 12.9048C102.751 12.4115 102.331 12.0031 101.83 11.7188C101.329 11.4345 100.764 11.2839 100.188 11.2815C97.9761 11.2744 96.4059 13.0005 96.4059 15.2405C96.4059 17.4805 97.969 19.2066 100.181 19.2066C101.11 19.2361 102.024 18.9638 102.786 18.4304V17.3671H99.5958V14.1772H106.33V19.4937C105.59 20.4032 104.652 21.1315 103.587 21.623C102.523 22.1144 101.36 22.3559 100.188 22.3291C96.1507 22.3291 92.8616 19.5964 92.8616 15.2405C92.8616 10.8845 96.1507 8.15189 100.188 8.15189Z" fill="#595A5C"/>
<path d="M0 8.15189H10.2786V11.3418H3.89877V13.4683H10.2786V16.6582H3.89877V19.1392H10.2786V22.3291H0V8.15189Z" fill="#595A5C"/>
</svg>
