<svg viewBox="0 0 135 22" fill="none" xmlns="http://www.w3.org/2000/svg">
<path d="M50.2939 6.49607H55.7795V20.8163H61.6693V6.49607H67.1837V1.18373H50.2939V6.49607Z" fill="#ADB8C1"/>
<path d="M79.7428 6.49607H88.3754V1.18373H79.7428C71.8032 1.18373 67.5591 5.13911 67.5591 11C67.5591 16.8609 71.8032 20.8163 79.7428 20.8163H88.3754V15.5039H79.7428C76.0761 15.5039 73.6509 14.2047 73.6509 11C73.6509 7.79528 76.0761 6.49607 79.7428 6.49607Z" fill="#ADB8C1"/>
<path d="M38.3122 1.18373L35.1653 12.9055L32.0183 1.18373H21.5957V20.8163H27.4855V4.8504L31.7873 20.8163H38.5432L42.8162 4.82153V20.8163H48.7059V1.18373H38.3122Z" fill="#ADB8C1"/>
<path d="M7.85302 22C2.4252 22 0 17.6404 0 13.3097C0 10.3648 1.0105 6.95801 2.65617 4.21522C4.27297 1.58793 6.20735 0 7.85302 0C9.49869 0 11.4331 1.58793 13.0499 4.21522C14.7244 6.95801 15.706 10.3648 15.706 13.3097C15.706 17.6404 13.2808 22 7.85302 22Z" fill="#ADB8C1"/>
<path d="M99.664 11H94.2939V1.18373H102.205V3.52231H97.0656V4.79266H99.664C101.829 4.79266 102.898 5.8609 102.898 7.79528C102.898 9.81628 101.829 11 99.664 11ZM99.1443 6.8714H97.0656V8.80578H99.1443C99.664 8.80578 99.9816 8.54594 99.9816 8.02625V7.67979C99.9816 7.16011 99.6929 6.8714 99.1443 6.8714Z" fill="#ADB8C1"/>
<path d="M110.491 1.18373L113.522 11H110.52L109.942 9.12336H106.478L105.929 11H103.331L106.362 1.18373H110.491ZM107.113 6.98688H109.307L108.21 3.34909L107.113 6.98688Z" fill="#ADB8C1"/>
<path d="M120.538 11V7.18898H117.362V11H114.504V1.18373H117.362V4.79266H120.538V1.18373H123.396V11H120.538Z" fill="#ADB8C1"/>
<path d="M127.929 4.76379H128.42L130.961 1.15486H133.963L130.701 5.83203L134.252 10.9711H130.961L128.333 7.16011H127.929V10.9711H125.071V1.15486H127.929V4.76379Z" fill="#ADB8C1"/>
</svg>
