<svg width="24" height="24" viewBox="0 0 24 24" fill="none" xmlns="http://www.w3.org/2000/svg">
<path fill-rule="evenodd" clip-rule="evenodd" d="M12.0001 4.00037C10.4502 4.00037 9.09775 4.06801 7.94488 4.1681C5.92054 4.34386 4.90836 4.43174 3.619 5.72553C2.32963 7.01932 2.24873 7.9896 2.08694 9.93016C2.03282 10.5792 1.99976 11.2733 1.99976 12.0004C1.99976 12.7276 2.03283 13.4217 2.08695 14.0707C2.24875 16.0112 2.32965 16.9815 3.61899 18.2752C4.90834 19.569 5.92047 19.6569 7.94472 19.8327C9.09763 19.9328 10.4501 20.0004 12.0001 20.0004C13.5496 20.0004 14.9017 19.9328 16.0544 19.8328C18.0796 19.657 19.0921 19.5691 20.3816 18.2751C21.671 16.9811 21.7519 16.0104 21.9135 14.0689C21.9675 13.4204 22.0005 12.7269 22.0005 12.0004C22.0005 11.274 21.9675 10.5806 21.9135 9.93207C21.7519 7.99047 21.6711 7.01968 20.3816 5.72566C19.0921 4.43165 18.0795 4.34376 16.0542 4.168C14.9016 4.06796 13.5495 4.00037 12.0001 4.00037ZM8.11788 6.16061C9.21374 6.06546 10.5085 6.00037 12.0001 6.00037C13.4912 6.00037 14.7856 6.06541 15.8813 6.16051C16.9604 6.25415 17.4838 6.30904 17.9048 6.43879C18.2172 6.53505 18.5175 6.68838 18.9649 7.13739C19.2528 7.42627 19.4183 7.65048 19.5239 7.84882C19.3036 8.0147 19.0412 8.20031 18.7065 8.43671C18.2273 8.77504 17.7108 9.11485 17.17 9.43439C16.6892 9.71852 16.1771 9.99378 15.6592 10.2542C13.6927 11.2431 13.125 11.4977 12 11.4977C10.875 11.4977 10.3072 11.2431 8.34077 10.2542C7.82284 9.99378 7.31077 9.71852 6.82993 9.43439C6.28916 9.11485 5.7726 8.77504 5.29349 8.43671C4.95888 8.20042 4.69656 8.01488 4.47632 7.84907C4.5819 7.6507 4.74752 7.42642 5.03563 7.13732C5.4831 6.68832 5.78327 6.53504 6.09542 6.43883C6.51623 6.30913 7.03929 6.25425 8.11788 6.16061ZM4.0854 10.032C4.08362 10.0532 4.08183 10.0746 4.08002 10.0963C4.03009 10.6952 3.99976 11.3336 3.99976 12.0004C3.99976 12.6672 4.03009 13.3056 4.08003 13.9045C4.16649 14.9414 4.2169 15.4269 4.33954 15.8204C4.42933 16.1084 4.57788 16.4041 5.03563 16.8635C5.4831 17.3125 5.78326 17.4657 6.09539 17.5619C6.51617 17.6916 7.0392 17.7465 8.11774 17.8402C9.21363 17.9353 10.5084 18.0004 12.0001 18.0004C13.4913 18.0004 14.7858 17.9354 15.8815 17.8403C16.9605 17.7466 17.4839 17.6917 17.9049 17.562C18.2172 17.4657 18.5175 17.3124 18.9649 16.8634C19.4226 16.4041 19.5712 16.1083 19.661 15.82C19.7836 15.4262 19.834 14.9403 19.9204 13.9029C19.9702 13.3045 20.0005 12.6666 20.0005 12.0004C20.0005 11.3343 19.9702 10.6964 19.9204 10.098C19.9185 10.0757 19.9167 10.0536 19.9149 10.0318L19.8601 10.0704C19.3439 10.4349 18.7817 10.8051 18.1875 11.1562C17.6598 11.468 17.1068 11.7649 16.5577 12.041C14.6265 13.0122 13.6609 13.4977 12 13.4977C10.339 13.4977 9.37343 13.0122 7.44225 12.041C6.8931 11.7649 6.34013 11.468 5.81247 11.1562C5.21819 10.8051 4.65602 10.4349 4.13982 10.0704L4.0854 10.032Z" fill="black"/>
</svg>
