<?xml version="1.0" encoding="utf-8"?>
<!-- Generator: Adobe Illustrator 22.1.0, SVG Export Plug-In . SVG Version: 6.00 Build 0)  -->
<svg version="1.1" id="Layer_1" xmlns="http://www.w3.org/2000/svg" xmlns:xlink="http://www.w3.org/1999/xlink" x="0px" y="0px"
	 viewBox="0 0 60 37" style="enable-background:new 0 0 60 37;" xml:space="preserve">
<style type="text/css">
	.st0{fill:#EA610A;}
	.st1{fill:#E20D17;}
	.st2{fill:#F59E00;}
</style>
<ellipse class="st0" cx="30.0000038" cy="18.5" rx="7.024858" ry="14.5054197"/>
<path class="st1" d="M22.9751511,18.5c0-5.8808727,2.7473259-11.1168633,7.0248489-14.5054197
	C26.845871,1.4959607,22.8612442,0,18.5248489,0c-10.2172699,0-18.5,8.2827311-18.5,18.5s8.2827311,18.5,18.5,18.5
	C22.8612442,37,26.845871,35.5040398,30,33.0054207C25.722477,29.6168633,22.9751511,24.3808727,22.9751511,18.5z"/>
<path class="st2" d="M41.4751511,0C37.1387558,0,33.154129,1.4959607,30,3.9945803
	C34.277523,7.3831367,37.0248604,12.6191273,37.0248604,18.5S34.277523,29.6168633,30,33.0054207
	C33.154129,35.5040398,37.1387558,37,41.4751511,37c10.2172699,0,18.5-8.2827301,18.5-18.5S51.692421,0,41.4751511,0z"/>
</svg>
