<svg width="40" height="24" viewBox="0 0 40 24" fill="none" xmlns="http://www.w3.org/2000/svg">
<path fill-rule="evenodd" clip-rule="evenodd" d="M19.979 20.924C17.9069 22.6705 15.2192 23.7249 12.2821 23.7249C5.72866 23.7249 0.416016 18.4755 0.416016 12C0.416016 5.52445 5.72866 0.275024 12.2821 0.275024C15.2192 0.275024 17.9069 1.32936 19.979 3.07588C22.0511 1.32936 24.7389 0.275031 27.6759 0.275031C34.2293 0.275031 39.542 5.52446 39.542 12C39.542 18.4755 34.2293 23.7249 27.6759 23.7249C24.7389 23.7249 22.0511 22.6706 19.979 20.924Z" fill="#ED0006"/>
<path fill-rule="evenodd" clip-rule="evenodd" d="M19.9785 20.924C22.5299 18.7734 24.1477 15.5734 24.1477 12C24.1477 8.42655 22.5299 5.22651 19.9785 3.07594C22.0506 1.32939 24.7384 0.275024 27.6755 0.275024C34.2289 0.275024 39.5416 5.52445 39.5416 12C39.5416 18.4755 34.2289 23.7249 27.6755 23.7249C24.7384 23.7249 22.0506 22.6705 19.9785 20.924Z" fill="#F9A000"/>
<path fill-rule="evenodd" clip-rule="evenodd" d="M19.9797 20.9241C22.5311 18.7735 24.1489 15.5735 24.1489 12.0001C24.1489 8.42665 22.5311 5.22662 19.9797 3.07605C17.4284 5.22662 15.8105 8.42665 15.8105 12.0001C15.8105 15.5735 17.4284 18.7735 19.9797 20.9241Z" fill="#FF5E00"/>
</svg>
