<svg width="24" height="24" viewBox="0 0 24 24" fill="none" xmlns="http://www.w3.org/2000/svg">
<path d="M14.0005 13C14.5528 13 15.0005 12.5523 15.0005 12C15.0005 11.4477 14.5528 11 14.0005 11L10 11C9.44772 11 9 11.4477 9 12C9 12.5523 9.44772 13 10 13H14.0005Z" fill="black"/>
<path fill-rule="evenodd" clip-rule="evenodd" d="M22 13.8132V11.1223L21.9841 11.1156C21.9693 10.7073 21.9449 10.312 21.9133 9.93219C21.7516 7.9906 21.6708 7.0198 20.3813 5.72578C19.0919 4.43177 18.0792 4.34389 16.054 4.16812C14.9013 4.06808 13.5492 4.00049 11.9999 4.00049C10.45 4.00049 9.09751 4.06813 7.94464 4.16822C5.92029 4.34399 4.90812 4.43187 3.61875 5.72565C2.32939 7.01944 2.24849 7.98972 2.08669 9.93028C2.03258 10.5793 1.99951 11.2734 1.99951 12.0005C1.99951 12.7277 2.03258 13.4218 2.0867 14.0708C2.2485 16.0113 2.3294 16.9816 3.61875 18.2754C4.9081 19.5691 5.92022 19.657 7.94448 19.8328C9.09739 19.9329 10.4499 20.0006 11.9999 20.0006C12.9206 20.0006 13.7717 19.9767 14.5526 19.9363C17.5192 21.684 19.1783 22.4583 20.4781 21.7223C22 20.8606 22 18.5115 22 13.8132ZM19.9201 10.0981C19.9493 10.4485 19.9718 10.8126 19.9854 11.1881L20 13.8132C20 16.23 19.9947 17.8126 19.8315 18.913C19.7529 19.4425 19.6543 19.7238 19.5806 19.8667C19.5306 19.9636 19.5051 19.9759 19.4951 19.9807L19.4927 19.9819L19.4902 19.9834C19.4773 19.9908 19.4631 19.999 19.4024 19.9996C19.3118 20.0004 19.1209 19.9808 18.7801 19.8657C18.0572 19.6217 17.0705 19.0984 15.5678 18.2131L15.0498 17.908L14.4494 17.939C13.7027 17.9776 12.886 18.0006 11.9999 18.0006C10.5082 18.0006 9.21339 17.9355 8.1175 17.8403C7.03895 17.7466 6.51593 17.6918 6.09515 17.5621C5.78302 17.4659 5.48285 17.3126 5.03538 16.8636C4.57763 16.4043 4.42909 16.1086 4.33929 15.8205C4.21666 15.427 4.16624 14.9416 4.07979 13.9047C4.02985 13.3058 3.99951 12.6673 3.99951 12.0005C3.99951 11.3338 4.02985 10.6953 4.07978 10.0965C4.16623 9.05953 4.21664 8.57404 4.33928 8.18056C4.42908 7.89247 4.57763 7.59677 5.03539 7.13744C5.48285 6.68844 5.78303 6.53516 6.09518 6.43895C6.51598 6.30925 7.03905 6.25438 8.11764 6.16073C9.2135 6.06558 10.5082 6.00049 11.9999 6.00049C13.491 6.00049 14.7854 6.06554 15.8811 6.16063C16.9601 6.25428 17.4835 6.30916 17.9046 6.43892C18.217 6.53517 18.5172 6.6885 18.9646 7.13751C19.4223 7.59682 19.5709 7.89262 19.6607 8.18096C19.7834 8.57475 19.8338 9.06065 19.9201 10.0981Z" fill="black"/>
</svg>
