<svg width="54" height="16" viewBox="0 0 54 16" fill="none" xmlns="http://www.w3.org/2000/svg">
<path d="M48.4692 0.207764H38.1133C38.7165 3.62624 42.0345 6.84363 45.654 6.84363H53.8986C53.9991 6.542 53.9991 6.03928 53.9991 5.73765C53.9991 2.72135 51.4855 0.207764 48.4692 0.207764Z" fill="url(#paint0_linear_3310_2770)"/>
<path d="M39.0195 7.4469V15.792H44.0467V11.3681H48.4706C50.8836 11.3681 52.9951 9.65885 53.6989 7.4469H39.0195Z" fill="#4FAD50"/>
<path d="M21.3223 0.207764V15.6915H25.7462C25.7462 15.6915 26.8522 15.6914 27.4554 14.5855C30.4717 8.65341 31.3766 6.84363 31.3766 6.84363H31.9799V15.6915H37.007V0.207764H32.5831C32.5831 0.207764 31.4771 0.308313 30.8739 1.31375C28.3603 6.44146 26.9527 9.05558 26.9527 9.05558H26.3494V0.207764H21.3223Z" fill="#4FAD50"/>
<path d="M0.208984 15.7923V0.308594H5.23615C5.23615 0.308594 6.64377 0.308591 7.44812 2.52055C9.45899 8.35206 9.66009 9.15641 9.66009 9.15641C9.66009 9.15641 10.0622 7.7488 11.872 2.52055C12.6764 0.308591 14.084 0.308594 14.084 0.308594H19.1112V15.7923H14.084V7.44718H13.4807L10.6655 15.7923H8.45355L5.63835 7.44718H5.03508V15.7923H0.208984Z" fill="#4FAD50"/>
<defs>
<linearGradient id="paint0_linear_3310_2770" x1="38.0954" y1="3.57326" x2="53.9635" y2="3.57326" gradientUnits="userSpaceOnUse">
<stop stop-color="#27B1E6"/>
<stop offset="1" stop-color="#148ACA"/>
</linearGradient>
</defs>
</svg>
