<svg class="promo-cards__card-heading-icon" width="44" height="44" viewBox="0 0 44 44" fill="none" xmlns="http://www.w3.org/2000/svg"><path d="M0 19.2C0 12.4794 0 9.11905 1.30792 6.55211C2.4584 4.29417 4.29417 2.4584 6.55211 1.30792C9.11905 0 12.4794 0 19.2 0H24.8C31.5206 0 34.8809 0 37.4479 1.30792C39.7058 2.4584 41.5416 4.29417 42.6921 6.55211C44 9.11905 44 12.4794 44 19.2V24.8C44 31.5206 44 34.8809 42.6921 37.4479C41.5416 39.7058 39.7058 41.5416 37.4479 42.6921C34.8809 44 31.5206 44 24.8 44H19.2C12.4794 44 9.11905 44 6.55211 42.6921C4.29417 41.5416 2.4584 39.7058 1.30792 37.4479C0 34.8809 0 31.5206 0 24.8V19.2Z" fill="url(#paint0_linear_98_79905)" /><path fill-rule="evenodd" clip-rule="evenodd" d="M22 9.22397L11.5156 13.8837V20.8733C11.5156 29.9947 19.0166 34.2537 22 34.8524C24.9834 34.2537 32.4844 29.9947 32.4844 20.8733V13.8837L22 9.22397ZM27.4705 17.244C27.202 16.9755 26.7667 16.9755 26.4982 17.244L20.1953 23.5469L17.5017 20.7805C17.2343 20.5058 16.794 20.5029 16.523 20.7739L15.6111 21.6858C15.3427 21.9542 15.3427 22.3895 15.6111 22.658L20.1953 27.2422L28.384 19.1346C28.6548 18.8665 28.6559 18.4293 28.3864 18.1599L27.4705 17.244Z" fill="url(#paint1_linear_98_79905)" /><path fill-rule="evenodd" clip-rule="evenodd" d="M9.10938 11.9739L22 6.24478L34.8906 11.9739V20.5677C34.8906 31.7825 25.6681 37.019 22 37.7552C18.3319 37.019 9.10938 31.7825 9.10938 20.5677V11.9739ZM11.6875 13.9792L22 9.39582L32.3125 13.9792V20.8542C32.3125 29.826 24.9345 34.0152 22 34.6042C19.0655 34.0152 11.6875 29.826 11.6875 20.8542V13.9792Z" fill="url(#paint2_linear_98_79905)" /><path d="M22 6.24478L9.10938 11.9739V20.5677C9.10938 31.7825 18.3319 37.019 22 37.7552V34.6042C19.0655 34.0152 11.6875 29.826 11.6875 20.8542V13.9792L22 9.39582V6.24478Z" fill="url(#paint3_linear_98_79905)" /><defs><linearGradient id="paint0_linear_98_79905" x1="22" y1="66" x2="66" y2="22" gradientUnits="userSpaceOnUse"><stop stop-color="#E30611" /><stop offset="1" stop-color="#FF535C" /></linearGradient><linearGradient id="paint1_linear_98_79905" x1="25.4948" y1="22.0382" x2="8.38827" y2="33.6893" gradientUnits="userSpaceOnUse"><stop stop-color="white" /><stop offset="0.629302" stop-color="#FFF5F5" /><stop offset="1" stop-color="#E3B4BA" /></linearGradient><linearGradient id="paint2_linear_98_79905" x1="20.8828" y1="20.0683" x2="41.6054" y2="20.0683" gradientUnits="userSpaceOnUse"><stop stop-color="white" /><stop offset="0.560106" stop-color="#FFF5F5" /><stop offset="1" stop-color="#E3B4BA" /></linearGradient><linearGradient id="paint3_linear_98_79905" x1="8.12109" y1="15.8555" x2="32.4624" y2="16.7466" gradientUnits="userSpaceOnUse"><stop stop-color="white" /><stop offset="0.461981" stop-color="#FFF5F5" /><stop offset="1" stop-color="#E3B4BA" /></linearGradient></defs></svg>