<svg width="144" height="144" viewBox="0 0 144 144" fill="none" xmlns="http://www.w3.org/2000/svg">
<g clip-path="url(#clip0_54_194)">
<path d="M103 0H41C18.3563 0 0 18.3563 0 41V103C0 125.644 18.3563 144 41 144H103C125.644 144 144 125.644 144 103V41C144 18.3563 125.644 0 103 0Z" fill="#FF0024"/>
<path d="M49.6891 82.3536H113.993V56.0666H50.5825V54.2726L113.056 45.7129L108.663 19.792L45.3251 30.4898C38.8615 31.5725 33.0414 35.0461 29.0203 40.221C24.9992 45.396 23.0711 51.8938 23.6187 58.4244C24.1664 64.9551 27.1498 71.041 31.9767 75.4739C36.8036 79.9068 43.1209 82.3626 49.6745 82.3536H49.6891Z" fill="white"/>
<path d="M114.001 89.1348H29.875V115.444H114.001V89.1348Z" fill="white"/>
</g>
<defs>
<clipPath id="clip0_54_194">
<rect width="144" height="144" fill="white"/>
</clipPath>
</defs>
</svg>
