<?xml version="1.0" encoding="UTF-8" standalone="no"?>
<svg
   width="70"
   height="70"
   viewBox="0 0 70 70"
   fill="none"
   version="1.1"
   id="svg3044"
   xmlns="http://www.w3.org/2000/svg"
   xmlns:svg="http://www.w3.org/2000/svg">
  <path
     width="70"
     height="70"
     fill="url(#paint0_linear_1324_196)"
     id="rect3008"
     style="fill:url(#paint0_linear_1324_196);stroke-width:0.35"
     x="0"
     y="0"
     d="M 18,0 H 52 A 18,18 45 0 1 70,18 V 52 A 18,18 135 0 1 52,70 H 18 A 18,18 45 0 1 0,52 V 18 A 18,18 135 0 1 18,0 Z" />
  <path
     fill-rule="evenodd"
     clip-rule="evenodd"
     d="M 32.44759,15.28359 H 39.4555 V 47.9633 l -7.00791,-9.9967 z"
     fill="url(#paint1_linear_1324_196)"
     id="path3010"
     style="fill:url(#paint1_linear_1324_196);stroke-width:0.35" />
  <ellipse
     cx="28.830551"
     cy="47.963299"
     rx="10.625091"
     ry="10.62936"
     fill="url(#paint2_linear_1324_196)"
     id="ellipse3012"
     style="fill:url(#paint2_linear_1324_196);stroke-width:0.35" />
  <path
     fill-rule="evenodd"
     clip-rule="evenodd"
     d="M 33.354545,10.29063 53.2483,19.827885 c 0.2695,0.129255 0.4494,0.406595 0.4494,0.69307 v 10.20565 c 0,0.37471 -0.30345,0.641725 -0.6783,0.596435 -0.0777,-0.0094 -0.15505,-0.03224 -0.22855,-0.06741 L 32.897025,21.71834 C 32.627455,21.58912 32.44759,21.311745 32.44759,21.025305 v -10.20565 c 0,-0.37471 0.303625,-0.64176 0.678195,-0.59647 0.07798,0.0094 0.155365,0.03227 0.22876,0.06744 z"
     fill="url(#paint3_linear_1324_196)"
     id="path3014"
     style="fill:url(#paint3_linear_1324_196);stroke-width:0.35" />
  <defs
     id="defs3042">
    <linearGradient
       id="paint0_linear_1324_196"
       x1="100"
       y1="300"
       x2="300"
       y2="100"
       gradientUnits="userSpaceOnUse"
       gradientTransform="scale(0.35)">
      <stop
         stop-color="#E30611"
         id="stop3016" />
      <stop
         offset="1"
         stop-color="#FF535C"
         id="stop3018" />
    </linearGradient>
    <linearGradient
       id="paint1_linear_1324_196"
       x1="108.789"
       y1="60.937599"
       x2="80.468697"
       y2="150"
       gradientUnits="userSpaceOnUse"
       gradientTransform="scale(0.35)">
      <stop
         stop-color="white"
         id="stop3021" />
      <stop
         offset="0.45485"
         stop-color="#FFF5F5"
         id="stop3023" />
      <stop
         offset="1"
         stop-color="#E3B4BA"
         id="stop3025" />
    </linearGradient>
    <linearGradient
       id="paint2_linear_1324_196"
       x1="95.898499"
       y1="112.305"
       x2="54.716999"
       y2="185.563"
       gradientUnits="userSpaceOnUse"
       gradientTransform="scale(0.35)">
      <stop
         stop-color="white"
         id="stop3028" />
      <stop
         offset="0.520066"
         stop-color="#FFF5F5"
         id="stop3030" />
      <stop
         offset="1"
         stop-color="#EEBEC4"
         id="stop3032" />
    </linearGradient>
    <linearGradient
       id="paint3_linear_1324_196"
       x1="140.039"
       y1="29.2969"
       x2="63.278099"
       y2="88.946404"
       gradientUnits="userSpaceOnUse"
       gradientTransform="scale(0.35)">
      <stop
         stop-color="white"
         id="stop3035" />
      <stop
         offset="0.45485"
         stop-color="#FFF5F5"
         id="stop3037" />
      <stop
         offset="1"
         stop-color="#EEBEC4"
         id="stop3039" />
    </linearGradient>
  </defs>
</svg>
