<?xml version="1.0" encoding="UTF-8" standalone="no"?>
<svg
   width="70"
   height="70"
   viewBox="0 0 70 70"
   fill="none"
   version="1.1"
   id="svg2591"
   xmlns="http://www.w3.org/2000/svg"
   xmlns:svg="http://www.w3.org/2000/svg">
  <path
     width="70"
     height="70"
     fill="url(#paint0_linear_1324_222)"
     id="rect2580"
     style="fill:url(#paint0_linear_1324_222);stroke-width:0.35"
     x="0"
     y="0"
     d="M 18,0 H 52 A 18,18 45 0 1 70,18 V 52 A 18,18 135 0 1 52,70 H 18 A 18,18 45 0 1 0,52 V 18 A 18,18 135 0 1 18,0 Z" />
  <path
     fill-rule="evenodd"
     clip-rule="evenodd"
     d="m 34.90074,58.6215 c -11.668965,0 -16.877315,-9.3478 -16.877315,-18.6151 0,-6.34018 2.1357,-13.62851 5.727085,-19.517015 3.449565,-5.680395 7.626955,-9.065455 11.15023,-9.065455 3.51036,0 7.69426,3.38506 11.17046,9.065455 3.5777,5.888505 5.7197,13.176835 5.7197,19.517015 0,9.2673 -5.2213,18.6151 -16.89016,18.6151 z"
     fill="#ffffff"
     id="path2582"
     style="stroke-width:0.35" />
  <defs
     id="defs2589">
    <linearGradient
       id="paint0_linear_1324_222"
       x1="100"
       y1="300"
       x2="300"
       y2="100"
       gradientUnits="userSpaceOnUse"
       gradientTransform="scale(0.35)">
      <stop
         stop-color="#E30611"
         id="stop2584" />
      <stop
         offset="1"
         stop-color="#FF535C"
         id="stop2586" />
    </linearGradient>
  </defs>
</svg>
