<svg width="24" height="24" viewBox="0 0 24 24" fill="none" xmlns="http://www.w3.org/2000/svg">
<path fill-rule="evenodd" clip-rule="evenodd" d="M18.1985 11.0408C17.3195 10.3185 15.9239 9.48699 13.824 8.22702L12.0575 7.16714C9.98506 5.92368 8.62575 5.11402 7.59818 4.68787C7.10374 4.48281 6.81174 4.42259 6.65132 4.41229C6.54245 4.4053 6.51878 4.42086 6.50953 4.42694L6.5073 4.42835L6.50495 4.42953C6.49497 4.43434 6.46946 4.44663 6.41944 4.54358C6.34573 4.68644 6.24714 4.96781 6.16858 5.49729C6.00533 6.59768 6 8.18027 6 10.5971L6 13.4029C6 15.8197 6.00533 17.4023 6.16858 18.5027C6.24714 19.0321 6.34573 19.3135 6.41944 19.4564C6.46946 19.5533 6.49497 19.5656 6.50495 19.5704L6.5073 19.5716L6.50953 19.573C6.51878 19.5791 6.54244 19.5947 6.65132 19.5877C6.81174 19.5774 7.10374 19.5171 7.59818 19.3121C8.62575 18.8859 9.98506 18.0763 12.0575 16.8328L13.824 15.7729C15.9239 14.513 17.3195 13.6815 18.1985 12.9592C19.0372 12.2699 19.0023 12.0168 19.0001 12.0007V11.9992C19.0023 11.9831 19.0372 11.73 18.1985 11.0408ZM21 12C21 10.1882 18.9376 8.96279 14.8529 6.51203L13.0865 5.45215C9.0577 3.03489 7.0438 1.82626 5.5219 2.68795C4 3.54963 4 5.89879 4 10.5971V13.4029C4 18.1012 4 20.4503 5.5219 21.312C7.0438 22.1737 9.0577 20.9651 13.0865 18.5478L14.8529 17.4879C18.9376 15.0372 21 13.8118 21 12Z" fill="black"/>
</svg>
