<svg width="143" height="27" viewBox="0 0 143 27" fill="none" xmlns="http://www.w3.org/2000/svg">
<path d="M59.5141 20.8224L62.1459 26.5973H57.5832L55.2556 21.5089H53.1792V26.5973H48.8281V11.3323H56.2342C59.7786 11.3323 61.8814 13.0822 61.8814 16.3533C61.8946 18.5206 61.035 20.0282 59.5141 20.8224ZM57.4377 16.1783C57.4377 15.3572 56.9748 14.8726 55.9565 14.8726H53.1792V17.9686H55.9565C56.9352 17.9686 57.4377 17.4571 57.4377 16.6225V16.1783Z" fill="white"/>
<path d="M64.8691 26.597V11.332H76.256V14.98H69.2202V16.9723H74.4574V20.5126H69.2202V22.9491H76.2825V26.597H64.8691Z" fill="white"/>
<path d="M88.2897 20.0684L90.2867 11.332H96.8067V26.597H92.4556V15.0473L90.1677 24.7798H85.5389L83.2509 15.0473V26.597H79.2305V11.332H86.2927L88.2897 20.0684Z" fill="white"/>
<path d="M100.193 26.597V11.332H104.544V26.597H100.193Z" fill="white"/>
<path d="M116.923 20.7145V11.332H121.274V20.7145C121.274 25.2509 118.867 26.9336 114.542 26.9336C110.244 26.9336 107.811 25.2509 107.811 20.7145V11.332H112.162V20.7145C112.162 22.9491 112.982 23.3933 114.555 23.3933C116.09 23.3933 116.923 22.9491 116.923 20.7145Z" fill="white"/>
<path d="M133.571 20.0684L135.568 11.332H142.088V26.597H137.737V15.0473L135.449 24.7798H130.82L128.532 15.0473V26.597H124.512V11.332H131.574L133.571 20.0684Z" fill="white"/>
<path d="M24.9575 16.9723H19.2574V11.332H15.2899V16.9723H9.58984V20.6203H15.2899V26.597H19.2574V20.6203H24.9575V16.9723Z" fill="#E60311"/>
<path d="M15.2883 5.692H9.58824V0.0517578H5.70005V5.692H0V9.33999H5.70005V14.9802H9.58824V9.33999H15.2883V5.692Z" fill="#E60311"/>
<path d="M41.2091 11.3319H33.6708H31.0919V5.69165H27.1375V11.3319H21.4375V14.9799H27.1375V20.6201H31.0919V14.9799H40.6669C41.553 14.9799 42.0423 15.5991 42.0423 16.3529V17.0125C42.0423 17.8067 41.5662 18.2913 40.6669 18.2913H37.6251V16.9587H33.274V26.5834H37.6251V21.9393H41.2091C44.7931 21.9393 46.486 20.0548 46.486 16.7029C46.4992 13.2972 44.7931 11.3319 41.2091 11.3319Z" fill="white"/>
</svg>
