<svg width="203" height="203" viewBox="0 0 203 203" fill="none" xmlns="http://www.w3.org/2000/svg">
<path d="M66.5 0C68.4331 0 70 1.56702 70 3.5C70 5.43308 68.4331 7 66.5 7C64.567 7 63 5.43308 63 3.5C63 1.56702 64.567 0 66.5 0Z" fill="black"/>
<path d="M80.5 0C81.3158 0 84 0 84 0C84 0 84 2.38255 84 3.5C84 4.37227 84 7 84 7C84 7 81.5609 7 80.5 7C78.5663 7 77 5.43229 77 3.5C77 1.56748 78.5663 0 80.5 0Z" fill="black"/>
<path d="M84 0V7H91C91 3.13394 87.866 0 84 0Z" fill="black"/>
<path d="M101.5 0C103.433 0 105 1.56702 105 3.5C105 5.43308 103.433 7 101.5 7C99.567 7 98 5.43308 98 3.5C98 1.56702 99.567 0 101.5 0Z" fill="black"/>
<path d="M140 3.5C140 4.31572 140 7 140 7C140 7 137.617 7 136.5 6.99983C135.627 7 133 6.99983 133 6.99983C133 6.99983 133 4.56046 133 3.49992C133 1.56703 134.567 0 136.5 0C138.433 0 140 1.56702 140 3.5Z" fill="black"/>
<path d="M59.5 7C61.4331 7 63 8.56702 63 10.5C63 12.4331 61.4331 14 59.5 14C57.567 14 56 12.4331 56 10.5C56 8.56702 57.567 7 59.5 7Z" fill="black"/>
<path d="M73.5 7C75.4331 7 77 8.56702 77 10.5C77 12.4331 75.4331 14 73.5 14C71.567 14 70 12.4331 70 10.5C70 8.56702 71.567 7 73.5 7Z" fill="black"/>
<path d="M91 14V7H84C84 10.866 87.1339 14 91 14Z" fill="black"/>
<path d="M94.5 14C93.6842 14 91 14 91 14C91 14 91 11.6171 91 10.5C91 9.62746 91 7 91 7C91 7 93.4397 7 94.5 7C96.4329 7 98 8.56701 98 10.5C98 12.4329 96.4329 14 94.5 14Z" fill="black"/>
<path d="M140 7H133V14H140V7Z" fill="black"/>
<path d="M143.5 14C142.684 14 140 14 140 14C140 14 140 11.6171 140 10.5C140 9.62746 140 7 140 7C140 7 142.44 7 143.5 7C145.433 7 147 8.56701 147 10.5C147 12.4329 145.433 14 143.5 14Z" fill="black"/>
<path d="M84 17.5C84 18.3157 84 21 84 21C84 21 81.6173 21 80.5 20.9998C79.6275 21 77 20.9998 77 20.9998C77 20.9998 77 18.5605 77 17.4999C77.0001 15.567 78.567 14 80.4999 14C82.4329 14 84 15.567 84 17.5Z" fill="black"/>
<path d="M108.5 14C110.433 14 112 15.567 112 17.5C112 19.4331 110.433 21 108.5 21C106.567 21 105 19.4331 105 17.5C105 15.567 106.567 14 108.5 14Z" fill="black"/>
<path d="M126 21H133V14C129.134 14 126 17.134 126 21Z" fill="black"/>
<path d="M140 14H133V21C136.866 21 140 17.866 140 14Z" fill="black"/>
<path d="M84 21H77V28H84V21Z" fill="black"/>
<path d="M98 24.5C98 25.3157 98 28 98 28C98 28 95.6173 28 94.5 27.9998C93.6275 28 91 27.9998 91 27.9998C91 27.9998 91 25.5605 91 24.4999C91.0001 22.567 92.567 21 94.4999 21C96.4329 21 98 22.567 98 24.5Z" fill="black"/>
<path d="M119 24.5C119 25.3157 119 28 119 28C119 28 116.617 28 115.5 27.9998C114.627 28 112 27.9998 112 27.9998C112 27.9998 112 25.5605 112 24.4999C112 22.567 113.567 21 115.5 21C117.433 21 119 22.567 119 24.5Z" fill="black"/>
<path d="M133 21H126V28H133V21Z" fill="black"/>
<path d="M59.5 28C61.4331 28 63 29.567 63 31.5C63 33.4331 61.4331 35 59.5 35C57.567 35 56 33.4331 56 31.5C56 29.567 57.567 28 59.5 28Z" fill="black"/>
<path d="M73.5 28C74.3158 28 77 28 77 28C77 28 77 30.3825 77 31.5C77 32.3723 77 35 77 35C77 35 74.5609 35 73.5 35C71.5663 35 70 33.4323 70 31.5C70 29.5675 71.5663 28 73.5 28Z" fill="black"/>
<path d="M84 28H77V35C80.866 35 84 31.866 84 28Z" fill="black"/>
<path d="M91 31.5C91 30.6842 91 28 91 28C91 28 93.3828 28 94.5 28C95.3725 28 98 28 98 28C98 28 98 30.4397 98 31.5C98 33.4329 96.4329 35 94.5 35C92.567 35 91 33.4329 91 31.5Z" fill="black"/>
<path d="M119 28H112V35H119V28Z" fill="black"/>
<path d="M126 28H119V35H126V28Z" fill="black"/>
<path d="M133 28H126V35H133V28Z" fill="black"/>
<path d="M140 28H133V35H140V28Z" fill="black"/>
<path d="M140 28V35H147C147 31.1339 143.866 28 140 28Z" fill="black"/>
<path d="M66.5 35C68.4331 35 70 36.567 70 38.5C70 40.4331 68.4331 42 66.5 42C64.567 42 63 40.4331 63 38.5C63 36.567 64.567 35 66.5 35Z" fill="black"/>
<path d="M98 42H105V35C101.134 35 98 38.134 98 42Z" fill="black"/>
<path d="M112 35H105V42H112V35Z" fill="black"/>
<path d="M119 35H112V42H119V35Z" fill="black"/>
<path d="M140 42V35H133C133 38.866 136.134 42 140 42Z" fill="black"/>
<path d="M147 35H140V42H147V35Z" fill="black"/>
<path d="M59.5 42C61.4331 42 63 43.567 63 45.5C63 47.4331 61.4331 49 59.5 49C57.567 49 56 47.4331 56 45.5C56 43.567 57.567 42 59.5 42Z" fill="black"/>
<path d="M73.5 42C75.4331 42 77 43.567 77 45.5C77 47.4331 75.4331 49 73.5 49C71.567 49 70 47.4331 70 45.5C70 43.567 71.567 42 73.5 42Z" fill="black"/>
<path d="M87.5 42C89.4331 42 91 43.567 91 45.5C91 47.4331 89.4331 49 87.5 49C85.567 49 84 47.4331 84 45.5C84 43.567 85.567 42 87.5 42Z" fill="black"/>
<path d="M98 45.5C98 44.6842 98 42 98 42C98 42 100.383 42 101.5 42C102.373 42 105 42 105 42C105 42 105 44.4397 105 45.5C105 47.4329 103.433 49 101.5 49C99.567 49 98 47.4329 98 45.5Z" fill="black"/>
<path d="M112 45.5C112 44.6842 112 42 112 42C112 42 114.383 42 115.5 42C116.373 42 119 42 119 42C119 42 119 44.4397 119 45.5C119 47.4329 117.433 49 115.5 49C113.567 49 112 47.4329 112 45.5Z" fill="black"/>
<path d="M133 45.5C133 46.3157 133 49 133 49C133 49 130.617 49 129.5 48.9998C128.627 49 126 48.9998 126 48.9998C126 48.9998 126 46.5605 126 45.4999C126 43.567 127.567 42 129.5 42C131.433 42 133 43.567 133 45.5Z" fill="black"/>
<path d="M147 42H140V49H147V42Z" fill="black"/>
<path d="M80.5 49C82.4331 49 84 50.567 84 52.5C84 54.4331 82.4331 56 80.5 56C78.567 56 77 54.4331 77 52.5C77 50.567 78.567 49 80.5 49Z" fill="black"/>
<path d="M108.5 49C110.433 49 112 50.567 112 52.5C112 54.4331 110.433 56 108.5 56C106.567 56 105 54.4331 105 52.5C105 50.567 106.567 49 108.5 49Z" fill="black"/>
<path d="M122.5 49C123.316 49 126 49 126 49C126 49 126 51.3825 126 52.5C126 53.3723 126 56 126 56C126 56 123.561 56 122.5 56C120.566 56 119 54.4323 119 52.5C119 50.5675 120.566 49 122.5 49Z" fill="black"/>
<path d="M133 49H126V56H133V49Z" fill="black"/>
<path d="M140 49H133V56H140V49Z" fill="black"/>
<path d="M147 49H140V56H147V49Z" fill="black"/>
<path d="M7 59.5C7 60.3157 7 63 7 63C7 63 4.61728 63 3.5 62.9998C2.62746 63 0 62.9998 0 62.9998C0 62.9998 0 60.5605 0 59.4999C8.4e-05 57.567 1.56701 56 3.49992 56C5.4329 56 7 57.567 7 59.5Z" fill="black"/>
<path d="M17.5 56C19.4331 56 21 57.567 21 59.5C21 61.4331 19.4331 63 17.5 63C15.567 63 14 61.4331 14 59.5C14 57.567 15.567 56 17.5 56Z" fill="black"/>
<path d="M35 59.5C35 60.3157 35 63 35 63C35 63 32.6173 63 31.5 62.9998C30.6275 63 28 62.9998 28 62.9998C28 62.9998 28 60.5605 28 59.4999C28.0001 57.567 29.567 56 31.4999 56C33.4329 56 35 57.567 35 59.5Z" fill="black"/>
<path d="M45.5 56C47.4331 56 49 57.567 49 59.5C49 61.4331 47.4331 63 45.5 63C43.567 63 42 61.4331 42 59.5C42 57.567 43.567 56 45.5 56Z" fill="black"/>
<path d="M63 63H70V56C66.1341 56 63 59.134 63 63Z" fill="black"/>
<path d="M73.5 63C72.6842 63 70 63 70 63C70 63 70 60.6171 70 59.5C70 58.6275 70 56 70 56C70 56 72.4397 56 73.5 56C75.4329 56 77 57.567 77 59.5C77 61.4329 75.4329 63 73.5 63Z" fill="black"/>
<path d="M119 59.5C119 60.3157 119 63 119 63C119 63 116.617 63 115.5 62.9998C114.627 63 112 62.9998 112 62.9998C112 62.9998 112 60.5605 112 59.4999C112 57.567 113.567 56 115.5 56C117.433 56 119 57.567 119 59.5Z" fill="black"/>
<path d="M147 56H140V63H147V56Z" fill="black"/>
<path d="M171.5 56C173.433 56 175 57.567 175 59.5C175 61.4331 173.433 63 171.5 63C169.567 63 168 61.4331 168 59.5C168 57.567 169.567 56 171.5 56Z" fill="black"/>
<path d="M192.5 56C194.433 56 196 57.567 196 59.5C196 61.4331 194.433 63 192.5 63C190.567 63 189 61.4331 189 59.5C189 57.567 190.567 56 192.5 56Z" fill="black"/>
<path d="M7 63H0V70H7V63Z" fill="black"/>
<path d="M35 70V63H28C28 66.866 31.1339 70 35 70Z" fill="black"/>
<path d="M38.5 70C37.6842 70 35 70 35 70C35 70 35 67.6171 35 66.5C35 65.6275 35 63 35 63C35 63 37.4397 63 38.5 63C40.4329 63 42 64.567 42 66.5C42 68.4329 40.4329 70 38.5 70Z" fill="black"/>
<path d="M70 63H63V70H70V63Z" fill="black"/>
<path d="M84 70H91V63C87.1341 63 84 66.134 84 70Z" fill="black"/>
<path d="M94.5 70C93.6842 70 91 70 91 70C91 70 91 67.6171 91 66.5C91 65.6275 91 63 91 63C91 63 93.4397 63 94.5 63C96.4329 63 98 64.567 98 66.5C98 68.4329 96.4329 70 94.5 70Z" fill="black"/>
<path d="M105 70H112V63C108.134 63 105 66.134 105 70Z" fill="black"/>
<path d="M119 63H112V70H119V63Z" fill="black"/>
<path d="M147 70V63H140C140 66.866 143.134 70 147 70Z" fill="black"/>
<path d="M154 63H147V70H154V63Z" fill="black"/>
<path d="M157.5 70C156.684 70 154 70 154 70C154 70 154 67.6171 154 66.5C154 65.6275 154 63 154 63C154 63 156.44 63 157.5 63C159.433 63 161 64.567 161 66.5C161 68.4329 159.433 70 157.5 70Z" fill="black"/>
<path d="M178.5 63C180.433 63 182 64.567 182 66.5C182 68.4331 180.433 70 178.5 70C176.567 70 175 68.4331 175 66.5C175 64.567 176.567 63 178.5 63Z" fill="black"/>
<path d="M203 66.5C203 67.3157 203 70 203 70C203 70 200.617 70 199.5 69.9998C198.627 70 196 69.9998 196 69.9998C196 69.9998 196 67.5605 196 66.4999C196 64.567 197.567 63 199.5 63C201.433 63 203 64.567 203 66.5Z" fill="black"/>
<path d="M7 77V70H0C1.4e-05 73.866 3.13394 77 7 77Z" fill="black"/>
<path d="M14 70H7V77H14V70Z" fill="black"/>
<path d="M21 70H14V77H21V70Z" fill="black"/>
<path d="M24.5 77C23.6842 77 21 77 21 77C21 77 21 74.6171 21 73.5C21 72.6275 21 70 21 70C21 70 23.4397 70 24.5 70C26.4329 70 28 71.567 28 73.5C28 75.4329 26.4329 77 24.5 77Z" fill="black"/>
<path d="M45.5 70C47.4331 70 49 71.567 49 73.5C49 75.4331 47.4331 77 45.5 77C43.567 77 42 75.4331 42 73.5C42 71.567 43.567 70 45.5 70Z" fill="black"/>
<path d="M59.5 70C60.3158 70 63 70 63 70C63 70 63 72.3825 63 73.5C63 74.3723 63 77 63 77C63 77 60.5609 77 59.5 77C57.5663 77 56 75.4323 56 73.5C56 71.5675 57.5663 70 59.5 70Z" fill="black"/>
<path d="M70 70H63V77H70V70Z" fill="black"/>
<path d="M73.5 77C72.6842 77 70 77 70 77C70 77 70 74.6171 70 73.5C70 72.6275 70 70 70 70C70 70 72.4397 70 73.5 70C75.4329 70 77 71.567 77 73.5C77 75.4329 75.4329 77 73.5 77Z" fill="black"/>
<path d="M91 70H84V77H91V70Z" fill="black"/>
<path d="M98 77H105V70C101.134 70 98 73.134 98 77Z" fill="black"/>
<path d="M112 70H105V77H112V70Z" fill="black"/>
<path d="M119 70H112V77H119V70Z" fill="black"/>
<path d="M119 70V77H126C126 73.1339 122.866 70 119 70Z" fill="black"/>
<path d="M154 70H147V77H154V70Z" fill="black"/>
<path d="M164.5 70C166.433 70 168 71.567 168 73.5C168 75.4331 166.433 77 164.5 77C162.567 77 161 75.4331 161 73.5C161 71.567 162.567 70 164.5 70Z" fill="black"/>
<path d="M185.5 70C186.316 70 189 70 189 70C189 70 189 72.3825 189 73.5C189 74.3723 189 77 189 77C189 77 186.561 77 185.5 77C183.566 77 182 75.4323 182 73.5C182 71.5675 183.566 70 185.5 70Z" fill="black"/>
<path d="M196 70H189V77H196V70Z" fill="black"/>
<path d="M203 70H196V77C199.866 77 203 73.866 203 70Z" fill="black"/>
<path d="M14 77H7V84H14V77Z" fill="black"/>
<path d="M42 80.5C42 81.3157 42 84 42 84C42 84 39.6173 84 38.5 83.9998C37.6275 84 35 83.9998 35 83.9998C35 83.9998 35 81.5605 35 80.4999C35.0001 78.567 36.567 77 38.4999 77C40.4329 77 42 78.567 42 80.5Z" fill="black"/>
<path d="M56 80.5C56 81.3157 56 84 56 84C56 84 53.6173 84 52.5 83.9998C51.6275 84 49 83.9998 49 83.9998C49 83.9998 49 81.5605 49 80.4999C49.0001 78.567 50.567 77 52.4999 77C54.4329 77 56 78.567 56 80.5Z" fill="black"/>
<path d="M77 84H84V77C80.1341 77 77 80.134 77 84Z" fill="black"/>
<path d="M91 77H84V84H91V77Z" fill="black"/>
<path d="M98 77H91V84H98V77Z" fill="black"/>
<path d="M105 77H98V84H105V77Z" fill="black"/>
<path d="M119 84V77H112C112 80.866 115.134 84 119 84Z" fill="black"/>
<path d="M126 77H119V84H126V77Z" fill="black"/>
<path d="M133 77H126V84H133V77Z" fill="black"/>
<path d="M140 77H133V84H140V77Z" fill="black"/>
<path d="M147 77H140V84H147V77Z" fill="black"/>
<path d="M154 77H147V84H154V77Z" fill="black"/>
<path d="M154 77V84H161C161 80.1339 157.866 77 154 77Z" fill="black"/>
<path d="M171.5 77C173.433 77 175 78.567 175 80.5C175 82.4331 173.433 84 171.5 84C169.567 84 168 82.4331 168 80.5C168 78.567 169.567 77 171.5 77Z" fill="black"/>
<path d="M196 77H189V84H196V77Z" fill="black"/>
<path d="M7 87.5C7 86.6842 7 84 7 84C7 84 9.38281 84 10.5 84C11.3725 84 14 84 14 84C14 84 14 86.4397 14 87.5C14 89.4329 12.4329 91 10.5 91C8.56701 91 7 89.4329 7 87.5Z" fill="black"/>
<path d="M42 91V84H35C35 87.866 38.1339 91 42 91Z" fill="black"/>
<path d="M49 84H42V91H49V84Z" fill="black"/>
<path d="M56 84H49V91H56V84Z" fill="black"/>
<path d="M56 84V91H63C63 87.1339 59.866 84 56 84Z" fill="black"/>
<path d="M73.5 84C74.3158 84 77 84 77 84C77 84 77 86.3825 77 87.5C77 88.3723 77 91 77 91C77 91 74.5609 91 73.5 91C71.5663 91 70 89.4323 70 87.5C70 85.5675 71.5663 84 73.5 84Z" fill="black"/>
<path d="M84 84H77V91H84V84Z" fill="black"/>
<path d="M91 84H84V91H91V84Z" fill="black"/>
<path d="M105 84H98V91H105V84Z" fill="black"/>
<path d="M105 84V91H112C112 87.1339 108.866 84 105 84Z" fill="black"/>
<path d="M140 91V84H133C133 87.866 136.134 91 140 91Z" fill="black"/>
<path d="M147 84H140V91H147V84Z" fill="black"/>
<path d="M154 84H147V91H154V84Z" fill="black"/>
<path d="M161 84H154V91H161V84Z" fill="black"/>
<path d="M182 87.5C182 88.3157 182 91 182 91C182 91 179.617 91 178.5 90.9998C177.627 91 175 90.9998 175 90.9998C175 90.9998 175 88.5605 175 87.4999C175 85.567 176.567 84 178.5 84C180.433 84 182 85.567 182 87.5Z" fill="black"/>
<path d="M196 91V84H189C189 87.866 192.134 91 196 91Z" fill="black"/>
<path d="M196 84V91H203C203 87.1339 199.866 84 196 84Z" fill="black"/>
<path d="M3.5 91C5.43308 91 7 92.567 7 94.5C7 96.4331 5.43308 98 3.5 98C1.56702 98 0 96.4331 0 94.5C0 92.567 1.56702 91 3.5 91Z" fill="black"/>
<path d="M63 91H56V98H63V91Z" fill="black"/>
<path d="M91 91H84V98H91V91Z" fill="black"/>
<path d="M105 98V91H98C98 94.866 101.134 98 105 98Z" fill="black"/>
<path d="M112 91H105V98C108.866 98 112 94.866 112 91Z" fill="black"/>
<path d="M147 91H140V98H147V91Z" fill="black"/>
<path d="M154 91H147V98H154V91Z" fill="black"/>
<path d="M161 91H154V98H161V91Z" fill="black"/>
<path d="M182 91H175V98H182V91Z" fill="black"/>
<path d="M203 91H196V98H203V91Z" fill="black"/>
<path d="M14 101.5C14 102.316 14 105 14 105C14 105 11.6173 105 10.5 105C9.62746 105 7 105 7 105C7 105 7 102.56 7 101.5C7.00008 99.567 8.56701 98 10.4999 98C12.4329 98 14 99.567 14 101.5Z" fill="black"/>
<path d="M24.5 98C26.4331 98 28 99.567 28 101.5C28 103.433 26.4331 105 24.5 105C22.567 105 21 103.433 21 101.5C21 99.567 22.567 98 24.5 98Z" fill="black"/>
<path d="M38.5 98C39.3158 98 42 98 42 98C42 98 42 100.383 42 101.5C42 102.372 42 105 42 105C42 105 39.5609 105 38.5 105C36.5663 105 35 103.432 35 101.5C35 99.5675 36.5663 98 38.5 98Z" fill="black"/>
<path d="M49 98H42V105H49V98Z" fill="black"/>
<path d="M56 98H49V105H56V98Z" fill="black"/>
<path d="M63 98H56V105H63V98Z" fill="black"/>
<path d="M70 98H63V105H70V98Z" fill="black"/>
<path d="M77 98H70V105H77V98Z" fill="black"/>
<path d="M84 98H77V105H84V98Z" fill="black"/>
<path d="M91 98H84V105H91V98Z" fill="black"/>
<path d="M94.5 105C93.6842 105 91 105 91 105C91 105 91 102.617 91 101.5C91 100.627 91 98 91 98C91 98 93.4397 98 94.5 98C96.4329 98 98 99.567 98 101.5C98 103.433 96.4329 105 94.5 105Z" fill="black"/>
<path d="M126 101.5C126 102.316 126 105 126 105C126 105 123.617 105 122.5 105C121.627 105 119 105 119 105C119 105 119 102.56 119 101.5C119 99.567 120.567 98 122.5 98C124.433 98 126 99.567 126 101.5Z" fill="black"/>
<path d="M147 98H140V105H147V98Z" fill="black"/>
<path d="M154 98H147V105H154V98Z" fill="black"/>
<path d="M161 98H154V105C157.866 105 161 101.866 161 98Z" fill="black"/>
<path d="M182 98H175V105H182V98Z" fill="black"/>
<path d="M189 105H196V98C192.134 98 189 101.134 189 105Z" fill="black"/>
<path d="M203 98H196V105C199.866 105 203 101.866 203 98Z" fill="black"/>
<path d="M0 112H7V105C3.13405 105 0 108.134 0 112Z" fill="black"/>
<path d="M14 105H7V112H14V105Z" fill="black"/>
<path d="M56 105H49V112H56V105Z" fill="black"/>
<path d="M63 105H56V112H63V105Z" fill="black"/>
<path d="M70 105H63V112C66.866 112 70 108.866 70 105Z" fill="black"/>
<path d="M84 112V105H77C77 108.866 80.1339 112 84 112Z" fill="black"/>
<path d="M91 105H84V112C87.866 112 91 108.866 91 105Z" fill="black"/>
<path d="M108.5 105C110.433 105 112 106.567 112 108.5C112 110.433 110.433 112 108.5 112C106.567 112 105 110.433 105 108.5C105 106.567 106.567 105 108.5 105Z" fill="black"/>
<path d="M126 105H119V112H126V105Z" fill="black"/>
<path d="M147 105H140V112H147V105Z" fill="black"/>
<path d="M171.5 105C172.316 105 175 105 175 105C175 105 175 107.383 175 108.5C175 109.372 175 112 175 112C175 112 172.561 112 171.5 112C169.566 112 168 110.432 168 108.5C168 106.567 169.566 105 171.5 105Z" fill="black"/>
<path d="M182 105H175V112H182V105Z" fill="black"/>
<path d="M196 105H189V112H196V105Z" fill="black"/>
<path d="M7 119V112H0C1.4e-05 115.866 3.13394 119 7 119Z" fill="black"/>
<path d="M14 112H7V119C10.866 119 14 115.866 14 112Z" fill="black"/>
<path d="M38.5 112C39.3158 112 42 112 42 112C42 112 42 114.383 42 115.5C42 116.372 42 119 42 119C42 119 39.5609 119 38.5 119C36.5663 119 35 117.432 35 115.5C35 113.567 36.5663 112 38.5 112Z" fill="black"/>
<path d="M49 112H42V119H49V112Z" fill="black"/>
<path d="M56 112H49V119H56V112Z" fill="black"/>
<path d="M63 112H56V119C59.866 119 63 115.866 63 112Z" fill="black"/>
<path d="M112 119H119V112C115.134 112 112 115.134 112 119Z" fill="black"/>
<path d="M126 112H119V119H126V112Z" fill="black"/>
<path d="M133 112H126V119H133V112Z" fill="black"/>
<path d="M140 112H133V119H140V112Z" fill="black"/>
<path d="M147 112H140V119H147V112Z" fill="black"/>
<path d="M154 112H147V119H154V112Z" fill="black"/>
<path d="M154 112V119H161C161 115.134 157.866 112 154 112Z" fill="black"/>
<path d="M182 112H175V119H182V112Z" fill="black"/>
<path d="M196 119V112H189C189 115.866 192.134 119 196 119Z" fill="black"/>
<path d="M196 112V119H203C203 115.134 199.866 112 196 112Z" fill="black"/>
<path d="M21 126H28V119C24.1341 119 21 122.134 21 126Z" fill="black"/>
<path d="M31.5 126C30.6842 126 28 126 28 126C28 126 28 123.617 28 122.5C28 121.627 28 119 28 119C28 119 30.4397 119 31.5 119C33.4329 119 35 120.567 35 122.5C35 124.433 33.4329 126 31.5 126Z" fill="black"/>
<path d="M49 122.5C49 121.684 49 119 49 119C49 119 51.3828 119 52.5 119C53.3725 119 56 119 56 119C56 119 56 121.44 56 122.5C56 124.433 54.4329 126 52.5 126C50.567 126 49 124.433 49 122.5Z" fill="black"/>
<path d="M73.5 119C75.4331 119 77 120.567 77 122.5C77 124.433 75.4331 126 73.5 126C71.567 126 70 124.433 70 122.5C70 120.567 71.567 119 73.5 119Z" fill="black"/>
<path d="M84 126H91V119C87.1341 119 84 122.134 84 126Z" fill="black"/>
<path d="M94.5 126C93.6842 126 91 126 91 126C91 126 91 123.617 91 122.5C91 121.627 91 119 91 119C91 119 93.4397 119 94.5 119C96.4329 119 98 120.567 98 122.5C98 124.433 96.4329 126 94.5 126Z" fill="black"/>
<path d="M105 126H112V119C108.134 119 105 122.134 105 126Z" fill="black"/>
<path d="M119 119H112V126H119V119Z" fill="black"/>
<path d="M154 119H147V126H154V119Z" fill="black"/>
<path d="M161 119H154V126H161V119Z" fill="black"/>
<path d="M161 119V126H168C168 122.134 164.866 119 161 119Z" fill="black"/>
<path d="M182 126V119H175C175 122.866 178.134 126 182 126Z" fill="black"/>
<path d="M185.5 126C184.684 126 182 126 182 126C182 126 182 123.617 182 122.5C182 121.627 182 119 182 119C182 119 184.44 119 185.5 119C187.433 119 189 120.567 189 122.5C189 124.433 187.433 126 185.5 126Z" fill="black"/>
<path d="M203 119H196V126H203V119Z" fill="black"/>
<path d="M3.5 126C5.43308 126 7 127.567 7 129.5C7 131.433 5.43308 133 3.5 133C1.56702 133 0 131.433 0 129.5C0 127.567 1.56702 126 3.5 126Z" fill="black"/>
<path d="M17.5 126C18.3158 126 21 126 21 126C21 126 21 128.383 21 129.5C21 130.372 21 133 21 133C21 133 18.5609 133 17.5 133C15.5663 133 14 131.432 14 129.5C14 127.567 15.5663 126 17.5 126Z" fill="black"/>
<path d="M28 126H21V133C24.866 133 28 129.866 28 126Z" fill="black"/>
<path d="M35 133H42V126C38.1341 126 35 129.134 35 133Z" fill="black"/>
<path d="M45.5 133C44.6842 133 42 133 42 133C42 133 42 130.617 42 129.5C42 128.627 42 126 42 126C42 126 44.4397 126 45.5 126C47.4329 126 49 127.567 49 129.5C49 131.433 47.4329 133 45.5 133Z" fill="black"/>
<path d="M59.5 126C60.3158 126 63 126 63 126C63 126 63 128.383 63 129.5C63 130.372 63 133 63 133C63 133 60.5609 133 59.5 133C57.5663 133 56 131.432 56 129.5C56 127.567 57.5663 126 59.5 126Z" fill="black"/>
<path d="M63 126V133H70C70 129.134 66.866 126 63 126Z" fill="black"/>
<path d="M91 126H84V133H91V126Z" fill="black"/>
<path d="M98 133H105V126C101.134 126 98 129.134 98 133Z" fill="black"/>
<path d="M112 126H105V133H112V126Z" fill="black"/>
<path d="M119 126H112V133H119V126Z" fill="black"/>
<path d="M119 126V133H126C126 129.134 122.866 126 119 126Z" fill="black"/>
<path d="M154 126H147V133H154V126Z" fill="black"/>
<path d="M161 129.5C161 128.684 161 126 161 126C161 126 163.383 126 164.5 126C165.373 126 168 126 168 126C168 126 168 128.44 168 129.5C168 131.433 166.433 133 164.5 133C162.567 133 161 131.433 161 129.5Z" fill="black"/>
<path d="M189 133H196V126C192.134 126 189 129.134 189 133Z" fill="black"/>
<path d="M203 126H196V133C199.866 133 203 129.866 203 126Z" fill="black"/>
<path d="M10.5 133C12.4331 133 14 134.567 14 136.5C14 138.433 12.4331 140 10.5 140C8.56702 140 7 138.433 7 136.5C7 134.567 8.56702 133 10.5 133Z" fill="black"/>
<path d="M28 140H35V133C31.1341 133 28 136.134 28 140Z" fill="black"/>
<path d="M42 133H35V140H42V133Z" fill="black"/>
<path d="M56 136.5C56 137.316 56 140 56 140C56 140 53.6173 140 52.5 140C51.6275 140 49 140 49 140C49 140 49 137.56 49 136.5C49.0001 134.567 50.567 133 52.4999 133C54.4329 133 56 134.567 56 136.5Z" fill="black"/>
<path d="M63 136.5C63 135.684 63 133 63 133C63 133 65.3828 133 66.5 133C67.3725 133 70 133 70 133C70 133 70 135.44 70 136.5C70 138.433 68.4329 140 66.5 140C64.567 140 63 138.433 63 136.5Z" fill="black"/>
<path d="M91 133H84V140H91V133Z" fill="black"/>
<path d="M98 133H91V140H98V133Z" fill="black"/>
<path d="M105 133H98V140H105V133Z" fill="black"/>
<path d="M119 133H112V140H119V133Z" fill="black"/>
<path d="M126 133H119V140H126V133Z" fill="black"/>
<path d="M129.5 140C128.684 140 126 140 126 140C126 140 126 137.617 126 136.5C126 135.627 126 133 126 133C126 133 128.44 133 129.5 133C131.433 133 133 134.567 133 136.5C133 138.433 131.433 140 129.5 140Z" fill="black"/>
<path d="M154 133H147V140H154V133Z" fill="black"/>
<path d="M168 140H175V133C171.134 133 168 136.134 168 140Z" fill="black"/>
<path d="M178.5 140C177.684 140 175 140 175 140C175 140 175 137.617 175 136.5C175 135.627 175 133 175 133C175 133 177.44 133 178.5 133C180.433 133 182 134.567 182 136.5C182 138.433 180.433 140 178.5 140Z" fill="black"/>
<path d="M189 136.5C189 135.684 189 133 189 133C189 133 191.383 133 192.5 133C193.373 133 196 133 196 133C196 133 196 135.44 196 136.5C196 138.433 194.433 140 192.5 140C190.567 140 189 138.433 189 136.5Z" fill="black"/>
<path d="M3.5 140C5.43308 140 7 141.567 7 143.5C7 145.433 5.43308 147 3.5 147C1.56702 147 0 145.433 0 143.5C0 141.567 1.56702 140 3.5 140Z" fill="black"/>
<path d="M24.5 140C25.3158 140 28 140 28 140C28 140 28 142.383 28 143.5C28 144.372 28 147 28 147C28 147 25.5609 147 24.5 147C22.5663 147 21 145.432 21 143.5C21 141.567 22.5663 140 24.5 140Z" fill="black"/>
<path d="M35 140H28V147H35V140Z" fill="black"/>
<path d="M42 140H35V147H42V140Z" fill="black"/>
<path d="M49 140H42V147H49V140Z" fill="black"/>
<path d="M56 140H49V147C52.866 147 56 143.866 56 140Z" fill="black"/>
<path d="M77 143.5C77 144.316 77 147 77 147C77 147 74.6173 147 73.5 147C72.6275 147 70 147 70 147C70 147 70 144.56 70 143.5C70.0001 141.567 71.567 140 73.4999 140C75.4329 140 77 141.567 77 143.5Z" fill="black"/>
<path d="M84 143.5C84 142.684 84 140 84 140C84 140 86.3828 140 87.5 140C88.3725 140 91 140 91 140C91 140 91 142.44 91 143.5C91 145.433 89.4329 147 87.5 147C85.567 147 84 145.433 84 143.5Z" fill="black"/>
<path d="M105 140H98V147H105V140Z" fill="black"/>
<path d="M112 140H105V147H112V140Z" fill="black"/>
<path d="M119 140H112V147H119V140Z" fill="black"/>
<path d="M126 140H119V147H126V140Z" fill="black"/>
<path d="M133 147H140V140C136.134 140 133 143.134 133 147Z" fill="black"/>
<path d="M147 140H140V147H147V140Z" fill="black"/>
<path d="M154 140H147V147H154V140Z" fill="black"/>
<path d="M161 140H154V147H161V140Z" fill="black"/>
<path d="M168 140H161V147H168V140Z" fill="black"/>
<path d="M175 140H168V147H175V140Z" fill="black"/>
<path d="M59.5 147C60.3158 147 63 147 63 147C63 147 63 149.383 63 150.5C63 151.372 63 154 63 154C63 154 60.5609 154 59.5 154C57.5663 154 56 152.432 56 150.5C56 148.567 57.5663 147 59.5 147Z" fill="black"/>
<path d="M70 147H63V154H70V147Z" fill="black"/>
<path d="M77 147H70V154H77V147Z" fill="black"/>
<path d="M105 154V147H98C98 150.866 101.134 154 105 154Z" fill="black"/>
<path d="M112 147H105V154C108.866 154 112 150.866 112 147Z" fill="black"/>
<path d="M126 147H119V154H126V147Z" fill="black"/>
<path d="M140 147H133V154H140V147Z" fill="black"/>
<path d="M147 147H140V154H147V147Z" fill="black"/>
<path d="M175 147H168V154H175V147Z" fill="black"/>
<path d="M185.5 147C186.316 147 189 147 189 147C189 147 189 149.383 189 150.5C189 151.372 189 154 189 154C189 154 186.561 154 185.5 154C183.566 154 182 152.432 182 150.5C182 148.567 183.566 147 185.5 147Z" fill="black"/>
<path d="M196 147H189V154H196V147Z" fill="black"/>
<path d="M196 147V154H203C203 150.134 199.866 147 196 147Z" fill="black"/>
<path d="M77 154H70V161H77V154Z" fill="black"/>
<path d="M84 154H77V161H84V154Z" fill="black"/>
<path d="M91 154H84V161H91V154Z" fill="black"/>
<path d="M94.5 161C93.6842 161 91 161 91 161C91 161 91 158.617 91 157.5C91 156.627 91 154 91 154C91 154 93.4397 154 94.5 154C96.4329 154 98 155.567 98 157.5C98 159.433 96.4329 161 94.5 161Z" fill="black"/>
<path d="M115.5 154C116.316 154 119 154 119 154C119 154 119 156.383 119 157.5C119 158.372 119 161 119 161C119 161 116.561 161 115.5 161C113.566 161 112 159.432 112 157.5C112 155.567 113.566 154 115.5 154Z" fill="black"/>
<path d="M126 154H119V161H126V154Z" fill="black"/>
<path d="M140 161V154H133C133 157.866 136.134 161 140 161Z" fill="black"/>
<path d="M147 154H140V161H147V154Z" fill="black"/>
<path d="M157.5 154C159.433 154 161 155.567 161 157.5C161 159.433 159.433 161 157.5 161C155.567 161 154 159.433 154 157.5C154 155.567 155.567 154 157.5 154Z" fill="black"/>
<path d="M175 154H168V161H175V154Z" fill="black"/>
<path d="M175 154V161H182C182 157.134 178.866 154 175 154Z" fill="black"/>
<path d="M196 161V154H189C189 157.866 192.134 161 196 161Z" fill="black"/>
<path d="M203 154H196V161H203V154Z" fill="black"/>
<path d="M63 168H70V161C66.1341 161 63 164.134 63 168Z" fill="black"/>
<path d="M77 161H70V168H77V161Z" fill="black"/>
<path d="M91 161H84V168H91V161Z" fill="black"/>
<path d="M126 161H119V168H126V161Z" fill="black"/>
<path d="M129.5 168C128.684 168 126 168 126 168C126 168 126 165.617 126 164.5C126 163.627 126 161 126 161C126 161 128.44 161 129.5 161C131.433 161 133 162.567 133 164.5C133 166.433 131.433 168 129.5 168Z" fill="black"/>
<path d="M147 161H140V168H147V161Z" fill="black"/>
<path d="M175 161H168V168H175V161Z" fill="black"/>
<path d="M182 161H175V168C178.866 168 182 164.866 182 161Z" fill="black"/>
<path d="M196 164.5C196 163.684 196 161 196 161C196 161 198.383 161 199.5 161C200.373 161 203 161 203 161C203 161 203 163.44 203 164.5C203 166.433 201.433 168 199.5 168C197.567 168 196 166.433 196 164.5Z" fill="black"/>
<path d="M59.5 168C60.3158 168 63 168 63 168C63 168 63 170.383 63 171.5C63 172.372 63 175 63 175C63 175 60.5609 175 59.5 175C57.5663 175 56 173.432 56 171.5C56 169.567 57.5663 168 59.5 168Z" fill="black"/>
<path d="M70 168H63V175H70V168Z" fill="black"/>
<path d="M77 168H70V175H77V168Z" fill="black"/>
<path d="M84 168H77V175H84V168Z" fill="black"/>
<path d="M91 168H84V175C87.866 175 91 171.866 91 168Z" fill="black"/>
<path d="M126 168H119V175H126V168Z" fill="black"/>
<path d="M147 168H140V175H147V168Z" fill="black"/>
<path d="M154 168H147V175H154V168Z" fill="black"/>
<path d="M161 168H154V175H161V168Z" fill="black"/>
<path d="M168 168H161V175H168V168Z" fill="black"/>
<path d="M175 168H168V175H175V168Z" fill="black"/>
<path d="M192.5 168C194.433 168 196 169.567 196 171.5C196 173.433 194.433 175 192.5 175C190.567 175 189 173.433 189 171.5C189 169.567 190.567 168 192.5 168Z" fill="black"/>
<path d="M70 175H63V182H70V175Z" fill="black"/>
<path d="M77 178.5C77 177.684 77 175 77 175C77 175 79.3828 175 80.5 175C81.3725 175 84 175 84 175C84 175 84 177.44 84 178.5C84 180.433 82.4329 182 80.5 182C78.567 182 77 180.433 77 178.5Z" fill="black"/>
<path d="M94.5 175C96.4331 175 98 176.567 98 178.5C98 180.433 96.4331 182 94.5 182C92.567 182 91 180.433 91 178.5C91 176.567 92.567 175 94.5 175Z" fill="black"/>
<path d="M115.5 175C116.316 175 119 175 119 175C119 175 119 177.383 119 178.5C119 179.372 119 182 119 182C119 182 116.561 182 115.5 182C113.566 182 112 180.432 112 178.5C112 176.567 113.566 175 115.5 175Z" fill="black"/>
<path d="M126 175H119V182H126V175Z" fill="black"/>
<path d="M133 175H126V182H133V175Z" fill="black"/>
<path d="M140 175H133V182H140V175Z" fill="black"/>
<path d="M147 175H140V182C143.866 182 147 178.866 147 175Z" fill="black"/>
<path d="M168 175H161V182H168V175Z" fill="black"/>
<path d="M175 175H168V182H175V175Z" fill="black"/>
<path d="M185.5 175C187.433 175 189 176.567 189 178.5C189 180.433 187.433 182 185.5 182C183.567 182 182 180.433 182 178.5C182 176.567 183.567 175 185.5 175Z" fill="black"/>
<path d="M59.5 182C60.3158 182 63 182 63 182C63 182 63 184.383 63 185.5C63 186.372 63 189 63 189C63 189 60.5609 189 59.5 189C57.5663 189 56 187.432 56 185.5C56 183.567 57.5663 182 59.5 182Z" fill="black"/>
<path d="M70 182H63V189H70V182Z" fill="black"/>
<path d="M140 182H133V189H140V182Z" fill="black"/>
<path d="M168 189V182H161C161 185.866 164.134 189 168 189Z" fill="black"/>
<path d="M175 182H168V189H175V182Z" fill="black"/>
<path d="M178.5 189C177.684 189 175 189 175 189C175 189 175 186.617 175 185.5C175 184.627 175 182 175 182C175 182 177.44 182 178.5 182C180.433 182 182 183.567 182 185.5C182 187.433 180.433 189 178.5 189Z" fill="black"/>
<path d="M199.5 182C201.433 182 203 183.567 203 185.5C203 187.433 201.433 189 199.5 189C197.567 189 196 187.433 196 185.5C196 183.567 197.567 182 199.5 182Z" fill="black"/>
<path d="M70 189H63V196H70V189Z" fill="black"/>
<path d="M94.5 189C95.3158 189 98 189 98 189C98 189 98 191.383 98 192.5C98 193.372 98 196 98 196C98 196 95.5609 196 94.5 196C92.5663 196 91 194.432 91 192.5C91 190.567 92.5663 189 94.5 189Z" fill="black"/>
<path d="M105 189H98V196H105V189Z" fill="black"/>
<path d="M108.5 196C107.684 196 105 196 105 196C105 196 105 193.617 105 192.5C105 191.627 105 189 105 189C105 189 107.44 189 108.5 189C110.433 189 112 190.567 112 192.5C112 194.433 110.433 196 108.5 196Z" fill="black"/>
<path d="M126 192.5C126 193.316 126 196 126 196C126 196 123.617 196 122.5 196C121.627 196 119 196 119 196C119 196 119 193.56 119 192.5C119 190.567 120.567 189 122.5 189C124.433 189 126 190.567 126 192.5Z" fill="black"/>
<path d="M140 189H133V196H140V189Z" fill="black"/>
<path d="M147 189H140V196H147V189Z" fill="black"/>
<path d="M154 189H147V196H154V189Z" fill="black"/>
<path d="M154 189V196H161C161 192.134 157.866 189 154 189Z" fill="black"/>
<path d="M175 189H168V196H175V189Z" fill="black"/>
<path d="M196 192.5C196 193.316 196 196 196 196C196 196 193.617 196 192.5 196C191.627 196 189 196 189 196C189 196 189 193.56 189 192.5C189 190.567 190.567 189 192.5 189C194.433 189 196 190.567 196 192.5Z" fill="black"/>
<path d="M59.5 196C60.3158 196 63 196 63 196C63 196 63 198.383 63 199.5C63 200.372 63 203 63 203C63 203 60.5609 203 59.5 203C57.5663 203 56 201.432 56 199.5C56 197.567 57.5663 196 59.5 196Z" fill="black"/>
<path d="M70 196H63V203H70V196Z" fill="black"/>
<path d="M77 196H70V203H77V196Z" fill="black"/>
<path d="M80.5 203C79.6842 203 77 203 77 203C77 203 77 200.617 77 199.5C77 198.627 77 196 77 196C77 196 79.4397 196 80.5 196C82.4329 196 84 197.567 84 199.5C84 201.433 82.4329 203 80.5 203Z" fill="black"/>
<path d="M119 199.5C119 198.684 119 196 119 196C119 196 121.383 196 122.5 196C123.373 196 126 196 126 196C126 196 126 198.44 126 199.5C126 201.433 124.433 203 122.5 203C120.567 203 119 201.433 119 199.5Z" fill="black"/>
<path d="M140 203V196H133C133 199.866 136.134 203 140 203Z" fill="black"/>
<path d="M147 196H140V203H147V196Z" fill="black"/>
<path d="M154 196H147V203H154V196Z" fill="black"/>
<path d="M161 196H154V203H161V196Z" fill="black"/>
<path d="M168 196H161V203H168V196Z" fill="black"/>
<path d="M175 196H168V203C171.866 203 175 199.866 175 196Z" fill="black"/>
<path d="M196 203V196H189C189 199.866 192.134 203 196 203Z" fill="black"/>
<path d="M199.5 203C198.684 203 196 203 196 203C196 203 196 200.617 196 199.5C196 198.627 196 196 196 196C196 196 198.44 196 199.5 196C201.433 196 203 197.567 203 199.5C203 201.433 201.433 203 199.5 203Z" fill="black"/>
<path d="M32.2709 0.00390625H16.7291C9.15467 0.00390625 2.73763 5.00828 0.686 11.8482C0.47383 12.5557 0.30821 13.2829 0.19306 14.0262C0.06615 14.8465 0 15.6864 0 16.5414V32.4522C0 41.5755 7.5068 48.9946 16.7291 48.9946L24.5 48.9961L32.2709 48.9941C41.4927 48.9941 49 41.575 49 32.4517V16.5414C49 7.42251 41.4932 0.00390625 32.2709 0.00390625ZM41.65 32.4522C41.65 37.5208 37.4429 41.6446 32.269 41.6446L24.5 41.6461L16.7311 41.6441C11.5571 41.6441 7.35 37.5203 7.35 32.4522V16.5414C7.35 14.9582 7.76062 13.4676 8.48337 12.1652C9.17917 10.9123 10.1636 9.83478 11.3489 9.01893C12.8728 7.96984 14.7284 7.35391 16.7286 7.35391H32.2709C37.4429 7.35391 41.65 11.4753 41.65 16.5414V32.4522Z" fill="black"/>
<path d="M186.271 0.00390625H170.729C163.155 0.00390625 156.738 5.00828 154.686 11.8482C154.474 12.5557 154.308 13.2829 154.193 14.0262C154.066 14.8465 154 15.6864 154 16.5414V32.4522C154 41.5755 161.507 48.9946 170.729 48.9946L178.5 48.9961L186.271 48.9941C195.493 48.9941 203 41.575 203 32.4517V16.5414C203 7.42251 195.493 0.00390625 186.271 0.00390625ZM195.65 32.4522C195.65 37.5208 191.443 41.6446 186.269 41.6446L178.5 41.6461L170.731 41.6441C165.557 41.6441 161.35 37.5203 161.35 32.4522V16.5414C161.35 14.9582 161.761 13.4676 162.483 12.1652C163.179 10.9123 164.164 9.83478 165.349 9.01893C166.873 7.96984 168.728 7.35391 170.729 7.35391H186.271C191.443 7.35391 195.65 11.4753 195.65 16.5414V32.4522Z" fill="black"/>
<path d="M32.2709 154.004H16.7291C9.15467 154.004 2.73763 159.008 0.686 165.848C0.47383 166.556 0.30821 167.283 0.19306 168.026C0.06615 168.846 0 169.686 0 170.541V186.452C0 195.576 7.5068 202.995 16.7291 202.995L24.5 202.996L32.2709 202.994C41.4927 202.994 49 195.575 49 186.452V170.541C49 161.423 41.4932 154.004 32.2709 154.004ZM41.65 186.452C41.65 191.521 37.4429 195.645 32.269 195.645L24.5 195.646L16.7311 195.644C11.5571 195.644 7.35 191.52 7.35 186.452V170.541C7.35 168.958 7.76062 167.468 8.48337 166.165C9.17917 164.912 10.1636 163.835 11.3489 163.019C12.8728 161.97 14.7284 161.354 16.7286 161.354H32.2709C37.4429 161.354 41.65 165.475 41.65 170.541V186.452Z" fill="black"/>
<path d="M19.7437 35C16.5748 35 13.9971 32.4733 13.9971 29.3703V19.6267C13.9971 18.6574 14.2491 17.7451 14.6903 16.9469C15.1164 16.1787 15.7195 15.5185 16.4459 15.0204C17.3789 14.3782 18.5163 14 19.7406 14H29.2592C32.4252 14 35.0029 16.5238 35.0029 19.6265V29.3701C35.0029 32.4729 32.4254 34.9998 29.2592 34.9998H24.5H19.7437V35Z" fill="black"/>
<path d="M173.744 35C170.575 35 167.997 32.4733 167.997 29.3703V19.6267C167.997 18.6574 168.249 17.7451 168.69 16.9469C169.116 16.1787 169.719 15.5185 170.446 15.0204C171.379 14.3782 172.516 14 173.741 14H183.259C186.425 14 189.003 16.5238 189.003 19.6265V29.3701C189.003 32.4729 186.425 34.9998 183.259 34.9998H178.5H173.744V35Z" fill="black"/>
<path d="M19.7437 189C16.5748 189 13.9971 186.473 13.9971 183.37V173.627C13.9971 172.657 14.2491 171.745 14.6903 170.947C15.1164 170.179 15.7195 169.519 16.4459 169.02C17.3789 168.378 18.5163 168 19.7406 168H29.2592C32.4252 168 35.0029 170.524 35.0029 173.627V183.37C35.0029 186.473 32.4254 189 29.2592 189H24.5H19.7437V189Z" fill="black"/>
</svg>
