<?xml version="1.0" standalone="no"?>
<!DOCTYPE svg PUBLIC "-//W3C//DTD SVG 20010904//EN"
 "http://www.w3.org/TR/2001/REC-SVG-20010904/DTD/svg10.dtd">
<svg version="1.0" xmlns="http://www.w3.org/2000/svg"
 width="512.000000pt" height="512.000000pt" viewBox="0 0 512.000000 512.000000"
 preserveAspectRatio="xMidYMid meet">
<g transform="translate(0.000000,512.000000) scale(0.100000,-0.100000)"
fill="#000000" stroke="none">
<path d="M2420 4341 c-281 -91 -572 -394 -800 -834 -168 -323 -275 -654 -326
-1012 -26 -179 -24 -473 5 -629 91 -504 376 -879 782 -1027 142 -52 239 -70
419 -76 176 -6 285 4 416 37 472 121 806 514 905 1066 26 141 31 438 11 594
-114 872 -636 1734 -1141 1884 -72 21 -200 20 -271 -3z"/>
</g>
</svg>
