<svg width="16" height="20" viewBox="0 0 16 20" fill="none" xmlns="http://www.w3.org/2000/svg">
<path fill-rule="evenodd" clip-rule="evenodd" d="M4.07702 10.7042C4.18874 9.70485 4.2446 9.20516 4.74963 8.70747C5.25465 8.20979 5.7588 8.16089 6.7671 8.0631C7.16014 8.02498 7.57851 8 8 8C8.42161 8 8.84008 8.025 9.23318 8.06314C10.2412 8.16093 10.7452 8.20982 11.2501 8.70742C11.7551 9.20501 11.811 9.70452 11.9228 10.7035C11.9692 11.1176 12 11.5588 12 12C12 12.4617 11.9663 12.9195 11.9163 13.3443C11.8048 14.2923 11.7491 14.7662 11.2583 15.2572C10.7676 15.7481 10.2937 15.804 9.34596 15.9159C8.9206 15.9661 8.46219 16 8 16C7.53794 16 7.07963 15.9661 6.65434 15.9159C5.70626 15.8041 5.23221 15.7481 4.74143 15.2571C4.25066 14.7661 4.19496 14.2919 4.08356 13.3436C4.03368 12.919 4 12.4614 4 12C4 11.559 4.03076 11.1181 4.07702 10.7042ZM6.96017 10.0538C7.30287 10.0205 7.65552 10 8 10C8.34458 10 8.69731 10.0205 9.04006 10.0538C9.30188 10.0792 9.48461 10.0972 9.63963 10.1177C9.72654 10.1293 9.78795 10.1396 9.8311 10.148C9.83994 10.19 9.85076 10.2493 9.8631 10.3328C9.88573 10.4858 9.90619 10.6664 9.93525 10.926C9.97531 11.2839 10 11.6491 10 12C10 12.3671 9.97298 12.7451 9.92999 13.1107C9.90095 13.3576 9.88081 13.5266 9.8588 13.6695C9.84776 13.7411 9.83815 13.7928 9.83034 13.8298C9.7934 13.8376 9.74173 13.8472 9.67019 13.8583C9.52736 13.8803 9.35844 13.9005 9.11155 13.9297C8.74554 13.9729 8.36724 14 8 14C7.63286 14 7.25464 13.9729 6.88867 13.9297C6.64171 13.9006 6.47271 13.8804 6.32982 13.8583C6.2582 13.8472 6.20649 13.8376 6.16952 13.8298C6.1617 13.7928 6.15208 13.741 6.14104 13.6693C6.11904 13.5263 6.09892 13.3573 6.0699 13.1102C6.02697 12.7448 6 12.367 6 12C6 11.6492 6.02465 11.2842 6.06464 10.9264C6.09368 10.6667 6.11413 10.4861 6.13675 10.333C6.14909 10.2494 6.15991 10.19 6.16875 10.148C6.21194 10.1395 6.2734 10.1292 6.36038 10.1177C6.51546 10.0971 6.69826 10.0792 6.96017 10.0538Z" fill="#E2E2E2"/>
<path fill-rule="evenodd" clip-rule="evenodd" d="M10.8623 1.24348C10.0976 0.478732 9.08155 0 8.00004 0C7.27362 0 6.58018 0.0329808 5.9317 0.0869633C3.99011 0.24859 3.01931 0.329403 1.7253 1.61887C0.43128 2.90835 0.343396 3.92098 0.167629 5.94624C0.0675913 7.09891 0 8.45099 0 10.0003C0 11.5503 0.0676399 12.9027 0.167737 14.0556C0.343498 16.0799 0.431379 17.0921 1.72517 18.3815C3.36225 20.013 5.81974 20.0007 8.00004 20.0007C10.1803 20.0007 12.6378 20.0129 14.2749 18.3815C15.5687 17.0921 15.6565 16.08 15.8323 14.0557C15.9324 12.9028 16.0001 11.5503 16.0001 10.0003L16 9.91806C15.9975 8.27246 15.9962 7.44966 15.6157 6.53296C15.2351 5.61626 14.574 4.95512 13.2517 3.63283L10.8623 1.24348ZM6.09762 2.08007C6.69602 2.03026 7.3339 2 8.00004 2C8.48059 2 9.00544 2.21502 9.44812 2.65769L11.8375 5.04704C13.2582 6.46774 13.5733 6.82945 13.7685 7.29976C13.9677 7.77956 13.9973 8.17267 14 9.92115L14.0001 10.0003C14.0001 11.492 13.935 12.7868 13.8398 13.8827C13.7462 14.9613 13.6913 15.4843 13.5616 15.9051C13.4654 16.2172 13.3121 16.5174 12.8631 16.9648C12.4038 17.4226 12.1081 17.5711 11.82 17.6609C10.641 18.0284 9.22689 18.0007 8.00004 18.0007C6.77318 18.0007 5.35904 18.0284 4.18008 17.6609C3.89199 17.5711 3.59628 17.4226 3.13696 16.9648C2.68796 16.5174 2.53468 16.2172 2.43846 15.905C2.30876 15.4842 2.25389 14.9612 2.16024 13.8826C2.06509 12.7867 2 11.492 2 10.0003C2 8.50924 2.06505 7.21485 2.16014 6.11916C2.25379 5.04011 2.30867 4.51669 2.43843 4.09562C2.53469 3.78325 2.68801 3.483 3.13702 3.03557C3.59634 2.57787 3.89213 2.4293 4.18048 2.33948C4.57426 2.21681 5.06017 2.16643 6.09762 2.08007Z" fill="#E2E2E2"/>
</svg>
