<svg width="24" height="24" viewBox="0 0 24 24" fill="none" xmlns="http://www.w3.org/2000/svg">
<path d="M12 18C12.6904 18 13.25 17.4404 13.25 16.75C13.25 16.0596 12.6904 15.5 12 15.5C11.3096 15.5 10.75 16.0596 10.75 16.75C10.75 17.4404 11.3096 18 12 18Z" fill="black"/>
<path fill-rule="evenodd" clip-rule="evenodd" d="M12 2C10.9837 2 10.1399 2.06198 9.44113 2.15908C7.0251 2.49479 5.89681 4.63192 5.73435 6.65036C5.61471 8.13676 5.5 10.0647 5.5 12C5.5 13.9353 5.61471 15.8632 5.73435 17.3496C5.89681 19.3681 7.0251 21.5052 9.44113 21.8409C10.1399 21.938 10.9837 22 12 22C13.0163 22 13.8601 21.938 14.5589 21.8409C16.9749 21.5052 18.1032 19.3681 18.2657 17.3496C18.3853 15.8632 18.5 13.9353 18.5 12C18.5 10.0647 18.3853 8.13679 18.2657 6.65039C18.1032 4.63194 16.9749 2.49479 14.5589 2.15907C13.8601 2.06197 13.0163 2 12 2ZM9.71639 4.14004C10.3133 4.0571 11.0643 4 12 4C12.9357 4 13.6867 4.0571 14.2836 4.14004C15.3917 4.29401 16.1491 5.28274 16.2721 6.81084C16.3893 8.26653 16.5 10.137 16.5 12C16.5 13.863 16.3893 15.7335 16.2721 17.1892C16.1491 18.7173 15.3917 19.706 14.2836 19.86C13.6867 19.9429 12.9357 20 12 20C11.0643 20 10.3133 19.9429 9.71639 19.86C8.60829 19.706 7.85089 18.7173 7.7279 17.1892C7.61073 15.7335 7.5 13.863 7.5 12C7.5 10.137 7.61073 8.26651 7.7279 6.81081C7.85089 5.28273 8.60829 4.29402 9.71639 4.14004Z" fill="black"/>
</svg>
