<svg width="24" height="24" viewBox="0 0 24 24" fill="none" xmlns="http://www.w3.org/2000/svg">
<path fill-rule="evenodd" clip-rule="evenodd" d="M8.07702 12.7042C8.18874 11.7048 8.2446 11.2052 8.74963 10.7075C9.25465 10.2098 9.7588 10.1609 10.7671 10.0631C11.1601 10.025 11.5785 10 12 10C12.4216 10 12.8401 10.025 13.2332 10.0631C14.2412 10.1609 14.7452 10.2098 15.2501 10.7074C15.7551 11.205 15.811 11.7045 15.9228 12.7035C15.9692 13.1176 16 13.5588 16 14C16 14.4617 15.9663 14.9195 15.9163 15.3443C15.8048 16.2923 15.7491 16.7662 15.2583 17.2572C14.7676 17.7481 14.2937 17.804 13.346 17.9159C12.9206 17.9661 12.4622 18 12 18C11.5379 18 11.0796 17.9661 10.6543 17.9159C9.70626 17.8041 9.23221 17.7481 8.74143 17.2571C8.25066 16.7661 8.19496 16.2919 8.08356 15.3436C8.03368 14.919 8 14.4614 8 14C8 13.559 8.03076 13.1181 8.07702 12.7042ZM10.9602 12.0538C11.3029 12.0205 11.6555 12 12 12C12.3446 12 12.6973 12.0205 13.0401 12.0538C13.3019 12.0792 13.4846 12.0972 13.6396 12.1177C13.7265 12.1293 13.7879 12.1396 13.8311 12.148C13.8399 12.19 13.8508 12.2493 13.8631 12.3328C13.8857 12.4858 13.9062 12.6664 13.9353 12.926C13.9753 13.2839 14 13.6491 14 14C14 14.3671 13.973 14.7451 13.93 15.1107C13.9009 15.3576 13.8808 15.5266 13.8588 15.6695C13.8478 15.7411 13.8382 15.7928 13.8303 15.8298C13.7934 15.8376 13.7417 15.8472 13.6702 15.8583C13.5274 15.8803 13.3584 15.9005 13.1116 15.9297C12.7455 15.9729 12.3672 16 12 16C11.6329 16 11.2546 15.9729 10.8887 15.9297C10.6417 15.9006 10.4727 15.8804 10.3298 15.8583C10.2582 15.8472 10.2065 15.8376 10.1695 15.8298C10.1617 15.7928 10.1521 15.741 10.141 15.6693C10.119 15.5263 10.0989 15.3573 10.0699 15.1102C10.027 14.7448 10 14.367 10 14C10 13.6492 10.0246 13.2842 10.0646 12.9264C10.0937 12.6667 10.1141 12.4861 10.1367 12.333C10.1491 12.2494 10.1599 12.19 10.1688 12.148C10.2119 12.1395 10.2734 12.1292 10.3604 12.1177C10.5155 12.0971 10.6983 12.0792 10.9602 12.0538Z" fill="black"/>
<path fill-rule="evenodd" clip-rule="evenodd" d="M14.8623 3.24348C14.0976 2.47873 13.0816 2 12 2C11.2736 2 10.5802 2.03298 9.9317 2.08696C7.99011 2.24859 7.01931 2.3294 5.7253 3.61887C4.43128 4.90835 4.3434 5.92098 4.16763 7.94624C4.06759 9.09891 4 10.451 4 12.0003C4 13.5503 4.06764 14.9027 4.16774 16.0556C4.3435 18.0799 4.43138 19.0921 5.72517 20.3815C7.36225 22.013 9.81974 22.0007 12 22.0007C14.1803 22.0007 16.6378 22.0129 18.2749 20.3815C19.5687 19.0921 19.6565 18.08 19.8323 16.0557C19.9324 14.9028 20.0001 13.5503 20.0001 12.0003L20 11.9181C19.9975 10.2725 19.9962 9.44966 19.6157 8.53296C19.2351 7.61626 18.574 6.95512 17.2517 5.63283L14.8623 3.24348ZM10.0976 4.08007C10.696 4.03026 11.3339 4 12 4C12.4806 4 13.0054 4.21502 13.4481 4.65769L15.8375 7.04704C17.2582 8.46774 17.5733 8.82945 17.7685 9.29976C17.9677 9.77956 17.9973 10.1727 18 11.9212L18.0001 12.0003C18.0001 13.492 17.935 14.7868 17.8398 15.8827C17.7462 16.9613 17.6913 17.4843 17.5616 17.9051C17.4654 18.2172 17.3121 18.5174 16.8631 18.9648C16.4038 19.4226 16.1081 19.5711 15.82 19.6609C14.641 20.0284 13.2269 20.0007 12 20.0007C10.7732 20.0007 9.35904 20.0284 8.18008 19.6609C7.89199 19.5711 7.59628 19.4226 7.13696 18.9648C6.68796 18.5174 6.53468 18.2172 6.43846 17.905C6.30876 17.4842 6.25389 16.9612 6.16024 15.8826C6.06509 14.7867 6 13.492 6 12.0003C6 10.5092 6.06505 9.21485 6.16014 8.11916C6.25379 7.04011 6.30867 6.51669 6.43843 6.09562C6.53469 5.78325 6.68801 5.483 7.13702 5.03557C7.59634 4.57787 7.89213 4.4293 8.18048 4.33948C8.57426 4.21681 9.06017 4.16643 10.0976 4.08007Z" fill="black"/>
</svg>