<svg width="24" height="24" viewBox="0 0 24 24" fill="none" xmlns="http://www.w3.org/2000/svg">
<path fill-rule="evenodd" clip-rule="evenodd" d="M14.4553 13.3852L10.6121 9.53996L10.6142 9.53715C11.4994 8.55354 11.942 8.06174 11.9358 7.09183C11.9296 6.12191 11.5062 5.66338 10.6595 4.74632C10.5721 4.65162 10.4824 4.55803 10.3908 4.46639C9.70592 3.78111 8.95814 3.38121 8.45031 3.16604C7.78381 2.88366 7.07802 3.00342 6.41213 3.21419C5.77727 3.41514 5.0418 3.76914 4.45226 4.3924C3.99686 4.85899 3.67536 5.30807 3.44099 5.8428C2.69815 7.53762 2.95058 9.51407 3.77445 11.171C4.45791 12.5455 5.65008 14.3753 7.72279 16.4491C9.75217 18.4796 11.3751 19.4928 12.7387 20.1833C14.4466 21.0482 16.5036 21.328 18.2393 20.5205C18.7381 20.2884 19.1649 19.9753 19.608 19.5412C20.5098 18.6824 20.8445 17.5174 20.9683 16.8031C21.0399 16.39 20.9893 15.9345 20.8258 15.5483C20.6107 15.0402 20.2111 14.292 19.5262 13.6067C19.4346 13.5151 19.341 13.4254 19.2464 13.3379C18.3298 12.4907 17.8715 12.0671 16.9021 12.0609C15.9328 12.0547 15.4412 12.4976 14.4582 13.3832L14.4553 13.3852ZM16.38 14.3566C16.5474 14.2164 16.6521 14.1423 16.7161 14.1038C16.8131 14.0455 16.958 14.0364 17.0564 14.096C17.1057 14.1259 17.1892 14.1846 17.3341 14.3078C17.483 14.4343 17.6508 14.5889 17.8885 14.8086C18.3231 15.2104 18.9371 15.8442 18.9956 16.4664C18.9009 17.0081 18.673 17.6674 18.2283 18.0909L18.2079 18.1106C17.8893 18.4228 17.6454 18.5887 17.3955 18.7049C16.3784 19.1781 14.9858 19.0771 13.6424 18.3968C12.4519 17.794 11.0053 16.9019 9.13782 15.0333C7.21262 13.1071 6.14975 11.4529 5.56612 10.2791C4.92876 8.99731 4.83117 7.65651 5.27366 6.64693C5.42141 6.30984 5.65274 6.03196 5.90569 5.7687C6.32875 5.32146 6.98953 5.09226 7.53266 4.99721C8.06213 5.04702 8.61804 5.52423 8.9758 5.88219C9.04734 5.95376 9.11868 6.0282 9.18958 6.10499C9.40915 6.3428 9.56366 6.51065 9.69012 6.65961C9.81326 6.80463 9.87187 6.8882 9.90177 6.93754C9.95809 7.03045 9.94867 7.18697 9.89401 7.27797C9.85693 7.33971 9.78925 7.43637 9.65633 7.59629C9.52269 7.75708 9.35871 7.94002 9.12174 8.19987L8.47217 8.87675C8.09449 9.27032 8.10133 9.894 8.48755 10.2792L13.6916 15.4692C14.0622 15.8388 14.655 15.8602 15.0513 15.5183L15.8064 14.8669C16.0503 14.6442 16.2267 14.4851 16.3809 14.3571L16.38 14.3566Z" fill="black"/>
</svg>