<svg width="24" height="24" viewBox="0 0 24 24" fill="none" xmlns="http://www.w3.org/2000/svg">
<rect opacity="0.01" width="24" height="24" fill="#E6E6E6"/>
<path d="M11.9474 12.4286L10.7216 14.3303C10.106 15.2846 9.07037 15.8571 7.96289 15.8571H5.31579C3.48437 15.8571 2 14.3223 2 12.4286C2 10.5349 3.48437 9 5.31579 9H7.96289C9.07037 9 10.106 9.57257 10.7216 10.5269" stroke="#808080"/>
<path d="M11.9474 12.4286L13.1731 10.5269C13.7888 9.57257 14.8244 9 15.9319 9H18.579C20.4104 9 21.8948 10.5349 21.8948 12.4286C21.8948 14.3223 20.4104 15.8571 18.579 15.8571H15.9319C14.8244 15.8571 13.7888 15.2846 13.1731 14.3303" stroke="#808080"/>
</svg>
