<svg width="51" height="18" viewBox="0 0 51 18" fill="none" xmlns="http://www.w3.org/2000/svg">
<path fill-rule="evenodd" clip-rule="evenodd" d="M13.436 17.0449H9.13044L5.90183 4.3653C5.74859 3.78204 5.42321 3.2664 4.94459 3.02338C3.75013 2.41264 2.43392 1.92659 0.998047 1.68145V1.19329H7.93388C8.89113 1.19329 9.60907 1.92659 9.72872 2.77824L11.4039 11.9244L15.7073 1.19329H19.8932L13.436 17.0449ZM22.2864 17.0449H18.2202L21.5685 1.19329H25.6347L22.2864 17.0449ZM30.8953 5.58472C31.0149 4.73096 31.7328 4.2428 32.5704 4.2428C33.8866 4.12023 35.3204 4.36537 36.517 4.97399L37.2349 1.56106C36.0384 1.0729 34.7221 0.827759 33.5277 0.827759C29.5811 0.827759 26.7094 3.02344 26.7094 6.07077C26.7094 8.38902 28.7435 9.60626 30.1794 10.3396C31.7328 11.0708 32.3311 11.5589 32.2115 12.2901C32.2115 13.3869 31.0149 13.8751 29.8204 13.8751C28.3846 13.8751 26.9487 13.5095 25.6346 12.8987L24.9167 16.3138C26.3525 16.9224 27.906 17.1675 29.3418 17.1675C33.767 17.288 36.517 15.0944 36.517 11.8019C36.517 7.65572 30.8953 7.41269 30.8953 5.58472ZM50.7476 17.0449L47.519 1.19329H44.051C43.3331 1.19329 42.6152 1.68145 42.3758 2.41264L36.3973 17.0449H40.5831L41.4186 14.7288H46.5617L47.0403 17.0449H50.7476ZM44.6494 5.46221L45.8438 11.4364H42.4956L44.6494 5.46221Z" fill="#172B85"/>
</svg>
