<?xml version="1.0" encoding="utf-8"?>
<!-- Generator: Adobe Illustrator 22.1.0, SVG Export Plug-In . SVG Version: 6.00 Build 0)  -->
<svg version="1.1" id="Layer_1" xmlns="http://www.w3.org/2000/svg" xmlns:xlink="http://www.w3.org/1999/xlink" x="0px" y="0px"
	 viewBox="0 0 82 26.5377483" style="enable-background:new 0 0 82 26.5377483;" xml:space="preserve">
<style type="text/css">
	.st0{fill-rule:evenodd;clip-rule:evenodd;fill:url(#SVGID_1_);}
	.st1{fill-rule:evenodd;clip-rule:evenodd;fill:url(#SVGID_2_);}
	.st2{fill-rule:evenodd;clip-rule:evenodd;fill:url(#SVGID_3_);}
	.st3{fill-rule:evenodd;clip-rule:evenodd;fill:url(#SVGID_4_);}
</style>
<linearGradient id="SVGID_1_" gradientUnits="userSpaceOnUse" x1="28.8924351" y1="13.3108215" x2="39.6893654" y2="13.3108215">
	<stop  offset="0" style="stop-color:#271D64"/>
	<stop  offset="1" style="stop-color:#25449D"/>
</linearGradient>
<polygon class="st0" points="33.046154,0.4659825 28.8924351,26.1556606 35.5329132,26.1556606 39.6893654,0.4659825 "/>
<linearGradient id="SVGID_2_" gradientUnits="userSpaceOnUse" x1="39.6893654" y1="13.2688742" x2="59.615818" y2="13.2688742">
	<stop  offset="0" style="stop-color:#271D64"/>
	<stop  offset="1" style="stop-color:#25449D"/>
</linearGradient>
<path class="st1" d="M53.0823364,10.7680559c-2.3242874-1.172555-3.745491-1.9681911-3.745491-3.170383
	c0.0275116-1.092308,1.2006721-2.2144051,3.8271065-2.2144051c2.1595383-0.0541062,3.7453384,0.4652228,4.9469223,0.9854636
	l0.6017151,0.2731147l0.9032288-5.5487986C58.3029823,0.5751069,56.2265778,0,53.6566849,0
	c-6.5581055,0-11.1799355,3.4976044-11.2072906,8.4993935c-0.0550194,3.6912317,3.3067131,5.7401257,5.8209801,6.9698076
	c2.5714149,1.25875,3.4435005,2.0756636,3.4435005,3.1977396c-0.0252304,1.721693-2.074276,2.5135288-3.9895782,2.5135288
	c-2.6501427,0-4.0727119-0.4088364-6.2307281-1.3677025l-0.8757324-0.4073162l-0.9284706,5.7661152
	c1.5576859,0.7117405,4.426693,1.3409538,7.409214,1.3661823c6.9669418,0,11.5050278-3.4418259,11.5583725-8.771595
	C58.6859818,14.8413754,56.9092903,12.598094,53.0823364,10.7680559z"/>
<linearGradient id="SVGID_3_" gradientUnits="userSpaceOnUse" x1="58.1678696" y1="13.3101282" x2="82" y2="13.3101282">
	<stop  offset="0" style="stop-color:#271D64"/>
	<stop  offset="1" style="stop-color:#25449D"/>
</linearGradient>
<path class="st2" d="M76.6427231,0.4653544h-5.1382751c-1.5851898,0-2.787384,0.4652428-3.4702454,2.1305296l-9.866333,23.5590172
	h6.9699783c0,0,1.1473236-3.1702309,1.393692-3.852335h8.5275116c0.1914978,0.9009609,0.791832,3.852335,0.791832,3.852335H82
	L76.6427231,0.4653544z M68.4431915,17.0543919c0.5469894-1.4775667,2.6522675-7.1873159,2.6522675-7.1873159
	c-0.027504,0.0548859,0.5454712-1.5043163,0.8749771-2.4607506l0.4623337,2.2128849c0,0,1.2600937,6.1506348,1.5316925,7.4351816
	H68.4431915z"/>
<linearGradient id="SVGID_4_" gradientUnits="userSpaceOnUse" x1="0" y1="13.297513" x2="30.3677425" y2="13.297513">
	<stop  offset="0" style="stop-color:#271D64"/>
	<stop  offset="1" style="stop-color:#25449D"/>
</linearGradient>
<path class="st3" d="M23.3415279,0.4653544l-6.5046043,17.517374l-0.7102127-3.5532303L13.8031731,2.6218734
	c-0.3814793-1.63641-1.557682-2.1031525-3.0062399-2.1565189H0.107613L0,0.9854633
	c2.6275053,0.6716166,4.9409952,1.6699784,6.9955215,2.8773582l5.9060926,22.2668495h7.0233164l10.442812-25.6643162H23.3415279z"/>
</svg>
