<svg width="24" height="22" viewBox="0 0 24 22" fill="none" xmlns="http://www.w3.org/2000/svg">
<path d="M0.812915 18.6907L0.81414 18.6886L10.7763 1.41649C10.7765 1.41615 10.7767 1.41581 10.7769 1.41547C11.179 0.726606 11.6234 0.5 11.9619 0.5C12.3004 0.5 12.7449 0.726752 13.1472 1.41614C13.1473 1.41625 13.1473 1.41637 13.1474 1.41649L23.175 18.6898L23.1755 18.6907C23.5779 19.3806 23.5521 19.8736 23.3853 20.161C23.2176 20.4497 22.7976 20.7207 21.9899 20.7207H1.99845C1.22982 20.7207 0.802023 20.4535 0.624371 20.1558C0.450219 19.864 0.41552 19.3719 0.812915 18.6907Z" stroke="#ADB8C1"/>
<path d="M11.9623 14.8804C11.5741 14.8804 11.1859 14.5569 11.1859 14.104V6.85791C11.1859 6.46973 11.5094 6.08154 11.9623 6.08154C12.4152 6.08154 12.7387 6.40503 12.7387 6.85791V14.104C12.7387 14.5569 12.3505 14.8804 11.9623 14.8804Z" fill="#ADB8C1"/>
<path d="M12.9323 17.1448C12.9323 17.6624 12.4794 18.1152 11.9619 18.1152C11.4443 18.1152 10.9914 17.6624 10.9914 17.1448C10.9914 16.6272 11.4443 16.1743 11.9619 16.1743C12.4794 16.1743 12.9323 16.6272 12.9323 17.1448Z" fill="#ADB8C1"/>
</svg>
